%TF.GenerationSoftware,KiCad,Pcbnew,(6.0.10)*%
%TF.CreationDate,2023-06-11T22:06:00+03:00*%
%TF.ProjectId,flyback,666c7962-6163-46b2-9e6b-696361645f70,rev?*%
%TF.SameCoordinates,Original*%
%TF.FileFunction,Copper,L1,Top*%
%TF.FilePolarity,Positive*%
%FSLAX46Y46*%
G04 Gerber Fmt 4.6, Leading zero omitted, Abs format (unit mm)*
G04 Created by KiCad (PCBNEW (6.0.10)) date 2023-06-11 22:06:00*
%MOMM*%
%LPD*%
G01*
G04 APERTURE LIST*
G04 Aperture macros list*
%AMRoundRect*
0 Rectangle with rounded corners*
0 $1 Rounding radius*
0 $2 $3 $4 $5 $6 $7 $8 $9 X,Y pos of 4 corners*
0 Add a 4 corners polygon primitive as box body*
4,1,4,$2,$3,$4,$5,$6,$7,$8,$9,$2,$3,0*
0 Add four circle primitives for the rounded corners*
1,1,$1+$1,$2,$3*
1,1,$1+$1,$4,$5*
1,1,$1+$1,$6,$7*
1,1,$1+$1,$8,$9*
0 Add four rect primitives between the rounded corners*
20,1,$1+$1,$2,$3,$4,$5,0*
20,1,$1+$1,$4,$5,$6,$7,0*
20,1,$1+$1,$6,$7,$8,$9,0*
20,1,$1+$1,$8,$9,$2,$3,0*%
G04 Aperture macros list end*
%TA.AperFunction,SMDPad,CuDef*%
%ADD10R,1.600000X1.600000*%
%TD*%
%TA.AperFunction,ComponentPad*%
%ADD11O,2.000000X2.000000*%
%TD*%
%TA.AperFunction,ComponentPad*%
%ADD12C,2.000000*%
%TD*%
%TA.AperFunction,SMDPad,CuDef*%
%ADD13RoundRect,0.250000X-2.450000X0.650000X-2.450000X-0.650000X2.450000X-0.650000X2.450000X0.650000X0*%
%TD*%
%TA.AperFunction,SMDPad,CuDef*%
%ADD14RoundRect,0.250000X-0.325000X-0.650000X0.325000X-0.650000X0.325000X0.650000X-0.325000X0.650000X0*%
%TD*%
%TA.AperFunction,SMDPad,CuDef*%
%ADD15RoundRect,0.250000X-0.250000X-0.475000X0.250000X-0.475000X0.250000X0.475000X-0.250000X0.475000X0*%
%TD*%
%TA.AperFunction,SMDPad,CuDef*%
%ADD16RoundRect,0.250000X-0.650000X0.325000X-0.650000X-0.325000X0.650000X-0.325000X0.650000X0.325000X0*%
%TD*%
%TA.AperFunction,SMDPad,CuDef*%
%ADD17RoundRect,0.250000X-0.450000X0.262500X-0.450000X-0.262500X0.450000X-0.262500X0.450000X0.262500X0*%
%TD*%
%TA.AperFunction,SMDPad,CuDef*%
%ADD18RoundRect,0.250000X0.475000X-0.250000X0.475000X0.250000X-0.475000X0.250000X-0.475000X-0.250000X0*%
%TD*%
%TA.AperFunction,SMDPad,CuDef*%
%ADD19RoundRect,0.250000X0.250000X0.475000X-0.250000X0.475000X-0.250000X-0.475000X0.250000X-0.475000X0*%
%TD*%
%TA.AperFunction,SMDPad,CuDef*%
%ADD20RoundRect,0.250000X-0.475000X0.250000X-0.475000X-0.250000X0.475000X-0.250000X0.475000X0.250000X0*%
%TD*%
%TA.AperFunction,SMDPad,CuDef*%
%ADD21RoundRect,0.250000X0.325000X0.650000X-0.325000X0.650000X-0.325000X-0.650000X0.325000X-0.650000X0*%
%TD*%
%TA.AperFunction,SMDPad,CuDef*%
%ADD22RoundRect,0.250000X0.262500X0.450000X-0.262500X0.450000X-0.262500X-0.450000X0.262500X-0.450000X0*%
%TD*%
%TA.AperFunction,SMDPad,CuDef*%
%ADD23RoundRect,0.150000X-0.825000X-0.150000X0.825000X-0.150000X0.825000X0.150000X-0.825000X0.150000X0*%
%TD*%
%TA.AperFunction,SMDPad,CuDef*%
%ADD24RoundRect,0.250000X2.450000X-0.650000X2.450000X0.650000X-2.450000X0.650000X-2.450000X-0.650000X0*%
%TD*%
%TA.AperFunction,SMDPad,CuDef*%
%ADD25RoundRect,0.250000X-1.425000X0.362500X-1.425000X-0.362500X1.425000X-0.362500X1.425000X0.362500X0*%
%TD*%
%TA.AperFunction,SMDPad,CuDef*%
%ADD26R,0.900000X1.200000*%
%TD*%
%TA.AperFunction,SMDPad,CuDef*%
%ADD27RoundRect,0.250000X0.450000X-0.262500X0.450000X0.262500X-0.450000X0.262500X-0.450000X-0.262500X0*%
%TD*%
%TA.AperFunction,SMDPad,CuDef*%
%ADD28RoundRect,0.250000X-0.262500X-0.450000X0.262500X-0.450000X0.262500X0.450000X-0.262500X0.450000X0*%
%TD*%
%TA.AperFunction,ComponentPad*%
%ADD29R,2.200000X2.200000*%
%TD*%
%TA.AperFunction,ComponentPad*%
%ADD30O,2.200000X2.200000*%
%TD*%
%TA.AperFunction,SMDPad,CuDef*%
%ADD31RoundRect,0.150000X-0.587500X-0.150000X0.587500X-0.150000X0.587500X0.150000X-0.587500X0.150000X0*%
%TD*%
%TA.AperFunction,SMDPad,CuDef*%
%ADD32R,2.200000X1.200000*%
%TD*%
%TA.AperFunction,SMDPad,CuDef*%
%ADD33R,6.400000X5.800000*%
%TD*%
%TA.AperFunction,ComponentPad*%
%ADD34R,2.000000X2.000000*%
%TD*%
%TA.AperFunction,ViaPad*%
%ADD35C,0.800000*%
%TD*%
%TA.AperFunction,Conductor*%
%ADD36C,0.250000*%
%TD*%
%TA.AperFunction,Conductor*%
%ADD37C,0.500000*%
%TD*%
%TA.AperFunction,Conductor*%
%ADD38C,1.000000*%
%TD*%
G04 APERTURE END LIST*
D10*
%TO.P,U2,1*%
%TO.N,Net-(R13-Pad2)*%
X171323000Y-119227600D03*
%TO.P,U2,2*%
%TO.N,Net-(R14-Pad1)*%
X171323000Y-116687600D03*
%TO.P,U2,3,NC*%
%TO.N,unconnected-(U2-Pad3)*%
X171323000Y-114147600D03*
%TO.P,U2,4*%
%TO.N,/Vfb*%
X163703000Y-114147600D03*
%TO.P,U2,5*%
%TO.N,/Vref*%
X163703000Y-116687600D03*
%TO.P,U2,6*%
%TO.N,unconnected-(U2-Pad6)*%
X163703000Y-119227600D03*
%TD*%
D11*
%TO.P,T1,12,SA*%
%TO.N,GND2*%
X188229800Y-96186000D03*
D12*
%TO.P,T1,11*%
%TO.N,N/C*%
X188229800Y-91186000D03*
%TO.P,T1,10*%
X188229800Y-86186000D03*
%TO.P,T1,9*%
X188229800Y-81186000D03*
%TO.P,T1,8*%
X188229800Y-76186000D03*
%TO.P,T1,7,SB*%
%TO.N,Net-(D2-Pad2)*%
X188229800Y-71186000D03*
%TO.P,T1,6,AA*%
%TO.N,/Vin*%
X155629800Y-71186000D03*
%TO.P,T1,5*%
%TO.N,N/C*%
X155629800Y-76186000D03*
%TO.P,T1,4*%
X155629800Y-81186000D03*
%TO.P,T1,3*%
X155629800Y-86186000D03*
%TO.P,T1,2*%
X155629800Y-91186000D03*
D11*
%TO.P,T1,1,AB*%
%TO.N,Net-(D1-Pad2)*%
X155629800Y-96186000D03*
%TD*%
D13*
%TO.P,C13,1*%
%TO.N,GND2*%
X220853000Y-65395000D03*
%TO.P,C13,2*%
%TO.N,/Vout*%
X220853000Y-70495000D03*
%TD*%
D14*
%TO.P,C12,1*%
%TO.N,Net-(C12-Pad1)*%
X198042000Y-71120000D03*
%TO.P,C12,2*%
%TO.N,/Vout*%
X200992000Y-71120000D03*
%TD*%
D15*
%TO.P,C3,1*%
%TO.N,Net-(C3-Pad1)*%
X110097250Y-95993000D03*
%TO.P,C3,2*%
%TO.N,GND1*%
X111997250Y-95993000D03*
%TD*%
D16*
%TO.P,C8,1*%
%TO.N,GND1*%
X118795800Y-70584800D03*
%TO.P,C8,2*%
%TO.N,/Vin*%
X118795800Y-73534800D03*
%TD*%
D17*
%TO.P,R6,1*%
%TO.N,Net-(R6-Pad1)*%
X131699000Y-89891500D03*
%TO.P,R6,2*%
%TO.N,Net-(Q1-Pad1)*%
X131699000Y-91716500D03*
%TD*%
%TO.P,R4,1*%
%TO.N,/Vin*%
X121691400Y-77421100D03*
%TO.P,R4,2*%
%TO.N,Net-(C10-Pad2)*%
X121691400Y-79246100D03*
%TD*%
D18*
%TO.P,C2,1*%
%TO.N,Net-(C2-Pad1)*%
X106459000Y-90339000D03*
%TO.P,C2,2*%
%TO.N,Net-(C2-Pad2)*%
X106459000Y-88439000D03*
%TD*%
D17*
%TO.P,R5,1*%
%TO.N,/Vin*%
X124129800Y-77421100D03*
%TO.P,R5,2*%
%TO.N,Net-(C10-Pad2)*%
X124129800Y-79246100D03*
%TD*%
D19*
%TO.P,C5,1*%
%TO.N,GND1*%
X120101400Y-89916000D03*
%TO.P,C5,2*%
%TO.N,/Vin*%
X118201400Y-89916000D03*
%TD*%
D20*
%TO.P,C4,1*%
%TO.N,GND1*%
X115773200Y-71643200D03*
%TO.P,C4,2*%
%TO.N,/Vin*%
X115773200Y-73543200D03*
%TD*%
D21*
%TO.P,C7,1*%
%TO.N,GND1*%
X120499400Y-86385400D03*
%TO.P,C7,2*%
%TO.N,/Vin*%
X117549400Y-86385400D03*
%TD*%
D20*
%TO.P,C19,1*%
%TO.N,GND2*%
X212877400Y-68036400D03*
%TO.P,C19,2*%
%TO.N,/Vout*%
X212877400Y-69936400D03*
%TD*%
%TO.P,C10,1*%
%TO.N,/Vin*%
X119608600Y-77358200D03*
%TO.P,C10,2*%
%TO.N,Net-(C10-Pad2)*%
X119608600Y-79258200D03*
%TD*%
D22*
%TO.P,R16,1*%
%TO.N,Net-(D3-Pad1)*%
X195120900Y-111912400D03*
%TO.P,R16,2*%
%TO.N,Net-(R14-Pad1)*%
X193295900Y-111912400D03*
%TD*%
D23*
%TO.P,U1,1,COMP*%
%TO.N,Net-(C2-Pad2)*%
X110072400Y-89789000D03*
%TO.P,U1,2,FB*%
%TO.N,Net-(C2-Pad1)*%
X110072400Y-91059000D03*
%TO.P,U1,3,CS*%
%TO.N,Net-(C9-Pad2)*%
X110072400Y-92329000D03*
%TO.P,U1,4,RC*%
%TO.N,Net-(C3-Pad1)*%
X110072400Y-93599000D03*
%TO.P,U1,5,GND*%
%TO.N,GND1*%
X115022400Y-93599000D03*
%TO.P,U1,6,OUT*%
%TO.N,Net-(R6-Pad1)*%
X115022400Y-92329000D03*
%TO.P,U1,7,VCC*%
%TO.N,/Vin*%
X115022400Y-91059000D03*
%TO.P,U1,8,VREF*%
%TO.N,/Vref*%
X115022400Y-89789000D03*
%TD*%
D22*
%TO.P,R10,1*%
%TO.N,Net-(D1-Pad2)*%
X137859100Y-103124000D03*
%TO.P,R10,2*%
%TO.N,Net-(C11-Pad2)*%
X136034100Y-103124000D03*
%TD*%
D17*
%TO.P,R1,1*%
%TO.N,/Vfb*%
X101252000Y-88476500D03*
%TO.P,R1,2*%
%TO.N,Net-(C2-Pad1)*%
X101252000Y-90301500D03*
%TD*%
%TO.P,R19,1*%
%TO.N,Net-(R17-Pad2)*%
X205867000Y-116435500D03*
%TO.P,R19,2*%
%TO.N,GND2*%
X205867000Y-118260500D03*
%TD*%
D24*
%TO.P,C15,1*%
%TO.N,GND2*%
X211963000Y-80782000D03*
%TO.P,C15,2*%
%TO.N,/Vout*%
X211963000Y-75682000D03*
%TD*%
D22*
%TO.P,R13,1*%
%TO.N,/Vout*%
X184603400Y-119253000D03*
%TO.P,R13,2*%
%TO.N,Net-(R13-Pad2)*%
X182778400Y-119253000D03*
%TD*%
D25*
%TO.P,R9,1*%
%TO.N,Net-(C11-Pad1)*%
X136880600Y-112328100D03*
%TO.P,R9,2*%
%TO.N,GND1*%
X136880600Y-118253100D03*
%TD*%
D26*
%TO.P,D3,1,K*%
%TO.N,Net-(D3-Pad1)*%
X197587600Y-108991400D03*
%TO.P,D3,2,A*%
%TO.N,GND2*%
X200887600Y-108991400D03*
%TD*%
D27*
%TO.P,R11,1*%
%TO.N,/Vfb*%
X160578800Y-114171100D03*
%TO.P,R11,2*%
%TO.N,GNDA*%
X160578800Y-112346100D03*
%TD*%
D28*
%TO.P,R20,1*%
%TO.N,GND1*%
X125985900Y-94767400D03*
%TO.P,R20,2*%
%TO.N,Net-(Q1-Pad1)*%
X127810900Y-94767400D03*
%TD*%
D29*
%TO.P,D1,1,K*%
%TO.N,Net-(C10-Pad2)*%
X127733000Y-80626000D03*
D30*
%TO.P,D1,2,A*%
%TO.N,Net-(D1-Pad2)*%
X137893000Y-80626000D03*
%TD*%
D16*
%TO.P,C20,1*%
%TO.N,GND2*%
X207645000Y-67486000D03*
%TO.P,C20,2*%
%TO.N,/Vout*%
X207645000Y-70436000D03*
%TD*%
D28*
%TO.P,R15,1*%
%TO.N,/Vout*%
X193295900Y-108991400D03*
%TO.P,R15,2*%
%TO.N,Net-(D3-Pad1)*%
X195120900Y-108991400D03*
%TD*%
D31*
%TO.P,U3,1,K*%
%TO.N,Net-(R14-Pad1)*%
X193269000Y-116702800D03*
%TO.P,U3,2,REF*%
%TO.N,Net-(C14-Pad2)*%
X193269000Y-118602800D03*
%TO.P,U3,3,A*%
%TO.N,GND2*%
X195144000Y-117652800D03*
%TD*%
D15*
%TO.P,C14,1*%
%TO.N,Net-(C14-Pad1)*%
X197805000Y-114477800D03*
%TO.P,C14,2*%
%TO.N,Net-(C14-Pad2)*%
X199705000Y-114477800D03*
%TD*%
D28*
%TO.P,R12,1*%
%TO.N,Net-(D2-Pad2)*%
X193651500Y-71120000D03*
%TO.P,R12,2*%
%TO.N,Net-(C12-Pad1)*%
X195476500Y-71120000D03*
%TD*%
D25*
%TO.P,R8,1*%
%TO.N,Net-(C11-Pad1)*%
X123672600Y-112455100D03*
%TO.P,R8,2*%
%TO.N,GND1*%
X123672600Y-118380100D03*
%TD*%
D32*
%TO.P,Q1,1,G*%
%TO.N,Net-(Q1-Pad1)*%
X130623200Y-94773400D03*
D33*
%TO.P,Q1,2,D*%
%TO.N,Net-(D1-Pad2)*%
X136923200Y-97053400D03*
D32*
%TO.P,Q1,3,S*%
%TO.N,Net-(C11-Pad1)*%
X130623200Y-99333400D03*
%TD*%
D20*
%TO.P,C6,1*%
%TO.N,GND1*%
X122326400Y-71643200D03*
%TO.P,C6,2*%
%TO.N,/Vin*%
X122326400Y-73543200D03*
%TD*%
D28*
%TO.P,R17,1*%
%TO.N,Net-(C14-Pad2)*%
X201906500Y-114477800D03*
%TO.P,R17,2*%
%TO.N,Net-(R17-Pad2)*%
X203731500Y-114477800D03*
%TD*%
D17*
%TO.P,R18,1*%
%TO.N,/Vout*%
X205841600Y-112650900D03*
%TO.P,R18,2*%
%TO.N,Net-(R17-Pad2)*%
X205841600Y-114475900D03*
%TD*%
D24*
%TO.P,C17,1*%
%TO.N,GND2*%
X229870000Y-80782000D03*
%TO.P,C17,2*%
%TO.N,/Vout*%
X229870000Y-75682000D03*
%TD*%
D15*
%TO.P,C11,1*%
%TO.N,Net-(C11-Pad1)*%
X131079200Y-103200200D03*
%TO.P,C11,2*%
%TO.N,Net-(C11-Pad2)*%
X132979200Y-103200200D03*
%TD*%
D28*
%TO.P,R3,1*%
%TO.N,/Vref*%
X106451750Y-95993000D03*
%TO.P,R3,2*%
%TO.N,Net-(C3-Pad1)*%
X108276750Y-95993000D03*
%TD*%
D15*
%TO.P,C9,1*%
%TO.N,GND1*%
X104620000Y-92310000D03*
%TO.P,C9,2*%
%TO.N,Net-(C9-Pad2)*%
X106520000Y-92310000D03*
%TD*%
D13*
%TO.P,C16,1*%
%TO.N,GND2*%
X229870000Y-65268000D03*
%TO.P,C16,2*%
%TO.N,/Vout*%
X229870000Y-70368000D03*
%TD*%
D27*
%TO.P,R2,1*%
%TO.N,Net-(C2-Pad1)*%
X103792000Y-90301500D03*
%TO.P,R2,2*%
%TO.N,Net-(C2-Pad2)*%
X103792000Y-88476500D03*
%TD*%
D25*
%TO.P,R7,1*%
%TO.N,Net-(C11-Pad1)*%
X130759200Y-112353500D03*
%TO.P,R7,2*%
%TO.N,GND1*%
X130759200Y-118278500D03*
%TD*%
D28*
%TO.P,R14,1*%
%TO.N,Net-(R14-Pad1)*%
X193270500Y-114477800D03*
%TO.P,R14,2*%
%TO.N,Net-(C14-Pad1)*%
X195095500Y-114477800D03*
%TD*%
D24*
%TO.P,C18,1*%
%TO.N,GND2*%
X220853000Y-80782000D03*
%TO.P,C18,2*%
%TO.N,/Vout*%
X220853000Y-75682000D03*
%TD*%
D15*
%TO.P,C1,1*%
%TO.N,/Vref*%
X106459000Y-99041000D03*
%TO.P,C1,2*%
%TO.N,GND1*%
X108359000Y-99041000D03*
%TD*%
D34*
%TO.P,D2,1,K*%
%TO.N,/Vout*%
X201041000Y-76510000D03*
D11*
%TO.P,D2,2,A*%
%TO.N,Net-(D2-Pad2)*%
X195961000Y-76510000D03*
%TD*%
D35*
%TO.N,GND2*%
X202793600Y-118338600D03*
X197231000Y-117602000D03*
X200990200Y-111379000D03*
%TO.N,/Vfb*%
X101269800Y-84150200D03*
X152781000Y-114173000D03*
%TO.N,GND1*%
X118795800Y-67995800D03*
X103555800Y-94335600D03*
%TD*%
D36*
%TO.N,GND2*%
X202871700Y-118260500D02*
X202793600Y-118338600D01*
X205867000Y-118260500D02*
X202871700Y-118260500D01*
X197180200Y-117652800D02*
X197231000Y-117602000D01*
X195144000Y-117652800D02*
X197180200Y-117652800D01*
X200887600Y-111276400D02*
X200990200Y-111379000D01*
X200887600Y-108991400D02*
X200887600Y-111276400D01*
D37*
%TO.N,Net-(C9-Pad2)*%
X110072400Y-92329000D02*
X106539000Y-92329000D01*
%TO.N,/Vin*%
X117998200Y-90119200D02*
X118201400Y-89916000D01*
X117998200Y-90703400D02*
X117998200Y-90119200D01*
%TO.N,Net-(Q1-Pad1)*%
X127613700Y-94773400D02*
X127582300Y-94742000D01*
X130623200Y-94773400D02*
X127613700Y-94773400D01*
X131699000Y-93697600D02*
X130623200Y-94773400D01*
X131699000Y-91716500D02*
X131699000Y-93697600D01*
%TO.N,Net-(C11-Pad2)*%
X135983300Y-103174800D02*
X133004600Y-103174800D01*
X136034100Y-103124000D02*
X135983300Y-103174800D01*
X133004600Y-103174800D02*
X132979200Y-103200200D01*
%TO.N,/Vref*%
X109728000Y-110185200D02*
X109728000Y-119049800D01*
X106451400Y-99048600D02*
X106459000Y-99041000D01*
X106451400Y-100787200D02*
X106451400Y-99048600D01*
X111379000Y-120700800D02*
X152069800Y-120700800D01*
X107859600Y-108316800D02*
X109728000Y-110185200D01*
X107859600Y-102195400D02*
X106451400Y-100787200D01*
X107859600Y-102195400D02*
X107859600Y-108316800D01*
X109728000Y-119049800D02*
X111379000Y-120700800D01*
X152069800Y-120700800D02*
X156072600Y-116698000D01*
X156072600Y-116698000D02*
X163693000Y-116698000D01*
X100102000Y-83032000D02*
X100102000Y-94209200D01*
X106451750Y-95993000D02*
X106451750Y-99033750D01*
D36*
X106451750Y-99033750D02*
X106459000Y-99041000D01*
D37*
X115022400Y-87819000D02*
X109956600Y-82753200D01*
X101885800Y-95993000D02*
X106451750Y-95993000D01*
X100102000Y-94209200D02*
X101885800Y-95993000D01*
X115022400Y-89789000D02*
X115022400Y-87819000D01*
X109956600Y-82753200D02*
X100380800Y-82753200D01*
X100380800Y-82753200D02*
X100102000Y-83032000D01*
%TO.N,Net-(C2-Pad2)*%
X107424900Y-88476500D02*
X103792000Y-88476500D01*
X108737400Y-89789000D02*
X107424900Y-88476500D01*
X110072400Y-89789000D02*
X108737400Y-89789000D01*
%TO.N,Net-(C3-Pad1)*%
X110072400Y-95968150D02*
X110097250Y-95993000D01*
X110072400Y-93599000D02*
X110072400Y-95968150D01*
X108276750Y-95993000D02*
X110097250Y-95993000D01*
%TO.N,Net-(C9-Pad2)*%
X106539000Y-92329000D02*
X106520000Y-92310000D01*
D38*
%TO.N,Net-(C12-Pad1)*%
X198042000Y-71120000D02*
X195476500Y-71120000D01*
D37*
%TO.N,/Vout*%
X193295900Y-108991400D02*
X193295900Y-106576500D01*
X193295900Y-106576500D02*
X193295900Y-84732500D01*
X193295900Y-84732500D02*
X196392800Y-81635600D01*
X193295900Y-106576500D02*
X193295900Y-106170100D01*
X205841600Y-108458000D02*
X205841600Y-112650900D01*
X210464400Y-120345200D02*
X210464400Y-113131600D01*
X193295900Y-106170100D02*
X203553700Y-106170100D01*
X203553700Y-106170100D02*
X205841600Y-108458000D01*
X189738000Y-121462800D02*
X209346800Y-121462800D01*
X209346800Y-121462800D02*
X210464400Y-120345200D01*
X196392800Y-81635600D02*
X200609200Y-81635600D01*
X209983700Y-112650900D02*
X205841600Y-112650900D01*
X210464400Y-113131600D02*
X209983700Y-112650900D01*
X201041000Y-81203800D02*
X201041000Y-76510000D01*
X200609200Y-81635600D02*
X201041000Y-81203800D01*
X184603400Y-119253000D02*
X187528200Y-119253000D01*
X187528200Y-119253000D02*
X189738000Y-121462800D01*
%TO.N,Net-(C14-Pad1)*%
X195095500Y-114477800D02*
X197805000Y-114477800D01*
%TO.N,Net-(C14-Pad2)*%
X199705000Y-118988800D02*
X198780400Y-119913400D01*
X193929000Y-119913400D02*
X193269000Y-119253400D01*
X193269000Y-119253400D02*
X193269000Y-118602800D01*
X199705000Y-114477800D02*
X199705000Y-118988800D01*
X199705000Y-114477800D02*
X201906500Y-114477800D01*
X198780400Y-119913400D02*
X193929000Y-119913400D01*
%TO.N,Net-(D1-Pad2)*%
X137859100Y-103124000D02*
X137990000Y-102993100D01*
X137990000Y-102993100D02*
X137990000Y-96266000D01*
%TO.N,Net-(D3-Pad1)*%
X195120900Y-108991400D02*
X197587600Y-108991400D01*
X195120900Y-108991400D02*
X195120900Y-111912400D01*
%TO.N,/Vfb*%
X160578800Y-114171100D02*
X152732100Y-114171100D01*
X152779100Y-114171100D02*
X152781000Y-114173000D01*
X160591900Y-114158000D02*
X160578800Y-114171100D01*
X101252000Y-84168000D02*
X101269800Y-84150200D01*
X163693000Y-114158000D02*
X160591900Y-114158000D01*
X101252000Y-88476500D02*
X101252000Y-84168000D01*
X101243700Y-88468200D02*
X101252000Y-88476500D01*
X152732100Y-114171100D02*
X152779100Y-114171100D01*
%TO.N,Net-(R6-Pad1)*%
X124993400Y-92354400D02*
X127456300Y-89891500D01*
X115022400Y-92329000D02*
X115047800Y-92354400D01*
X127456300Y-89891500D02*
X131699000Y-89891500D01*
X115047800Y-92354400D02*
X124993400Y-92354400D01*
%TO.N,Net-(R13-Pad2)*%
X171313000Y-119238000D02*
X182763400Y-119238000D01*
X182763400Y-119238000D02*
X182778400Y-119253000D01*
%TO.N,Net-(R14-Pad1)*%
X191810600Y-116702800D02*
X193269000Y-116702800D01*
X171313000Y-116698000D02*
X191856600Y-116698000D01*
X193269000Y-114479300D02*
X193270500Y-114477800D01*
X193269000Y-116702800D02*
X193269000Y-114479300D01*
X193270500Y-111937800D02*
X193295900Y-111912400D01*
X193270500Y-114477800D02*
X193270500Y-111937800D01*
%TO.N,Net-(R17-Pad2)*%
X205867000Y-116435500D02*
X205867000Y-114501300D01*
X203731500Y-114477800D02*
X205839700Y-114477800D01*
X205839700Y-114477800D02*
X205841600Y-114475900D01*
X205867000Y-114501300D02*
X205841600Y-114475900D01*
%TO.N,Net-(C2-Pad1)*%
X107585600Y-90339000D02*
X108305600Y-91059000D01*
X106421500Y-90301500D02*
X106459000Y-90339000D01*
X106459000Y-90339000D02*
X107585600Y-90339000D01*
X101252000Y-90301500D02*
X106421500Y-90301500D01*
X108305600Y-91059000D02*
X110072400Y-91059000D01*
%TO.N,GND1*%
X104620000Y-92310000D02*
X104620000Y-93271400D01*
X114674600Y-95993000D02*
X115022400Y-95645200D01*
X104620000Y-93271400D02*
X103555800Y-94335600D01*
X115022400Y-95645200D02*
X115022400Y-93599000D01*
X111997250Y-95993000D02*
X114674600Y-95993000D01*
D36*
X118795800Y-70584800D02*
X118795800Y-67995800D01*
D37*
%TO.N,/Vin*%
X115022400Y-91059000D02*
X117642600Y-91059000D01*
X118006600Y-90695000D02*
X117998200Y-90703400D01*
X115022400Y-91059000D02*
X115047800Y-91033600D01*
X117642600Y-91059000D02*
X117998200Y-90703400D01*
%TD*%
%TA.AperFunction,Conductor*%
%TO.N,GND1*%
G36*
X157847166Y-55823802D02*
G01*
X157873188Y-55846056D01*
X161690073Y-60136933D01*
X161720404Y-60201125D01*
X161721930Y-60220334D01*
X161747200Y-69494400D01*
X161747200Y-108178600D01*
X161754837Y-108186494D01*
X164735239Y-111267078D01*
X164768229Y-111329944D01*
X164770664Y-111352498D01*
X164775469Y-111628785D01*
X164792955Y-112634230D01*
X164774142Y-112702685D01*
X164721302Y-112750104D01*
X164650529Y-112761340D01*
X164546448Y-112747638D01*
X164546447Y-112747638D01*
X164542361Y-112747100D01*
X163703102Y-112747100D01*
X162863640Y-112747101D01*
X162859556Y-112747639D01*
X162859550Y-112747639D01*
X162754425Y-112761478D01*
X162754423Y-112761478D01*
X162746238Y-112762556D01*
X162600159Y-112823064D01*
X162474718Y-112919318D01*
X162378464Y-113044759D01*
X162317956Y-113190838D01*
X162316878Y-113199026D01*
X162314741Y-113207002D01*
X162313198Y-113206589D01*
X162288295Y-113262876D01*
X162229029Y-113301966D01*
X162192098Y-113307500D01*
X161821176Y-113307500D01*
X161753055Y-113287498D01*
X161706562Y-113233842D01*
X161696458Y-113163568D01*
X161722979Y-113102550D01*
X161749531Y-113069526D01*
X161820846Y-112925864D01*
X161828662Y-112910119D01*
X161828664Y-112910115D01*
X161831695Y-112904008D01*
X161852665Y-112819904D01*
X161875055Y-112730103D01*
X161875056Y-112730099D01*
X161876400Y-112724707D01*
X161879300Y-112682166D01*
X161879300Y-112010034D01*
X161876400Y-111967493D01*
X161831695Y-111788192D01*
X161828664Y-111782085D01*
X161828662Y-111782081D01*
X161782083Y-111688249D01*
X161749531Y-111622674D01*
X161633740Y-111478660D01*
X161489726Y-111362869D01*
X161406967Y-111321787D01*
X161330319Y-111283738D01*
X161330315Y-111283736D01*
X161324208Y-111280705D01*
X161295197Y-111273472D01*
X161150303Y-111237345D01*
X161150299Y-111237344D01*
X161144907Y-111236000D01*
X161128094Y-111234854D01*
X161104514Y-111233246D01*
X161104501Y-111233246D01*
X161102366Y-111233100D01*
X160055234Y-111233100D01*
X160053099Y-111233246D01*
X160053086Y-111233246D01*
X160029506Y-111234854D01*
X160012693Y-111236000D01*
X160007301Y-111237344D01*
X160007297Y-111237345D01*
X159862403Y-111273472D01*
X159833392Y-111280705D01*
X159827285Y-111283736D01*
X159827281Y-111283738D01*
X159750633Y-111321787D01*
X159667874Y-111362869D01*
X159523860Y-111478660D01*
X159408069Y-111622674D01*
X159375517Y-111688249D01*
X159328938Y-111782081D01*
X159328936Y-111782085D01*
X159325905Y-111788192D01*
X159281200Y-111967493D01*
X159278300Y-112010034D01*
X159278300Y-112682166D01*
X159281200Y-112724707D01*
X159282544Y-112730099D01*
X159282545Y-112730103D01*
X159304935Y-112819904D01*
X159325905Y-112904008D01*
X159328936Y-112910115D01*
X159328938Y-112910119D01*
X159336754Y-112925864D01*
X159408069Y-113069526D01*
X159445154Y-113115650D01*
X159472249Y-113181270D01*
X159459566Y-113251125D01*
X159411130Y-113303033D01*
X159346956Y-113320600D01*
X153340045Y-113320600D01*
X153280116Y-113305436D01*
X153176004Y-113249143D01*
X153170585Y-113246213D01*
X153065035Y-113213540D01*
X152989039Y-113190015D01*
X152989036Y-113190014D01*
X152983152Y-113188193D01*
X152977027Y-113187549D01*
X152977026Y-113187549D01*
X152794147Y-113168327D01*
X152794146Y-113168327D01*
X152788019Y-113167683D01*
X152665383Y-113178844D01*
X152598759Y-113184907D01*
X152598758Y-113184907D01*
X152592618Y-113185466D01*
X152586704Y-113187207D01*
X152586702Y-113187207D01*
X152519445Y-113207002D01*
X152404393Y-113240864D01*
X152398928Y-113243721D01*
X152235972Y-113328912D01*
X152235968Y-113328915D01*
X152230512Y-113331767D01*
X152077600Y-113454711D01*
X151951480Y-113605016D01*
X151948516Y-113610408D01*
X151948513Y-113610412D01*
X151915519Y-113670428D01*
X151856956Y-113776954D01*
X151797628Y-113963978D01*
X151775757Y-114158963D01*
X151792175Y-114354483D01*
X151846258Y-114543091D01*
X151863436Y-114576515D01*
X151933123Y-114712113D01*
X151933126Y-114712117D01*
X151935944Y-114717601D01*
X152057818Y-114871369D01*
X152062511Y-114875363D01*
X152062512Y-114875364D01*
X152193639Y-114986961D01*
X152207238Y-114998535D01*
X152212616Y-115001541D01*
X152212618Y-115001542D01*
X152248508Y-115021600D01*
X152378513Y-115094257D01*
X152565118Y-115154889D01*
X152759946Y-115178121D01*
X152766081Y-115177649D01*
X152766083Y-115177649D01*
X152949434Y-115163541D01*
X152949438Y-115163540D01*
X152955576Y-115163068D01*
X153144556Y-115110303D01*
X153293366Y-115035134D01*
X153350176Y-115021600D01*
X159458420Y-115021600D01*
X159526541Y-115041602D01*
X159537372Y-115049404D01*
X159667874Y-115154331D01*
X159714848Y-115177649D01*
X159827281Y-115233462D01*
X159827285Y-115233464D01*
X159833392Y-115236495D01*
X159840014Y-115238146D01*
X160007297Y-115279855D01*
X160007301Y-115279856D01*
X160012693Y-115281200D01*
X160029506Y-115282346D01*
X160053086Y-115283954D01*
X160053099Y-115283954D01*
X160055234Y-115284100D01*
X161102366Y-115284100D01*
X161104501Y-115283954D01*
X161104514Y-115283954D01*
X161128094Y-115282346D01*
X161144907Y-115281200D01*
X161150299Y-115279856D01*
X161150303Y-115279855D01*
X161317586Y-115238146D01*
X161324208Y-115236495D01*
X161330315Y-115233464D01*
X161330319Y-115233462D01*
X161442752Y-115177649D01*
X161489726Y-115154331D01*
X161633740Y-115038540D01*
X161635163Y-115040310D01*
X161688145Y-115011379D01*
X161714928Y-115008500D01*
X162196703Y-115008500D01*
X162264824Y-115028502D01*
X162311317Y-115082158D01*
X162317180Y-115098468D01*
X162317956Y-115104362D01*
X162378464Y-115250441D01*
X162383491Y-115256992D01*
X162447872Y-115340896D01*
X162473472Y-115407117D01*
X162459207Y-115476666D01*
X162447872Y-115494304D01*
X162378464Y-115584759D01*
X162317956Y-115730838D01*
X162316878Y-115739026D01*
X162314741Y-115747002D01*
X162313198Y-115746589D01*
X162288295Y-115802876D01*
X162229029Y-115841966D01*
X162192098Y-115847500D01*
X156113662Y-115847500D01*
X156103121Y-115847058D01*
X156051698Y-115842740D01*
X156044938Y-115843642D01*
X156044934Y-115843642D01*
X155971941Y-115853381D01*
X155968887Y-115853751D01*
X155895672Y-115861705D01*
X155895669Y-115861706D01*
X155888891Y-115862442D01*
X155882431Y-115864616D01*
X155879383Y-115865286D01*
X155878922Y-115865367D01*
X155878771Y-115865403D01*
X155878312Y-115865536D01*
X155875293Y-115866278D01*
X155868531Y-115867180D01*
X155862121Y-115869513D01*
X155862117Y-115869514D01*
X155792929Y-115894697D01*
X155790023Y-115895715D01*
X155720223Y-115919205D01*
X155720221Y-115919206D01*
X155713752Y-115921383D01*
X155707898Y-115924900D01*
X155705086Y-115926200D01*
X155704643Y-115926382D01*
X155704484Y-115926458D01*
X155704066Y-115926686D01*
X155701297Y-115928049D01*
X155694885Y-115930382D01*
X155689127Y-115934036D01*
X155689121Y-115934039D01*
X155626956Y-115973490D01*
X155624337Y-115975108D01*
X155561207Y-116013041D01*
X155561205Y-116013042D01*
X155555356Y-116016557D01*
X155550397Y-116021246D01*
X155547918Y-116023128D01*
X155547141Y-116023668D01*
X155543231Y-116026625D01*
X155538862Y-116029398D01*
X155534628Y-116033183D01*
X155481122Y-116086689D01*
X155478600Y-116089142D01*
X155421093Y-116143524D01*
X155417259Y-116149166D01*
X155412833Y-116154366D01*
X155412429Y-116154022D01*
X155405893Y-116161918D01*
X153568494Y-117999318D01*
X151754417Y-119813395D01*
X151692105Y-119847421D01*
X151665322Y-119850300D01*
X111783479Y-119850300D01*
X111715358Y-119830298D01*
X111694384Y-119813395D01*
X110615405Y-118734417D01*
X110581380Y-118672105D01*
X110578500Y-118645322D01*
X110578500Y-110226262D01*
X110578942Y-110215718D01*
X110582689Y-110171095D01*
X110583260Y-110164298D01*
X110581270Y-110149380D01*
X110572619Y-110084541D01*
X110572249Y-110081487D01*
X110564295Y-110008272D01*
X110564294Y-110008269D01*
X110563558Y-110001491D01*
X110561384Y-109995031D01*
X110560714Y-109991983D01*
X110560633Y-109991522D01*
X110560597Y-109991371D01*
X110560464Y-109990912D01*
X110559722Y-109987893D01*
X110558820Y-109981131D01*
X110556487Y-109974721D01*
X110556486Y-109974717D01*
X110531303Y-109905529D01*
X110530285Y-109902623D01*
X110506795Y-109832823D01*
X110506794Y-109832821D01*
X110504617Y-109826352D01*
X110501100Y-109820498D01*
X110499800Y-109817686D01*
X110499618Y-109817243D01*
X110499542Y-109817084D01*
X110499314Y-109816666D01*
X110497951Y-109813897D01*
X110495618Y-109807485D01*
X110491964Y-109801727D01*
X110491961Y-109801721D01*
X110452510Y-109739556D01*
X110450892Y-109736937D01*
X110412959Y-109673807D01*
X110412958Y-109673805D01*
X110409443Y-109667956D01*
X110404754Y-109662997D01*
X110402872Y-109660518D01*
X110402332Y-109659741D01*
X110399375Y-109655831D01*
X110396602Y-109651462D01*
X110392817Y-109647228D01*
X110339311Y-109593722D01*
X110336858Y-109591200D01*
X110287165Y-109538651D01*
X110287163Y-109538649D01*
X110282476Y-109533693D01*
X110276834Y-109529859D01*
X110271634Y-109525433D01*
X110271978Y-109525029D01*
X110264082Y-109518493D01*
X108747005Y-108001417D01*
X108712980Y-107939105D01*
X108710100Y-107912322D01*
X108710100Y-102236462D01*
X108710542Y-102225918D01*
X108714289Y-102181295D01*
X108714860Y-102174498D01*
X108708333Y-102125577D01*
X108704219Y-102094741D01*
X108703849Y-102091687D01*
X108695895Y-102018472D01*
X108695894Y-102018469D01*
X108695158Y-102011691D01*
X108692984Y-102005231D01*
X108692314Y-102002183D01*
X108692233Y-102001722D01*
X108692197Y-102001571D01*
X108692064Y-102001112D01*
X108691322Y-101998093D01*
X108690420Y-101991331D01*
X108688087Y-101984921D01*
X108688086Y-101984917D01*
X108662903Y-101915729D01*
X108661885Y-101912823D01*
X108638395Y-101843023D01*
X108638394Y-101843021D01*
X108636217Y-101836552D01*
X108632700Y-101830698D01*
X108631400Y-101827886D01*
X108631218Y-101827443D01*
X108631142Y-101827284D01*
X108630914Y-101826866D01*
X108629551Y-101824097D01*
X108627218Y-101817685D01*
X108623564Y-101811927D01*
X108623561Y-101811921D01*
X108584110Y-101749756D01*
X108582492Y-101747137D01*
X108544559Y-101684007D01*
X108544558Y-101684005D01*
X108541043Y-101678156D01*
X108536354Y-101673197D01*
X108534472Y-101670718D01*
X108533935Y-101669946D01*
X108530978Y-101666036D01*
X108528202Y-101661662D01*
X108524417Y-101657429D01*
X108470928Y-101603940D01*
X108468475Y-101601418D01*
X108418765Y-101548851D01*
X108418763Y-101548849D01*
X108414076Y-101543893D01*
X108408435Y-101540059D01*
X108403234Y-101535633D01*
X108403578Y-101535228D01*
X108395679Y-101528691D01*
X107338805Y-100471817D01*
X107304779Y-100409505D01*
X107301900Y-100382722D01*
X107301900Y-100180286D01*
X107321902Y-100112165D01*
X107329704Y-100101334D01*
X107425454Y-99982246D01*
X107425456Y-99982243D01*
X107429731Y-99976926D01*
X107496526Y-99842369D01*
X107544730Y-99790247D01*
X107607774Y-99772404D01*
X107695589Y-99771282D01*
X107694876Y-98444497D01*
X107694350Y-97464546D01*
X107714315Y-97396414D01*
X107767946Y-97349892D01*
X107820138Y-97338478D01*
X110895785Y-97333328D01*
X110897118Y-97176520D01*
X110917698Y-97108573D01*
X110944163Y-97079394D01*
X110946871Y-97077217D01*
X110946873Y-97077215D01*
X110952190Y-97072940D01*
X111067981Y-96928926D01*
X111111681Y-96840893D01*
X111147112Y-96769519D01*
X111147114Y-96769515D01*
X111150145Y-96763408D01*
X111194850Y-96584107D01*
X111197750Y-96541566D01*
X111197750Y-95444434D01*
X111194850Y-95401893D01*
X111177800Y-95333507D01*
X111151796Y-95229214D01*
X111150145Y-95222592D01*
X111147114Y-95216485D01*
X111147112Y-95216481D01*
X111077749Y-95076752D01*
X111067981Y-95057074D01*
X110952190Y-94913060D01*
X110954197Y-94911447D01*
X110925779Y-94859405D01*
X110922900Y-94832622D01*
X110922900Y-94615631D01*
X110942902Y-94547510D01*
X110996558Y-94501017D01*
X111035893Y-94490304D01*
X111037569Y-94490130D01*
X111051919Y-94488641D01*
X111058455Y-94486460D01*
X111058457Y-94486460D01*
X111186696Y-94443676D01*
X111226572Y-94437200D01*
X116281200Y-94437200D01*
X116281065Y-94408112D01*
X116300751Y-94339900D01*
X116354190Y-94293159D01*
X116407603Y-94281529D01*
X117170200Y-94284800D01*
X117170200Y-93330900D01*
X117190202Y-93262779D01*
X117243858Y-93216286D01*
X117296200Y-93204900D01*
X124952338Y-93204900D01*
X124962879Y-93205342D01*
X125014302Y-93209660D01*
X125021062Y-93208758D01*
X125021066Y-93208758D01*
X125094059Y-93199019D01*
X125097113Y-93198649D01*
X125170328Y-93190695D01*
X125170331Y-93190694D01*
X125177109Y-93189958D01*
X125183569Y-93187784D01*
X125186617Y-93187114D01*
X125187078Y-93187033D01*
X125187229Y-93186997D01*
X125187688Y-93186864D01*
X125190707Y-93186122D01*
X125197469Y-93185220D01*
X125203879Y-93182887D01*
X125203883Y-93182886D01*
X125273071Y-93157703D01*
X125275977Y-93156685D01*
X125345777Y-93133195D01*
X125345779Y-93133194D01*
X125352248Y-93131017D01*
X125358102Y-93127500D01*
X125360914Y-93126200D01*
X125361357Y-93126018D01*
X125361516Y-93125942D01*
X125361934Y-93125714D01*
X125364703Y-93124351D01*
X125371115Y-93122018D01*
X125376873Y-93118364D01*
X125376879Y-93118361D01*
X125439044Y-93078910D01*
X125441663Y-93077292D01*
X125504793Y-93039359D01*
X125504795Y-93039358D01*
X125510644Y-93035843D01*
X125515603Y-93031154D01*
X125518082Y-93029272D01*
X125518859Y-93028732D01*
X125522769Y-93025775D01*
X125527138Y-93023002D01*
X125531372Y-93019217D01*
X125584878Y-92965711D01*
X125587400Y-92963258D01*
X125639949Y-92913565D01*
X125639951Y-92913563D01*
X125644907Y-92908876D01*
X125648741Y-92903234D01*
X125653167Y-92898034D01*
X125653571Y-92898378D01*
X125660107Y-92890482D01*
X127771683Y-90778905D01*
X127833995Y-90744880D01*
X127860778Y-90742000D01*
X130467156Y-90742000D01*
X130535277Y-90762002D01*
X130581770Y-90815658D01*
X130591874Y-90885932D01*
X130565354Y-90946950D01*
X130528269Y-90993074D01*
X130487187Y-91075833D01*
X130449138Y-91152481D01*
X130449136Y-91152485D01*
X130446105Y-91158592D01*
X130440816Y-91179804D01*
X130408422Y-91309731D01*
X130401400Y-91337893D01*
X130401022Y-91343441D01*
X130398673Y-91377900D01*
X130398500Y-91380434D01*
X130398500Y-92052566D01*
X130401400Y-92095107D01*
X130402744Y-92100499D01*
X130402745Y-92100503D01*
X130438872Y-92245397D01*
X130446105Y-92274408D01*
X130449136Y-92280515D01*
X130449138Y-92280519D01*
X130487187Y-92357167D01*
X130528269Y-92439926D01*
X130644060Y-92583940D01*
X130788074Y-92699731D01*
X130791221Y-92701293D01*
X130836998Y-92753889D01*
X130848500Y-92806483D01*
X130848500Y-93293120D01*
X130828498Y-93361241D01*
X130811596Y-93382215D01*
X130657816Y-93535996D01*
X130595504Y-93570021D01*
X130568720Y-93572901D01*
X129483840Y-93572901D01*
X129479756Y-93573439D01*
X129479750Y-93573439D01*
X129374625Y-93587278D01*
X129374623Y-93587278D01*
X129366438Y-93588356D01*
X129220359Y-93648864D01*
X129094918Y-93745118D01*
X129013556Y-93851152D01*
X129000885Y-93867665D01*
X128943547Y-93909532D01*
X128872676Y-93913754D01*
X128810773Y-93878990D01*
X128796202Y-93860645D01*
X128794131Y-93856474D01*
X128678340Y-93712460D01*
X128534326Y-93596669D01*
X128434567Y-93547148D01*
X128374919Y-93517538D01*
X128374915Y-93517536D01*
X128368808Y-93514505D01*
X128271732Y-93490301D01*
X128194903Y-93471145D01*
X128194899Y-93471144D01*
X128189507Y-93469800D01*
X128172694Y-93468654D01*
X128149114Y-93467046D01*
X128149101Y-93467046D01*
X128146966Y-93466900D01*
X127474834Y-93466900D01*
X127472699Y-93467046D01*
X127472686Y-93467046D01*
X127449106Y-93468654D01*
X127432293Y-93469800D01*
X127426901Y-93471144D01*
X127426897Y-93471145D01*
X127350068Y-93490301D01*
X127252992Y-93514505D01*
X127246885Y-93517536D01*
X127246881Y-93517538D01*
X127187233Y-93547148D01*
X127087474Y-93596669D01*
X126943460Y-93712460D01*
X126827669Y-93856474D01*
X126809132Y-93893817D01*
X126748538Y-94015881D01*
X126748536Y-94015885D01*
X126745505Y-94021992D01*
X126743854Y-94028614D01*
X126706438Y-94178682D01*
X126700800Y-94201293D01*
X126697900Y-94243834D01*
X126697900Y-95290966D01*
X126700800Y-95333507D01*
X126702144Y-95338899D01*
X126702145Y-95338903D01*
X126720560Y-95412761D01*
X126745505Y-95512808D01*
X126748536Y-95518915D01*
X126748538Y-95518919D01*
X126786587Y-95595567D01*
X126827669Y-95678326D01*
X126943460Y-95822340D01*
X127087474Y-95938131D01*
X127130566Y-95959522D01*
X127246881Y-96017262D01*
X127246885Y-96017264D01*
X127252992Y-96020295D01*
X127259614Y-96021946D01*
X127426897Y-96063655D01*
X127426901Y-96063656D01*
X127432293Y-96065000D01*
X127449106Y-96066146D01*
X127472686Y-96067754D01*
X127472699Y-96067754D01*
X127474834Y-96067900D01*
X128146966Y-96067900D01*
X128149101Y-96067754D01*
X128149114Y-96067754D01*
X128172694Y-96066146D01*
X128189507Y-96065000D01*
X128194899Y-96063656D01*
X128194903Y-96063655D01*
X128362186Y-96021946D01*
X128368808Y-96020295D01*
X128374915Y-96017264D01*
X128374919Y-96017262D01*
X128491234Y-95959522D01*
X128534326Y-95938131D01*
X128678340Y-95822340D01*
X128794131Y-95678326D01*
X128794674Y-95678763D01*
X128844399Y-95635485D01*
X128914650Y-95625227D01*
X128979295Y-95654579D01*
X128997780Y-95676919D01*
X128998664Y-95676241D01*
X129094918Y-95801682D01*
X129220359Y-95897936D01*
X129366438Y-95958444D01*
X129374626Y-95959522D01*
X129479745Y-95973361D01*
X129483839Y-95973900D01*
X130623061Y-95973900D01*
X131762560Y-95973899D01*
X131766644Y-95973361D01*
X131766650Y-95973361D01*
X131871775Y-95959522D01*
X131871777Y-95959522D01*
X131879962Y-95958444D01*
X132026041Y-95897936D01*
X132151482Y-95801682D01*
X132247736Y-95676241D01*
X132308244Y-95530162D01*
X132310529Y-95512808D01*
X132323162Y-95416848D01*
X132323162Y-95416847D01*
X132323700Y-95412761D01*
X132323699Y-94323481D01*
X132343701Y-94255360D01*
X132349603Y-94246952D01*
X132367418Y-94223651D01*
X132369318Y-94221227D01*
X132415454Y-94163847D01*
X132415456Y-94163844D01*
X132419731Y-94158527D01*
X132422768Y-94152410D01*
X132424438Y-94149798D01*
X132424714Y-94149404D01*
X132424791Y-94149280D01*
X132425023Y-94148858D01*
X132426630Y-94146205D01*
X132430777Y-94140780D01*
X132464779Y-94067862D01*
X132466110Y-94065095D01*
X132498861Y-93999120D01*
X132498863Y-93999116D01*
X132501895Y-93993007D01*
X132503547Y-93986382D01*
X132504615Y-93983479D01*
X132504803Y-93983027D01*
X132504851Y-93982892D01*
X132504986Y-93982433D01*
X132505987Y-93979492D01*
X132508873Y-93973303D01*
X132526427Y-93894769D01*
X132527136Y-93891772D01*
X132544949Y-93820328D01*
X132544949Y-93820327D01*
X132546600Y-93813706D01*
X132546790Y-93806886D01*
X132547212Y-93803808D01*
X132547377Y-93802891D01*
X132548054Y-93798015D01*
X132549183Y-93792963D01*
X132549500Y-93787293D01*
X132549500Y-93711636D01*
X132549549Y-93708118D01*
X132550296Y-93681361D01*
X132551759Y-93628989D01*
X132550480Y-93622283D01*
X132549933Y-93615486D01*
X132550462Y-93615443D01*
X132549500Y-93605237D01*
X132549500Y-92806483D01*
X132569502Y-92738362D01*
X132606528Y-92701418D01*
X132609926Y-92699731D01*
X132753940Y-92583940D01*
X132869731Y-92439926D01*
X132910813Y-92357167D01*
X132948862Y-92280519D01*
X132948864Y-92280515D01*
X132951895Y-92274408D01*
X132959128Y-92245397D01*
X132995255Y-92100503D01*
X132995256Y-92100499D01*
X132996600Y-92095107D01*
X132999500Y-92052566D01*
X132999500Y-91380434D01*
X132999328Y-91377900D01*
X132996978Y-91343441D01*
X132996600Y-91337893D01*
X132989579Y-91309731D01*
X132957184Y-91179804D01*
X132951895Y-91158592D01*
X132948864Y-91152485D01*
X132948862Y-91152481D01*
X132910813Y-91075833D01*
X132869731Y-90993074D01*
X132781190Y-90882952D01*
X132754093Y-90817330D01*
X132766776Y-90747476D01*
X132781190Y-90725048D01*
X132809459Y-90689889D01*
X132869731Y-90614926D01*
X132945786Y-90461715D01*
X132948862Y-90455519D01*
X132948864Y-90455515D01*
X132951895Y-90449408D01*
X132996600Y-90270107D01*
X132998493Y-90242341D01*
X132999354Y-90229714D01*
X132999354Y-90229701D01*
X132999500Y-90227566D01*
X132999500Y-89555434D01*
X132996600Y-89512893D01*
X132951895Y-89333592D01*
X132948864Y-89327485D01*
X132948862Y-89327481D01*
X132896946Y-89222898D01*
X132869731Y-89168074D01*
X132753940Y-89024060D01*
X132609926Y-88908269D01*
X132527167Y-88867187D01*
X132450519Y-88829138D01*
X132450515Y-88829136D01*
X132444408Y-88826105D01*
X132415397Y-88818872D01*
X132270503Y-88782745D01*
X132270499Y-88782744D01*
X132265107Y-88781400D01*
X132248294Y-88780254D01*
X132224714Y-88778646D01*
X132224701Y-88778646D01*
X132222566Y-88778500D01*
X131175434Y-88778500D01*
X131173299Y-88778646D01*
X131173286Y-88778646D01*
X131149706Y-88780254D01*
X131132893Y-88781400D01*
X131127501Y-88782744D01*
X131127497Y-88782745D01*
X130982603Y-88818872D01*
X130953592Y-88826105D01*
X130947485Y-88829136D01*
X130947481Y-88829138D01*
X130870833Y-88867187D01*
X130788074Y-88908269D01*
X130782755Y-88912546D01*
X130657572Y-89013196D01*
X130591950Y-89040293D01*
X130578620Y-89041000D01*
X127497362Y-89041000D01*
X127486821Y-89040558D01*
X127435398Y-89036240D01*
X127428638Y-89037142D01*
X127428634Y-89037142D01*
X127355641Y-89046881D01*
X127352587Y-89047251D01*
X127279372Y-89055205D01*
X127279369Y-89055206D01*
X127272591Y-89055942D01*
X127266131Y-89058116D01*
X127263083Y-89058786D01*
X127262622Y-89058867D01*
X127262471Y-89058903D01*
X127262012Y-89059036D01*
X127258993Y-89059778D01*
X127252231Y-89060680D01*
X127245821Y-89063013D01*
X127245817Y-89063014D01*
X127176629Y-89088197D01*
X127173723Y-89089215D01*
X127103923Y-89112705D01*
X127103921Y-89112706D01*
X127097452Y-89114883D01*
X127091598Y-89118400D01*
X127088786Y-89119700D01*
X127088343Y-89119882D01*
X127088184Y-89119958D01*
X127087766Y-89120186D01*
X127084997Y-89121549D01*
X127078585Y-89123882D01*
X127072827Y-89127536D01*
X127072821Y-89127539D01*
X127010656Y-89166990D01*
X127008037Y-89168608D01*
X126944907Y-89206541D01*
X126944905Y-89206542D01*
X126939056Y-89210057D01*
X126934097Y-89214746D01*
X126931618Y-89216628D01*
X126930846Y-89217165D01*
X126926936Y-89220122D01*
X126922562Y-89222898D01*
X126918329Y-89226683D01*
X126864840Y-89280172D01*
X126862319Y-89282625D01*
X126804793Y-89337024D01*
X126800959Y-89342665D01*
X126796533Y-89347866D01*
X126796128Y-89347522D01*
X126789591Y-89355421D01*
X124678017Y-91466995D01*
X124615705Y-91501021D01*
X124588922Y-91503900D01*
X119527300Y-91503900D01*
X119459179Y-91483898D01*
X119412686Y-91430242D01*
X119401300Y-91377900D01*
X119401300Y-86995641D01*
X119401293Y-86992728D01*
X119401287Y-86991481D01*
X119401264Y-86988399D01*
X119401263Y-86988280D01*
X119377921Y-84630722D01*
X119397248Y-84562407D01*
X119450441Y-84515385D01*
X119504334Y-84503476D01*
X128440542Y-84533322D01*
X128506269Y-84529964D01*
X128519267Y-84528589D01*
X128531414Y-84527304D01*
X128531422Y-84527303D01*
X128533472Y-84527086D01*
X128612527Y-84513377D01*
X128759959Y-84456378D01*
X128822271Y-84422352D01*
X128880470Y-84378784D01*
X128956630Y-84321771D01*
X128956635Y-84321767D01*
X128960232Y-84319074D01*
X129521248Y-83758058D01*
X129564551Y-83709852D01*
X129566784Y-83707082D01*
X129580159Y-83690485D01*
X129580160Y-83690483D01*
X129581454Y-83688878D01*
X129627024Y-83624073D01*
X129690971Y-83479519D01*
X129710973Y-83411398D01*
X129711713Y-83406256D01*
X129734858Y-83245273D01*
X129735500Y-83240810D01*
X129735500Y-79162559D01*
X129727531Y-79064645D01*
X129720941Y-79024429D01*
X129702170Y-78952580D01*
X129694264Y-78922316D01*
X129694263Y-78922313D01*
X129692478Y-78915481D01*
X129687708Y-78906309D01*
X129687299Y-78904229D01*
X129686680Y-78902620D01*
X129686962Y-78902511D01*
X129674026Y-78836643D01*
X129700180Y-78770639D01*
X129757866Y-78729253D01*
X129799432Y-78722177D01*
X135742412Y-78719140D01*
X135810542Y-78739107D01*
X135857062Y-78792739D01*
X135867202Y-78863008D01*
X135857703Y-78896115D01*
X135838698Y-78939075D01*
X135838693Y-78939088D01*
X135837029Y-78942850D01*
X135817027Y-79010971D01*
X135816386Y-79015427D01*
X135816385Y-79015433D01*
X135802596Y-79111339D01*
X135792500Y-79181559D01*
X135792500Y-90734467D01*
X135772498Y-90802588D01*
X135751056Y-90827881D01*
X135242995Y-91287764D01*
X133131740Y-93198814D01*
X133086705Y-93239578D01*
X133031176Y-93296940D01*
X133029826Y-93298533D01*
X133029821Y-93298538D01*
X133011323Y-93320358D01*
X133011317Y-93320366D01*
X133009734Y-93322233D01*
X132954576Y-93398637D01*
X132890629Y-93543191D01*
X132870627Y-93611312D01*
X132869986Y-93615768D01*
X132869985Y-93615774D01*
X132865682Y-93645704D01*
X132846100Y-93781900D01*
X132846100Y-100007746D01*
X132859509Y-100134469D01*
X132870547Y-100186042D01*
X132916236Y-100320232D01*
X133002384Y-100452760D01*
X133005069Y-100455901D01*
X133005072Y-100455905D01*
X133018675Y-100471817D01*
X133048516Y-100506726D01*
X133178005Y-100620458D01*
X133181762Y-100622908D01*
X133181767Y-100622912D01*
X133476097Y-100814866D01*
X134257861Y-101324712D01*
X134271753Y-101333506D01*
X134275906Y-101335360D01*
X134275910Y-101335362D01*
X134359215Y-101372548D01*
X134416092Y-101397937D01*
X134484922Y-101418398D01*
X134500741Y-101422868D01*
X134582414Y-101433621D01*
X134652823Y-101442890D01*
X134657456Y-101443500D01*
X137013500Y-101443500D01*
X137081621Y-101463502D01*
X137128114Y-101517158D01*
X137139500Y-101569500D01*
X137139500Y-101889825D01*
X137119498Y-101957946D01*
X137092457Y-101988017D01*
X137025549Y-102041812D01*
X136959930Y-102068907D01*
X136890075Y-102056224D01*
X136867648Y-102041810D01*
X136757526Y-101953269D01*
X136674767Y-101912187D01*
X136598119Y-101874138D01*
X136598115Y-101874136D01*
X136592008Y-101871105D01*
X136562997Y-101863872D01*
X136418103Y-101827745D01*
X136418099Y-101827744D01*
X136412707Y-101826400D01*
X136395894Y-101825254D01*
X136372314Y-101823646D01*
X136372301Y-101823646D01*
X136370166Y-101823500D01*
X135698034Y-101823500D01*
X135695899Y-101823646D01*
X135695886Y-101823646D01*
X135672306Y-101825254D01*
X135655493Y-101826400D01*
X135650101Y-101827744D01*
X135650097Y-101827745D01*
X135505203Y-101863872D01*
X135476192Y-101871105D01*
X135470085Y-101874136D01*
X135470081Y-101874138D01*
X135393433Y-101912187D01*
X135310674Y-101953269D01*
X135166660Y-102069060D01*
X135050869Y-102213074D01*
X135047835Y-102219186D01*
X135047833Y-102219189D01*
X135030391Y-102254325D01*
X134982186Y-102306447D01*
X134917532Y-102324300D01*
X134056427Y-102324300D01*
X133988306Y-102304298D01*
X133951475Y-102267385D01*
X133949931Y-102264274D01*
X133945657Y-102258959D01*
X133945655Y-102258955D01*
X133838415Y-102125577D01*
X133834140Y-102120260D01*
X133690126Y-102004469D01*
X133596406Y-101957946D01*
X133530719Y-101925338D01*
X133530715Y-101925336D01*
X133524608Y-101922305D01*
X133486578Y-101912823D01*
X133350703Y-101878945D01*
X133350699Y-101878944D01*
X133345307Y-101877600D01*
X133328494Y-101876454D01*
X133304914Y-101874846D01*
X133304901Y-101874846D01*
X133302766Y-101874700D01*
X132655634Y-101874700D01*
X132653499Y-101874846D01*
X132653486Y-101874846D01*
X132629906Y-101876454D01*
X132613093Y-101877600D01*
X132607701Y-101878944D01*
X132607697Y-101878945D01*
X132560916Y-101890609D01*
X132489980Y-101887681D01*
X132431887Y-101846867D01*
X132405083Y-101781124D01*
X132404435Y-101768893D01*
X132390213Y-98455441D01*
X132386774Y-97654098D01*
X132370662Y-97517921D01*
X132357666Y-97462727D01*
X132304795Y-97320814D01*
X132300149Y-97314207D01*
X132300147Y-97314204D01*
X132216236Y-97194889D01*
X132213866Y-97191519D01*
X132165794Y-97139273D01*
X132032242Y-97030347D01*
X131659996Y-96806509D01*
X131641635Y-96798615D01*
X131513794Y-96743652D01*
X131513792Y-96743651D01*
X131509879Y-96741969D01*
X131505781Y-96740832D01*
X131505776Y-96740830D01*
X131449052Y-96725089D01*
X131449053Y-96725089D01*
X131444948Y-96723950D01*
X131440732Y-96723376D01*
X131440728Y-96723375D01*
X131287261Y-96702475D01*
X131287253Y-96702474D01*
X131283035Y-96701900D01*
X129294909Y-96701900D01*
X129292447Y-96702094D01*
X129292437Y-96702094D01*
X129247589Y-96705621D01*
X129200268Y-96709342D01*
X129178456Y-96712794D01*
X129164184Y-96715052D01*
X129164179Y-96715053D01*
X129161367Y-96715498D01*
X129055419Y-96742247D01*
X129021449Y-96759441D01*
X128918061Y-96811771D01*
X128918056Y-96811774D01*
X128914389Y-96813630D01*
X128910995Y-96815949D01*
X128910987Y-96815954D01*
X128869269Y-96844462D01*
X128855771Y-96853686D01*
X128728759Y-96970187D01*
X128725911Y-96973668D01*
X128725910Y-96973669D01*
X128622508Y-97100050D01*
X128566450Y-97168565D01*
X128565890Y-97169291D01*
X128545841Y-97195278D01*
X128545820Y-97195307D01*
X128545270Y-97196019D01*
X128536791Y-97207686D01*
X128509576Y-97248515D01*
X128445629Y-97393069D01*
X128425627Y-97461190D01*
X128424986Y-97465646D01*
X128424985Y-97465652D01*
X128417970Y-97514446D01*
X128401100Y-97631778D01*
X128401100Y-109291384D01*
X128377813Y-109364364D01*
X128045915Y-109831480D01*
X127990153Y-109875425D01*
X127943202Y-109884500D01*
X121470772Y-109884500D01*
X121408658Y-109889194D01*
X121382146Y-109891197D01*
X121382142Y-109891197D01*
X121379779Y-109891376D01*
X121377437Y-109891732D01*
X121377428Y-109891733D01*
X121345062Y-109896653D01*
X121345060Y-109896653D01*
X121342339Y-109897067D01*
X121239704Y-109921985D01*
X121097815Y-109991648D01*
X121038715Y-110030988D01*
X120910303Y-110145929D01*
X120317131Y-110853173D01*
X120293437Y-110883313D01*
X120283979Y-110896161D01*
X120254576Y-110939981D01*
X120252352Y-110945009D01*
X120252349Y-110945014D01*
X120216646Y-111025722D01*
X120190629Y-111084535D01*
X120170627Y-111152656D01*
X120169986Y-111157112D01*
X120169985Y-111157118D01*
X120159808Y-111227900D01*
X120146100Y-111323244D01*
X120146100Y-113020935D01*
X120146296Y-113023418D01*
X120146297Y-113023431D01*
X120151803Y-113093010D01*
X120153636Y-113116168D01*
X120159870Y-113155311D01*
X120160572Y-113158073D01*
X120160573Y-113158079D01*
X120168897Y-113190838D01*
X120186934Y-113261829D01*
X120258604Y-113402714D01*
X120298779Y-113461250D01*
X120415531Y-113588019D01*
X120884445Y-113970097D01*
X121009991Y-114072394D01*
X121050166Y-114130931D01*
X121056400Y-114170074D01*
X121056400Y-117373400D01*
X139166600Y-117373400D01*
X139166600Y-114352277D01*
X139186602Y-114284156D01*
X139240258Y-114237663D01*
X139270383Y-114228251D01*
X139331484Y-114217306D01*
X139331485Y-114217306D01*
X139335542Y-114216579D01*
X139408372Y-114193398D01*
X139418550Y-114189897D01*
X139430318Y-114185849D01*
X139430322Y-114185847D01*
X139434907Y-114184270D01*
X139439192Y-114182010D01*
X139439196Y-114182008D01*
X139571067Y-114112447D01*
X139571069Y-114112446D01*
X139574716Y-114110522D01*
X140100217Y-113738292D01*
X140182067Y-113668623D01*
X140213303Y-113636842D01*
X140255112Y-113584711D01*
X140284972Y-113547479D01*
X140284974Y-113547476D01*
X140289542Y-113541780D01*
X140332823Y-113450852D01*
X140355700Y-113402791D01*
X140355702Y-113402786D01*
X140357477Y-113399057D01*
X140358752Y-113395123D01*
X140377975Y-113335800D01*
X140377977Y-113335793D01*
X140379362Y-113331518D01*
X140391185Y-113262876D01*
X140407851Y-113166120D01*
X140407852Y-113166114D01*
X140408615Y-113161682D01*
X140444132Y-111883085D01*
X140456001Y-111455803D01*
X140456001Y-111455794D01*
X140456064Y-111453523D01*
X140453475Y-111395035D01*
X140452311Y-111368750D01*
X140452310Y-111368742D01*
X140452210Y-111366475D01*
X140448014Y-111330545D01*
X140427825Y-111231048D01*
X140364090Y-111086399D01*
X140327228Y-111025722D01*
X140256647Y-110939981D01*
X140220562Y-110896145D01*
X140220560Y-110896143D01*
X140217697Y-110892665D01*
X139433038Y-110177241D01*
X139393123Y-110143873D01*
X139375944Y-110130723D01*
X139321061Y-110093300D01*
X139176263Y-110029907D01*
X139172300Y-110028760D01*
X139172295Y-110028758D01*
X139112388Y-110011417D01*
X139112387Y-110011417D01*
X139108066Y-110010166D01*
X138937384Y-109986292D01*
X138932891Y-109986309D01*
X138932888Y-109986309D01*
X132835696Y-110009670D01*
X132767499Y-109989929D01*
X132719951Y-109934570D01*
X132715734Y-109925019D01*
X132447352Y-109317268D01*
X132436615Y-109266910D01*
X132435363Y-108975082D01*
X132416738Y-104635656D01*
X132436448Y-104567450D01*
X132489903Y-104520727D01*
X132560133Y-104510322D01*
X132573211Y-104512856D01*
X132613093Y-104522800D01*
X132629906Y-104523946D01*
X132653486Y-104525554D01*
X132653499Y-104525554D01*
X132655634Y-104525700D01*
X133302766Y-104525700D01*
X133304901Y-104525554D01*
X133304914Y-104525554D01*
X133328494Y-104523946D01*
X133345307Y-104522800D01*
X133350699Y-104521456D01*
X133350703Y-104521455D01*
X133517986Y-104479746D01*
X133524608Y-104478095D01*
X133530715Y-104475064D01*
X133530719Y-104475062D01*
X133632868Y-104424354D01*
X133690126Y-104395931D01*
X133834140Y-104280140D01*
X133949931Y-104136126D01*
X133970211Y-104095273D01*
X134018413Y-104043153D01*
X134083068Y-104025300D01*
X134982761Y-104025300D01*
X135050882Y-104045302D01*
X135080955Y-104072345D01*
X135166660Y-104178940D01*
X135310674Y-104294731D01*
X135393433Y-104335813D01*
X135470081Y-104373862D01*
X135470085Y-104373864D01*
X135476192Y-104376895D01*
X135482814Y-104378546D01*
X135650097Y-104420255D01*
X135650101Y-104420256D01*
X135655493Y-104421600D01*
X135672306Y-104422746D01*
X135695886Y-104424354D01*
X135695899Y-104424354D01*
X135698034Y-104424500D01*
X136370166Y-104424500D01*
X136372301Y-104424354D01*
X136372314Y-104424354D01*
X136395894Y-104422746D01*
X136412707Y-104421600D01*
X136418099Y-104420256D01*
X136418103Y-104420255D01*
X136585386Y-104378546D01*
X136592008Y-104376895D01*
X136598115Y-104373864D01*
X136598119Y-104373862D01*
X136674767Y-104335813D01*
X136757526Y-104294731D01*
X136867648Y-104206190D01*
X136933270Y-104179093D01*
X137003124Y-104191776D01*
X137025552Y-104206190D01*
X137135674Y-104294731D01*
X137218433Y-104335813D01*
X137295081Y-104373862D01*
X137295085Y-104373864D01*
X137301192Y-104376895D01*
X137307814Y-104378546D01*
X137475097Y-104420255D01*
X137475101Y-104420256D01*
X137480493Y-104421600D01*
X137497306Y-104422746D01*
X137520886Y-104424354D01*
X137520899Y-104424354D01*
X137523034Y-104424500D01*
X138195166Y-104424500D01*
X138197301Y-104424354D01*
X138197314Y-104424354D01*
X138220894Y-104422746D01*
X138237707Y-104421600D01*
X138243099Y-104420256D01*
X138243103Y-104420255D01*
X138410386Y-104378546D01*
X138417008Y-104376895D01*
X138423115Y-104373864D01*
X138423119Y-104373862D01*
X138499767Y-104335813D01*
X138582526Y-104294731D01*
X138726540Y-104178940D01*
X138842331Y-104034926D01*
X138883413Y-103952167D01*
X138921462Y-103875519D01*
X138921464Y-103875515D01*
X138924495Y-103869408D01*
X138969200Y-103690107D01*
X138972100Y-103647566D01*
X138972100Y-102600434D01*
X138969200Y-102557893D01*
X138957455Y-102510784D01*
X138926146Y-102385214D01*
X138924495Y-102378592D01*
X138853640Y-102235856D01*
X138840500Y-102179832D01*
X138840500Y-101569500D01*
X138860502Y-101501379D01*
X138914158Y-101454886D01*
X138966500Y-101443500D01*
X157944768Y-101443500D01*
X157945463Y-101443484D01*
X157945500Y-101443484D01*
X157961256Y-101443130D01*
X157971949Y-101442890D01*
X157983254Y-101442382D01*
X157984328Y-101442297D01*
X157984355Y-101442295D01*
X158019546Y-101439499D01*
X158019551Y-101439498D01*
X158024739Y-101439086D01*
X158050921Y-101432552D01*
X158174097Y-101401815D01*
X158174102Y-101401814D01*
X158178103Y-101400815D01*
X158181941Y-101399302D01*
X158181945Y-101399301D01*
X158239960Y-101376435D01*
X158239967Y-101376432D01*
X158244155Y-101374781D01*
X158393866Y-101289411D01*
X158397415Y-101286651D01*
X158397419Y-101286648D01*
X159451993Y-100466423D01*
X159454098Y-100464786D01*
X159529304Y-100395328D01*
X159557945Y-100363991D01*
X159628024Y-100270638D01*
X159691971Y-100126084D01*
X159693482Y-100120940D01*
X159710703Y-100062287D01*
X159711973Y-100057963D01*
X159723625Y-99976926D01*
X159735858Y-99891838D01*
X159736500Y-99887375D01*
X159736500Y-94153610D01*
X159736356Y-94149404D01*
X159735108Y-94113109D01*
X159735108Y-94113106D01*
X159735071Y-94112034D01*
X159733883Y-94094773D01*
X159727459Y-94039148D01*
X159681938Y-93887778D01*
X159670596Y-93862585D01*
X159654641Y-93827145D01*
X159654638Y-93827140D01*
X159652792Y-93823039D01*
X159560396Y-93677556D01*
X159533095Y-93645704D01*
X159159342Y-93209660D01*
X158866444Y-92867946D01*
X158804463Y-92805463D01*
X158802753Y-92803973D01*
X158802740Y-92803961D01*
X158789789Y-92792679D01*
X158776918Y-92781465D01*
X158774772Y-92779894D01*
X158774765Y-92779888D01*
X158718054Y-92738362D01*
X158694311Y-92720976D01*
X158549757Y-92657029D01*
X158481636Y-92637027D01*
X158477180Y-92636386D01*
X158477174Y-92636385D01*
X158381268Y-92622596D01*
X158311048Y-92612500D01*
X156765521Y-92612500D01*
X156697400Y-92592498D01*
X156650907Y-92538842D01*
X156640803Y-92468568D01*
X156670297Y-92403988D01*
X156683691Y-92390689D01*
X156761262Y-92324437D01*
X156765024Y-92321224D01*
X156805009Y-92274408D01*
X156925421Y-92133424D01*
X156925424Y-92133419D01*
X156928636Y-92129659D01*
X157060266Y-91914859D01*
X157122927Y-91763583D01*
X157154779Y-91686684D01*
X157154780Y-91686682D01*
X157156673Y-91682111D01*
X157192356Y-91533481D01*
X157214328Y-91441961D01*
X157214329Y-91441955D01*
X157215483Y-91437148D01*
X157235249Y-91186000D01*
X157215483Y-90934852D01*
X157203739Y-90885932D01*
X157157828Y-90694701D01*
X157156673Y-90689889D01*
X157127826Y-90620245D01*
X157062161Y-90461715D01*
X157062159Y-90461711D01*
X157060266Y-90457141D01*
X156928636Y-90242341D01*
X156925424Y-90238581D01*
X156925421Y-90238576D01*
X156768237Y-90054538D01*
X156765024Y-90050776D01*
X156746852Y-90035256D01*
X156577224Y-89890379D01*
X156577219Y-89890376D01*
X156573459Y-89887164D01*
X156358659Y-89755534D01*
X156354089Y-89753641D01*
X156354085Y-89753639D01*
X156130484Y-89661021D01*
X156130482Y-89661020D01*
X156125911Y-89659127D01*
X156041511Y-89638865D01*
X155885761Y-89601472D01*
X155885755Y-89601471D01*
X155880948Y-89600317D01*
X155629800Y-89580551D01*
X155378652Y-89600317D01*
X155373845Y-89601471D01*
X155373839Y-89601472D01*
X155218089Y-89638865D01*
X155133689Y-89659127D01*
X155129118Y-89661020D01*
X155129116Y-89661021D01*
X154905515Y-89753639D01*
X154905511Y-89753641D01*
X154900941Y-89755534D01*
X154686141Y-89887164D01*
X154682381Y-89890376D01*
X154682376Y-89890379D01*
X154512748Y-90035256D01*
X154494576Y-90050776D01*
X154491363Y-90054538D01*
X154334179Y-90238576D01*
X154334176Y-90238581D01*
X154330964Y-90242341D01*
X154199334Y-90457141D01*
X154197441Y-90461711D01*
X154197439Y-90461715D01*
X154131774Y-90620245D01*
X154102927Y-90689889D01*
X154101772Y-90694701D01*
X154055862Y-90885932D01*
X154044117Y-90934852D01*
X154024351Y-91186000D01*
X154044117Y-91437148D01*
X154045271Y-91441955D01*
X154045272Y-91441961D01*
X154067244Y-91533481D01*
X154102927Y-91682111D01*
X154104820Y-91686682D01*
X154104821Y-91686684D01*
X154136674Y-91763583D01*
X154199334Y-91914859D01*
X154330964Y-92129659D01*
X154334176Y-92133419D01*
X154334179Y-92133424D01*
X154454591Y-92274408D01*
X154494576Y-92321224D01*
X154498338Y-92324437D01*
X154575909Y-92390689D01*
X154614719Y-92450139D01*
X154615225Y-92521134D01*
X154577269Y-92581133D01*
X154512901Y-92611086D01*
X154494079Y-92612500D01*
X143322273Y-92612500D01*
X143254152Y-92592498D01*
X143229688Y-92571963D01*
X143149263Y-92484836D01*
X142116915Y-91366458D01*
X142085407Y-91302837D01*
X142083500Y-91280996D01*
X142083500Y-86186000D01*
X154024351Y-86186000D01*
X154044117Y-86437148D01*
X154102927Y-86682111D01*
X154199334Y-86914859D01*
X154330964Y-87129659D01*
X154334176Y-87133419D01*
X154334179Y-87133424D01*
X154456012Y-87276071D01*
X154494576Y-87321224D01*
X154498338Y-87324437D01*
X154682376Y-87481621D01*
X154682381Y-87481624D01*
X154686141Y-87484836D01*
X154900941Y-87616466D01*
X154905511Y-87618359D01*
X154905515Y-87618361D01*
X155129116Y-87710979D01*
X155133689Y-87712873D01*
X155218089Y-87733135D01*
X155373839Y-87770528D01*
X155373845Y-87770529D01*
X155378652Y-87771683D01*
X155629800Y-87791449D01*
X155880948Y-87771683D01*
X155885755Y-87770529D01*
X155885761Y-87770528D01*
X156041511Y-87733135D01*
X156125911Y-87712873D01*
X156130484Y-87710979D01*
X156354085Y-87618361D01*
X156354089Y-87618359D01*
X156358659Y-87616466D01*
X156573459Y-87484836D01*
X156577219Y-87481624D01*
X156577224Y-87481621D01*
X156761262Y-87324437D01*
X156765024Y-87321224D01*
X156803588Y-87276071D01*
X156925421Y-87133424D01*
X156925424Y-87133419D01*
X156928636Y-87129659D01*
X157060266Y-86914859D01*
X157156673Y-86682111D01*
X157215483Y-86437148D01*
X157235249Y-86186000D01*
X157215483Y-85934852D01*
X157156673Y-85689889D01*
X157060266Y-85457141D01*
X156928636Y-85242341D01*
X156925424Y-85238581D01*
X156925421Y-85238576D01*
X156768237Y-85054538D01*
X156765024Y-85050776D01*
X156746852Y-85035256D01*
X156577224Y-84890379D01*
X156577219Y-84890376D01*
X156573459Y-84887164D01*
X156358659Y-84755534D01*
X156354089Y-84753641D01*
X156354085Y-84753639D01*
X156130484Y-84661021D01*
X156130482Y-84661020D01*
X156125911Y-84659127D01*
X156007595Y-84630722D01*
X155885761Y-84601472D01*
X155885755Y-84601471D01*
X155880948Y-84600317D01*
X155629800Y-84580551D01*
X155378652Y-84600317D01*
X155373845Y-84601471D01*
X155373839Y-84601472D01*
X155252005Y-84630722D01*
X155133689Y-84659127D01*
X155129118Y-84661020D01*
X155129116Y-84661021D01*
X154905515Y-84753639D01*
X154905511Y-84753641D01*
X154900941Y-84755534D01*
X154686141Y-84887164D01*
X154682381Y-84890376D01*
X154682376Y-84890379D01*
X154512748Y-85035256D01*
X154494576Y-85050776D01*
X154491363Y-85054538D01*
X154334179Y-85238576D01*
X154334176Y-85238581D01*
X154330964Y-85242341D01*
X154199334Y-85457141D01*
X154102927Y-85689889D01*
X154044117Y-85934852D01*
X154024351Y-86186000D01*
X142083500Y-86186000D01*
X142083500Y-81186000D01*
X154024351Y-81186000D01*
X154044117Y-81437148D01*
X154102927Y-81682111D01*
X154104820Y-81686682D01*
X154104821Y-81686684D01*
X154196887Y-81908951D01*
X154199334Y-81914859D01*
X154330964Y-82129659D01*
X154334176Y-82133419D01*
X154334179Y-82133424D01*
X154479056Y-82303052D01*
X154494576Y-82321224D01*
X154498338Y-82324437D01*
X154682376Y-82481621D01*
X154682381Y-82481624D01*
X154686141Y-82484836D01*
X154900941Y-82616466D01*
X154905511Y-82618359D01*
X154905515Y-82618361D01*
X155129116Y-82710979D01*
X155133689Y-82712873D01*
X155207028Y-82730480D01*
X155373839Y-82770528D01*
X155373845Y-82770529D01*
X155378652Y-82771683D01*
X155629800Y-82791449D01*
X155880948Y-82771683D01*
X155885755Y-82770529D01*
X155885761Y-82770528D01*
X156052572Y-82730480D01*
X156125911Y-82712873D01*
X156130484Y-82710979D01*
X156354085Y-82618361D01*
X156354089Y-82618359D01*
X156358659Y-82616466D01*
X156573459Y-82484836D01*
X156577219Y-82481624D01*
X156577224Y-82481621D01*
X156761262Y-82324437D01*
X156765024Y-82321224D01*
X156780544Y-82303052D01*
X156925421Y-82133424D01*
X156925424Y-82133419D01*
X156928636Y-82129659D01*
X157060266Y-81914859D01*
X157062714Y-81908951D01*
X157154779Y-81686684D01*
X157154780Y-81686682D01*
X157156673Y-81682111D01*
X157215483Y-81437148D01*
X157235249Y-81186000D01*
X157215483Y-80934852D01*
X157156673Y-80689889D01*
X157060266Y-80457141D01*
X156928636Y-80242341D01*
X156925424Y-80238581D01*
X156925421Y-80238576D01*
X156768237Y-80054538D01*
X156765024Y-80050776D01*
X156746852Y-80035256D01*
X156577224Y-79890379D01*
X156577219Y-79890376D01*
X156573459Y-79887164D01*
X156358659Y-79755534D01*
X156354089Y-79753641D01*
X156354085Y-79753639D01*
X156130484Y-79661021D01*
X156130482Y-79661020D01*
X156125911Y-79659127D01*
X156041511Y-79638865D01*
X155885761Y-79601472D01*
X155885755Y-79601471D01*
X155880948Y-79600317D01*
X155629800Y-79580551D01*
X155378652Y-79600317D01*
X155373845Y-79601471D01*
X155373839Y-79601472D01*
X155218089Y-79638865D01*
X155133689Y-79659127D01*
X155129118Y-79661020D01*
X155129116Y-79661021D01*
X154905515Y-79753639D01*
X154905511Y-79753641D01*
X154900941Y-79755534D01*
X154686141Y-79887164D01*
X154682381Y-79890376D01*
X154682376Y-79890379D01*
X154512748Y-80035256D01*
X154494576Y-80050776D01*
X154491363Y-80054538D01*
X154334179Y-80238576D01*
X154334176Y-80238581D01*
X154330964Y-80242341D01*
X154199334Y-80457141D01*
X154102927Y-80689889D01*
X154044117Y-80934852D01*
X154024351Y-81186000D01*
X142083500Y-81186000D01*
X142083500Y-79198873D01*
X142061890Y-79038551D01*
X142058806Y-79027318D01*
X142044339Y-78974629D01*
X142044326Y-78974582D01*
X142044223Y-78974208D01*
X142039155Y-78956778D01*
X142037243Y-78952597D01*
X142037237Y-78952580D01*
X142010577Y-78894275D01*
X142000440Y-78824006D01*
X142029904Y-78759411D01*
X142089612Y-78721000D01*
X142125102Y-78715880D01*
X152464439Y-78710596D01*
X152525127Y-78726139D01*
X153346879Y-79177160D01*
X153346884Y-79177163D01*
X153350347Y-79179063D01*
X153491304Y-79234787D01*
X153495137Y-79235770D01*
X153495144Y-79235772D01*
X153548093Y-79249347D01*
X153548097Y-79249348D01*
X153551928Y-79250330D01*
X153627117Y-79259815D01*
X153698379Y-79268805D01*
X153698383Y-79268805D01*
X153702305Y-79269300D01*
X158479367Y-79269300D01*
X158482570Y-79268969D01*
X158482575Y-79268969D01*
X158599885Y-79256855D01*
X158599887Y-79256855D01*
X158603099Y-79256523D01*
X158606258Y-79255864D01*
X158606268Y-79255862D01*
X158649975Y-79246738D01*
X158649983Y-79246736D01*
X158653508Y-79246000D01*
X158691662Y-79233331D01*
X158777810Y-79204726D01*
X158777813Y-79204725D01*
X158785160Y-79202285D01*
X158918552Y-79117479D01*
X158972981Y-79071894D01*
X159027590Y-79010971D01*
X159085006Y-78946916D01*
X159085009Y-78946912D01*
X159088011Y-78943563D01*
X159994644Y-77583614D01*
X160005195Y-77567222D01*
X160055626Y-77455766D01*
X160068660Y-77426959D01*
X160068662Y-77426955D01*
X160070356Y-77423210D01*
X160091518Y-77353318D01*
X160096868Y-77334566D01*
X160117500Y-77177851D01*
X160117500Y-73164190D01*
X160117570Y-73159992D01*
X160242278Y-69418768D01*
X160242278Y-69418758D01*
X160242343Y-69416809D01*
X160240205Y-69341962D01*
X160237396Y-69310981D01*
X160222800Y-69222896D01*
X160165801Y-69075464D01*
X160131775Y-69013152D01*
X160043366Y-68895053D01*
X160031194Y-68878793D01*
X160031190Y-68878788D01*
X160028497Y-68875191D01*
X159088058Y-67934752D01*
X159039852Y-67891449D01*
X159018878Y-67874546D01*
X158954073Y-67828976D01*
X158809519Y-67765029D01*
X158741398Y-67745027D01*
X158736942Y-67744386D01*
X158736936Y-67744385D01*
X158637252Y-67730053D01*
X158570810Y-67720500D01*
X153590343Y-67720500D01*
X153589211Y-67720542D01*
X153589201Y-67720542D01*
X153546865Y-67722106D01*
X153546863Y-67722106D01*
X153545675Y-67722150D01*
X153527141Y-67723521D01*
X153498541Y-67727046D01*
X153474140Y-67730053D01*
X153474138Y-67730054D01*
X153468519Y-67730746D01*
X153317620Y-67777809D01*
X153253183Y-67807613D01*
X153249408Y-67810065D01*
X153122387Y-67892566D01*
X153108647Y-67901490D01*
X152171303Y-68721666D01*
X152140732Y-68752460D01*
X152113023Y-68780370D01*
X152113015Y-68780379D01*
X152111461Y-68781944D01*
X152088435Y-68808648D01*
X152086919Y-68810729D01*
X152086917Y-68810732D01*
X152033928Y-68883486D01*
X152033926Y-68883490D01*
X152029976Y-68888913D01*
X151966029Y-69033467D01*
X151946027Y-69101588D01*
X151921500Y-69272176D01*
X151921500Y-71695570D01*
X151901498Y-71763691D01*
X151843178Y-71812201D01*
X151410694Y-71988997D01*
X151363278Y-71998366D01*
X145167634Y-72011234D01*
X123192779Y-72056872D01*
X123189199Y-72057292D01*
X123189197Y-72057292D01*
X123058750Y-72072592D01*
X123058742Y-72072593D01*
X123055156Y-72073014D01*
X123051644Y-72073842D01*
X123051636Y-72073843D01*
X123002904Y-72085327D01*
X122999395Y-72086154D01*
X122996003Y-72087377D01*
X122996000Y-72087378D01*
X122913833Y-72117007D01*
X122901575Y-72120735D01*
X122846541Y-72134457D01*
X122816058Y-72138200D01*
X121836741Y-72138200D01*
X121806259Y-72134457D01*
X121741757Y-72118375D01*
X121729621Y-72114691D01*
X121662852Y-72090692D01*
X121662840Y-72090688D01*
X121659411Y-72089456D01*
X121655865Y-72088628D01*
X121655861Y-72088627D01*
X121606683Y-72077146D01*
X121606676Y-72077145D01*
X121603126Y-72076316D01*
X121599499Y-72075902D01*
X121599493Y-72075901D01*
X121467842Y-72060876D01*
X121467839Y-72060876D01*
X121464213Y-72060462D01*
X116612046Y-72070539D01*
X116608467Y-72070959D01*
X116608464Y-72070959D01*
X116478004Y-72086261D01*
X116477999Y-72086262D01*
X116474417Y-72086682D01*
X116470913Y-72087508D01*
X116470906Y-72087509D01*
X116444632Y-72093701D01*
X116418654Y-72099823D01*
X116394214Y-72108636D01*
X116381967Y-72112360D01*
X116357843Y-72118375D01*
X116293341Y-72134457D01*
X116262859Y-72138200D01*
X115283542Y-72138200D01*
X115253060Y-72134457D01*
X115162345Y-72111839D01*
X115162344Y-72111839D01*
X115161173Y-72111547D01*
X115156898Y-72109932D01*
X115152229Y-72109317D01*
X115151358Y-72109100D01*
X115145130Y-72107204D01*
X115133321Y-72102962D01*
X115132536Y-72102779D01*
X115132499Y-72102939D01*
X115127724Y-72101530D01*
X115127696Y-72101650D01*
X115080766Y-72090695D01*
X115080764Y-72090695D01*
X115077214Y-72089866D01*
X115073594Y-72089453D01*
X115073589Y-72089452D01*
X114941947Y-72074429D01*
X114941939Y-72074429D01*
X114938315Y-72074015D01*
X108642355Y-72087090D01*
X102645208Y-72099545D01*
X102645197Y-72099545D01*
X102642994Y-72099550D01*
X102640788Y-72099710D01*
X102640779Y-72099710D01*
X102560524Y-72105519D01*
X102560511Y-72105520D01*
X102558306Y-72105680D01*
X102523416Y-72110683D01*
X102505863Y-72114691D01*
X102433184Y-72131286D01*
X102433181Y-72131287D01*
X102426634Y-72132782D01*
X102283452Y-72199746D01*
X102279976Y-72201966D01*
X102227407Y-72235539D01*
X102227402Y-72235542D01*
X102223617Y-72237960D01*
X102093050Y-72350448D01*
X101176391Y-73402268D01*
X101141652Y-73446057D01*
X101128065Y-73464909D01*
X101090350Y-73524214D01*
X101032093Y-73671154D01*
X101014765Y-73740003D01*
X101014298Y-73744484D01*
X101014298Y-73744486D01*
X100997380Y-73906941D01*
X100997380Y-73906948D01*
X100996914Y-73911421D01*
X101052990Y-75346975D01*
X101053308Y-75355124D01*
X101119809Y-77057549D01*
X101127659Y-77133893D01*
X101132922Y-77165330D01*
X101154684Y-77253804D01*
X101157496Y-77259665D01*
X101157497Y-77259667D01*
X101221280Y-77392592D01*
X101223066Y-77396314D01*
X101261872Y-77455766D01*
X101264836Y-77459138D01*
X101264839Y-77459142D01*
X101363273Y-77571126D01*
X101375653Y-77585210D01*
X102517560Y-78560589D01*
X102549788Y-78586272D01*
X102550662Y-78586921D01*
X102562408Y-78595646D01*
X102562427Y-78595659D01*
X102563556Y-78596498D01*
X102609715Y-78627596D01*
X102614818Y-78629850D01*
X102614821Y-78629852D01*
X102750524Y-78689801D01*
X102754302Y-78691470D01*
X102758262Y-78692631D01*
X102758266Y-78692632D01*
X102790439Y-78702061D01*
X102822433Y-78711437D01*
X102925062Y-78726139D01*
X102988577Y-78735238D01*
X102988580Y-78735238D01*
X102993032Y-78735876D01*
X102997530Y-78735874D01*
X102997534Y-78735874D01*
X106645777Y-78734009D01*
X111739637Y-78731406D01*
X111807767Y-78751373D01*
X111854287Y-78805005D01*
X111865700Y-78857406D01*
X111865700Y-82831967D01*
X111865751Y-82833233D01*
X111865751Y-82833250D01*
X111867584Y-82879055D01*
X111867636Y-82880347D01*
X111869245Y-82900420D01*
X111877507Y-82962702D01*
X111879290Y-82968178D01*
X111879290Y-82968180D01*
X111920178Y-83093790D01*
X111926433Y-83113007D01*
X111957032Y-83177071D01*
X111998817Y-83239696D01*
X112019986Y-83307459D01*
X112001159Y-83375913D01*
X111948311Y-83423322D01*
X111878221Y-83434633D01*
X111813143Y-83406256D01*
X111804910Y-83398721D01*
X110587038Y-82180850D01*
X110579895Y-82173083D01*
X110550986Y-82138874D01*
X110546580Y-82133660D01*
X110535832Y-82125442D01*
X110482671Y-82084798D01*
X110480247Y-82082898D01*
X110475366Y-82078973D01*
X110462018Y-82068241D01*
X110422847Y-82036746D01*
X110422844Y-82036744D01*
X110417527Y-82032469D01*
X110411410Y-82029432D01*
X110408798Y-82027762D01*
X110408404Y-82027486D01*
X110408280Y-82027409D01*
X110407858Y-82027177D01*
X110405205Y-82025570D01*
X110399780Y-82021423D01*
X110326862Y-81987421D01*
X110324095Y-81986090D01*
X110258120Y-81953339D01*
X110258116Y-81953337D01*
X110252007Y-81950305D01*
X110245382Y-81948653D01*
X110242479Y-81947585D01*
X110242027Y-81947397D01*
X110241892Y-81947349D01*
X110241433Y-81947214D01*
X110238492Y-81946213D01*
X110232303Y-81943327D01*
X110209846Y-81938307D01*
X110153769Y-81925773D01*
X110150772Y-81925064D01*
X110079328Y-81907251D01*
X110079327Y-81907251D01*
X110072706Y-81905600D01*
X110065886Y-81905410D01*
X110062808Y-81904988D01*
X110061891Y-81904823D01*
X110057015Y-81904146D01*
X110051963Y-81903017D01*
X110046293Y-81902700D01*
X109970636Y-81902700D01*
X109967118Y-81902651D01*
X109965388Y-81902603D01*
X109887989Y-81900441D01*
X109881283Y-81901720D01*
X109874486Y-81902267D01*
X109874443Y-81901738D01*
X109864237Y-81902700D01*
X100421862Y-81902700D01*
X100411321Y-81902258D01*
X100359898Y-81897940D01*
X100353138Y-81898842D01*
X100353134Y-81898842D01*
X100280141Y-81908581D01*
X100277087Y-81908951D01*
X100203872Y-81916905D01*
X100203869Y-81916906D01*
X100197091Y-81917642D01*
X100190631Y-81919816D01*
X100187583Y-81920486D01*
X100187122Y-81920567D01*
X100186971Y-81920603D01*
X100186512Y-81920736D01*
X100183493Y-81921478D01*
X100176731Y-81922380D01*
X100170321Y-81924713D01*
X100170317Y-81924714D01*
X100101129Y-81949897D01*
X100098223Y-81950915D01*
X100028423Y-81974405D01*
X100028421Y-81974406D01*
X100021952Y-81976583D01*
X100016098Y-81980100D01*
X100013286Y-81981400D01*
X100012843Y-81981582D01*
X100012684Y-81981658D01*
X100012266Y-81981886D01*
X100009497Y-81983249D01*
X100003085Y-81985582D01*
X99997327Y-81989236D01*
X99997321Y-81989239D01*
X99935156Y-82028690D01*
X99932537Y-82030308D01*
X99869407Y-82068241D01*
X99869405Y-82068242D01*
X99863556Y-82071757D01*
X99858597Y-82076446D01*
X99856118Y-82078328D01*
X99855341Y-82078868D01*
X99851428Y-82081827D01*
X99847062Y-82084598D01*
X99842828Y-82088383D01*
X99841566Y-82089645D01*
X99789326Y-82141886D01*
X99786804Y-82144339D01*
X99729293Y-82198724D01*
X99725456Y-82204369D01*
X99721038Y-82209561D01*
X99720634Y-82209218D01*
X99714098Y-82217113D01*
X99529644Y-82401568D01*
X99521875Y-82408712D01*
X99482460Y-82442020D01*
X99478313Y-82447444D01*
X99478312Y-82447445D01*
X99433598Y-82505929D01*
X99431705Y-82508345D01*
X99381269Y-82571073D01*
X99378232Y-82577190D01*
X99376562Y-82579802D01*
X99376286Y-82580196D01*
X99376209Y-82580320D01*
X99375977Y-82580742D01*
X99374370Y-82583395D01*
X99370223Y-82588820D01*
X99357332Y-82616466D01*
X99336225Y-82661730D01*
X99334890Y-82664505D01*
X99302139Y-82730480D01*
X99302137Y-82730484D01*
X99299105Y-82736593D01*
X99297453Y-82743218D01*
X99296385Y-82746121D01*
X99296197Y-82746573D01*
X99296149Y-82746708D01*
X99296014Y-82747167D01*
X99295013Y-82750108D01*
X99292127Y-82756297D01*
X99290638Y-82762959D01*
X99274573Y-82834831D01*
X99273864Y-82837828D01*
X99263585Y-82879055D01*
X99254400Y-82915894D01*
X99254210Y-82922714D01*
X99253788Y-82925792D01*
X99253623Y-82926709D01*
X99252946Y-82931585D01*
X99251817Y-82936637D01*
X99251500Y-82942307D01*
X99251500Y-83017964D01*
X99251451Y-83021482D01*
X99249241Y-83100611D01*
X99250520Y-83107317D01*
X99251067Y-83114114D01*
X99250538Y-83114157D01*
X99251500Y-83124363D01*
X99251500Y-94168138D01*
X99251058Y-94178679D01*
X99246740Y-94230102D01*
X99247642Y-94236862D01*
X99247642Y-94236866D01*
X99257381Y-94309859D01*
X99257751Y-94312913D01*
X99266442Y-94392909D01*
X99268616Y-94399369D01*
X99269286Y-94402417D01*
X99269367Y-94402878D01*
X99269403Y-94403029D01*
X99269536Y-94403488D01*
X99270278Y-94406507D01*
X99271180Y-94413269D01*
X99273513Y-94419679D01*
X99273514Y-94419683D01*
X99298697Y-94488871D01*
X99299714Y-94491775D01*
X99325383Y-94568048D01*
X99328900Y-94573902D01*
X99330200Y-94576714D01*
X99330382Y-94577157D01*
X99330458Y-94577316D01*
X99330686Y-94577734D01*
X99332049Y-94580503D01*
X99334382Y-94586915D01*
X99338036Y-94592673D01*
X99338039Y-94592679D01*
X99377490Y-94654844D01*
X99379108Y-94657463D01*
X99420557Y-94726444D01*
X99425246Y-94731403D01*
X99427128Y-94733882D01*
X99427668Y-94734659D01*
X99430625Y-94738569D01*
X99433398Y-94742938D01*
X99437183Y-94747172D01*
X99490689Y-94800678D01*
X99493142Y-94803200D01*
X99528790Y-94840896D01*
X99547524Y-94860707D01*
X99553166Y-94864541D01*
X99558366Y-94868967D01*
X99558022Y-94869371D01*
X99565918Y-94875907D01*
X101255367Y-96565356D01*
X101262510Y-96573123D01*
X101295820Y-96612540D01*
X101301239Y-96616683D01*
X101301240Y-96616684D01*
X101359748Y-96661416D01*
X101362171Y-96663317D01*
X101419554Y-96709455D01*
X101419564Y-96709461D01*
X101424873Y-96713730D01*
X101430977Y-96716760D01*
X101433590Y-96718431D01*
X101433976Y-96718701D01*
X101434139Y-96718802D01*
X101434538Y-96719022D01*
X101437207Y-96720638D01*
X101442620Y-96724777D01*
X101511263Y-96756786D01*
X101515561Y-96758790D01*
X101518335Y-96760125D01*
X101584280Y-96792861D01*
X101584284Y-96792862D01*
X101590393Y-96795895D01*
X101597018Y-96797547D01*
X101599921Y-96798615D01*
X101600373Y-96798803D01*
X101600508Y-96798851D01*
X101600967Y-96798986D01*
X101603908Y-96799987D01*
X101610097Y-96802873D01*
X101616760Y-96804362D01*
X101616759Y-96804362D01*
X101688631Y-96820427D01*
X101691628Y-96821136D01*
X101763072Y-96838949D01*
X101769694Y-96840600D01*
X101776514Y-96840790D01*
X101779592Y-96841212D01*
X101780509Y-96841377D01*
X101785385Y-96842054D01*
X101790437Y-96843183D01*
X101796107Y-96843500D01*
X101871764Y-96843500D01*
X101875283Y-96843549D01*
X101954411Y-96845759D01*
X101961117Y-96844480D01*
X101967914Y-96843933D01*
X101967957Y-96844462D01*
X101978163Y-96843500D01*
X105361767Y-96843500D01*
X105429888Y-96863502D01*
X105466832Y-96900528D01*
X105468519Y-96903926D01*
X105472798Y-96909248D01*
X105573446Y-97034428D01*
X105600543Y-97100050D01*
X105601250Y-97113380D01*
X105601250Y-97920184D01*
X105581248Y-97988305D01*
X105573446Y-97999136D01*
X105488269Y-98105074D01*
X105447187Y-98187833D01*
X105409138Y-98264481D01*
X105409136Y-98264485D01*
X105406105Y-98270592D01*
X105361400Y-98449893D01*
X105358500Y-98492434D01*
X105358500Y-99589566D01*
X105361400Y-99632107D01*
X105406105Y-99811408D01*
X105409136Y-99817515D01*
X105409138Y-99817519D01*
X105441579Y-99882869D01*
X105488269Y-99976926D01*
X105549837Y-100053501D01*
X105573096Y-100082429D01*
X105600193Y-100148051D01*
X105600900Y-100161381D01*
X105600900Y-100746138D01*
X105600458Y-100756679D01*
X105596140Y-100808102D01*
X105597042Y-100814862D01*
X105597042Y-100814866D01*
X105606781Y-100887859D01*
X105607151Y-100890913D01*
X105615842Y-100970909D01*
X105618016Y-100977369D01*
X105618686Y-100980417D01*
X105618767Y-100980878D01*
X105618803Y-100981029D01*
X105618936Y-100981488D01*
X105619678Y-100984507D01*
X105620580Y-100991269D01*
X105622913Y-100997679D01*
X105622914Y-100997683D01*
X105648097Y-101066871D01*
X105649114Y-101069775D01*
X105674783Y-101146048D01*
X105678300Y-101151902D01*
X105679600Y-101154714D01*
X105679782Y-101155157D01*
X105679858Y-101155316D01*
X105680086Y-101155734D01*
X105681449Y-101158503D01*
X105683782Y-101164915D01*
X105687436Y-101170673D01*
X105687439Y-101170679D01*
X105726890Y-101232844D01*
X105728508Y-101235463D01*
X105769957Y-101304444D01*
X105774646Y-101309403D01*
X105776528Y-101311882D01*
X105777068Y-101312659D01*
X105780025Y-101316569D01*
X105782798Y-101320938D01*
X105786583Y-101325172D01*
X105840089Y-101378678D01*
X105842542Y-101381200D01*
X105881946Y-101422868D01*
X105896924Y-101438707D01*
X105902566Y-101442541D01*
X105907766Y-101446967D01*
X105907422Y-101447371D01*
X105915318Y-101453907D01*
X106972195Y-102510784D01*
X107006221Y-102573096D01*
X107009100Y-102599879D01*
X107009100Y-108275738D01*
X107008658Y-108286279D01*
X107004340Y-108337702D01*
X107005242Y-108344462D01*
X107005242Y-108344466D01*
X107014981Y-108417459D01*
X107015351Y-108420513D01*
X107024042Y-108500509D01*
X107026216Y-108506969D01*
X107026886Y-108510017D01*
X107026967Y-108510478D01*
X107027003Y-108510629D01*
X107027136Y-108511088D01*
X107027878Y-108514107D01*
X107028780Y-108520869D01*
X107031113Y-108527279D01*
X107031114Y-108527283D01*
X107056297Y-108596471D01*
X107057314Y-108599375D01*
X107082983Y-108675648D01*
X107086500Y-108681502D01*
X107087800Y-108684314D01*
X107087982Y-108684757D01*
X107088058Y-108684916D01*
X107088286Y-108685334D01*
X107089649Y-108688103D01*
X107091982Y-108694515D01*
X107095636Y-108700273D01*
X107095639Y-108700279D01*
X107135090Y-108762444D01*
X107136708Y-108765063D01*
X107178157Y-108834044D01*
X107182846Y-108839003D01*
X107184728Y-108841482D01*
X107185268Y-108842259D01*
X107188225Y-108846169D01*
X107190998Y-108850538D01*
X107194783Y-108854772D01*
X107248289Y-108908278D01*
X107250742Y-108910800D01*
X107305124Y-108968307D01*
X107310766Y-108972141D01*
X107315966Y-108976567D01*
X107315622Y-108976971D01*
X107323518Y-108983507D01*
X108840595Y-110500583D01*
X108874620Y-110562895D01*
X108877500Y-110589678D01*
X108877500Y-119008738D01*
X108877058Y-119019279D01*
X108872740Y-119070702D01*
X108873642Y-119077462D01*
X108873642Y-119077466D01*
X108883381Y-119150459D01*
X108883751Y-119153513D01*
X108892442Y-119233509D01*
X108894616Y-119239969D01*
X108895286Y-119243017D01*
X108895367Y-119243478D01*
X108895403Y-119243629D01*
X108895536Y-119244088D01*
X108896278Y-119247107D01*
X108897180Y-119253869D01*
X108899513Y-119260279D01*
X108899514Y-119260283D01*
X108924697Y-119329471D01*
X108925714Y-119332375D01*
X108951383Y-119408648D01*
X108954900Y-119414502D01*
X108956200Y-119417314D01*
X108956382Y-119417757D01*
X108956458Y-119417916D01*
X108956686Y-119418334D01*
X108958049Y-119421103D01*
X108960382Y-119427515D01*
X108964036Y-119433273D01*
X108964039Y-119433279D01*
X109003490Y-119495444D01*
X109005108Y-119498063D01*
X109046557Y-119567044D01*
X109051246Y-119572003D01*
X109053128Y-119574482D01*
X109053668Y-119575259D01*
X109056625Y-119579169D01*
X109059398Y-119583538D01*
X109063183Y-119587772D01*
X109116689Y-119641278D01*
X109119142Y-119643800D01*
X109173524Y-119701307D01*
X109179166Y-119705141D01*
X109184366Y-119709567D01*
X109184022Y-119709971D01*
X109191918Y-119716507D01*
X110748562Y-121273150D01*
X110755705Y-121280917D01*
X110789020Y-121320340D01*
X110794444Y-121324487D01*
X110794445Y-121324488D01*
X110852929Y-121369202D01*
X110855345Y-121371095D01*
X110860365Y-121375132D01*
X110912753Y-121417254D01*
X110912756Y-121417256D01*
X110918073Y-121421531D01*
X110924190Y-121424568D01*
X110926802Y-121426238D01*
X110927196Y-121426514D01*
X110927320Y-121426591D01*
X110927742Y-121426823D01*
X110930395Y-121428430D01*
X110935820Y-121432577D01*
X111004840Y-121464761D01*
X111008730Y-121466575D01*
X111011505Y-121467910D01*
X111077480Y-121500661D01*
X111077484Y-121500663D01*
X111083593Y-121503695D01*
X111090218Y-121505347D01*
X111093121Y-121506415D01*
X111093573Y-121506603D01*
X111093708Y-121506651D01*
X111094167Y-121506786D01*
X111097108Y-121507787D01*
X111103297Y-121510673D01*
X111109960Y-121512162D01*
X111109959Y-121512162D01*
X111181831Y-121528227D01*
X111184828Y-121528936D01*
X111250938Y-121545419D01*
X111262894Y-121548400D01*
X111269714Y-121548590D01*
X111272792Y-121549012D01*
X111273709Y-121549177D01*
X111278585Y-121549854D01*
X111283637Y-121550983D01*
X111289307Y-121551300D01*
X111364965Y-121551300D01*
X111368484Y-121551349D01*
X111447612Y-121553559D01*
X111454318Y-121552280D01*
X111461115Y-121551733D01*
X111461158Y-121552262D01*
X111471364Y-121551300D01*
X152028738Y-121551300D01*
X152039279Y-121551742D01*
X152090702Y-121556060D01*
X152097462Y-121555158D01*
X152097466Y-121555158D01*
X152170459Y-121545419D01*
X152173513Y-121545049D01*
X152246728Y-121537095D01*
X152246731Y-121537094D01*
X152253509Y-121536358D01*
X152259969Y-121534184D01*
X152263017Y-121533514D01*
X152263478Y-121533433D01*
X152263629Y-121533397D01*
X152264088Y-121533264D01*
X152267107Y-121532522D01*
X152273869Y-121531620D01*
X152280279Y-121529287D01*
X152280283Y-121529286D01*
X152349471Y-121504103D01*
X152352377Y-121503085D01*
X152422177Y-121479595D01*
X152422179Y-121479594D01*
X152428648Y-121477417D01*
X152434502Y-121473900D01*
X152437314Y-121472600D01*
X152437757Y-121472418D01*
X152437916Y-121472342D01*
X152438334Y-121472114D01*
X152441103Y-121470751D01*
X152447515Y-121468418D01*
X152453273Y-121464764D01*
X152453279Y-121464761D01*
X152515444Y-121425310D01*
X152518063Y-121423692D01*
X152581193Y-121385759D01*
X152581195Y-121385758D01*
X152587044Y-121382243D01*
X152592003Y-121377554D01*
X152594482Y-121375672D01*
X152595259Y-121375132D01*
X152599169Y-121372175D01*
X152603538Y-121369402D01*
X152607772Y-121365617D01*
X152661278Y-121312111D01*
X152663800Y-121309658D01*
X152716349Y-121259965D01*
X152716351Y-121259963D01*
X152721307Y-121255276D01*
X152725141Y-121249634D01*
X152729567Y-121244434D01*
X152729971Y-121244778D01*
X152736507Y-121236882D01*
X154556075Y-119417314D01*
X156387983Y-117585405D01*
X156450295Y-117551379D01*
X156477078Y-117548500D01*
X162196703Y-117548500D01*
X162264824Y-117568502D01*
X162311317Y-117622158D01*
X162317180Y-117638468D01*
X162317956Y-117644362D01*
X162378464Y-117790441D01*
X162383491Y-117796992D01*
X162447872Y-117880896D01*
X162473472Y-117947117D01*
X162459207Y-118016666D01*
X162447872Y-118034304D01*
X162378464Y-118124759D01*
X162317956Y-118270838D01*
X162302500Y-118388239D01*
X162302501Y-120066960D01*
X162317956Y-120184362D01*
X162378464Y-120330441D01*
X162474718Y-120455882D01*
X162600159Y-120552136D01*
X162746238Y-120612644D01*
X162754426Y-120613722D01*
X162859545Y-120627561D01*
X162863639Y-120628100D01*
X163702898Y-120628100D01*
X164542360Y-120628099D01*
X164546444Y-120627561D01*
X164546450Y-120627561D01*
X164651575Y-120613722D01*
X164651577Y-120613722D01*
X164659762Y-120612644D01*
X164716555Y-120589120D01*
X164758784Y-120571628D01*
X164829374Y-120564039D01*
X164892861Y-120595818D01*
X164929088Y-120656877D01*
X164932983Y-120685846D01*
X165022586Y-125838007D01*
X165003771Y-125906465D01*
X164965274Y-125945842D01*
X163022852Y-127208416D01*
X162954766Y-127228771D01*
X127066662Y-127394281D01*
X96953654Y-127533157D01*
X96885442Y-127513469D01*
X96863829Y-127496104D01*
X94860369Y-125485936D01*
X94826448Y-125423567D01*
X94823613Y-125396941D01*
X94828511Y-112839141D01*
X104316433Y-112839141D01*
X104322529Y-113097790D01*
X104323363Y-113102495D01*
X104359330Y-113305436D01*
X104367678Y-113352542D01*
X104450841Y-113597533D01*
X104570105Y-113827125D01*
X104722725Y-114036036D01*
X104905189Y-114219458D01*
X104909035Y-114222299D01*
X104909040Y-114222303D01*
X105056612Y-114331301D01*
X105113298Y-114373170D01*
X105117528Y-114375396D01*
X105117532Y-114375398D01*
X105338026Y-114491405D01*
X105342263Y-114493634D01*
X105586815Y-114578079D01*
X105841326Y-114624561D01*
X105924119Y-114628900D01*
X106085382Y-114628900D01*
X106087761Y-114628719D01*
X106087762Y-114628719D01*
X106272809Y-114614643D01*
X106272814Y-114614642D01*
X106277576Y-114614280D01*
X106282230Y-114613201D01*
X106282232Y-114613201D01*
X106524951Y-114556942D01*
X106524950Y-114556942D01*
X106529615Y-114555861D01*
X106769918Y-114459990D01*
X106992954Y-114328873D01*
X106996665Y-114325852D01*
X106996669Y-114325849D01*
X107189879Y-114168551D01*
X107193591Y-114165529D01*
X107367213Y-113973715D01*
X107509822Y-113757847D01*
X107518093Y-113739907D01*
X107616132Y-113527243D01*
X107616133Y-113527240D01*
X107618138Y-113522891D01*
X107635872Y-113461250D01*
X107680104Y-113307500D01*
X107689668Y-113274255D01*
X107690468Y-113268058D01*
X107722156Y-113022396D01*
X107722767Y-113017659D01*
X107716671Y-112759010D01*
X107671522Y-112504258D01*
X107588359Y-112259267D01*
X107469095Y-112029675D01*
X107316475Y-111820764D01*
X107134011Y-111637342D01*
X107130165Y-111634501D01*
X107130160Y-111634497D01*
X106929754Y-111486475D01*
X106929753Y-111486474D01*
X106925902Y-111483630D01*
X106921672Y-111481404D01*
X106921668Y-111481402D01*
X106701174Y-111365395D01*
X106701172Y-111365394D01*
X106696937Y-111363166D01*
X106687294Y-111359836D01*
X106645536Y-111345417D01*
X106452385Y-111278721D01*
X106252166Y-111242154D01*
X106201844Y-111232964D01*
X106201843Y-111232964D01*
X106197874Y-111232239D01*
X106115081Y-111227900D01*
X105953818Y-111227900D01*
X105951439Y-111228081D01*
X105951438Y-111228081D01*
X105766391Y-111242157D01*
X105766386Y-111242158D01*
X105761624Y-111242520D01*
X105756970Y-111243599D01*
X105756968Y-111243599D01*
X105609151Y-111277861D01*
X105509585Y-111300939D01*
X105269282Y-111396810D01*
X105046246Y-111527927D01*
X105042535Y-111530948D01*
X105042531Y-111530951D01*
X104907683Y-111640735D01*
X104845609Y-111691271D01*
X104671987Y-111883085D01*
X104529378Y-112098953D01*
X104421062Y-112333909D01*
X104349532Y-112582545D01*
X104348921Y-112587283D01*
X104348920Y-112587287D01*
X104328305Y-112747101D01*
X104316433Y-112839141D01*
X94828511Y-112839141D01*
X94848970Y-60381575D01*
X94868999Y-60313463D01*
X94893241Y-60285727D01*
X100116879Y-55833902D01*
X100181700Y-55804940D01*
X100198608Y-55803800D01*
X157779045Y-55803800D01*
X157847166Y-55823802D01*
G37*
%TD.AperFunction*%
%TA.AperFunction,Conductor*%
G36*
X102739741Y-91172002D02*
G01*
X102750572Y-91179804D01*
X102881074Y-91284731D01*
X102963833Y-91325813D01*
X103040481Y-91363862D01*
X103040485Y-91363864D01*
X103046592Y-91366895D01*
X103053214Y-91368546D01*
X103220497Y-91410255D01*
X103220501Y-91410256D01*
X103225893Y-91411600D01*
X103242706Y-91412746D01*
X103266286Y-91414354D01*
X103266299Y-91414354D01*
X103268434Y-91414500D01*
X104315566Y-91414500D01*
X104317701Y-91414354D01*
X104317714Y-91414354D01*
X104341294Y-91412746D01*
X104358107Y-91411600D01*
X104363499Y-91410256D01*
X104363503Y-91410255D01*
X104530786Y-91368546D01*
X104537408Y-91366895D01*
X104543515Y-91363864D01*
X104543519Y-91363862D01*
X104620167Y-91325813D01*
X104702926Y-91284731D01*
X104833428Y-91179804D01*
X104899050Y-91152707D01*
X104912380Y-91152000D01*
X105285971Y-91152000D01*
X105354092Y-91172002D01*
X105374908Y-91188776D01*
X105379060Y-91193940D01*
X105485675Y-91279661D01*
X105526229Y-91337933D01*
X105528841Y-91408882D01*
X105519581Y-91433880D01*
X105470138Y-91533481D01*
X105470136Y-91533485D01*
X105467105Y-91539592D01*
X105465454Y-91546214D01*
X105430431Y-91686684D01*
X105422400Y-91718893D01*
X105419500Y-91761434D01*
X105419500Y-92858566D01*
X105419646Y-92860701D01*
X105419646Y-92860714D01*
X105421254Y-92884294D01*
X105422400Y-92901107D01*
X105423744Y-92906499D01*
X105423745Y-92906503D01*
X105451537Y-93017968D01*
X105467105Y-93080408D01*
X105470136Y-93086515D01*
X105470138Y-93086519D01*
X105493309Y-93133195D01*
X105549269Y-93245926D01*
X105665060Y-93389940D01*
X105670379Y-93394216D01*
X105675206Y-93399044D01*
X105673657Y-93400593D01*
X105708304Y-93450366D01*
X105714800Y-93490301D01*
X105714800Y-94772775D01*
X105694798Y-94840896D01*
X105667756Y-94870967D01*
X105584310Y-94938060D01*
X105468519Y-95082074D01*
X105466957Y-95085221D01*
X105414361Y-95130998D01*
X105361767Y-95142500D01*
X102290279Y-95142500D01*
X102222158Y-95122498D01*
X102201184Y-95105595D01*
X100989405Y-93893817D01*
X100955380Y-93831505D01*
X100952500Y-93804722D01*
X100952500Y-91540500D01*
X100972502Y-91472379D01*
X101026158Y-91425886D01*
X101078500Y-91414500D01*
X101775566Y-91414500D01*
X101777701Y-91414354D01*
X101777714Y-91414354D01*
X101801294Y-91412746D01*
X101818107Y-91411600D01*
X101823499Y-91410256D01*
X101823503Y-91410255D01*
X101990786Y-91368546D01*
X101997408Y-91366895D01*
X102003515Y-91363864D01*
X102003519Y-91363862D01*
X102080167Y-91325813D01*
X102162926Y-91284731D01*
X102293428Y-91179804D01*
X102359050Y-91152707D01*
X102372380Y-91152000D01*
X102671620Y-91152000D01*
X102739741Y-91172002D01*
G37*
%TD.AperFunction*%
%TD*%
%TA.AperFunction,Conductor*%
%TO.N,GND2*%
G36*
X238474915Y-55569802D02*
G01*
X238491156Y-55582211D01*
X240238946Y-57157684D01*
X240269467Y-57199525D01*
X241413983Y-59740380D01*
X241425100Y-59791995D01*
X241475849Y-107901635D01*
X241468593Y-107943908D01*
X240831210Y-109739974D01*
X240348207Y-111101016D01*
X240336318Y-122317158D01*
X240334849Y-123702636D01*
X240314775Y-123770735D01*
X240304938Y-123784006D01*
X237959388Y-126549286D01*
X237900070Y-126588297D01*
X237863692Y-126593781D01*
X217526239Y-126657053D01*
X180818603Y-126771254D01*
X180750420Y-126751464D01*
X180736251Y-126740955D01*
X178980496Y-125237286D01*
X178941767Y-125177783D01*
X178936456Y-125141537D01*
X178938183Y-120712695D01*
X178938377Y-120214450D01*
X178958406Y-120146338D01*
X179012079Y-120099866D01*
X179064377Y-120088500D01*
X181679604Y-120088500D01*
X181747725Y-120108502D01*
X181787351Y-120152768D01*
X181788456Y-120152062D01*
X181792135Y-120157814D01*
X181795169Y-120163926D01*
X181910960Y-120307940D01*
X182054974Y-120423731D01*
X182110729Y-120451408D01*
X182214381Y-120502862D01*
X182214385Y-120502864D01*
X182220492Y-120505895D01*
X182227114Y-120507546D01*
X182394397Y-120549255D01*
X182394401Y-120549256D01*
X182399793Y-120550600D01*
X182416606Y-120551746D01*
X182440186Y-120553354D01*
X182440199Y-120553354D01*
X182442334Y-120553500D01*
X183114466Y-120553500D01*
X183116601Y-120553354D01*
X183116614Y-120553354D01*
X183140194Y-120551746D01*
X183157007Y-120550600D01*
X183162399Y-120549256D01*
X183162403Y-120549255D01*
X183329686Y-120507546D01*
X183336308Y-120505895D01*
X183342415Y-120502864D01*
X183342419Y-120502862D01*
X183446071Y-120451408D01*
X183501826Y-120423731D01*
X183611948Y-120335190D01*
X183677570Y-120308093D01*
X183747424Y-120320776D01*
X183769852Y-120335190D01*
X183879974Y-120423731D01*
X183935729Y-120451408D01*
X184039381Y-120502862D01*
X184039385Y-120502864D01*
X184045492Y-120505895D01*
X184052114Y-120507546D01*
X184219397Y-120549255D01*
X184219401Y-120549256D01*
X184224793Y-120550600D01*
X184241606Y-120551746D01*
X184265186Y-120553354D01*
X184265199Y-120553354D01*
X184267334Y-120553500D01*
X184939466Y-120553500D01*
X184941601Y-120553354D01*
X184941614Y-120553354D01*
X184965194Y-120551746D01*
X184982007Y-120550600D01*
X184987399Y-120549256D01*
X184987403Y-120549255D01*
X185154686Y-120507546D01*
X185161308Y-120505895D01*
X185167415Y-120502864D01*
X185167419Y-120502862D01*
X185271071Y-120451408D01*
X185326826Y-120423731D01*
X185470840Y-120307940D01*
X185586631Y-120163926D01*
X185588193Y-120160779D01*
X185640789Y-120115002D01*
X185693383Y-120103500D01*
X187123721Y-120103500D01*
X187191842Y-120123502D01*
X187212816Y-120140405D01*
X189107567Y-122035156D01*
X189114710Y-122042923D01*
X189148020Y-122082340D01*
X189153444Y-122086487D01*
X189153445Y-122086488D01*
X189211932Y-122131205D01*
X189214355Y-122133105D01*
X189271754Y-122179256D01*
X189271764Y-122179262D01*
X189277073Y-122183531D01*
X189283179Y-122186562D01*
X189285804Y-122188241D01*
X189286183Y-122188506D01*
X189286318Y-122188590D01*
X189286742Y-122188823D01*
X189289395Y-122190430D01*
X189294820Y-122194577D01*
X189363840Y-122226761D01*
X189367730Y-122228575D01*
X189370505Y-122229910D01*
X189436480Y-122262661D01*
X189436484Y-122262663D01*
X189442593Y-122265695D01*
X189449218Y-122267347D01*
X189452121Y-122268415D01*
X189452573Y-122268603D01*
X189452708Y-122268651D01*
X189453167Y-122268786D01*
X189456108Y-122269787D01*
X189462297Y-122272673D01*
X189468960Y-122274162D01*
X189468959Y-122274162D01*
X189540831Y-122290227D01*
X189543828Y-122290936D01*
X189609938Y-122307419D01*
X189621894Y-122310400D01*
X189628714Y-122310590D01*
X189631792Y-122311012D01*
X189632709Y-122311177D01*
X189637585Y-122311854D01*
X189642637Y-122312983D01*
X189648307Y-122313300D01*
X189723964Y-122313300D01*
X189727483Y-122313349D01*
X189806611Y-122315559D01*
X189813317Y-122314280D01*
X189820114Y-122313733D01*
X189820157Y-122314262D01*
X189830363Y-122313300D01*
X209305738Y-122313300D01*
X209316279Y-122313742D01*
X209367702Y-122318060D01*
X209374462Y-122317158D01*
X209374466Y-122317158D01*
X209447459Y-122307419D01*
X209450513Y-122307049D01*
X209523728Y-122299095D01*
X209523731Y-122299094D01*
X209530509Y-122298358D01*
X209536969Y-122296184D01*
X209540017Y-122295514D01*
X209540478Y-122295433D01*
X209540629Y-122295397D01*
X209541088Y-122295264D01*
X209544107Y-122294522D01*
X209550869Y-122293620D01*
X209557279Y-122291287D01*
X209557283Y-122291286D01*
X209626471Y-122266103D01*
X209629377Y-122265085D01*
X209699177Y-122241595D01*
X209699179Y-122241594D01*
X209705648Y-122239417D01*
X209711502Y-122235900D01*
X209714314Y-122234600D01*
X209714757Y-122234418D01*
X209714916Y-122234342D01*
X209715334Y-122234114D01*
X209718103Y-122232751D01*
X209724515Y-122230418D01*
X209730273Y-122226764D01*
X209730279Y-122226761D01*
X209792444Y-122187310D01*
X209795063Y-122185692D01*
X209858193Y-122147759D01*
X209858195Y-122147758D01*
X209864044Y-122144243D01*
X209869003Y-122139554D01*
X209871482Y-122137672D01*
X209872259Y-122137132D01*
X209876169Y-122134175D01*
X209880538Y-122131402D01*
X209884772Y-122127617D01*
X209938277Y-122074112D01*
X209940799Y-122071659D01*
X209993349Y-122021965D01*
X209993351Y-122021963D01*
X209998307Y-122017276D01*
X210002141Y-122011634D01*
X210006567Y-122006434D01*
X210006971Y-122006778D01*
X210013507Y-121998882D01*
X211036750Y-120975638D01*
X211044517Y-120968495D01*
X211078726Y-120939586D01*
X211083940Y-120935180D01*
X211132809Y-120871262D01*
X211134702Y-120868847D01*
X211180854Y-120811447D01*
X211180856Y-120811444D01*
X211185131Y-120806127D01*
X211188168Y-120800010D01*
X211189838Y-120797398D01*
X211190114Y-120797004D01*
X211190191Y-120796880D01*
X211190423Y-120796458D01*
X211192030Y-120793805D01*
X211196177Y-120788380D01*
X211230179Y-120715462D01*
X211231510Y-120712695D01*
X211264261Y-120646720D01*
X211264263Y-120646716D01*
X211267295Y-120640607D01*
X211268947Y-120633982D01*
X211270015Y-120631079D01*
X211270203Y-120630627D01*
X211270251Y-120630492D01*
X211270386Y-120630033D01*
X211271387Y-120627092D01*
X211274273Y-120620903D01*
X211289339Y-120553500D01*
X211291827Y-120542369D01*
X211292536Y-120539372D01*
X211310349Y-120467928D01*
X211310349Y-120467927D01*
X211312000Y-120461306D01*
X211312190Y-120454486D01*
X211312612Y-120451408D01*
X211312777Y-120450491D01*
X211313454Y-120445615D01*
X211314583Y-120440563D01*
X211314900Y-120434893D01*
X211314900Y-120359236D01*
X211314949Y-120355718D01*
X211316968Y-120283410D01*
X211317159Y-120276589D01*
X211315880Y-120269883D01*
X211315333Y-120263086D01*
X211315862Y-120263043D01*
X211314900Y-120252837D01*
X211314900Y-115963341D01*
X234313633Y-115963341D01*
X234319729Y-116221990D01*
X234332909Y-116296360D01*
X234350973Y-116398281D01*
X234364878Y-116476742D01*
X234448041Y-116721733D01*
X234567305Y-116951325D01*
X234719925Y-117160236D01*
X234723299Y-117163628D01*
X234723301Y-117163630D01*
X234737960Y-117178366D01*
X234902389Y-117343658D01*
X234906235Y-117346499D01*
X234906240Y-117346503D01*
X235053812Y-117455501D01*
X235110498Y-117497370D01*
X235114728Y-117499596D01*
X235114732Y-117499598D01*
X235335226Y-117615605D01*
X235339463Y-117617834D01*
X235584015Y-117702279D01*
X235838526Y-117748761D01*
X235921319Y-117753100D01*
X236082582Y-117753100D01*
X236084961Y-117752919D01*
X236084962Y-117752919D01*
X236270009Y-117738843D01*
X236270014Y-117738842D01*
X236274776Y-117738480D01*
X236279430Y-117737401D01*
X236279432Y-117737401D01*
X236522151Y-117681142D01*
X236522150Y-117681142D01*
X236526815Y-117680061D01*
X236767118Y-117584190D01*
X236990154Y-117453073D01*
X236993865Y-117450052D01*
X236993869Y-117450049D01*
X237187079Y-117292751D01*
X237190791Y-117289729D01*
X237364413Y-117097915D01*
X237507022Y-116882047D01*
X237540901Y-116808559D01*
X237613332Y-116651443D01*
X237613333Y-116651440D01*
X237615338Y-116647091D01*
X237686868Y-116398455D01*
X237719967Y-116141859D01*
X237715760Y-115963341D01*
X237713984Y-115887990D01*
X237713984Y-115887986D01*
X237713871Y-115883210D01*
X237692551Y-115762914D01*
X237669556Y-115633162D01*
X237669555Y-115633158D01*
X237668722Y-115628458D01*
X237585559Y-115383467D01*
X237466295Y-115153875D01*
X237313675Y-114944964D01*
X237131211Y-114761542D01*
X237127365Y-114758701D01*
X237127360Y-114758697D01*
X236926954Y-114610675D01*
X236926953Y-114610674D01*
X236923102Y-114607830D01*
X236918872Y-114605604D01*
X236918868Y-114605602D01*
X236698374Y-114489595D01*
X236698372Y-114489594D01*
X236694137Y-114487366D01*
X236449585Y-114402921D01*
X236195074Y-114356439D01*
X236112281Y-114352100D01*
X235951018Y-114352100D01*
X235948639Y-114352281D01*
X235948638Y-114352281D01*
X235763591Y-114366357D01*
X235763586Y-114366358D01*
X235758824Y-114366720D01*
X235754170Y-114367799D01*
X235754168Y-114367799D01*
X235606351Y-114402061D01*
X235506785Y-114425139D01*
X235266482Y-114521010D01*
X235043446Y-114652127D01*
X235039735Y-114655148D01*
X235039731Y-114655151D01*
X234904883Y-114764935D01*
X234842809Y-114815471D01*
X234669187Y-115007285D01*
X234666546Y-115011283D01*
X234666545Y-115011284D01*
X234647628Y-115039919D01*
X234526578Y-115223153D01*
X234524577Y-115227493D01*
X234524575Y-115227497D01*
X234426836Y-115439510D01*
X234418262Y-115458109D01*
X234346732Y-115706745D01*
X234346121Y-115711483D01*
X234346120Y-115711487D01*
X234328566Y-115847572D01*
X234313633Y-115963341D01*
X211314900Y-115963341D01*
X211314900Y-113172650D01*
X211315342Y-113162106D01*
X211316153Y-113152446D01*
X211319659Y-113110698D01*
X211318757Y-113103934D01*
X211309021Y-113030963D01*
X211308651Y-113027908D01*
X211300695Y-112954673D01*
X211300695Y-112954671D01*
X211299958Y-112947891D01*
X211297784Y-112941430D01*
X211297114Y-112938383D01*
X211297033Y-112937922D01*
X211296997Y-112937771D01*
X211296864Y-112937312D01*
X211296122Y-112934293D01*
X211295220Y-112927531D01*
X211292886Y-112921119D01*
X211292885Y-112921114D01*
X211267697Y-112851911D01*
X211266679Y-112849006D01*
X211243192Y-112779215D01*
X211241017Y-112772752D01*
X211237504Y-112766905D01*
X211236205Y-112764095D01*
X211236025Y-112763658D01*
X211235944Y-112763488D01*
X211235720Y-112763077D01*
X211234351Y-112760295D01*
X211232018Y-112753884D01*
X211188880Y-112685911D01*
X211187264Y-112683293D01*
X211149358Y-112620206D01*
X211145843Y-112614356D01*
X211141156Y-112609400D01*
X211139272Y-112606917D01*
X211138727Y-112606132D01*
X211135772Y-112602225D01*
X211133002Y-112597861D01*
X211129217Y-112593628D01*
X211075713Y-112540124D01*
X211073260Y-112537602D01*
X211018876Y-112480093D01*
X211013232Y-112476258D01*
X211008033Y-112471833D01*
X211008376Y-112471430D01*
X211000480Y-112464892D01*
X210614138Y-112078550D01*
X210606995Y-112070783D01*
X210578086Y-112036574D01*
X210573680Y-112031360D01*
X210509762Y-111982491D01*
X210507347Y-111980598D01*
X210449947Y-111934446D01*
X210449944Y-111934444D01*
X210444627Y-111930169D01*
X210438510Y-111927132D01*
X210435898Y-111925462D01*
X210435504Y-111925186D01*
X210435380Y-111925109D01*
X210434958Y-111924877D01*
X210432305Y-111923270D01*
X210426880Y-111919123D01*
X210353962Y-111885121D01*
X210351195Y-111883790D01*
X210285220Y-111851039D01*
X210285216Y-111851037D01*
X210279107Y-111848005D01*
X210272482Y-111846353D01*
X210269579Y-111845285D01*
X210269127Y-111845097D01*
X210268992Y-111845049D01*
X210268533Y-111844914D01*
X210265592Y-111843913D01*
X210259403Y-111841027D01*
X210236946Y-111836007D01*
X210180869Y-111823473D01*
X210177872Y-111822764D01*
X210106428Y-111804951D01*
X210106427Y-111804951D01*
X210099806Y-111803300D01*
X210092986Y-111803110D01*
X210089908Y-111802688D01*
X210088991Y-111802523D01*
X210084115Y-111801846D01*
X210079063Y-111800717D01*
X210073393Y-111800400D01*
X209997736Y-111800400D01*
X209994218Y-111800351D01*
X209992488Y-111800303D01*
X209915089Y-111798141D01*
X209908383Y-111799420D01*
X209901586Y-111799967D01*
X209901543Y-111799438D01*
X209891337Y-111800400D01*
X206961980Y-111800400D01*
X206893859Y-111780398D01*
X206883028Y-111772596D01*
X206757848Y-111671948D01*
X206752526Y-111667669D01*
X206749379Y-111666107D01*
X206703602Y-111613511D01*
X206692100Y-111560917D01*
X206692100Y-108499062D01*
X206692542Y-108488518D01*
X206696860Y-108437098D01*
X206694565Y-108419897D01*
X206686219Y-108357341D01*
X206685849Y-108354287D01*
X206677895Y-108281072D01*
X206677894Y-108281069D01*
X206677158Y-108274291D01*
X206674984Y-108267831D01*
X206674314Y-108264783D01*
X206674233Y-108264322D01*
X206674197Y-108264171D01*
X206674064Y-108263712D01*
X206673322Y-108260693D01*
X206672420Y-108253931D01*
X206670087Y-108247521D01*
X206670086Y-108247517D01*
X206644903Y-108178329D01*
X206643885Y-108175423D01*
X206620395Y-108105623D01*
X206620394Y-108105621D01*
X206618217Y-108099152D01*
X206614700Y-108093298D01*
X206613400Y-108090486D01*
X206613218Y-108090043D01*
X206613142Y-108089884D01*
X206612914Y-108089466D01*
X206611551Y-108086697D01*
X206609218Y-108080285D01*
X206605564Y-108074527D01*
X206605561Y-108074521D01*
X206566110Y-108012356D01*
X206564492Y-108009737D01*
X206526559Y-107946607D01*
X206526558Y-107946605D01*
X206523043Y-107940756D01*
X206518354Y-107935797D01*
X206516472Y-107933318D01*
X206515932Y-107932541D01*
X206512975Y-107928631D01*
X206510202Y-107924262D01*
X206506417Y-107920028D01*
X206452911Y-107866522D01*
X206450458Y-107864000D01*
X206400765Y-107811451D01*
X206400763Y-107811449D01*
X206396076Y-107806493D01*
X206390434Y-107802659D01*
X206385234Y-107798233D01*
X206385578Y-107797829D01*
X206377682Y-107791293D01*
X204184138Y-105597750D01*
X204176995Y-105589983D01*
X204148086Y-105555774D01*
X204143680Y-105550560D01*
X204079762Y-105501691D01*
X204077347Y-105499798D01*
X204019947Y-105453646D01*
X204019944Y-105453644D01*
X204014627Y-105449369D01*
X204008510Y-105446332D01*
X204005898Y-105444662D01*
X204005504Y-105444386D01*
X204005380Y-105444309D01*
X204004958Y-105444077D01*
X204002305Y-105442470D01*
X203996880Y-105438323D01*
X203923962Y-105404321D01*
X203921195Y-105402990D01*
X203855220Y-105370239D01*
X203855216Y-105370237D01*
X203849107Y-105367205D01*
X203842482Y-105365553D01*
X203839579Y-105364485D01*
X203839127Y-105364297D01*
X203838992Y-105364249D01*
X203838533Y-105364114D01*
X203835592Y-105363113D01*
X203829403Y-105360227D01*
X203806946Y-105355207D01*
X203750869Y-105342673D01*
X203747872Y-105341964D01*
X203676428Y-105324151D01*
X203676427Y-105324151D01*
X203669806Y-105322500D01*
X203662986Y-105322310D01*
X203659908Y-105321888D01*
X203658991Y-105321723D01*
X203654115Y-105321046D01*
X203649063Y-105319917D01*
X203643393Y-105319600D01*
X203567736Y-105319600D01*
X203564218Y-105319551D01*
X203562488Y-105319503D01*
X203485089Y-105317341D01*
X203478383Y-105318620D01*
X203471586Y-105319167D01*
X203471543Y-105318638D01*
X203461337Y-105319600D01*
X194272400Y-105319600D01*
X194204279Y-105299598D01*
X194157786Y-105245942D01*
X194146400Y-105193600D01*
X194146400Y-85136979D01*
X194166402Y-85068858D01*
X194183305Y-85047884D01*
X196708183Y-82523005D01*
X196770495Y-82488980D01*
X196797278Y-82486100D01*
X200568138Y-82486100D01*
X200578679Y-82486542D01*
X200630102Y-82490860D01*
X200636862Y-82489958D01*
X200636866Y-82489958D01*
X200709859Y-82480219D01*
X200712913Y-82479849D01*
X200786128Y-82471895D01*
X200786131Y-82471894D01*
X200792909Y-82471158D01*
X200799369Y-82468984D01*
X200802417Y-82468314D01*
X200802878Y-82468233D01*
X200803029Y-82468197D01*
X200803488Y-82468064D01*
X200806507Y-82467322D01*
X200813269Y-82466420D01*
X200819679Y-82464087D01*
X200819683Y-82464086D01*
X200888871Y-82438903D01*
X200891777Y-82437885D01*
X200961577Y-82414395D01*
X200961579Y-82414394D01*
X200968048Y-82412217D01*
X200973902Y-82408700D01*
X200976714Y-82407400D01*
X200977157Y-82407218D01*
X200977316Y-82407142D01*
X200977734Y-82406914D01*
X200980503Y-82405551D01*
X200986915Y-82403218D01*
X200992673Y-82399564D01*
X200992679Y-82399561D01*
X201054844Y-82360110D01*
X201057463Y-82358492D01*
X201120593Y-82320559D01*
X201120595Y-82320558D01*
X201126444Y-82317043D01*
X201131403Y-82312354D01*
X201133882Y-82310472D01*
X201134659Y-82309932D01*
X201138569Y-82306975D01*
X201142938Y-82304202D01*
X201147172Y-82300417D01*
X201200678Y-82246911D01*
X201203200Y-82244458D01*
X201255749Y-82194765D01*
X201255751Y-82194763D01*
X201260707Y-82190076D01*
X201264541Y-82184434D01*
X201268967Y-82179234D01*
X201269371Y-82179578D01*
X201275907Y-82171682D01*
X201613356Y-81834233D01*
X201621123Y-81827090D01*
X201655327Y-81798185D01*
X201660540Y-81793780D01*
X201709426Y-81729840D01*
X201711317Y-81727429D01*
X201757455Y-81670046D01*
X201757461Y-81670036D01*
X201761730Y-81664727D01*
X201764760Y-81658623D01*
X201766431Y-81656010D01*
X201766701Y-81655624D01*
X201766802Y-81655461D01*
X201767022Y-81655062D01*
X201768639Y-81652392D01*
X201772777Y-81646980D01*
X201775658Y-81640803D01*
X201775661Y-81640797D01*
X201806787Y-81574048D01*
X201808121Y-81571275D01*
X201840863Y-81505316D01*
X201843895Y-81499208D01*
X201845545Y-81492592D01*
X201846618Y-81489674D01*
X201846796Y-81489247D01*
X201846858Y-81489070D01*
X201846992Y-81488615D01*
X201847988Y-81485689D01*
X201850873Y-81479503D01*
X201859265Y-81441961D01*
X201868432Y-81400946D01*
X201869141Y-81397950D01*
X201886948Y-81326531D01*
X201886949Y-81326526D01*
X201888599Y-81319907D01*
X201888789Y-81313088D01*
X201889211Y-81310010D01*
X201889380Y-81309071D01*
X201890054Y-81304215D01*
X201891183Y-81299163D01*
X201891500Y-81293493D01*
X201891500Y-81217801D01*
X201891549Y-81214283D01*
X201892339Y-81186000D01*
X201893758Y-81135189D01*
X201892479Y-81128483D01*
X201891932Y-81121686D01*
X201892466Y-81121643D01*
X201891500Y-81111443D01*
X201891500Y-78835336D01*
X201911502Y-78767215D01*
X201965158Y-78720722D01*
X202017416Y-78709336D01*
X216613379Y-78699559D01*
X238161149Y-78685127D01*
X238176111Y-78684751D01*
X238185834Y-78684507D01*
X238190730Y-78684384D01*
X238268963Y-78670112D01*
X238342170Y-78656757D01*
X238342172Y-78656756D01*
X238346231Y-78656016D01*
X238350154Y-78654753D01*
X238350160Y-78654752D01*
X238386944Y-78642914D01*
X238419566Y-78632416D01*
X238447512Y-78622663D01*
X238586895Y-78548114D01*
X239847408Y-77644350D01*
X239934232Y-77568612D01*
X239967051Y-77533957D01*
X240045555Y-77430907D01*
X240104490Y-77296390D01*
X240107329Y-77289911D01*
X240107330Y-77289907D01*
X240108987Y-77286126D01*
X240128746Y-77217935D01*
X240152665Y-77047262D01*
X240144215Y-74672806D01*
X240127740Y-70043449D01*
X240127740Y-70043446D01*
X240127729Y-70040397D01*
X240122812Y-69991696D01*
X240116249Y-69926682D01*
X240116248Y-69926672D01*
X240115941Y-69923636D01*
X240106394Y-69875971D01*
X240066644Y-69750426D01*
X239984497Y-69615381D01*
X239939999Y-69560060D01*
X239927653Y-69548544D01*
X239893045Y-69516265D01*
X239813968Y-69442508D01*
X238731896Y-68689762D01*
X238710321Y-68675428D01*
X238705971Y-68673411D01*
X238705967Y-68673409D01*
X238651393Y-68648108D01*
X238566916Y-68608943D01*
X238494790Y-68586377D01*
X238494179Y-68586200D01*
X238474518Y-68580507D01*
X238474513Y-68580506D01*
X238469906Y-68579172D01*
X238465145Y-68578552D01*
X238465141Y-68578551D01*
X238317256Y-68559288D01*
X238317254Y-68559288D01*
X238313163Y-68558755D01*
X201199731Y-68609457D01*
X201195779Y-68609965D01*
X201195776Y-68609965D01*
X201052233Y-68628410D01*
X201052229Y-68628411D01*
X201048274Y-68628919D01*
X201044415Y-68629922D01*
X201044414Y-68629922D01*
X200991118Y-68643771D01*
X200991115Y-68643772D01*
X200987255Y-68644775D01*
X200845482Y-68701510D01*
X200842006Y-68703441D01*
X200842000Y-68703444D01*
X199799139Y-69282811D01*
X199799135Y-69282814D01*
X199795752Y-69284693D01*
X199675596Y-69372341D01*
X199672778Y-69374983D01*
X199672773Y-69374988D01*
X199633883Y-69411462D01*
X199630789Y-69414364D01*
X199527976Y-69540876D01*
X199464029Y-69685430D01*
X199444027Y-69753551D01*
X199443386Y-69758007D01*
X199443385Y-69758013D01*
X199429596Y-69853919D01*
X199419500Y-69924139D01*
X199419500Y-70149517D01*
X199399498Y-70217638D01*
X199345842Y-70264131D01*
X199275568Y-70274235D01*
X199210988Y-70244741D01*
X199175547Y-70187009D01*
X199173901Y-70187615D01*
X199171546Y-70181213D01*
X199169895Y-70174592D01*
X199166864Y-70168485D01*
X199166862Y-70168481D01*
X199103280Y-70040397D01*
X199087731Y-70009074D01*
X198971940Y-69865060D01*
X198827926Y-69749269D01*
X198707295Y-69689387D01*
X198668519Y-69670138D01*
X198668515Y-69670136D01*
X198662408Y-69667105D01*
X198633397Y-69659872D01*
X198488503Y-69623745D01*
X198488499Y-69623744D01*
X198483107Y-69622400D01*
X198466294Y-69621254D01*
X198442714Y-69619646D01*
X198442701Y-69619646D01*
X198440566Y-69619500D01*
X197643434Y-69619500D01*
X197641299Y-69619646D01*
X197641286Y-69619646D01*
X197617706Y-69621254D01*
X197600893Y-69622400D01*
X197595501Y-69623744D01*
X197595497Y-69623745D01*
X197450603Y-69659872D01*
X197421592Y-69667105D01*
X197415485Y-69670136D01*
X197415481Y-69670138D01*
X197376705Y-69689387D01*
X197256074Y-69749269D01*
X197112060Y-69865060D01*
X197107785Y-69870377D01*
X197025714Y-69972452D01*
X196967441Y-70013008D01*
X196927518Y-70019500D01*
X196331646Y-70019500D01*
X196263525Y-69999498D01*
X196252704Y-69991704D01*
X196199926Y-69949269D01*
X196117167Y-69908187D01*
X196040519Y-69870138D01*
X196040515Y-69870136D01*
X196034408Y-69867105D01*
X195984057Y-69854551D01*
X195860503Y-69823745D01*
X195860499Y-69823744D01*
X195855107Y-69822400D01*
X195838294Y-69821254D01*
X195814714Y-69819646D01*
X195814701Y-69819646D01*
X195812566Y-69819500D01*
X195140434Y-69819500D01*
X195138299Y-69819646D01*
X195138286Y-69819646D01*
X195114706Y-69821254D01*
X195097893Y-69822400D01*
X195092501Y-69823744D01*
X195092497Y-69823745D01*
X195065048Y-69830589D01*
X194994111Y-69827661D01*
X194936019Y-69786847D01*
X194926485Y-69773096D01*
X194915871Y-69755381D01*
X194807162Y-69621658D01*
X193233015Y-68168599D01*
X193192224Y-68134149D01*
X193191132Y-68133306D01*
X193176058Y-68121674D01*
X193176047Y-68121666D01*
X193174650Y-68120588D01*
X193118745Y-68082243D01*
X192974050Y-68018614D01*
X192905885Y-67998762D01*
X192901433Y-67998132D01*
X192901429Y-67998131D01*
X192739685Y-67975239D01*
X192739683Y-67975239D01*
X192735240Y-67974610D01*
X181312901Y-67999825D01*
X181308731Y-68000394D01*
X181157480Y-68021032D01*
X181157478Y-68021032D01*
X181153311Y-68021601D01*
X181114438Y-68032318D01*
X181093326Y-68038138D01*
X181093322Y-68038140D01*
X181089261Y-68039259D01*
X181085383Y-68040910D01*
X181085382Y-68040910D01*
X180944923Y-68100694D01*
X180944917Y-68100697D01*
X180941057Y-68102340D01*
X180937452Y-68104480D01*
X180937447Y-68104483D01*
X180827854Y-68169554D01*
X180219541Y-68530740D01*
X180216644Y-68532950D01*
X180216643Y-68532951D01*
X180111066Y-68613504D01*
X180111060Y-68613509D01*
X180108161Y-68615721D01*
X180105537Y-68618253D01*
X180105532Y-68618258D01*
X180069385Y-68653148D01*
X180069380Y-68653153D01*
X180066491Y-68655942D01*
X180063979Y-68659079D01*
X180063977Y-68659081D01*
X180039724Y-68689366D01*
X179969976Y-68776461D01*
X179906029Y-68921015D01*
X179886027Y-68989136D01*
X179861500Y-69159724D01*
X179861500Y-73446916D01*
X179862317Y-73478365D01*
X179891061Y-73633797D01*
X179915066Y-73707777D01*
X179930864Y-73750836D01*
X180009464Y-73887977D01*
X180120879Y-74000101D01*
X180177068Y-74043500D01*
X180180983Y-74045715D01*
X180180986Y-74045717D01*
X180226559Y-74071500D01*
X180327069Y-74128365D01*
X180331259Y-74130000D01*
X180331265Y-74130003D01*
X181263058Y-74493629D01*
X181265836Y-74494713D01*
X181320752Y-74510363D01*
X181372796Y-74525195D01*
X181372805Y-74525197D01*
X181375668Y-74526013D01*
X181422194Y-74534632D01*
X181535967Y-74544752D01*
X181538935Y-74544735D01*
X181538936Y-74544735D01*
X182116791Y-74541414D01*
X185626024Y-74521245D01*
X185694257Y-74540855D01*
X185715842Y-74558148D01*
X185793595Y-74635901D01*
X185827621Y-74698213D01*
X185830500Y-74724996D01*
X185830500Y-75737150D01*
X185831221Y-75766684D01*
X185859472Y-75922206D01*
X185883010Y-75995537D01*
X185897946Y-76036853D01*
X185900534Y-76041436D01*
X185944868Y-76119944D01*
X185960947Y-76189096D01*
X185943029Y-76246557D01*
X185938976Y-76251587D01*
X185875029Y-76396141D01*
X185855027Y-76464262D01*
X185830500Y-76634850D01*
X185830500Y-77296390D01*
X185831929Y-77337966D01*
X185833117Y-77355227D01*
X185839541Y-77410855D01*
X185885064Y-77562225D01*
X185886753Y-77565976D01*
X185886755Y-77565982D01*
X185912361Y-77622857D01*
X185914210Y-77626963D01*
X186006604Y-77772443D01*
X186009532Y-77775859D01*
X186009535Y-77775863D01*
X186219000Y-78020239D01*
X186700556Y-78582054D01*
X186762537Y-78644537D01*
X186764247Y-78646027D01*
X186764260Y-78646039D01*
X186774262Y-78654752D01*
X186790082Y-78668535D01*
X186792228Y-78670106D01*
X186792235Y-78670112D01*
X186810526Y-78683505D01*
X186872689Y-78729024D01*
X187017243Y-78792971D01*
X187085364Y-78812973D01*
X187089820Y-78813614D01*
X187089826Y-78813615D01*
X187185732Y-78827404D01*
X187255952Y-78837500D01*
X196682622Y-78837500D01*
X196683395Y-78837481D01*
X196683422Y-78837481D01*
X196706993Y-78836911D01*
X196711875Y-78836793D01*
X196867410Y-78808614D01*
X196916223Y-78792971D01*
X196939939Y-78785371D01*
X196939969Y-78785361D01*
X196940646Y-78785144D01*
X196968281Y-78775545D01*
X197107798Y-78701246D01*
X197277113Y-78580307D01*
X197908746Y-78129141D01*
X197908754Y-78129135D01*
X197911177Y-78127404D01*
X197997757Y-78052217D01*
X198030518Y-78017809D01*
X198109024Y-77915422D01*
X198172971Y-77770868D01*
X198192973Y-77702747D01*
X198195336Y-77686318D01*
X198207404Y-77602379D01*
X198217500Y-77532159D01*
X198217500Y-75738610D01*
X198217425Y-75736402D01*
X198216108Y-75698109D01*
X198216108Y-75698106D01*
X198216071Y-75697034D01*
X198214883Y-75679773D01*
X198208459Y-75624148D01*
X198162938Y-75472778D01*
X198133792Y-75408039D01*
X198041396Y-75262556D01*
X197347444Y-74452946D01*
X197285463Y-74390463D01*
X197283753Y-74388973D01*
X197283740Y-74388961D01*
X197270789Y-74377679D01*
X197257918Y-74366465D01*
X197255772Y-74364894D01*
X197255765Y-74364888D01*
X197220938Y-74339386D01*
X197175311Y-74305976D01*
X197030757Y-74242029D01*
X196962636Y-74222027D01*
X196958180Y-74221386D01*
X196958174Y-74221385D01*
X196862268Y-74207596D01*
X196792048Y-74197500D01*
X195168500Y-74197500D01*
X195100379Y-74177498D01*
X195053886Y-74123842D01*
X195042500Y-74071500D01*
X195042500Y-72546500D01*
X195062502Y-72478379D01*
X195116158Y-72431886D01*
X195168500Y-72420500D01*
X195812566Y-72420500D01*
X195814701Y-72420354D01*
X195814714Y-72420354D01*
X195838294Y-72418746D01*
X195855107Y-72417600D01*
X195860499Y-72416256D01*
X195860503Y-72416255D01*
X196027786Y-72374546D01*
X196034408Y-72372895D01*
X196040515Y-72369864D01*
X196040519Y-72369862D01*
X196117167Y-72331813D01*
X196199926Y-72290731D01*
X196252695Y-72248303D01*
X196318316Y-72221207D01*
X196331646Y-72220500D01*
X196927518Y-72220500D01*
X196995639Y-72240502D01*
X197025714Y-72267548D01*
X197112060Y-72374940D01*
X197256074Y-72490731D01*
X197338833Y-72531813D01*
X197415481Y-72569862D01*
X197415485Y-72569864D01*
X197421592Y-72572895D01*
X197428214Y-72574546D01*
X197595497Y-72616255D01*
X197595501Y-72616256D01*
X197600893Y-72617600D01*
X197617706Y-72618746D01*
X197641286Y-72620354D01*
X197641299Y-72620354D01*
X197643434Y-72620500D01*
X198440566Y-72620500D01*
X198442701Y-72620354D01*
X198442714Y-72620354D01*
X198466294Y-72618746D01*
X198483107Y-72617600D01*
X198488499Y-72616256D01*
X198488503Y-72616255D01*
X198655786Y-72574546D01*
X198662408Y-72572895D01*
X198668515Y-72569864D01*
X198668519Y-72569862D01*
X198745167Y-72531813D01*
X198827926Y-72490731D01*
X198971940Y-72374940D01*
X199087731Y-72230926D01*
X199157448Y-72090483D01*
X199166862Y-72071519D01*
X199166864Y-72071515D01*
X199169895Y-72065408D01*
X199171546Y-72058787D01*
X199173901Y-72052385D01*
X199175385Y-72052931D01*
X199207129Y-71998744D01*
X199270438Y-71966612D01*
X199341069Y-71973807D01*
X199396597Y-72018047D01*
X199419500Y-72090483D01*
X199419500Y-77685851D01*
X199419814Y-77705349D01*
X199445482Y-77861318D01*
X199466644Y-77931210D01*
X199472593Y-77949775D01*
X199542356Y-78091614D01*
X199544640Y-78095040D01*
X199544644Y-78095047D01*
X199735949Y-78382004D01*
X199735955Y-78382013D01*
X199737759Y-78384718D01*
X199817161Y-78480717D01*
X199853949Y-78516869D01*
X199907768Y-78558785D01*
X199957442Y-78597473D01*
X199957445Y-78597475D01*
X199963557Y-78602235D01*
X200108154Y-78666086D01*
X200108457Y-78666175D01*
X200164863Y-78707816D01*
X200190116Y-78774170D01*
X200190500Y-78783996D01*
X200190500Y-80659100D01*
X200170498Y-80727221D01*
X200116842Y-80773714D01*
X200064500Y-80785100D01*
X196433862Y-80785100D01*
X196423321Y-80784658D01*
X196371898Y-80780340D01*
X196365138Y-80781242D01*
X196365134Y-80781242D01*
X196292141Y-80790981D01*
X196289087Y-80791351D01*
X196215872Y-80799305D01*
X196215869Y-80799306D01*
X196209091Y-80800042D01*
X196202631Y-80802216D01*
X196199583Y-80802886D01*
X196199122Y-80802967D01*
X196198971Y-80803003D01*
X196198512Y-80803136D01*
X196195493Y-80803878D01*
X196188731Y-80804780D01*
X196182321Y-80807113D01*
X196182317Y-80807114D01*
X196113129Y-80832297D01*
X196110223Y-80833315D01*
X196040423Y-80856805D01*
X196040421Y-80856806D01*
X196033952Y-80858983D01*
X196028098Y-80862500D01*
X196025286Y-80863800D01*
X196024843Y-80863982D01*
X196024684Y-80864058D01*
X196024266Y-80864286D01*
X196021497Y-80865649D01*
X196015085Y-80867982D01*
X196009327Y-80871636D01*
X196009321Y-80871639D01*
X195947156Y-80911090D01*
X195944537Y-80912708D01*
X195881407Y-80950641D01*
X195881405Y-80950642D01*
X195875556Y-80954157D01*
X195870597Y-80958846D01*
X195868118Y-80960728D01*
X195867341Y-80961268D01*
X195863431Y-80964225D01*
X195859062Y-80966998D01*
X195854828Y-80970783D01*
X195801322Y-81024289D01*
X195798800Y-81026742D01*
X195741293Y-81081124D01*
X195737459Y-81086766D01*
X195733033Y-81091966D01*
X195732629Y-81091622D01*
X195726093Y-81099518D01*
X192723550Y-84102062D01*
X192715783Y-84109205D01*
X192676360Y-84142520D01*
X192672213Y-84147944D01*
X192672212Y-84147945D01*
X192627498Y-84206429D01*
X192625605Y-84208845D01*
X192575169Y-84271573D01*
X192572132Y-84277690D01*
X192570462Y-84280302D01*
X192570186Y-84280696D01*
X192570109Y-84280820D01*
X192569877Y-84281242D01*
X192568270Y-84283895D01*
X192564123Y-84289320D01*
X192561238Y-84295508D01*
X192530125Y-84362230D01*
X192528790Y-84365005D01*
X192496039Y-84430980D01*
X192496037Y-84430984D01*
X192493005Y-84437093D01*
X192491353Y-84443718D01*
X192490285Y-84446621D01*
X192490097Y-84447073D01*
X192490049Y-84447208D01*
X192489914Y-84447667D01*
X192488913Y-84450608D01*
X192486027Y-84456797D01*
X192484538Y-84463459D01*
X192468473Y-84535331D01*
X192467764Y-84538328D01*
X192449951Y-84609772D01*
X192448300Y-84616394D01*
X192448110Y-84623214D01*
X192447688Y-84626292D01*
X192447523Y-84627209D01*
X192446846Y-84632085D01*
X192445717Y-84637137D01*
X192445400Y-84642807D01*
X192445400Y-84718464D01*
X192445351Y-84721982D01*
X192443141Y-84801111D01*
X192444420Y-84807817D01*
X192444967Y-84814614D01*
X192444438Y-84814657D01*
X192445400Y-84824863D01*
X192445400Y-106089750D01*
X192443708Y-106110328D01*
X192441719Y-106122344D01*
X192442076Y-106129161D01*
X192442076Y-106129165D01*
X192445227Y-106189282D01*
X192445400Y-106195876D01*
X192445400Y-107871020D01*
X192425398Y-107939141D01*
X192417596Y-107949972D01*
X192312669Y-108080474D01*
X192282673Y-108140900D01*
X192233538Y-108239881D01*
X192233536Y-108239885D01*
X192230505Y-108245992D01*
X192185800Y-108425293D01*
X192182900Y-108467834D01*
X192182900Y-109514966D01*
X192185800Y-109557507D01*
X192187144Y-109562899D01*
X192187145Y-109562903D01*
X192204064Y-109630761D01*
X192230505Y-109736808D01*
X192233536Y-109742915D01*
X192233538Y-109742919D01*
X192236141Y-109748162D01*
X192312669Y-109902326D01*
X192428460Y-110046340D01*
X192572474Y-110162131D01*
X192632441Y-110191899D01*
X192731881Y-110241262D01*
X192731885Y-110241264D01*
X192737992Y-110244295D01*
X192744614Y-110245946D01*
X192911897Y-110287655D01*
X192911901Y-110287656D01*
X192917293Y-110289000D01*
X192934106Y-110290146D01*
X192957686Y-110291754D01*
X192957699Y-110291754D01*
X192959834Y-110291900D01*
X193631966Y-110291900D01*
X193634101Y-110291754D01*
X193634114Y-110291754D01*
X193657694Y-110290146D01*
X193674507Y-110289000D01*
X193679899Y-110287656D01*
X193679903Y-110287655D01*
X193847186Y-110245946D01*
X193853808Y-110244295D01*
X193859915Y-110241264D01*
X193859919Y-110241262D01*
X193959359Y-110191899D01*
X194019326Y-110162131D01*
X194065450Y-110125046D01*
X194131070Y-110097951D01*
X194200925Y-110110634D01*
X194252833Y-110159070D01*
X194270400Y-110223244D01*
X194270400Y-110680556D01*
X194250398Y-110748677D01*
X194196742Y-110795170D01*
X194126468Y-110805274D01*
X194065450Y-110778754D01*
X194019326Y-110741669D01*
X193896215Y-110680556D01*
X193859919Y-110662538D01*
X193859915Y-110662536D01*
X193853808Y-110659505D01*
X193824797Y-110652272D01*
X193679903Y-110616145D01*
X193679899Y-110616144D01*
X193674507Y-110614800D01*
X193657694Y-110613654D01*
X193634114Y-110612046D01*
X193634101Y-110612046D01*
X193631966Y-110611900D01*
X192959834Y-110611900D01*
X192957699Y-110612046D01*
X192957686Y-110612046D01*
X192934106Y-110613654D01*
X192917293Y-110614800D01*
X192911901Y-110616144D01*
X192911897Y-110616145D01*
X192767003Y-110652272D01*
X192737992Y-110659505D01*
X192731885Y-110662536D01*
X192731881Y-110662538D01*
X192695585Y-110680556D01*
X192572474Y-110741669D01*
X192428460Y-110857460D01*
X192312669Y-111001474D01*
X192271587Y-111084233D01*
X192233538Y-111160881D01*
X192233536Y-111160885D01*
X192230505Y-111166992D01*
X192185800Y-111346293D01*
X192182900Y-111388834D01*
X192182900Y-112435966D01*
X192185800Y-112478507D01*
X192187144Y-112483899D01*
X192187145Y-112483903D01*
X192200534Y-112537602D01*
X192230505Y-112657808D01*
X192233536Y-112663915D01*
X192233538Y-112663919D01*
X192244457Y-112685914D01*
X192312669Y-112823326D01*
X192335652Y-112851911D01*
X192392196Y-112922237D01*
X192419293Y-112987859D01*
X192420000Y-113001189D01*
X192420000Y-113357420D01*
X192399998Y-113425541D01*
X192392196Y-113436372D01*
X192287269Y-113566874D01*
X192246187Y-113649633D01*
X192208138Y-113726281D01*
X192208136Y-113726285D01*
X192205105Y-113732392D01*
X192160400Y-113911693D01*
X192157500Y-113954234D01*
X192157500Y-115001366D01*
X192160400Y-115043907D01*
X192205105Y-115223208D01*
X192208136Y-115229315D01*
X192208138Y-115229319D01*
X192246187Y-115305967D01*
X192287269Y-115388726D01*
X192390697Y-115517364D01*
X192417793Y-115582984D01*
X192418500Y-115596314D01*
X192418500Y-115726300D01*
X192398498Y-115794421D01*
X192344842Y-115840914D01*
X192292500Y-115852300D01*
X191985932Y-115852300D01*
X191958448Y-115849266D01*
X191957006Y-115848944D01*
X191957003Y-115848944D01*
X191951963Y-115847817D01*
X191946293Y-115847500D01*
X179066129Y-115847500D01*
X178998008Y-115827498D01*
X178951515Y-115773842D01*
X178940130Y-115721454D01*
X178949699Y-91186000D01*
X186624351Y-91186000D01*
X186644117Y-91437148D01*
X186702927Y-91682111D01*
X186799334Y-91914859D01*
X186930964Y-92129659D01*
X186934176Y-92133419D01*
X186934179Y-92133424D01*
X187079056Y-92303052D01*
X187094576Y-92321224D01*
X187098338Y-92324437D01*
X187282376Y-92481621D01*
X187282381Y-92481624D01*
X187286141Y-92484836D01*
X187500941Y-92616466D01*
X187505511Y-92618359D01*
X187505515Y-92618361D01*
X187729116Y-92710979D01*
X187733689Y-92712873D01*
X187818089Y-92733135D01*
X187973839Y-92770528D01*
X187973845Y-92770529D01*
X187978652Y-92771683D01*
X188229800Y-92791449D01*
X188480948Y-92771683D01*
X188485755Y-92770529D01*
X188485761Y-92770528D01*
X188641511Y-92733135D01*
X188725911Y-92712873D01*
X188730484Y-92710979D01*
X188954085Y-92618361D01*
X188954089Y-92618359D01*
X188958659Y-92616466D01*
X189173459Y-92484836D01*
X189177219Y-92481624D01*
X189177224Y-92481621D01*
X189361262Y-92324437D01*
X189365024Y-92321224D01*
X189380544Y-92303052D01*
X189525421Y-92133424D01*
X189525424Y-92133419D01*
X189528636Y-92129659D01*
X189660266Y-91914859D01*
X189756673Y-91682111D01*
X189815483Y-91437148D01*
X189835249Y-91186000D01*
X189815483Y-90934852D01*
X189756673Y-90689889D01*
X189660266Y-90457141D01*
X189528636Y-90242341D01*
X189525424Y-90238581D01*
X189525421Y-90238576D01*
X189368237Y-90054538D01*
X189365024Y-90050776D01*
X189346852Y-90035256D01*
X189177224Y-89890379D01*
X189177219Y-89890376D01*
X189173459Y-89887164D01*
X188958659Y-89755534D01*
X188954089Y-89753641D01*
X188954085Y-89753639D01*
X188730484Y-89661021D01*
X188730482Y-89661020D01*
X188725911Y-89659127D01*
X188641511Y-89638865D01*
X188485761Y-89601472D01*
X188485755Y-89601471D01*
X188480948Y-89600317D01*
X188229800Y-89580551D01*
X187978652Y-89600317D01*
X187973845Y-89601471D01*
X187973839Y-89601472D01*
X187818089Y-89638865D01*
X187733689Y-89659127D01*
X187729118Y-89661020D01*
X187729116Y-89661021D01*
X187505515Y-89753639D01*
X187505511Y-89753641D01*
X187500941Y-89755534D01*
X187286141Y-89887164D01*
X187282381Y-89890376D01*
X187282376Y-89890379D01*
X187112748Y-90035256D01*
X187094576Y-90050776D01*
X187091363Y-90054538D01*
X186934179Y-90238576D01*
X186934176Y-90238581D01*
X186930964Y-90242341D01*
X186799334Y-90457141D01*
X186702927Y-90689889D01*
X186644117Y-90934852D01*
X186624351Y-91186000D01*
X178949699Y-91186000D01*
X178951649Y-86186000D01*
X186624351Y-86186000D01*
X186644117Y-86437148D01*
X186702927Y-86682111D01*
X186799334Y-86914859D01*
X186930964Y-87129659D01*
X186934176Y-87133419D01*
X186934179Y-87133424D01*
X187079056Y-87303052D01*
X187094576Y-87321224D01*
X187098338Y-87324437D01*
X187282376Y-87481621D01*
X187282381Y-87481624D01*
X187286141Y-87484836D01*
X187500941Y-87616466D01*
X187505511Y-87618359D01*
X187505515Y-87618361D01*
X187729116Y-87710979D01*
X187733689Y-87712873D01*
X187818089Y-87733135D01*
X187973839Y-87770528D01*
X187973845Y-87770529D01*
X187978652Y-87771683D01*
X188229800Y-87791449D01*
X188480948Y-87771683D01*
X188485755Y-87770529D01*
X188485761Y-87770528D01*
X188641511Y-87733135D01*
X188725911Y-87712873D01*
X188730484Y-87710979D01*
X188954085Y-87618361D01*
X188954089Y-87618359D01*
X188958659Y-87616466D01*
X189173459Y-87484836D01*
X189177219Y-87481624D01*
X189177224Y-87481621D01*
X189361262Y-87324437D01*
X189365024Y-87321224D01*
X189380544Y-87303052D01*
X189525421Y-87133424D01*
X189525424Y-87133419D01*
X189528636Y-87129659D01*
X189660266Y-86914859D01*
X189756673Y-86682111D01*
X189815483Y-86437148D01*
X189835249Y-86186000D01*
X189815483Y-85934852D01*
X189756673Y-85689889D01*
X189660266Y-85457141D01*
X189528636Y-85242341D01*
X189525424Y-85238581D01*
X189525421Y-85238576D01*
X189368237Y-85054538D01*
X189365024Y-85050776D01*
X189346852Y-85035256D01*
X189177224Y-84890379D01*
X189177219Y-84890376D01*
X189173459Y-84887164D01*
X188958659Y-84755534D01*
X188954089Y-84753641D01*
X188954085Y-84753639D01*
X188730484Y-84661021D01*
X188730482Y-84661020D01*
X188725911Y-84659127D01*
X188641511Y-84638865D01*
X188485761Y-84601472D01*
X188485755Y-84601471D01*
X188480948Y-84600317D01*
X188229800Y-84580551D01*
X187978652Y-84600317D01*
X187973845Y-84601471D01*
X187973839Y-84601472D01*
X187818089Y-84638865D01*
X187733689Y-84659127D01*
X187729118Y-84661020D01*
X187729116Y-84661021D01*
X187505515Y-84753639D01*
X187505511Y-84753641D01*
X187500941Y-84755534D01*
X187286141Y-84887164D01*
X187282381Y-84890376D01*
X187282376Y-84890379D01*
X187112748Y-85035256D01*
X187094576Y-85050776D01*
X187091363Y-85054538D01*
X186934179Y-85238576D01*
X186934176Y-85238581D01*
X186930964Y-85242341D01*
X186799334Y-85457141D01*
X186702927Y-85689889D01*
X186644117Y-85934852D01*
X186624351Y-86186000D01*
X178951649Y-86186000D01*
X178953599Y-81186000D01*
X186624351Y-81186000D01*
X186644117Y-81437148D01*
X186645271Y-81441955D01*
X186645272Y-81441961D01*
X186682665Y-81597711D01*
X186702927Y-81682111D01*
X186704820Y-81686682D01*
X186704821Y-81686684D01*
X186765938Y-81834233D01*
X186799334Y-81914859D01*
X186930964Y-82129659D01*
X186934176Y-82133419D01*
X186934179Y-82133424D01*
X187075738Y-82299168D01*
X187094576Y-82321224D01*
X187098338Y-82324437D01*
X187282376Y-82481621D01*
X187282381Y-82481624D01*
X187286141Y-82484836D01*
X187500941Y-82616466D01*
X187505511Y-82618359D01*
X187505515Y-82618361D01*
X187729116Y-82710979D01*
X187733689Y-82712873D01*
X187818089Y-82733135D01*
X187973839Y-82770528D01*
X187973845Y-82770529D01*
X187978652Y-82771683D01*
X188229800Y-82791449D01*
X188480948Y-82771683D01*
X188485755Y-82770529D01*
X188485761Y-82770528D01*
X188641511Y-82733135D01*
X188725911Y-82712873D01*
X188730484Y-82710979D01*
X188954085Y-82618361D01*
X188954089Y-82618359D01*
X188958659Y-82616466D01*
X189173459Y-82484836D01*
X189177219Y-82481624D01*
X189177224Y-82481621D01*
X189361262Y-82324437D01*
X189365024Y-82321224D01*
X189383862Y-82299168D01*
X189525421Y-82133424D01*
X189525424Y-82133419D01*
X189528636Y-82129659D01*
X189660266Y-81914859D01*
X189693663Y-81834233D01*
X189754779Y-81686684D01*
X189754780Y-81686682D01*
X189756673Y-81682111D01*
X189776935Y-81597711D01*
X189814328Y-81441961D01*
X189814329Y-81441955D01*
X189815483Y-81437148D01*
X189835249Y-81186000D01*
X189815483Y-80934852D01*
X189809779Y-80911090D01*
X189776797Y-80773714D01*
X189756673Y-80689889D01*
X189660266Y-80457141D01*
X189528636Y-80242341D01*
X189525424Y-80238581D01*
X189525421Y-80238576D01*
X189368237Y-80054538D01*
X189365024Y-80050776D01*
X189346852Y-80035256D01*
X189177224Y-79890379D01*
X189177219Y-79890376D01*
X189173459Y-79887164D01*
X188958659Y-79755534D01*
X188954089Y-79753641D01*
X188954085Y-79753639D01*
X188730484Y-79661021D01*
X188730482Y-79661020D01*
X188725911Y-79659127D01*
X188641511Y-79638865D01*
X188485761Y-79601472D01*
X188485755Y-79601471D01*
X188480948Y-79600317D01*
X188229800Y-79580551D01*
X187978652Y-79600317D01*
X187973845Y-79601471D01*
X187973839Y-79601472D01*
X187818089Y-79638865D01*
X187733689Y-79659127D01*
X187729118Y-79661020D01*
X187729116Y-79661021D01*
X187505515Y-79753639D01*
X187505511Y-79753641D01*
X187500941Y-79755534D01*
X187286141Y-79887164D01*
X187282381Y-79890376D01*
X187282376Y-79890379D01*
X187112748Y-80035256D01*
X187094576Y-80050776D01*
X187091363Y-80054538D01*
X186934179Y-80238576D01*
X186934176Y-80238581D01*
X186930964Y-80242341D01*
X186799334Y-80457141D01*
X186702927Y-80689889D01*
X186682803Y-80773714D01*
X186649822Y-80911090D01*
X186644117Y-80934852D01*
X186624351Y-81186000D01*
X178953599Y-81186000D01*
X178961815Y-60119499D01*
X178981844Y-60051387D01*
X178990973Y-60038941D01*
X179196524Y-59791995D01*
X182689817Y-55595192D01*
X182748771Y-55555631D01*
X182786659Y-55549800D01*
X238406794Y-55549800D01*
X238474915Y-55569802D01*
G37*
%TD.AperFunction*%
%TA.AperFunction,Conductor*%
G36*
X209556021Y-113521402D02*
G01*
X209602514Y-113575058D01*
X209613900Y-113627400D01*
X209613900Y-119940720D01*
X209593898Y-120008841D01*
X209576996Y-120029815D01*
X209031417Y-120575395D01*
X208969104Y-120609420D01*
X208942321Y-120612300D01*
X199588480Y-120612300D01*
X199520359Y-120592298D01*
X199473866Y-120538642D01*
X199463762Y-120468368D01*
X199493256Y-120403788D01*
X199499384Y-120397205D01*
X200277356Y-119619232D01*
X200285124Y-119612089D01*
X200319326Y-119583186D01*
X200324540Y-119578780D01*
X200373409Y-119514862D01*
X200375302Y-119512447D01*
X200421454Y-119455047D01*
X200421456Y-119455044D01*
X200425731Y-119449727D01*
X200428768Y-119443610D01*
X200430438Y-119440998D01*
X200430714Y-119440604D01*
X200430791Y-119440480D01*
X200431023Y-119440058D01*
X200432630Y-119437405D01*
X200436777Y-119431980D01*
X200470779Y-119359062D01*
X200472110Y-119356295D01*
X200504861Y-119290320D01*
X200504863Y-119290316D01*
X200507895Y-119284207D01*
X200509547Y-119277582D01*
X200510615Y-119274679D01*
X200510803Y-119274227D01*
X200510851Y-119274092D01*
X200510986Y-119273633D01*
X200511987Y-119270692D01*
X200514873Y-119264503D01*
X200532427Y-119185969D01*
X200533136Y-119182972D01*
X200550949Y-119111528D01*
X200550949Y-119111527D01*
X200552600Y-119104906D01*
X200552790Y-119098086D01*
X200553212Y-119095008D01*
X200553377Y-119094091D01*
X200554054Y-119089215D01*
X200555183Y-119084163D01*
X200555500Y-119078493D01*
X200555500Y-119002836D01*
X200555549Y-118999318D01*
X200557568Y-118927010D01*
X200557759Y-118920189D01*
X200556480Y-118913483D01*
X200555933Y-118906686D01*
X200556462Y-118906643D01*
X200555500Y-118896437D01*
X200555500Y-115607633D01*
X200575502Y-115539512D01*
X200583304Y-115528681D01*
X200675731Y-115413726D01*
X200683399Y-115398279D01*
X200731603Y-115346155D01*
X200796260Y-115328300D01*
X200816517Y-115328300D01*
X200884638Y-115348302D01*
X200921582Y-115385328D01*
X200923269Y-115388726D01*
X201039060Y-115532740D01*
X201183074Y-115648531D01*
X201239546Y-115676564D01*
X201342481Y-115727662D01*
X201342485Y-115727664D01*
X201348592Y-115730695D01*
X201355214Y-115732346D01*
X201522497Y-115774055D01*
X201522501Y-115774056D01*
X201527893Y-115775400D01*
X201544706Y-115776546D01*
X201568286Y-115778154D01*
X201568299Y-115778154D01*
X201570434Y-115778300D01*
X202242566Y-115778300D01*
X202244701Y-115778154D01*
X202244714Y-115778154D01*
X202268294Y-115776546D01*
X202285107Y-115775400D01*
X202290499Y-115774056D01*
X202290503Y-115774055D01*
X202457786Y-115732346D01*
X202464408Y-115730695D01*
X202470515Y-115727664D01*
X202470519Y-115727662D01*
X202573454Y-115676564D01*
X202629926Y-115648531D01*
X202740048Y-115559990D01*
X202805670Y-115532893D01*
X202875524Y-115545576D01*
X202897952Y-115559990D01*
X203008074Y-115648531D01*
X203064546Y-115676564D01*
X203167481Y-115727662D01*
X203167485Y-115727664D01*
X203173592Y-115730695D01*
X203180214Y-115732346D01*
X203347497Y-115774055D01*
X203347501Y-115774056D01*
X203352893Y-115775400D01*
X203369706Y-115776546D01*
X203393286Y-115778154D01*
X203393299Y-115778154D01*
X203395434Y-115778300D01*
X204067566Y-115778300D01*
X204069701Y-115778154D01*
X204069714Y-115778154D01*
X204093294Y-115776546D01*
X204110107Y-115775400D01*
X204115499Y-115774056D01*
X204115503Y-115774055D01*
X204282786Y-115732346D01*
X204289408Y-115730695D01*
X204295515Y-115727664D01*
X204295519Y-115727662D01*
X204398454Y-115676564D01*
X204454926Y-115648531D01*
X204462448Y-115642483D01*
X204464047Y-115641823D01*
X204465990Y-115640580D01*
X204466213Y-115640929D01*
X204528071Y-115615388D01*
X204597925Y-115628072D01*
X204649832Y-115676509D01*
X204667313Y-115745320D01*
X204654257Y-115796705D01*
X204617141Y-115871474D01*
X204617138Y-115871482D01*
X204614105Y-115877592D01*
X204569400Y-116056893D01*
X204569022Y-116062441D01*
X204567165Y-116089683D01*
X204566500Y-116099434D01*
X204566500Y-116771566D01*
X204569400Y-116814107D01*
X204570744Y-116819499D01*
X204570745Y-116819503D01*
X204585256Y-116877703D01*
X204614105Y-116993408D01*
X204617136Y-116999515D01*
X204617138Y-116999519D01*
X204655187Y-117076167D01*
X204696269Y-117158926D01*
X204812060Y-117302940D01*
X204956074Y-117418731D01*
X205030147Y-117455501D01*
X205115481Y-117497862D01*
X205115485Y-117497864D01*
X205121592Y-117500895D01*
X205128214Y-117502546D01*
X205295497Y-117544255D01*
X205295501Y-117544256D01*
X205300893Y-117545600D01*
X205317706Y-117546746D01*
X205341286Y-117548354D01*
X205341299Y-117548354D01*
X205343434Y-117548500D01*
X206390566Y-117548500D01*
X206392701Y-117548354D01*
X206392714Y-117548354D01*
X206416294Y-117546746D01*
X206433107Y-117545600D01*
X206438499Y-117544256D01*
X206438503Y-117544255D01*
X206605786Y-117502546D01*
X206612408Y-117500895D01*
X206618515Y-117497864D01*
X206618519Y-117497862D01*
X206703853Y-117455501D01*
X206777926Y-117418731D01*
X206921940Y-117302940D01*
X207037731Y-117158926D01*
X207078813Y-117076167D01*
X207116862Y-116999519D01*
X207116864Y-116999515D01*
X207119895Y-116993408D01*
X207148744Y-116877703D01*
X207163255Y-116819503D01*
X207163256Y-116819499D01*
X207164600Y-116814107D01*
X207167500Y-116771566D01*
X207167500Y-116099434D01*
X207166836Y-116089683D01*
X207164978Y-116062441D01*
X207164600Y-116056893D01*
X207119895Y-115877592D01*
X207116864Y-115871485D01*
X207116862Y-115871481D01*
X207060204Y-115757346D01*
X207037731Y-115712074D01*
X206921940Y-115568060D01*
X206891622Y-115543684D01*
X206851068Y-115485412D01*
X206848456Y-115414463D01*
X206884616Y-115353365D01*
X206891035Y-115347803D01*
X206891223Y-115347615D01*
X206896540Y-115343340D01*
X207012331Y-115199326D01*
X207053413Y-115116567D01*
X207091462Y-115039919D01*
X207091464Y-115039915D01*
X207094495Y-115033808D01*
X207115684Y-114948826D01*
X207137855Y-114859903D01*
X207137856Y-114859899D01*
X207139200Y-114854507D01*
X207142100Y-114811966D01*
X207142100Y-114139834D01*
X207139200Y-114097293D01*
X207094495Y-113917992D01*
X207091464Y-113911885D01*
X207091462Y-113911881D01*
X207053413Y-113835233D01*
X207012331Y-113752474D01*
X206975246Y-113706350D01*
X206948151Y-113640730D01*
X206960834Y-113570875D01*
X207009270Y-113518967D01*
X207073444Y-113501400D01*
X209487900Y-113501400D01*
X209556021Y-113521402D01*
G37*
%TD.AperFunction*%
%TA.AperFunction,Conductor*%
G36*
X196781861Y-115348302D02*
G01*
X196826601Y-115398279D01*
X196834269Y-115413726D01*
X196950060Y-115557740D01*
X197094074Y-115673531D01*
X197160983Y-115706745D01*
X197253481Y-115752662D01*
X197253485Y-115752664D01*
X197259592Y-115755695D01*
X197266214Y-115757346D01*
X197433497Y-115799055D01*
X197433501Y-115799056D01*
X197438893Y-115800400D01*
X197455706Y-115801546D01*
X197479286Y-115803154D01*
X197479299Y-115803154D01*
X197481434Y-115803300D01*
X198128566Y-115803300D01*
X198130701Y-115803154D01*
X198130714Y-115803154D01*
X198154294Y-115801546D01*
X198171107Y-115800400D01*
X198176499Y-115799056D01*
X198176503Y-115799055D01*
X198343786Y-115757346D01*
X198350408Y-115755695D01*
X198356515Y-115752664D01*
X198356519Y-115752662D01*
X198449017Y-115706745D01*
X198515926Y-115673531D01*
X198649550Y-115566094D01*
X198715170Y-115538998D01*
X198785024Y-115551681D01*
X198836933Y-115600117D01*
X198854500Y-115664291D01*
X198854500Y-118584320D01*
X198834498Y-118652441D01*
X198817596Y-118673415D01*
X198465017Y-119025995D01*
X198402704Y-119060020D01*
X198375921Y-119062900D01*
X194717889Y-119062900D01*
X194649768Y-119042898D01*
X194603275Y-118989242D01*
X194593171Y-118918968D01*
X194594405Y-118912074D01*
X194596410Y-118906028D01*
X194607000Y-118802666D01*
X194607000Y-118402934D01*
X194597756Y-118313842D01*
X194596853Y-118305139D01*
X194596852Y-118305135D01*
X194596141Y-118298281D01*
X194540756Y-118132271D01*
X194448666Y-117983455D01*
X194324811Y-117859816D01*
X194175834Y-117767986D01*
X194171021Y-117766389D01*
X194118429Y-117720084D01*
X194098967Y-117651806D01*
X194119508Y-117583846D01*
X194171152Y-117539017D01*
X194177029Y-117537056D01*
X194325845Y-117444966D01*
X194449484Y-117321111D01*
X194541314Y-117172134D01*
X194544135Y-117163630D01*
X194594244Y-117012559D01*
X194594245Y-117012557D01*
X194596410Y-117006028D01*
X194607000Y-116902666D01*
X194607000Y-116502934D01*
X194604752Y-116481270D01*
X194596853Y-116405139D01*
X194596852Y-116405135D01*
X194596141Y-116398281D01*
X194540756Y-116232271D01*
X194448666Y-116083455D01*
X194324811Y-115959816D01*
X194179384Y-115870174D01*
X194131891Y-115817402D01*
X194119500Y-115762914D01*
X194119500Y-115708438D01*
X194139502Y-115640317D01*
X194193158Y-115593824D01*
X194263432Y-115583720D01*
X194324450Y-115610240D01*
X194372074Y-115648531D01*
X194428546Y-115676564D01*
X194531481Y-115727662D01*
X194531485Y-115727664D01*
X194537592Y-115730695D01*
X194544214Y-115732346D01*
X194711497Y-115774055D01*
X194711501Y-115774056D01*
X194716893Y-115775400D01*
X194733706Y-115776546D01*
X194757286Y-115778154D01*
X194757299Y-115778154D01*
X194759434Y-115778300D01*
X195431566Y-115778300D01*
X195433701Y-115778154D01*
X195433714Y-115778154D01*
X195457294Y-115776546D01*
X195474107Y-115775400D01*
X195479499Y-115774056D01*
X195479503Y-115774055D01*
X195646786Y-115732346D01*
X195653408Y-115730695D01*
X195659515Y-115727664D01*
X195659519Y-115727662D01*
X195762454Y-115676564D01*
X195818926Y-115648531D01*
X195962940Y-115532740D01*
X196078731Y-115388726D01*
X196080293Y-115385579D01*
X196132889Y-115339802D01*
X196185483Y-115328300D01*
X196713740Y-115328300D01*
X196781861Y-115348302D01*
G37*
%TD.AperFunction*%
%TA.AperFunction,Conductor*%
G36*
X203217342Y-107040602D02*
G01*
X203238316Y-107057505D01*
X204954195Y-108773384D01*
X204988221Y-108835696D01*
X204991100Y-108862479D01*
X204991100Y-111560917D01*
X204971098Y-111629038D01*
X204934072Y-111665982D01*
X204930674Y-111667669D01*
X204786660Y-111783460D01*
X204670869Y-111927474D01*
X204644498Y-111980598D01*
X204591738Y-112086881D01*
X204591736Y-112086885D01*
X204588705Y-112092992D01*
X204544000Y-112272293D01*
X204541100Y-112314834D01*
X204541100Y-112986966D01*
X204541246Y-112989101D01*
X204541246Y-112989114D01*
X204542083Y-113001382D01*
X204544000Y-113029507D01*
X204545344Y-113034899D01*
X204545345Y-113034903D01*
X204569591Y-113132148D01*
X204566663Y-113203084D01*
X204525849Y-113261177D01*
X204460107Y-113287981D01*
X204391311Y-113275490D01*
X204289408Y-113224905D01*
X204224847Y-113208808D01*
X204115503Y-113181545D01*
X204115499Y-113181544D01*
X204110107Y-113180200D01*
X204093294Y-113179054D01*
X204069714Y-113177446D01*
X204069701Y-113177446D01*
X204067566Y-113177300D01*
X203395434Y-113177300D01*
X203393299Y-113177446D01*
X203393286Y-113177446D01*
X203369706Y-113179054D01*
X203352893Y-113180200D01*
X203347501Y-113181544D01*
X203347497Y-113181545D01*
X203238153Y-113208808D01*
X203173592Y-113224905D01*
X203167485Y-113227936D01*
X203167481Y-113227938D01*
X203100523Y-113261177D01*
X203008074Y-113307069D01*
X202924424Y-113374326D01*
X202897952Y-113395610D01*
X202832330Y-113422707D01*
X202762476Y-113410024D01*
X202740048Y-113395610D01*
X202713576Y-113374326D01*
X202629926Y-113307069D01*
X202537477Y-113261177D01*
X202470519Y-113227938D01*
X202470515Y-113227936D01*
X202464408Y-113224905D01*
X202399847Y-113208808D01*
X202290503Y-113181545D01*
X202290499Y-113181544D01*
X202285107Y-113180200D01*
X202268294Y-113179054D01*
X202244714Y-113177446D01*
X202244701Y-113177446D01*
X202242566Y-113177300D01*
X201570434Y-113177300D01*
X201568299Y-113177446D01*
X201568286Y-113177446D01*
X201544706Y-113179054D01*
X201527893Y-113180200D01*
X201522501Y-113181544D01*
X201522497Y-113181545D01*
X201413153Y-113208808D01*
X201348592Y-113224905D01*
X201342485Y-113227936D01*
X201342481Y-113227938D01*
X201275523Y-113261177D01*
X201183074Y-113307069D01*
X201039060Y-113422860D01*
X200923269Y-113566874D01*
X200921707Y-113570021D01*
X200869111Y-113615798D01*
X200816517Y-113627300D01*
X200796260Y-113627300D01*
X200728139Y-113607298D01*
X200683399Y-113557321D01*
X200678766Y-113547987D01*
X200678764Y-113547984D01*
X200675731Y-113541874D01*
X200559940Y-113397860D01*
X200415926Y-113282069D01*
X200306880Y-113227938D01*
X200256519Y-113202938D01*
X200256515Y-113202936D01*
X200250408Y-113199905D01*
X200189232Y-113184652D01*
X200076503Y-113156545D01*
X200076499Y-113156544D01*
X200071107Y-113155200D01*
X200054294Y-113154054D01*
X200030714Y-113152446D01*
X200030701Y-113152446D01*
X200028566Y-113152300D01*
X199381434Y-113152300D01*
X199379299Y-113152446D01*
X199379286Y-113152446D01*
X199355706Y-113154054D01*
X199338893Y-113155200D01*
X199333501Y-113156544D01*
X199333497Y-113156545D01*
X199220768Y-113184652D01*
X199159592Y-113199905D01*
X199153485Y-113202936D01*
X199153481Y-113202938D01*
X199103120Y-113227938D01*
X198994074Y-113282069D01*
X198850060Y-113397860D01*
X198845785Y-113403177D01*
X198844095Y-113404867D01*
X198781783Y-113438893D01*
X198710968Y-113433828D01*
X198665905Y-113404867D01*
X198664215Y-113403177D01*
X198659940Y-113397860D01*
X198515926Y-113282069D01*
X198406880Y-113227938D01*
X198356519Y-113202938D01*
X198356515Y-113202936D01*
X198350408Y-113199905D01*
X198289232Y-113184652D01*
X198176503Y-113156545D01*
X198176499Y-113156544D01*
X198171107Y-113155200D01*
X198154294Y-113154054D01*
X198130714Y-113152446D01*
X198130701Y-113152446D01*
X198128566Y-113152300D01*
X197481434Y-113152300D01*
X197479299Y-113152446D01*
X197479286Y-113152446D01*
X197455706Y-113154054D01*
X197438893Y-113155200D01*
X197433501Y-113156544D01*
X197433497Y-113156545D01*
X197320768Y-113184652D01*
X197259592Y-113199905D01*
X197253485Y-113202936D01*
X197253481Y-113202938D01*
X197203120Y-113227938D01*
X197094074Y-113282069D01*
X196950060Y-113397860D01*
X196834269Y-113541874D01*
X196831236Y-113547984D01*
X196831234Y-113547987D01*
X196826601Y-113557321D01*
X196778397Y-113609445D01*
X196713740Y-113627300D01*
X196185483Y-113627300D01*
X196117362Y-113607298D01*
X196080418Y-113570272D01*
X196078731Y-113566874D01*
X195962940Y-113422860D01*
X195818926Y-113307069D01*
X195818213Y-113306715D01*
X195773119Y-113254904D01*
X195762862Y-113184652D01*
X195792213Y-113120007D01*
X195831596Y-113089451D01*
X195838209Y-113086168D01*
X195838212Y-113086166D01*
X195844326Y-113083131D01*
X195988340Y-112967340D01*
X196104131Y-112823326D01*
X196172343Y-112685914D01*
X196183262Y-112663919D01*
X196183264Y-112663915D01*
X196186295Y-112657808D01*
X196216266Y-112537602D01*
X196229655Y-112483903D01*
X196229656Y-112483899D01*
X196231000Y-112478507D01*
X196233900Y-112435966D01*
X196233900Y-111388834D01*
X196231000Y-111346293D01*
X196186295Y-111166992D01*
X196183264Y-111160885D01*
X196183262Y-111160881D01*
X196145213Y-111084233D01*
X196104131Y-111001474D01*
X195999204Y-110870972D01*
X195972107Y-110805350D01*
X195971400Y-110792020D01*
X195971400Y-110111780D01*
X195991402Y-110043659D01*
X195999204Y-110032828D01*
X196099852Y-109907648D01*
X196099854Y-109907645D01*
X196104131Y-109902326D01*
X196105693Y-109899179D01*
X196158289Y-109853402D01*
X196210883Y-109841900D01*
X196511343Y-109841900D01*
X196579464Y-109861902D01*
X196611467Y-109895466D01*
X196613064Y-109894241D01*
X196709318Y-110019682D01*
X196834759Y-110115936D01*
X196980838Y-110176444D01*
X196989026Y-110177522D01*
X197094145Y-110191361D01*
X197098239Y-110191900D01*
X197587540Y-110191900D01*
X198076960Y-110191899D01*
X198081044Y-110191361D01*
X198081050Y-110191361D01*
X198186175Y-110177522D01*
X198186177Y-110177522D01*
X198194362Y-110176444D01*
X198340441Y-110115936D01*
X198465882Y-110019682D01*
X198562136Y-109894241D01*
X198622644Y-109748162D01*
X198638100Y-109630761D01*
X198638099Y-108352040D01*
X198626613Y-108264783D01*
X198623722Y-108242825D01*
X198623722Y-108242823D01*
X198622644Y-108234638D01*
X198562136Y-108088559D01*
X198465882Y-107963118D01*
X198340441Y-107866864D01*
X198194362Y-107806356D01*
X198143941Y-107799718D01*
X198081048Y-107791438D01*
X198081047Y-107791438D01*
X198076961Y-107790900D01*
X197587660Y-107790900D01*
X197098240Y-107790901D01*
X197094156Y-107791439D01*
X197094150Y-107791439D01*
X196989025Y-107805278D01*
X196989023Y-107805278D01*
X196980838Y-107806356D01*
X196834759Y-107866864D01*
X196709318Y-107963118D01*
X196704295Y-107969664D01*
X196671536Y-108012356D01*
X196613064Y-108088559D01*
X196610969Y-108086952D01*
X196569080Y-108126893D01*
X196511343Y-108140900D01*
X196210883Y-108140900D01*
X196142762Y-108120898D01*
X196105818Y-108083872D01*
X196104131Y-108080474D01*
X195988340Y-107936460D01*
X195844326Y-107820669D01*
X195721215Y-107759556D01*
X195684919Y-107741538D01*
X195684915Y-107741536D01*
X195678808Y-107738505D01*
X195649797Y-107731272D01*
X195504903Y-107695145D01*
X195504899Y-107695144D01*
X195499507Y-107693800D01*
X195482694Y-107692654D01*
X195459114Y-107691046D01*
X195459101Y-107691046D01*
X195456966Y-107690900D01*
X194784834Y-107690900D01*
X194782699Y-107691046D01*
X194782686Y-107691046D01*
X194759106Y-107692654D01*
X194742293Y-107693800D01*
X194736901Y-107695144D01*
X194736897Y-107695145D01*
X194592003Y-107731272D01*
X194562992Y-107738505D01*
X194556885Y-107741536D01*
X194556881Y-107741538D01*
X194520585Y-107759556D01*
X194397474Y-107820669D01*
X194351350Y-107857754D01*
X194285730Y-107884849D01*
X194215875Y-107872166D01*
X194163967Y-107823730D01*
X194146400Y-107759556D01*
X194146400Y-107146600D01*
X194166402Y-107078479D01*
X194220058Y-107031986D01*
X194272400Y-107020600D01*
X203149221Y-107020600D01*
X203217342Y-107040602D01*
G37*
%TD.AperFunction*%
%TD*%
%TA.AperFunction,Conductor*%
%TO.N,Net-(C11-Pad1)*%
G36*
X131347966Y-97325419D02*
G01*
X131720212Y-97549257D01*
X131768284Y-97601503D01*
X131781280Y-97656697D01*
X131831776Y-109422195D01*
X131884147Y-109540789D01*
X132323203Y-110535031D01*
X132359400Y-110617000D01*
X132378043Y-110616929D01*
X132378044Y-110616929D01*
X137636679Y-110596781D01*
X138939704Y-110591788D01*
X139007901Y-110611529D01*
X139025080Y-110624679D01*
X139809739Y-111340103D01*
X139846601Y-111400780D01*
X139850797Y-111436710D01*
X139803348Y-113144869D01*
X139781463Y-113212408D01*
X139750227Y-113244189D01*
X139224726Y-113616419D01*
X139151896Y-113639600D01*
X121482235Y-113639600D01*
X121414114Y-113619598D01*
X121402644Y-113611280D01*
X120913119Y-113212408D01*
X120798009Y-113118614D01*
X120757834Y-113060078D01*
X120751600Y-113020935D01*
X120751600Y-111323244D01*
X120771602Y-111255123D01*
X120781060Y-111242275D01*
X121374232Y-110535031D01*
X121433332Y-110495691D01*
X121470772Y-110490000D01*
X128320800Y-110490000D01*
X129006600Y-109524800D01*
X129006600Y-97631778D01*
X129026602Y-97563657D01*
X129035081Y-97551990D01*
X129197390Y-97353612D01*
X129256008Y-97313556D01*
X129294909Y-97307400D01*
X131283035Y-97307400D01*
X131347966Y-97325419D01*
G37*
%TD.AperFunction*%
%TD*%
%TA.AperFunction,Conductor*%
%TO.N,/Vin*%
G36*
X158638931Y-68346002D02*
G01*
X158659905Y-68362905D01*
X159600344Y-69303344D01*
X159634370Y-69365656D01*
X159637179Y-69396637D01*
X159525752Y-72739455D01*
X159512000Y-73152000D01*
X159512000Y-77177851D01*
X159490838Y-77247743D01*
X158584205Y-78607692D01*
X158529776Y-78653277D01*
X158479367Y-78663800D01*
X153702305Y-78663800D01*
X153641681Y-78648257D01*
X152698154Y-78130400D01*
X152651876Y-78105000D01*
X152635968Y-78105008D01*
X152635967Y-78105008D01*
X102992723Y-78130376D01*
X102924592Y-78110409D01*
X102910824Y-78100183D01*
X101768917Y-77124804D01*
X101730111Y-77065352D01*
X101724848Y-77033915D01*
X101722719Y-76979398D01*
X101658029Y-75323341D01*
X103732233Y-75323341D01*
X103738329Y-75581990D01*
X103783478Y-75836742D01*
X103866641Y-76081733D01*
X103985905Y-76311325D01*
X104138525Y-76520236D01*
X104320989Y-76703658D01*
X104324835Y-76706499D01*
X104324840Y-76706503D01*
X104472412Y-76815501D01*
X104529098Y-76857370D01*
X104533328Y-76859596D01*
X104533332Y-76859598D01*
X104753826Y-76975605D01*
X104758063Y-76977834D01*
X105002615Y-77062279D01*
X105257126Y-77108761D01*
X105339919Y-77113100D01*
X105501182Y-77113100D01*
X105503561Y-77112919D01*
X105503562Y-77112919D01*
X105688609Y-77098843D01*
X105688614Y-77098842D01*
X105693376Y-77098480D01*
X105698030Y-77097401D01*
X105698032Y-77097401D01*
X105940751Y-77041142D01*
X105940750Y-77041142D01*
X105945415Y-77040061D01*
X106185718Y-76944190D01*
X106408754Y-76813073D01*
X106412465Y-76810052D01*
X106412469Y-76810049D01*
X106605679Y-76652751D01*
X106609391Y-76649729D01*
X106783013Y-76457915D01*
X106925622Y-76242047D01*
X106949188Y-76190930D01*
X106951461Y-76186000D01*
X154024351Y-76186000D01*
X154044117Y-76437148D01*
X154045271Y-76441955D01*
X154045272Y-76441961D01*
X154064879Y-76523630D01*
X154102927Y-76682111D01*
X154104820Y-76686682D01*
X154104821Y-76686684D01*
X154158179Y-76815501D01*
X154199334Y-76914859D01*
X154330964Y-77129659D01*
X154334176Y-77133419D01*
X154334179Y-77133424D01*
X154431817Y-77247743D01*
X154494576Y-77321224D01*
X154498338Y-77324437D01*
X154682376Y-77481621D01*
X154682381Y-77481624D01*
X154686141Y-77484836D01*
X154900941Y-77616466D01*
X154905511Y-77618359D01*
X154905515Y-77618361D01*
X155129116Y-77710979D01*
X155133689Y-77712873D01*
X155218089Y-77733135D01*
X155373839Y-77770528D01*
X155373845Y-77770529D01*
X155378652Y-77771683D01*
X155629800Y-77791449D01*
X155880948Y-77771683D01*
X155885755Y-77770529D01*
X155885761Y-77770528D01*
X156041511Y-77733135D01*
X156125911Y-77712873D01*
X156130484Y-77710979D01*
X156354085Y-77618361D01*
X156354089Y-77618359D01*
X156358659Y-77616466D01*
X156573459Y-77484836D01*
X156577219Y-77481624D01*
X156577224Y-77481621D01*
X156761262Y-77324437D01*
X156765024Y-77321224D01*
X156827783Y-77247743D01*
X156925421Y-77133424D01*
X156925424Y-77133419D01*
X156928636Y-77129659D01*
X157060266Y-76914859D01*
X157101422Y-76815501D01*
X157154779Y-76686684D01*
X157154780Y-76686682D01*
X157156673Y-76682111D01*
X157194721Y-76523630D01*
X157214328Y-76441961D01*
X157214329Y-76441955D01*
X157215483Y-76437148D01*
X157235249Y-76186000D01*
X157215483Y-75934852D01*
X157156673Y-75689889D01*
X157060266Y-75457141D01*
X156928636Y-75242341D01*
X156925424Y-75238581D01*
X156925421Y-75238576D01*
X156768237Y-75054538D01*
X156765024Y-75050776D01*
X156692059Y-74988458D01*
X156577224Y-74890379D01*
X156577219Y-74890376D01*
X156573459Y-74887164D01*
X156358659Y-74755534D01*
X156354089Y-74753641D01*
X156354085Y-74753639D01*
X156130484Y-74661021D01*
X156130482Y-74661020D01*
X156125911Y-74659127D01*
X156041511Y-74638865D01*
X155885761Y-74601472D01*
X155885755Y-74601471D01*
X155880948Y-74600317D01*
X155629800Y-74580551D01*
X155378652Y-74600317D01*
X155373845Y-74601471D01*
X155373839Y-74601472D01*
X155218089Y-74638865D01*
X155133689Y-74659127D01*
X155129118Y-74661020D01*
X155129116Y-74661021D01*
X154905515Y-74753639D01*
X154905511Y-74753641D01*
X154900941Y-74755534D01*
X154686141Y-74887164D01*
X154682381Y-74890376D01*
X154682376Y-74890379D01*
X154567541Y-74988458D01*
X154494576Y-75050776D01*
X154491363Y-75054538D01*
X154334179Y-75238576D01*
X154334176Y-75238581D01*
X154330964Y-75242341D01*
X154199334Y-75457141D01*
X154102927Y-75689889D01*
X154044117Y-75934852D01*
X154024351Y-76186000D01*
X106951461Y-76186000D01*
X107031932Y-76011443D01*
X107031933Y-76011440D01*
X107033938Y-76007091D01*
X107105468Y-75758455D01*
X107114903Y-75685316D01*
X107137956Y-75506596D01*
X107138567Y-75501859D01*
X107132471Y-75243210D01*
X107099033Y-75054538D01*
X107088156Y-74993162D01*
X107088155Y-74993158D01*
X107087322Y-74988458D01*
X107004159Y-74743467D01*
X106884895Y-74513875D01*
X106732275Y-74304964D01*
X106549811Y-74121542D01*
X106545965Y-74118701D01*
X106545960Y-74118697D01*
X106345554Y-73970675D01*
X106345553Y-73970674D01*
X106341702Y-73967830D01*
X106337472Y-73965604D01*
X106337468Y-73965602D01*
X106116974Y-73849595D01*
X106116972Y-73849594D01*
X106112737Y-73847366D01*
X105868185Y-73762921D01*
X105613674Y-73716439D01*
X105530881Y-73712100D01*
X105369618Y-73712100D01*
X105367239Y-73712281D01*
X105367238Y-73712281D01*
X105182191Y-73726357D01*
X105182186Y-73726358D01*
X105177424Y-73726720D01*
X105172770Y-73727799D01*
X105172768Y-73727799D01*
X105024951Y-73762061D01*
X104925385Y-73785139D01*
X104685082Y-73881010D01*
X104462046Y-74012127D01*
X104458335Y-74015148D01*
X104458331Y-74015151D01*
X104323483Y-74124935D01*
X104261409Y-74175471D01*
X104087787Y-74367285D01*
X103945178Y-74583153D01*
X103943177Y-74587493D01*
X103943175Y-74587497D01*
X103909280Y-74661021D01*
X103836862Y-74818109D01*
X103765332Y-75066745D01*
X103732233Y-75323341D01*
X101658029Y-75323341D01*
X101647529Y-75054538D01*
X101601953Y-73887787D01*
X101619281Y-73818938D01*
X101632868Y-73800086D01*
X102549527Y-72748266D01*
X102609362Y-72710052D01*
X102644252Y-72705049D01*
X110112311Y-72689539D01*
X114939573Y-72679514D01*
X114990055Y-72691298D01*
X114990273Y-72690704D01*
X114995067Y-72692468D01*
X114995852Y-72692651D01*
X114996674Y-72693059D01*
X114996682Y-72693062D01*
X115002792Y-72696095D01*
X115009414Y-72697746D01*
X115176697Y-72739455D01*
X115176701Y-72739456D01*
X115182093Y-72740800D01*
X115198906Y-72741946D01*
X115222486Y-72743554D01*
X115222499Y-72743554D01*
X115224634Y-72743700D01*
X116321766Y-72743700D01*
X116323901Y-72743554D01*
X116323914Y-72743554D01*
X116347494Y-72741946D01*
X116364307Y-72740800D01*
X116369699Y-72739456D01*
X116369703Y-72739455D01*
X116536986Y-72697746D01*
X116543608Y-72696095D01*
X116550915Y-72692468D01*
X116557541Y-72689179D01*
X116613304Y-72676038D01*
X121465471Y-72665961D01*
X121521756Y-72679101D01*
X121549877Y-72693060D01*
X121549881Y-72693061D01*
X121555992Y-72696095D01*
X121562614Y-72697746D01*
X121729897Y-72739455D01*
X121729901Y-72739456D01*
X121735293Y-72740800D01*
X121752106Y-72741946D01*
X121775686Y-72743554D01*
X121775699Y-72743554D01*
X121777834Y-72743700D01*
X122874966Y-72743700D01*
X122877101Y-72743554D01*
X122877114Y-72743554D01*
X122900694Y-72741946D01*
X122917507Y-72740800D01*
X122922899Y-72739456D01*
X122922903Y-72739455D01*
X123090186Y-72697746D01*
X123096808Y-72696095D01*
X123102919Y-72693061D01*
X123102923Y-72693060D01*
X123138276Y-72675511D01*
X123194037Y-72662371D01*
X138832088Y-72629893D01*
X151507487Y-72603568D01*
X152527000Y-72186800D01*
X152527000Y-69272176D01*
X152547002Y-69204055D01*
X152570028Y-69177351D01*
X153105653Y-68708679D01*
X153507372Y-68357175D01*
X153571809Y-68327371D01*
X153590343Y-68326000D01*
X158570810Y-68326000D01*
X158638931Y-68346002D01*
G37*
%TD.AperFunction*%
%TD*%
%TA.AperFunction,Conductor*%
%TO.N,Net-(D2-Pad2)*%
G36*
X192804742Y-68599961D02*
G01*
X192822316Y-68613522D01*
X194396463Y-70066581D01*
X194432952Y-70127483D01*
X194437000Y-70159166D01*
X194437000Y-70292873D01*
X194423860Y-70348897D01*
X194414138Y-70368481D01*
X194414136Y-70368485D01*
X194411105Y-70374592D01*
X194366400Y-70553893D01*
X194363500Y-70596434D01*
X194363500Y-71643566D01*
X194366400Y-71686107D01*
X194411105Y-71865408D01*
X194414136Y-71871515D01*
X194414138Y-71871519D01*
X194423860Y-71891103D01*
X194437000Y-71947127D01*
X194437000Y-74422000D01*
X194818000Y-74803000D01*
X196792048Y-74803000D01*
X196860169Y-74823002D01*
X196887714Y-74847000D01*
X197581666Y-75656610D01*
X197610812Y-75721349D01*
X197612000Y-75738610D01*
X197612000Y-77532159D01*
X197591998Y-77600280D01*
X197559237Y-77634688D01*
X197448161Y-77714028D01*
X196755858Y-78208530D01*
X196682622Y-78232000D01*
X187255952Y-78232000D01*
X187187831Y-78211998D01*
X187160286Y-78188000D01*
X186598136Y-77532159D01*
X186466334Y-77378389D01*
X186437188Y-77313651D01*
X186436000Y-77296390D01*
X186436000Y-76634850D01*
X186456002Y-76566729D01*
X186509658Y-76520236D01*
X186579932Y-76510132D01*
X186644512Y-76539626D01*
X186684519Y-76605436D01*
X186702927Y-76682111D01*
X186799334Y-76914859D01*
X186930964Y-77129659D01*
X186934176Y-77133419D01*
X186934179Y-77133424D01*
X187073366Y-77296390D01*
X187094576Y-77321224D01*
X187098338Y-77324437D01*
X187282376Y-77481621D01*
X187282381Y-77481624D01*
X187286141Y-77484836D01*
X187500941Y-77616466D01*
X187505511Y-77618359D01*
X187505515Y-77618361D01*
X187729116Y-77710979D01*
X187733689Y-77712873D01*
X187818089Y-77733135D01*
X187973839Y-77770528D01*
X187973845Y-77770529D01*
X187978652Y-77771683D01*
X188229800Y-77791449D01*
X188480948Y-77771683D01*
X188485755Y-77770529D01*
X188485761Y-77770528D01*
X188641511Y-77733135D01*
X188725911Y-77712873D01*
X188730484Y-77710979D01*
X188954085Y-77618361D01*
X188954089Y-77618359D01*
X188958659Y-77616466D01*
X189173459Y-77484836D01*
X189177219Y-77481624D01*
X189177224Y-77481621D01*
X189361262Y-77324437D01*
X189365024Y-77321224D01*
X189386234Y-77296390D01*
X189525421Y-77133424D01*
X189525424Y-77133419D01*
X189528636Y-77129659D01*
X189660266Y-76914859D01*
X189756673Y-76682111D01*
X189784374Y-76566729D01*
X189814328Y-76441961D01*
X189814329Y-76441955D01*
X189815483Y-76437148D01*
X189835249Y-76186000D01*
X189815483Y-75934852D01*
X189756673Y-75689889D01*
X189754779Y-75685316D01*
X189662161Y-75461715D01*
X189662159Y-75461711D01*
X189660266Y-75457141D01*
X189528636Y-75242341D01*
X189525424Y-75238581D01*
X189525421Y-75238576D01*
X189368237Y-75054538D01*
X189365024Y-75050776D01*
X189346852Y-75035256D01*
X189177224Y-74890379D01*
X189177219Y-74890376D01*
X189173459Y-74887164D01*
X188958659Y-74755534D01*
X188954089Y-74753641D01*
X188954085Y-74753639D01*
X188730484Y-74661021D01*
X188730482Y-74661020D01*
X188725911Y-74659127D01*
X188641511Y-74638865D01*
X188485761Y-74601472D01*
X188485755Y-74601471D01*
X188480948Y-74600317D01*
X188229800Y-74580551D01*
X187978652Y-74600317D01*
X187973845Y-74601471D01*
X187973839Y-74601472D01*
X187818089Y-74638865D01*
X187733689Y-74659127D01*
X187729118Y-74661020D01*
X187729116Y-74661021D01*
X187505515Y-74753639D01*
X187505511Y-74753641D01*
X187500941Y-74755534D01*
X187286141Y-74887164D01*
X187282381Y-74890376D01*
X187282376Y-74890379D01*
X187112748Y-75035256D01*
X187094576Y-75050776D01*
X187091363Y-75054538D01*
X186934179Y-75238576D01*
X186934176Y-75238581D01*
X186930964Y-75242341D01*
X186799334Y-75457141D01*
X186797441Y-75461711D01*
X186797439Y-75461715D01*
X186704821Y-75685316D01*
X186702927Y-75689889D01*
X186701772Y-75694701D01*
X186684519Y-75766564D01*
X186649167Y-75828133D01*
X186586140Y-75860816D01*
X186515449Y-75854236D01*
X186459538Y-75810481D01*
X186436000Y-75737150D01*
X186436000Y-74422000D01*
X185928000Y-73914000D01*
X181532487Y-73939262D01*
X181485961Y-73930643D01*
X180848940Y-73682050D01*
X180547194Y-73564295D01*
X180491005Y-73520896D01*
X180467000Y-73446916D01*
X180467000Y-69159724D01*
X180487002Y-69091603D01*
X180528672Y-69051382D01*
X181250188Y-68622982D01*
X181314238Y-68605324D01*
X183353941Y-68600821D01*
X192736577Y-68580109D01*
X192804742Y-68599961D01*
G37*
%TD.AperFunction*%
%TD*%
%TA.AperFunction,Conductor*%
%TO.N,Net-(C10-Pad2)*%
G36*
X128518827Y-78613958D02*
G01*
X128529618Y-78621695D01*
X129082712Y-79064170D01*
X129123410Y-79122343D01*
X129130000Y-79162559D01*
X129130000Y-83240810D01*
X129109998Y-83308931D01*
X129093095Y-83329905D01*
X128532079Y-83890921D01*
X128469767Y-83924947D01*
X128442564Y-83927825D01*
X119023797Y-83896368D01*
X118955745Y-83876139D01*
X118937270Y-83861560D01*
X118379681Y-83329905D01*
X117920451Y-82892034D01*
X117884952Y-82830550D01*
X117881400Y-82800844D01*
X117881400Y-79128152D01*
X117901402Y-79060031D01*
X117925400Y-79032486D01*
X118379513Y-78643246D01*
X118444252Y-78614100D01*
X118461270Y-78612912D01*
X123199668Y-78603981D01*
X128450669Y-78594084D01*
X128518827Y-78613958D01*
G37*
%TD.AperFunction*%
%TD*%
%TA.AperFunction,Conductor*%
%TO.N,Net-(D1-Pad2)*%
G36*
X140488604Y-78626302D02*
G01*
X141408349Y-79086175D01*
X141460333Y-79134530D01*
X141478000Y-79198873D01*
X141478000Y-91567000D01*
X143002000Y-93218000D01*
X158311048Y-93218000D01*
X158379169Y-93238002D01*
X158406714Y-93262000D01*
X159100666Y-94071610D01*
X159129812Y-94136349D01*
X159131000Y-94153610D01*
X159131000Y-99887375D01*
X159110998Y-99955496D01*
X159082357Y-99986833D01*
X158022125Y-100811458D01*
X157956073Y-100837492D01*
X157944768Y-100838000D01*
X134657456Y-100838000D01*
X134588626Y-100817539D01*
X133508770Y-100113285D01*
X133462638Y-100059319D01*
X133451600Y-100007746D01*
X133451600Y-96141145D01*
X154665438Y-96141145D01*
X154681538Y-96332876D01*
X154734572Y-96517829D01*
X154822521Y-96688957D01*
X154942033Y-96839745D01*
X154946727Y-96843740D01*
X154976221Y-96868841D01*
X155088557Y-96964447D01*
X155256513Y-97058314D01*
X155439501Y-97117770D01*
X155630554Y-97140552D01*
X155636689Y-97140080D01*
X155636691Y-97140080D01*
X155816250Y-97126264D01*
X155816254Y-97126263D01*
X155822392Y-97125791D01*
X156007710Y-97074049D01*
X156179449Y-96987297D01*
X156331067Y-96868841D01*
X156456789Y-96723190D01*
X156551826Y-96555895D01*
X156612559Y-96373325D01*
X156618445Y-96326735D01*
X156636232Y-96185940D01*
X156636233Y-96185931D01*
X156636674Y-96182437D01*
X156637058Y-96154910D01*
X156618282Y-95963423D01*
X156616501Y-95957524D01*
X156616500Y-95957519D01*
X156564452Y-95785128D01*
X156562671Y-95779229D01*
X156472342Y-95609345D01*
X156468452Y-95604575D01*
X156468449Y-95604571D01*
X156354631Y-95465016D01*
X156354628Y-95465013D01*
X156350736Y-95460241D01*
X156334346Y-95446682D01*
X156207235Y-95341526D01*
X156207231Y-95341524D01*
X156202485Y-95337597D01*
X156033235Y-95246084D01*
X155941335Y-95217636D01*
X155855321Y-95191010D01*
X155855318Y-95191009D01*
X155849434Y-95189188D01*
X155843309Y-95188544D01*
X155843308Y-95188544D01*
X155664211Y-95169720D01*
X155664210Y-95169720D01*
X155658083Y-95169076D01*
X155577420Y-95176417D01*
X155472608Y-95185955D01*
X155472605Y-95185956D01*
X155466469Y-95186514D01*
X155460563Y-95188252D01*
X155460559Y-95188253D01*
X155323762Y-95228515D01*
X155281891Y-95240838D01*
X155111380Y-95329979D01*
X155106580Y-95333839D01*
X155106579Y-95333839D01*
X155101905Y-95337597D01*
X154961431Y-95450541D01*
X154837755Y-95597933D01*
X154834791Y-95603325D01*
X154834788Y-95603329D01*
X154831481Y-95609345D01*
X154745063Y-95766539D01*
X154686885Y-95949939D01*
X154665438Y-96141145D01*
X133451600Y-96141145D01*
X133451600Y-93781900D01*
X133471602Y-93713779D01*
X133493044Y-93688486D01*
X136384570Y-91071157D01*
X136384571Y-91071156D01*
X136398000Y-91059000D01*
X136398000Y-79181559D01*
X136418002Y-79113438D01*
X136445288Y-79083170D01*
X136998486Y-78640611D01*
X137064175Y-78613675D01*
X137077198Y-78613000D01*
X140432255Y-78613000D01*
X140488604Y-78626302D01*
G37*
%TD.AperFunction*%
%TD*%
%TA.AperFunction,Conductor*%
%TO.N,/Vin*%
G36*
X115002792Y-72696095D02*
G01*
X115009419Y-72697747D01*
X115009421Y-72697748D01*
X115176697Y-72739455D01*
X115176701Y-72739456D01*
X115182093Y-72740800D01*
X115198906Y-72741946D01*
X115222486Y-72743554D01*
X115222499Y-72743554D01*
X115224634Y-72743700D01*
X116321766Y-72743700D01*
X116323901Y-72743554D01*
X116323914Y-72743554D01*
X116347494Y-72741946D01*
X116364307Y-72740800D01*
X116369699Y-72739456D01*
X116369703Y-72739455D01*
X116536984Y-72697747D01*
X116536988Y-72697746D01*
X116543608Y-72696095D01*
X116546217Y-72694800D01*
X117246400Y-72694800D01*
X117232762Y-78136545D01*
X117232761Y-78136547D01*
X117221045Y-82811286D01*
X117221000Y-82829400D01*
X117304952Y-82916104D01*
X118735425Y-84393478D01*
X118768440Y-84456331D01*
X118770898Y-84479878D01*
X118795794Y-86994394D01*
X118795800Y-86995641D01*
X118795800Y-91377900D01*
X118775798Y-91446021D01*
X118722142Y-91492514D01*
X118669800Y-91503900D01*
X117245400Y-91503900D01*
X117177279Y-91483898D01*
X117130786Y-91430242D01*
X117119400Y-91377900D01*
X117119400Y-88061800D01*
X117111493Y-88052986D01*
X117111493Y-88052985D01*
X112503408Y-82916104D01*
X112472809Y-82852040D01*
X112471200Y-82831967D01*
X112471200Y-72694800D01*
X115000183Y-72694800D01*
X115002792Y-72696095D01*
G37*
%TD.AperFunction*%
%TD*%
%TA.AperFunction,Conductor*%
%TO.N,/Vout*%
G36*
X238386116Y-69186820D02*
G01*
X239468188Y-69939566D01*
X239512686Y-69994887D01*
X239522233Y-70042552D01*
X239533498Y-73207950D01*
X239540797Y-75258812D01*
X239547169Y-77049417D01*
X239527410Y-77117608D01*
X239494591Y-77152263D01*
X238652895Y-77755743D01*
X238234078Y-78056027D01*
X238160743Y-78079627D01*
X225837346Y-78087881D01*
X200346486Y-78104955D01*
X200278353Y-78084999D01*
X200241565Y-78048847D01*
X200046162Y-77755743D01*
X200025000Y-77685851D01*
X200025000Y-73469141D01*
X234161233Y-73469141D01*
X234167329Y-73727790D01*
X234212478Y-73982542D01*
X234295641Y-74227533D01*
X234414905Y-74457125D01*
X234567525Y-74666036D01*
X234749989Y-74849458D01*
X234753835Y-74852299D01*
X234753840Y-74852303D01*
X234901412Y-74961301D01*
X234958098Y-75003170D01*
X234962328Y-75005396D01*
X234962332Y-75005398D01*
X235182826Y-75121405D01*
X235187063Y-75123634D01*
X235431615Y-75208079D01*
X235686126Y-75254561D01*
X235768919Y-75258900D01*
X235930182Y-75258900D01*
X235932561Y-75258719D01*
X235932562Y-75258719D01*
X236117609Y-75244643D01*
X236117614Y-75244642D01*
X236122376Y-75244280D01*
X236127030Y-75243201D01*
X236127032Y-75243201D01*
X236369751Y-75186942D01*
X236369750Y-75186942D01*
X236374415Y-75185861D01*
X236614718Y-75089990D01*
X236837754Y-74958873D01*
X236841465Y-74955852D01*
X236841469Y-74955849D01*
X237034679Y-74798551D01*
X237038391Y-74795529D01*
X237212013Y-74603715D01*
X237354622Y-74387847D01*
X237462938Y-74152891D01*
X237534468Y-73904255D01*
X237567567Y-73647659D01*
X237561471Y-73389010D01*
X237516322Y-73134258D01*
X237433159Y-72889267D01*
X237313895Y-72659675D01*
X237161275Y-72450764D01*
X236978811Y-72267342D01*
X236974965Y-72264501D01*
X236974960Y-72264497D01*
X236774554Y-72116475D01*
X236774553Y-72116474D01*
X236770702Y-72113630D01*
X236766472Y-72111404D01*
X236766468Y-72111402D01*
X236545974Y-71995395D01*
X236545972Y-71995394D01*
X236541737Y-71993166D01*
X236297185Y-71908721D01*
X236042674Y-71862239D01*
X235959881Y-71857900D01*
X235798618Y-71857900D01*
X235796239Y-71858081D01*
X235796238Y-71858081D01*
X235611191Y-71872157D01*
X235611186Y-71872158D01*
X235606424Y-71872520D01*
X235601770Y-71873599D01*
X235601768Y-71873599D01*
X235453951Y-71907861D01*
X235354385Y-71930939D01*
X235114082Y-72026810D01*
X234891046Y-72157927D01*
X234887335Y-72160948D01*
X234887331Y-72160951D01*
X234752483Y-72270735D01*
X234690409Y-72321271D01*
X234516787Y-72513085D01*
X234374178Y-72728953D01*
X234265862Y-72963909D01*
X234194332Y-73212545D01*
X234161233Y-73469141D01*
X200025000Y-73469141D01*
X200025000Y-69924139D01*
X200045002Y-69856018D01*
X200089809Y-69813995D01*
X201139539Y-69230812D01*
X201200558Y-69214956D01*
X231269311Y-69173878D01*
X238313990Y-69164254D01*
X238386116Y-69186820D01*
G37*
%TD.AperFunction*%
%TD*%
M02*
