M48
; DRILL file {KiCad (6.0.10)} date Mon May 29 22:30:04 2023
; FORMAT={-:-/ absolute / metric / decimal}
; #@! TF.CreationDate,2023-05-29T22:30:04+03:00
; #@! TF.GenerationSoftware,Kicad,Pcbnew,(6.0.10)
; #@! TF.FileFunction,Plated,1,2,PTH
FMAT,2
METRIC
; #@! TA.AperFunction,Plated,PTH,ViaDrill
T1C0.400
; #@! TA.AperFunction,Plated,PTH,ComponentDrill
T2C0.800
; #@! TA.AperFunction,Plated,PTH,ComponentDrill
T3C1.000
; #@! TA.AperFunction,Plated,PTH,ComponentDrill
T4C1.100
%
G90
G05
T1
X101.27Y-84.15
X103.556Y-94.336
X118.796Y-67.996
X152.781Y-114.173
T2
X163.693Y-114.158
X163.693Y-116.698
X163.693Y-119.238
X171.313Y-114.158
X171.313Y-116.698
X171.313Y-119.238
T3
X155.63Y-71.186
X155.63Y-76.186
X155.63Y-81.186
X155.63Y-86.186
X155.63Y-91.186
X155.63Y-96.186
X188.23Y-71.186
X188.23Y-76.186
X188.23Y-81.186
X188.23Y-86.186
X188.23Y-91.186
X188.23Y-96.186
T4
X127.733Y-80.626
X137.893Y-80.626
X195.961Y-76.51
X201.041Y-76.51
T0
M30
