%TF.GenerationSoftware,KiCad,Pcbnew,(6.0.10)*%
%TF.CreationDate,2023-05-29T22:30:10+03:00*%
%TF.ProjectId,flyback,666c7962-6163-46b2-9e6b-696361645f70,rev?*%
%TF.SameCoordinates,Original*%
%TF.FileFunction,Copper,L2,Bot*%
%TF.FilePolarity,Positive*%
%FSLAX46Y46*%
G04 Gerber Fmt 4.6, Leading zero omitted, Abs format (unit mm)*
G04 Created by KiCad (PCBNEW (6.0.10)) date 2023-05-29 22:30:10*
%MOMM*%
%LPD*%
G01*
G04 APERTURE LIST*
%TA.AperFunction,ComponentPad*%
%ADD10C,2.000000*%
%TD*%
%TA.AperFunction,ComponentPad*%
%ADD11R,1.600000X1.600000*%
%TD*%
%TA.AperFunction,ComponentPad*%
%ADD12O,1.600000X1.600000*%
%TD*%
%TA.AperFunction,ComponentPad*%
%ADD13R,2.200000X2.200000*%
%TD*%
%TA.AperFunction,ComponentPad*%
%ADD14O,2.200000X2.200000*%
%TD*%
%TA.AperFunction,ComponentPad*%
%ADD15R,2.000000X2.000000*%
%TD*%
%TA.AperFunction,ComponentPad*%
%ADD16O,2.000000X2.000000*%
%TD*%
%TA.AperFunction,ViaPad*%
%ADD17C,0.800000*%
%TD*%
%TA.AperFunction,Conductor*%
%ADD18C,0.500000*%
%TD*%
G04 APERTURE END LIST*
D10*
%TO.P,T1,12,SA*%
%TO.N,GND2*%
X188229800Y-96186000D03*
%TO.P,T1,10*%
%TO.N,N/C*%
X188229800Y-86186000D03*
%TO.P,T1,6,AA*%
%TO.N,/Vin*%
X155629800Y-71186000D03*
%TO.P,T1,2*%
%TO.N,N/C*%
X155629800Y-91186000D03*
%TO.P,T1,1,AB*%
%TO.N,Net-(D1-Pad2)*%
X155629800Y-96186000D03*
%TO.P,T1,8*%
%TO.N,N/C*%
X188229800Y-76186000D03*
%TO.P,T1,5*%
X155629800Y-76186000D03*
%TO.P,T1,9*%
X188229800Y-81186000D03*
%TO.P,T1,7,SB*%
%TO.N,Net-(D2-Pad2)*%
X188229800Y-71186000D03*
%TO.P,T1,11*%
%TO.N,N/C*%
X188229800Y-91186000D03*
%TO.P,T1,3*%
X155629800Y-86186000D03*
%TO.P,T1,4*%
X155629800Y-81186000D03*
%TD*%
D11*
%TO.P,U2,1*%
%TO.N,Net-(R13-Pad2)*%
X171313000Y-119238000D03*
D12*
%TO.P,U2,2*%
%TO.N,Net-(R14-Pad1)*%
X171313000Y-116698000D03*
%TO.P,U2,3,NC*%
%TO.N,unconnected-(U2-Pad3)*%
X171313000Y-114158000D03*
%TO.P,U2,4*%
%TO.N,/Vfb*%
X163693000Y-114158000D03*
%TO.P,U2,5*%
%TO.N,/Vref*%
X163693000Y-116698000D03*
%TO.P,U2,6*%
%TO.N,unconnected-(U2-Pad6)*%
X163693000Y-119238000D03*
%TD*%
D13*
%TO.P,D1,1,K*%
%TO.N,Net-(C10-Pad2)*%
X127733000Y-80626000D03*
D14*
%TO.P,D1,2,A*%
%TO.N,Net-(D1-Pad2)*%
X137893000Y-80626000D03*
%TD*%
D15*
%TO.P,D2,1,K*%
%TO.N,/Vout*%
X201041000Y-76510000D03*
D16*
%TO.P,D2,2,A*%
%TO.N,Net-(D2-Pad2)*%
X195961000Y-76510000D03*
%TD*%
D17*
%TO.N,/Vfb*%
X101269800Y-84150200D03*
X152781000Y-114173000D03*
%TO.N,GND1*%
X118795800Y-67995800D03*
X103555800Y-94335600D03*
%TD*%
D18*
%TO.N,/Vfb*%
X152781000Y-114173000D02*
X146837400Y-114173000D01*
X145542000Y-122453400D02*
X102844600Y-122453400D01*
X146177000Y-114833400D02*
X146177000Y-121818400D01*
X102844600Y-122453400D02*
X101269800Y-120878600D01*
X146837400Y-114173000D02*
X146177000Y-114833400D01*
X101269800Y-120878600D02*
X101269800Y-84150200D01*
X146177000Y-121818400D02*
X145542000Y-122453400D01*
%TD*%
%TA.AperFunction,Conductor*%
%TO.N,GND2*%
G36*
X238474915Y-55569802D02*
G01*
X238491156Y-55582211D01*
X240238946Y-57157684D01*
X240269467Y-57199525D01*
X241413983Y-59740380D01*
X241425100Y-59791995D01*
X241475849Y-107901635D01*
X241468593Y-107943908D01*
X240348207Y-111101016D01*
X240341527Y-117402862D01*
X240334849Y-123702636D01*
X240314775Y-123770735D01*
X240304938Y-123784006D01*
X237959388Y-126549286D01*
X237900070Y-126588297D01*
X237863692Y-126593781D01*
X217526239Y-126657053D01*
X180818603Y-126771254D01*
X180750420Y-126751464D01*
X180736251Y-126740955D01*
X178980496Y-125237286D01*
X178941767Y-125177783D01*
X178936456Y-125141537D01*
X178940001Y-116052600D01*
X234661141Y-116052600D01*
X234681737Y-116288008D01*
X234742897Y-116516263D01*
X234842765Y-116730429D01*
X234978305Y-116924001D01*
X235145399Y-117091095D01*
X235338971Y-117226635D01*
X235343949Y-117228956D01*
X235343952Y-117228958D01*
X235548155Y-117324180D01*
X235553137Y-117326503D01*
X235558445Y-117327925D01*
X235558447Y-117327926D01*
X235776077Y-117386239D01*
X235781392Y-117387663D01*
X235884482Y-117396682D01*
X235955110Y-117402862D01*
X235955117Y-117402862D01*
X235957834Y-117403100D01*
X236075766Y-117403100D01*
X236078483Y-117402862D01*
X236078490Y-117402862D01*
X236149118Y-117396682D01*
X236252208Y-117387663D01*
X236257523Y-117386239D01*
X236475153Y-117327926D01*
X236475155Y-117327925D01*
X236480463Y-117326503D01*
X236485445Y-117324180D01*
X236689648Y-117228958D01*
X236689651Y-117228956D01*
X236694629Y-117226635D01*
X236888201Y-117091095D01*
X237055295Y-116924001D01*
X237058455Y-116919489D01*
X237187678Y-116734939D01*
X237187681Y-116734934D01*
X237190835Y-116730430D01*
X237193158Y-116725448D01*
X237193161Y-116725443D01*
X237288380Y-116521245D01*
X237288381Y-116521244D01*
X237290703Y-116516263D01*
X237351863Y-116288008D01*
X237372459Y-116052600D01*
X237351863Y-115817192D01*
X237290703Y-115588937D01*
X237190835Y-115374771D01*
X237055295Y-115181199D01*
X236888201Y-115014105D01*
X236694629Y-114878565D01*
X236689651Y-114876244D01*
X236689648Y-114876242D01*
X236485445Y-114781020D01*
X236485443Y-114781019D01*
X236480463Y-114778697D01*
X236475155Y-114777275D01*
X236475153Y-114777274D01*
X236257523Y-114718961D01*
X236257522Y-114718961D01*
X236252208Y-114717537D01*
X236149118Y-114708518D01*
X236078490Y-114702338D01*
X236078483Y-114702338D01*
X236075766Y-114702100D01*
X235957834Y-114702100D01*
X235955117Y-114702338D01*
X235955110Y-114702338D01*
X235884482Y-114708518D01*
X235781392Y-114717537D01*
X235776078Y-114718961D01*
X235776077Y-114718961D01*
X235558447Y-114777274D01*
X235558445Y-114777275D01*
X235553137Y-114778697D01*
X235548157Y-114781019D01*
X235548155Y-114781020D01*
X235343952Y-114876242D01*
X235343949Y-114876244D01*
X235338971Y-114878565D01*
X235145399Y-115014105D01*
X234978305Y-115181199D01*
X234975148Y-115185707D01*
X234975146Y-115185710D01*
X234845922Y-115370261D01*
X234842765Y-115374770D01*
X234840442Y-115379752D01*
X234840439Y-115379757D01*
X234745220Y-115583955D01*
X234742897Y-115588937D01*
X234681737Y-115817192D01*
X234661141Y-116052600D01*
X178940001Y-116052600D01*
X178949712Y-91154440D01*
X187024570Y-91154440D01*
X187039000Y-91374604D01*
X187040421Y-91380200D01*
X187040422Y-91380205D01*
X187091890Y-91582857D01*
X187093311Y-91588452D01*
X187095728Y-91593694D01*
X187095728Y-91593695D01*
X187133846Y-91676379D01*
X187185683Y-91788821D01*
X187313022Y-91969002D01*
X187471064Y-92122961D01*
X187475860Y-92126166D01*
X187475863Y-92126168D01*
X187560061Y-92182427D01*
X187654517Y-92245540D01*
X187659820Y-92247818D01*
X187659823Y-92247820D01*
X187851929Y-92330355D01*
X187857236Y-92332635D01*
X187936888Y-92350658D01*
X188066795Y-92380054D01*
X188066801Y-92380055D01*
X188072432Y-92381329D01*
X188078203Y-92381556D01*
X188078205Y-92381556D01*
X188146011Y-92384220D01*
X188292898Y-92389991D01*
X188402075Y-92374161D01*
X188505538Y-92359160D01*
X188505543Y-92359159D01*
X188511252Y-92358331D01*
X188516716Y-92356476D01*
X188516721Y-92356475D01*
X188714707Y-92289268D01*
X188714712Y-92289266D01*
X188720179Y-92287410D01*
X188912684Y-92179602D01*
X189082318Y-92038518D01*
X189223402Y-91868884D01*
X189331210Y-91676379D01*
X189333066Y-91670912D01*
X189333068Y-91670907D01*
X189400275Y-91472921D01*
X189400276Y-91472916D01*
X189402131Y-91467452D01*
X189402959Y-91461743D01*
X189402960Y-91461738D01*
X189433258Y-91252772D01*
X189433791Y-91249098D01*
X189435443Y-91186000D01*
X189415254Y-90966289D01*
X189355365Y-90753936D01*
X189257780Y-90556053D01*
X189125767Y-90379267D01*
X188963749Y-90229499D01*
X188777150Y-90111764D01*
X188572221Y-90030006D01*
X188566561Y-90028880D01*
X188566557Y-90028879D01*
X188361491Y-89988089D01*
X188361488Y-89988089D01*
X188355824Y-89986962D01*
X188350049Y-89986886D01*
X188350045Y-89986886D01*
X188239304Y-89985437D01*
X188135206Y-89984074D01*
X188129509Y-89985053D01*
X188129508Y-89985053D01*
X187923454Y-90020459D01*
X187923453Y-90020459D01*
X187917757Y-90021438D01*
X187710757Y-90097804D01*
X187521141Y-90210614D01*
X187355257Y-90356090D01*
X187218663Y-90529360D01*
X187115931Y-90724620D01*
X187050503Y-90935333D01*
X187024570Y-91154440D01*
X178949712Y-91154440D01*
X178951662Y-86154440D01*
X187024570Y-86154440D01*
X187039000Y-86374604D01*
X187040421Y-86380200D01*
X187040422Y-86380205D01*
X187091890Y-86582857D01*
X187093311Y-86588452D01*
X187095728Y-86593694D01*
X187095728Y-86593695D01*
X187133846Y-86676379D01*
X187185683Y-86788821D01*
X187313022Y-86969002D01*
X187471064Y-87122961D01*
X187475860Y-87126166D01*
X187475863Y-87126168D01*
X187560061Y-87182427D01*
X187654517Y-87245540D01*
X187659820Y-87247818D01*
X187659823Y-87247820D01*
X187851929Y-87330355D01*
X187857236Y-87332635D01*
X187936888Y-87350658D01*
X188066795Y-87380054D01*
X188066801Y-87380055D01*
X188072432Y-87381329D01*
X188078203Y-87381556D01*
X188078205Y-87381556D01*
X188146011Y-87384220D01*
X188292898Y-87389991D01*
X188402075Y-87374161D01*
X188505538Y-87359160D01*
X188505543Y-87359159D01*
X188511252Y-87358331D01*
X188516716Y-87356476D01*
X188516721Y-87356475D01*
X188714707Y-87289268D01*
X188714712Y-87289266D01*
X188720179Y-87287410D01*
X188912684Y-87179602D01*
X189082318Y-87038518D01*
X189223402Y-86868884D01*
X189331210Y-86676379D01*
X189333066Y-86670912D01*
X189333068Y-86670907D01*
X189400275Y-86472921D01*
X189400276Y-86472916D01*
X189402131Y-86467452D01*
X189402959Y-86461743D01*
X189402960Y-86461738D01*
X189433258Y-86252772D01*
X189433791Y-86249098D01*
X189435443Y-86186000D01*
X189415254Y-85966289D01*
X189355365Y-85753936D01*
X189257780Y-85556053D01*
X189125767Y-85379267D01*
X188963749Y-85229499D01*
X188777150Y-85111764D01*
X188572221Y-85030006D01*
X188566561Y-85028880D01*
X188566557Y-85028879D01*
X188361491Y-84988089D01*
X188361488Y-84988089D01*
X188355824Y-84986962D01*
X188350049Y-84986886D01*
X188350045Y-84986886D01*
X188239304Y-84985437D01*
X188135206Y-84984074D01*
X188129509Y-84985053D01*
X188129508Y-84985053D01*
X187923454Y-85020459D01*
X187923453Y-85020459D01*
X187917757Y-85021438D01*
X187710757Y-85097804D01*
X187521141Y-85210614D01*
X187355257Y-85356090D01*
X187218663Y-85529360D01*
X187115931Y-85724620D01*
X187050503Y-85935333D01*
X187024570Y-86154440D01*
X178951662Y-86154440D01*
X178953169Y-82289268D01*
X178953611Y-81154440D01*
X187024570Y-81154440D01*
X187039000Y-81374604D01*
X187040421Y-81380200D01*
X187040422Y-81380205D01*
X187091890Y-81582857D01*
X187093311Y-81588452D01*
X187095728Y-81593694D01*
X187095728Y-81593695D01*
X187133846Y-81676379D01*
X187185683Y-81788821D01*
X187313022Y-81969002D01*
X187471064Y-82122961D01*
X187475860Y-82126166D01*
X187475863Y-82126168D01*
X187560061Y-82182427D01*
X187654517Y-82245540D01*
X187659820Y-82247818D01*
X187659823Y-82247820D01*
X187851929Y-82330355D01*
X187857236Y-82332635D01*
X187936888Y-82350658D01*
X188066795Y-82380054D01*
X188066801Y-82380055D01*
X188072432Y-82381329D01*
X188078203Y-82381556D01*
X188078205Y-82381556D01*
X188146011Y-82384220D01*
X188292898Y-82389991D01*
X188402075Y-82374161D01*
X188505538Y-82359160D01*
X188505543Y-82359159D01*
X188511252Y-82358331D01*
X188516716Y-82356476D01*
X188516721Y-82356475D01*
X188714707Y-82289268D01*
X188714712Y-82289266D01*
X188720179Y-82287410D01*
X188912684Y-82179602D01*
X189082318Y-82038518D01*
X189223402Y-81868884D01*
X189331210Y-81676379D01*
X189333066Y-81670912D01*
X189333068Y-81670907D01*
X189400275Y-81472921D01*
X189400276Y-81472916D01*
X189402131Y-81467452D01*
X189402959Y-81461743D01*
X189402960Y-81461738D01*
X189433258Y-81252772D01*
X189433791Y-81249098D01*
X189435443Y-81186000D01*
X189415254Y-80966289D01*
X189355365Y-80753936D01*
X189257780Y-80556053D01*
X189125767Y-80379267D01*
X188963749Y-80229499D01*
X188777150Y-80111764D01*
X188572221Y-80030006D01*
X188566561Y-80028880D01*
X188566557Y-80028879D01*
X188361491Y-79988089D01*
X188361488Y-79988089D01*
X188355824Y-79986962D01*
X188350049Y-79986886D01*
X188350045Y-79986886D01*
X188239304Y-79985437D01*
X188135206Y-79984074D01*
X188129509Y-79985053D01*
X188129508Y-79985053D01*
X187923454Y-80020459D01*
X187923453Y-80020459D01*
X187917757Y-80021438D01*
X187710757Y-80097804D01*
X187521141Y-80210614D01*
X187355257Y-80356090D01*
X187218663Y-80529360D01*
X187115931Y-80724620D01*
X187050503Y-80935333D01*
X187024570Y-81154440D01*
X178953611Y-81154440D01*
X178955561Y-76154440D01*
X187024570Y-76154440D01*
X187039000Y-76374604D01*
X187040421Y-76380200D01*
X187040422Y-76380205D01*
X187090345Y-76576772D01*
X187093311Y-76588452D01*
X187095728Y-76593694D01*
X187095728Y-76593695D01*
X187133846Y-76676379D01*
X187185683Y-76788821D01*
X187313022Y-76969002D01*
X187471064Y-77122961D01*
X187475860Y-77126166D01*
X187475863Y-77126168D01*
X187560061Y-77182427D01*
X187654517Y-77245540D01*
X187659820Y-77247818D01*
X187659823Y-77247820D01*
X187851929Y-77330355D01*
X187857236Y-77332635D01*
X187936888Y-77350658D01*
X188066795Y-77380054D01*
X188066801Y-77380055D01*
X188072432Y-77381329D01*
X188078203Y-77381556D01*
X188078205Y-77381556D01*
X188146011Y-77384220D01*
X188292898Y-77389991D01*
X188402075Y-77374161D01*
X188505538Y-77359160D01*
X188505543Y-77359159D01*
X188511252Y-77358331D01*
X188516716Y-77356476D01*
X188516721Y-77356475D01*
X188714707Y-77289268D01*
X188714712Y-77289266D01*
X188720179Y-77287410D01*
X188912684Y-77179602D01*
X189082318Y-77038518D01*
X189223402Y-76868884D01*
X189315627Y-76704205D01*
X189328386Y-76681422D01*
X189328387Y-76681420D01*
X189331210Y-76676379D01*
X189333066Y-76670912D01*
X189333068Y-76670907D01*
X189398402Y-76478440D01*
X194755770Y-76478440D01*
X194770200Y-76698604D01*
X194771621Y-76704200D01*
X194771622Y-76704205D01*
X194812165Y-76863839D01*
X194824511Y-76912452D01*
X194826928Y-76917694D01*
X194826928Y-76917695D01*
X194865046Y-77000379D01*
X194916883Y-77112821D01*
X195044222Y-77293002D01*
X195202264Y-77446961D01*
X195207060Y-77450166D01*
X195207063Y-77450168D01*
X195291261Y-77506427D01*
X195385717Y-77569540D01*
X195391020Y-77571818D01*
X195391023Y-77571820D01*
X195583129Y-77654355D01*
X195588436Y-77656635D01*
X195668088Y-77674658D01*
X195797995Y-77704054D01*
X195798001Y-77704055D01*
X195803632Y-77705329D01*
X195809403Y-77705556D01*
X195809405Y-77705556D01*
X195877211Y-77708220D01*
X196024098Y-77713991D01*
X196133275Y-77698161D01*
X196236738Y-77683160D01*
X196236743Y-77683159D01*
X196242452Y-77682331D01*
X196247916Y-77680476D01*
X196247921Y-77680475D01*
X196445907Y-77613268D01*
X196445912Y-77613266D01*
X196451379Y-77611410D01*
X196597197Y-77529748D01*
X199840500Y-77529748D01*
X199841707Y-77535816D01*
X199848869Y-77571820D01*
X199852133Y-77588231D01*
X199896448Y-77654552D01*
X199962769Y-77698867D01*
X199974938Y-77701288D01*
X199974939Y-77701288D01*
X200015184Y-77709293D01*
X200021252Y-77710500D01*
X202060748Y-77710500D01*
X202066816Y-77709293D01*
X202107061Y-77701288D01*
X202107062Y-77701288D01*
X202119231Y-77698867D01*
X202185552Y-77654552D01*
X202229867Y-77588231D01*
X202233132Y-77571820D01*
X202240293Y-77535816D01*
X202241500Y-77529748D01*
X202241500Y-75490252D01*
X202229867Y-75431769D01*
X202185552Y-75365448D01*
X202119231Y-75321133D01*
X202107062Y-75318712D01*
X202107061Y-75318712D01*
X202066816Y-75310707D01*
X202060748Y-75309500D01*
X200021252Y-75309500D01*
X200015184Y-75310707D01*
X199974939Y-75318712D01*
X199974938Y-75318712D01*
X199962769Y-75321133D01*
X199896448Y-75365448D01*
X199852133Y-75431769D01*
X199840500Y-75490252D01*
X199840500Y-77529748D01*
X196597197Y-77529748D01*
X196643884Y-77503602D01*
X196813518Y-77362518D01*
X196954602Y-77192884D01*
X197062410Y-77000379D01*
X197064266Y-76994912D01*
X197064268Y-76994907D01*
X197131475Y-76796921D01*
X197131476Y-76796916D01*
X197133331Y-76791452D01*
X197134159Y-76785743D01*
X197134160Y-76785738D01*
X197153346Y-76653413D01*
X197164991Y-76573098D01*
X197166643Y-76510000D01*
X197146454Y-76290289D01*
X197086565Y-76077936D01*
X196988980Y-75880053D01*
X196856967Y-75703267D01*
X196694949Y-75553499D01*
X196508350Y-75435764D01*
X196378329Y-75383891D01*
X196308785Y-75356146D01*
X196303421Y-75354006D01*
X196297761Y-75352880D01*
X196297757Y-75352879D01*
X196092691Y-75312089D01*
X196092688Y-75312089D01*
X196087024Y-75310962D01*
X196081249Y-75310886D01*
X196081245Y-75310886D01*
X195970504Y-75309437D01*
X195866406Y-75308074D01*
X195860709Y-75309053D01*
X195860708Y-75309053D01*
X195654654Y-75344459D01*
X195654653Y-75344459D01*
X195648957Y-75345438D01*
X195441957Y-75421804D01*
X195436996Y-75424756D01*
X195436995Y-75424756D01*
X195326907Y-75490252D01*
X195252341Y-75534614D01*
X195086457Y-75680090D01*
X194949863Y-75853360D01*
X194847131Y-76048620D01*
X194781703Y-76259333D01*
X194755770Y-76478440D01*
X189398402Y-76478440D01*
X189400275Y-76472921D01*
X189400276Y-76472916D01*
X189402131Y-76467452D01*
X189402959Y-76461743D01*
X189402960Y-76461738D01*
X189426984Y-76296046D01*
X189433791Y-76249098D01*
X189435443Y-76186000D01*
X189415254Y-75966289D01*
X189355365Y-75753936D01*
X189257780Y-75556053D01*
X189253572Y-75550417D01*
X189129220Y-75383891D01*
X189129220Y-75383890D01*
X189125767Y-75379267D01*
X188963749Y-75229499D01*
X188777150Y-75111764D01*
X188572221Y-75030006D01*
X188566561Y-75028880D01*
X188566557Y-75028879D01*
X188361491Y-74988089D01*
X188361488Y-74988089D01*
X188355824Y-74986962D01*
X188350049Y-74986886D01*
X188350045Y-74986886D01*
X188239304Y-74985437D01*
X188135206Y-74984074D01*
X188129509Y-74985053D01*
X188129508Y-74985053D01*
X187923454Y-75020459D01*
X187923453Y-75020459D01*
X187917757Y-75021438D01*
X187710757Y-75097804D01*
X187521141Y-75210614D01*
X187355257Y-75356090D01*
X187218663Y-75529360D01*
X187115931Y-75724620D01*
X187050503Y-75935333D01*
X187024570Y-76154440D01*
X178955561Y-76154440D01*
X178956573Y-73558400D01*
X234508741Y-73558400D01*
X234529337Y-73793808D01*
X234590497Y-74022063D01*
X234690365Y-74236229D01*
X234825905Y-74429801D01*
X234992999Y-74596895D01*
X235186571Y-74732435D01*
X235191549Y-74734756D01*
X235191552Y-74734758D01*
X235395755Y-74829980D01*
X235400737Y-74832303D01*
X235406045Y-74833725D01*
X235406047Y-74833726D01*
X235623677Y-74892039D01*
X235628992Y-74893463D01*
X235732082Y-74902482D01*
X235802710Y-74908662D01*
X235802717Y-74908662D01*
X235805434Y-74908900D01*
X235923366Y-74908900D01*
X235926083Y-74908662D01*
X235926090Y-74908662D01*
X235996718Y-74902482D01*
X236099808Y-74893463D01*
X236105123Y-74892039D01*
X236322753Y-74833726D01*
X236322755Y-74833725D01*
X236328063Y-74832303D01*
X236333045Y-74829980D01*
X236537248Y-74734758D01*
X236537251Y-74734756D01*
X236542229Y-74732435D01*
X236735801Y-74596895D01*
X236902895Y-74429801D01*
X236906055Y-74425289D01*
X237035278Y-74240739D01*
X237035281Y-74240734D01*
X237038435Y-74236230D01*
X237040758Y-74231248D01*
X237040761Y-74231243D01*
X237135980Y-74027045D01*
X237135981Y-74027044D01*
X237138303Y-74022063D01*
X237199463Y-73793808D01*
X237220059Y-73558400D01*
X237199463Y-73322992D01*
X237138303Y-73094737D01*
X237038435Y-72880571D01*
X236902895Y-72686999D01*
X236735801Y-72519905D01*
X236542229Y-72384365D01*
X236537251Y-72382044D01*
X236537248Y-72382042D01*
X236333045Y-72286820D01*
X236333043Y-72286819D01*
X236328063Y-72284497D01*
X236322755Y-72283075D01*
X236322753Y-72283074D01*
X236105123Y-72224761D01*
X236105122Y-72224761D01*
X236099808Y-72223337D01*
X235996718Y-72214318D01*
X235926090Y-72208138D01*
X235926083Y-72208138D01*
X235923366Y-72207900D01*
X235805434Y-72207900D01*
X235802717Y-72208138D01*
X235802710Y-72208138D01*
X235732082Y-72214318D01*
X235628992Y-72223337D01*
X235623678Y-72224761D01*
X235623677Y-72224761D01*
X235406047Y-72283074D01*
X235406045Y-72283075D01*
X235400737Y-72284497D01*
X235395757Y-72286819D01*
X235395755Y-72286820D01*
X235191552Y-72382042D01*
X235191549Y-72382044D01*
X235186571Y-72384365D01*
X234992999Y-72519905D01*
X234825905Y-72686999D01*
X234822748Y-72691507D01*
X234822746Y-72691510D01*
X234693522Y-72876061D01*
X234690365Y-72880570D01*
X234688042Y-72885552D01*
X234688039Y-72885557D01*
X234592820Y-73089755D01*
X234590497Y-73094737D01*
X234529337Y-73322992D01*
X234508741Y-73558400D01*
X178956573Y-73558400D01*
X178957511Y-71154440D01*
X187024570Y-71154440D01*
X187039000Y-71374604D01*
X187040421Y-71380200D01*
X187040422Y-71380205D01*
X187091890Y-71582857D01*
X187093311Y-71588452D01*
X187095728Y-71593694D01*
X187095728Y-71593695D01*
X187133846Y-71676379D01*
X187185683Y-71788821D01*
X187313022Y-71969002D01*
X187471064Y-72122961D01*
X187475860Y-72126166D01*
X187475863Y-72126168D01*
X187598541Y-72208138D01*
X187654517Y-72245540D01*
X187659820Y-72247818D01*
X187659823Y-72247820D01*
X187851929Y-72330355D01*
X187857236Y-72332635D01*
X187936888Y-72350658D01*
X188066795Y-72380054D01*
X188066801Y-72380055D01*
X188072432Y-72381329D01*
X188078203Y-72381556D01*
X188078205Y-72381556D01*
X188146011Y-72384220D01*
X188292898Y-72389991D01*
X188402075Y-72374161D01*
X188505538Y-72359160D01*
X188505543Y-72359159D01*
X188511252Y-72358331D01*
X188516716Y-72356476D01*
X188516721Y-72356475D01*
X188714707Y-72289268D01*
X188714712Y-72289266D01*
X188720179Y-72287410D01*
X188727922Y-72283074D01*
X188832047Y-72224761D01*
X188912684Y-72179602D01*
X189082318Y-72038518D01*
X189223402Y-71868884D01*
X189331210Y-71676379D01*
X189333066Y-71670912D01*
X189333068Y-71670907D01*
X189400275Y-71472921D01*
X189400276Y-71472916D01*
X189402131Y-71467452D01*
X189402959Y-71461743D01*
X189402960Y-71461738D01*
X189433258Y-71252772D01*
X189433791Y-71249098D01*
X189435443Y-71186000D01*
X189415254Y-70966289D01*
X189355365Y-70753936D01*
X189257780Y-70556053D01*
X189125767Y-70379267D01*
X188963749Y-70229499D01*
X188777150Y-70111764D01*
X188572221Y-70030006D01*
X188566561Y-70028880D01*
X188566557Y-70028879D01*
X188361491Y-69988089D01*
X188361488Y-69988089D01*
X188355824Y-69986962D01*
X188350049Y-69986886D01*
X188350045Y-69986886D01*
X188239304Y-69985437D01*
X188135206Y-69984074D01*
X188129509Y-69985053D01*
X188129508Y-69985053D01*
X187923454Y-70020459D01*
X187923453Y-70020459D01*
X187917757Y-70021438D01*
X187710757Y-70097804D01*
X187521141Y-70210614D01*
X187355257Y-70356090D01*
X187218663Y-70529360D01*
X187115931Y-70724620D01*
X187050503Y-70935333D01*
X187024570Y-71154440D01*
X178957511Y-71154440D01*
X178961815Y-60119499D01*
X178981844Y-60051387D01*
X178990973Y-60038941D01*
X179196524Y-59791995D01*
X182689817Y-55595192D01*
X182748771Y-55555631D01*
X182786659Y-55549800D01*
X238406794Y-55549800D01*
X238474915Y-55569802D01*
G37*
%TD.AperFunction*%
%TD*%
%TA.AperFunction,Conductor*%
%TO.N,Net-(D1-Pad2)*%
G36*
X158379169Y-93238002D02*
G01*
X158406714Y-93262000D01*
X159100666Y-94071610D01*
X159129812Y-94136349D01*
X159131000Y-94153610D01*
X159131000Y-99887375D01*
X159110998Y-99955496D01*
X159082357Y-99986833D01*
X158022125Y-100811458D01*
X157956073Y-100837492D01*
X157944768Y-100838000D01*
X134679015Y-100838000D01*
X134610894Y-100817998D01*
X134582219Y-100792663D01*
X134014204Y-100111045D01*
X133985960Y-100045908D01*
X133985000Y-100030382D01*
X133985000Y-93852000D01*
X134005002Y-93783879D01*
X134058658Y-93737386D01*
X134111000Y-93726000D01*
X136017000Y-93726000D01*
X136029081Y-93720631D01*
X136029084Y-93720630D01*
X137135565Y-93228860D01*
X137186738Y-93218000D01*
X158311048Y-93218000D01*
X158379169Y-93238002D01*
G37*
%TD.AperFunction*%
%TD*%
%TA.AperFunction,Conductor*%
%TO.N,GND1*%
G36*
X124011053Y-55748478D02*
G01*
X158183009Y-55778348D01*
X158251111Y-55798410D01*
X158279740Y-55823740D01*
X161870418Y-60137541D01*
X161898625Y-60202694D01*
X161899576Y-60218213D01*
X161874200Y-108127800D01*
X161881748Y-108135408D01*
X161881748Y-108135409D01*
X165012650Y-111291358D01*
X165046426Y-111353806D01*
X165049200Y-111380098D01*
X165049200Y-125840132D01*
X165029198Y-125908253D01*
X164992789Y-125945172D01*
X163048574Y-127233214D01*
X162979566Y-127254173D01*
X127675783Y-127416864D01*
X96927326Y-127558562D01*
X96859114Y-127538874D01*
X96838627Y-127522625D01*
X96564079Y-127254000D01*
X94778483Y-125506931D01*
X94743781Y-125444993D01*
X94740602Y-125416673D01*
X94804880Y-84150200D01*
X100664118Y-84150200D01*
X100684756Y-84306962D01*
X100745264Y-84453041D01*
X100750291Y-84459592D01*
X100793263Y-84515595D01*
X100818863Y-84581816D01*
X100819300Y-84592299D01*
X100819300Y-120844380D01*
X100818427Y-120859189D01*
X100814436Y-120892910D01*
X100816128Y-120902174D01*
X100816128Y-120902175D01*
X100824972Y-120950601D01*
X100825622Y-120954504D01*
X100834351Y-121012562D01*
X100837479Y-121019075D01*
X100838775Y-121026173D01*
X100865825Y-121078247D01*
X100867568Y-121081737D01*
X100892991Y-121134679D01*
X100897877Y-121139965D01*
X100897910Y-121140013D01*
X100901221Y-121146388D01*
X100905525Y-121151428D01*
X100942752Y-121188655D01*
X100946181Y-121192220D01*
X100984946Y-121234156D01*
X100991303Y-121237848D01*
X100997460Y-121243363D01*
X102501851Y-122747755D01*
X102511706Y-122758844D01*
X102532728Y-122785510D01*
X102540472Y-122790862D01*
X102540474Y-122790864D01*
X102580970Y-122818852D01*
X102584185Y-122821150D01*
X102631417Y-122856035D01*
X102638234Y-122858429D01*
X102644169Y-122862531D01*
X102653144Y-122865369D01*
X102653145Y-122865370D01*
X102675107Y-122872315D01*
X102700075Y-122880212D01*
X102703815Y-122881460D01*
X102750345Y-122897800D01*
X102750348Y-122897801D01*
X102759231Y-122900920D01*
X102766416Y-122901203D01*
X102766489Y-122901217D01*
X102773330Y-122903380D01*
X102779937Y-122903900D01*
X102832591Y-122903900D01*
X102837537Y-122903997D01*
X102894594Y-122906239D01*
X102901703Y-122904354D01*
X102909952Y-122903900D01*
X145507780Y-122903900D01*
X145522589Y-122904773D01*
X145556310Y-122908764D01*
X145565574Y-122907072D01*
X145565575Y-122907072D01*
X145614001Y-122898228D01*
X145617904Y-122897578D01*
X145666645Y-122890250D01*
X145666646Y-122890250D01*
X145675962Y-122888849D01*
X145682475Y-122885721D01*
X145689573Y-122884425D01*
X145741647Y-122857375D01*
X145745137Y-122855632D01*
X145798079Y-122830209D01*
X145803365Y-122825323D01*
X145803413Y-122825290D01*
X145809788Y-122821979D01*
X145814828Y-122817675D01*
X145852055Y-122780448D01*
X145855621Y-122777018D01*
X145890641Y-122744646D01*
X145897556Y-122738254D01*
X145901249Y-122731895D01*
X145906766Y-122725737D01*
X146471350Y-122161153D01*
X146482439Y-122151299D01*
X146501711Y-122136106D01*
X146501715Y-122136102D01*
X146509110Y-122130272D01*
X146514464Y-122122525D01*
X146514468Y-122122521D01*
X146542477Y-122081996D01*
X146544758Y-122078802D01*
X146579635Y-122031583D01*
X146582029Y-122024766D01*
X146586131Y-122018831D01*
X146591170Y-122002900D01*
X146603807Y-121962940D01*
X146605060Y-121959185D01*
X146621400Y-121912655D01*
X146621401Y-121912652D01*
X146624520Y-121903769D01*
X146624803Y-121896584D01*
X146624817Y-121896511D01*
X146626980Y-121889670D01*
X146627500Y-121883063D01*
X146627500Y-121830409D01*
X146627597Y-121825462D01*
X146629469Y-121777818D01*
X146629839Y-121768406D01*
X146627954Y-121761297D01*
X146627500Y-121753048D01*
X146627500Y-119223963D01*
X162687757Y-119223963D01*
X162704175Y-119419483D01*
X162758258Y-119608091D01*
X162761076Y-119613574D01*
X162845123Y-119777113D01*
X162845126Y-119777117D01*
X162847944Y-119782601D01*
X162969818Y-119936369D01*
X163119238Y-120063535D01*
X163124616Y-120066541D01*
X163124618Y-120066542D01*
X163160932Y-120086837D01*
X163290513Y-120159257D01*
X163477118Y-120219889D01*
X163671946Y-120243121D01*
X163678081Y-120242649D01*
X163678083Y-120242649D01*
X163861434Y-120228541D01*
X163861438Y-120228540D01*
X163867576Y-120228068D01*
X164056556Y-120175303D01*
X164231689Y-120086837D01*
X164261515Y-120063535D01*
X164381453Y-119969829D01*
X164386303Y-119966040D01*
X164416084Y-119931539D01*
X164510485Y-119822173D01*
X164510485Y-119822172D01*
X164514509Y-119817511D01*
X164611425Y-119646909D01*
X164673358Y-119460732D01*
X164697949Y-119266071D01*
X164698341Y-119238000D01*
X164679194Y-119042728D01*
X164677413Y-119036829D01*
X164677412Y-119036824D01*
X164624265Y-118860793D01*
X164622484Y-118854894D01*
X164530370Y-118681653D01*
X164406361Y-118529602D01*
X164255180Y-118404535D01*
X164082585Y-118311213D01*
X163988868Y-118282203D01*
X163901039Y-118255015D01*
X163901036Y-118255014D01*
X163895152Y-118253193D01*
X163889027Y-118252549D01*
X163889026Y-118252549D01*
X163706147Y-118233327D01*
X163706146Y-118233327D01*
X163700019Y-118232683D01*
X163577383Y-118243844D01*
X163510759Y-118249907D01*
X163510758Y-118249907D01*
X163504618Y-118250466D01*
X163498704Y-118252207D01*
X163498702Y-118252207D01*
X163369734Y-118290165D01*
X163316393Y-118305864D01*
X163310928Y-118308721D01*
X163147972Y-118393912D01*
X163147968Y-118393915D01*
X163142512Y-118396767D01*
X163137712Y-118400627D01*
X163137711Y-118400627D01*
X163103326Y-118428273D01*
X162989600Y-118519711D01*
X162863480Y-118670016D01*
X162860516Y-118675408D01*
X162860513Y-118675412D01*
X162781813Y-118818567D01*
X162768956Y-118841954D01*
X162709628Y-119028978D01*
X162687757Y-119223963D01*
X146627500Y-119223963D01*
X146627500Y-116683963D01*
X162687757Y-116683963D01*
X162704175Y-116879483D01*
X162758258Y-117068091D01*
X162761076Y-117073574D01*
X162845123Y-117237113D01*
X162845126Y-117237117D01*
X162847944Y-117242601D01*
X162969818Y-117396369D01*
X163119238Y-117523535D01*
X163124616Y-117526541D01*
X163124618Y-117526542D01*
X163160932Y-117546837D01*
X163290513Y-117619257D01*
X163477118Y-117679889D01*
X163671946Y-117703121D01*
X163678081Y-117702649D01*
X163678083Y-117702649D01*
X163861434Y-117688541D01*
X163861438Y-117688540D01*
X163867576Y-117688068D01*
X164056556Y-117635303D01*
X164231689Y-117546837D01*
X164261515Y-117523535D01*
X164381453Y-117429829D01*
X164386303Y-117426040D01*
X164416084Y-117391539D01*
X164510485Y-117282173D01*
X164510485Y-117282172D01*
X164514509Y-117277511D01*
X164611425Y-117106909D01*
X164673358Y-116920732D01*
X164697949Y-116726071D01*
X164698341Y-116698000D01*
X164679194Y-116502728D01*
X164677413Y-116496829D01*
X164677412Y-116496824D01*
X164624265Y-116320793D01*
X164622484Y-116314894D01*
X164530370Y-116141653D01*
X164406361Y-115989602D01*
X164255180Y-115864535D01*
X164082585Y-115771213D01*
X163988868Y-115742203D01*
X163901039Y-115715015D01*
X163901036Y-115715014D01*
X163895152Y-115713193D01*
X163889027Y-115712549D01*
X163889026Y-115712549D01*
X163706147Y-115693327D01*
X163706146Y-115693327D01*
X163700019Y-115692683D01*
X163577383Y-115703844D01*
X163510759Y-115709907D01*
X163510758Y-115709907D01*
X163504618Y-115710466D01*
X163498704Y-115712207D01*
X163498702Y-115712207D01*
X163369734Y-115750165D01*
X163316393Y-115765864D01*
X163310928Y-115768721D01*
X163147972Y-115853912D01*
X163147968Y-115853915D01*
X163142512Y-115856767D01*
X163137712Y-115860627D01*
X163137711Y-115860627D01*
X163103326Y-115888273D01*
X162989600Y-115979711D01*
X162863480Y-116130016D01*
X162860516Y-116135408D01*
X162860513Y-116135412D01*
X162781813Y-116278567D01*
X162768956Y-116301954D01*
X162709628Y-116488978D01*
X162687757Y-116683963D01*
X146627500Y-116683963D01*
X146627500Y-115072193D01*
X146647502Y-115004072D01*
X146664405Y-114983098D01*
X146987098Y-114660405D01*
X147049410Y-114626379D01*
X147076193Y-114623500D01*
X152338901Y-114623500D01*
X152407022Y-114643502D01*
X152415605Y-114649537D01*
X152478159Y-114697536D01*
X152624238Y-114758044D01*
X152781000Y-114778682D01*
X152789188Y-114777604D01*
X152837779Y-114771207D01*
X152937762Y-114758044D01*
X153083841Y-114697536D01*
X153209282Y-114601282D01*
X153305536Y-114475841D01*
X153366044Y-114329762D01*
X153386682Y-114173000D01*
X153382859Y-114143963D01*
X162687757Y-114143963D01*
X162704175Y-114339483D01*
X162758258Y-114528091D01*
X162761076Y-114533574D01*
X162845123Y-114697113D01*
X162845126Y-114697117D01*
X162847944Y-114702601D01*
X162969818Y-114856369D01*
X162974511Y-114860363D01*
X162974512Y-114860364D01*
X163011934Y-114892212D01*
X163119238Y-114983535D01*
X163124616Y-114986541D01*
X163124618Y-114986542D01*
X163155985Y-115004072D01*
X163290513Y-115079257D01*
X163477118Y-115139889D01*
X163671946Y-115163121D01*
X163678081Y-115162649D01*
X163678083Y-115162649D01*
X163861434Y-115148541D01*
X163861438Y-115148540D01*
X163867576Y-115148068D01*
X164056556Y-115095303D01*
X164231689Y-115006837D01*
X164261515Y-114983535D01*
X164308996Y-114946439D01*
X164386303Y-114886040D01*
X164416084Y-114851539D01*
X164510485Y-114742173D01*
X164510485Y-114742172D01*
X164514509Y-114737511D01*
X164611425Y-114566909D01*
X164673358Y-114380732D01*
X164697949Y-114186071D01*
X164698341Y-114158000D01*
X164679194Y-113962728D01*
X164677413Y-113956829D01*
X164677412Y-113956824D01*
X164624265Y-113780793D01*
X164622484Y-113774894D01*
X164530370Y-113601653D01*
X164406361Y-113449602D01*
X164255180Y-113324535D01*
X164082585Y-113231213D01*
X163988868Y-113202203D01*
X163901039Y-113175015D01*
X163901036Y-113175014D01*
X163895152Y-113173193D01*
X163889027Y-113172549D01*
X163889026Y-113172549D01*
X163706147Y-113153327D01*
X163706146Y-113153327D01*
X163700019Y-113152683D01*
X163577777Y-113163808D01*
X163510759Y-113169907D01*
X163510758Y-113169907D01*
X163504618Y-113170466D01*
X163498704Y-113172207D01*
X163498702Y-113172207D01*
X163369734Y-113210165D01*
X163316393Y-113225864D01*
X163310928Y-113228721D01*
X163147972Y-113313912D01*
X163147968Y-113313915D01*
X163142512Y-113316767D01*
X163137712Y-113320627D01*
X163137711Y-113320627D01*
X163103326Y-113348273D01*
X162989600Y-113439711D01*
X162863480Y-113590016D01*
X162860516Y-113595408D01*
X162860513Y-113595412D01*
X162783142Y-113736149D01*
X162768956Y-113761954D01*
X162767095Y-113767821D01*
X162767094Y-113767823D01*
X162753562Y-113810481D01*
X162709628Y-113948978D01*
X162687757Y-114143963D01*
X153382859Y-114143963D01*
X153366044Y-114016238D01*
X153305536Y-113870159D01*
X153209282Y-113744718D01*
X153083841Y-113648464D01*
X152937762Y-113587956D01*
X152917573Y-113585298D01*
X152789188Y-113568396D01*
X152781000Y-113567318D01*
X152772812Y-113568396D01*
X152644428Y-113585298D01*
X152624238Y-113587956D01*
X152478159Y-113648464D01*
X152471608Y-113653491D01*
X152415605Y-113696463D01*
X152349384Y-113722063D01*
X152338901Y-113722500D01*
X146871620Y-113722500D01*
X146856811Y-113721627D01*
X146832443Y-113718743D01*
X146823090Y-113717636D01*
X146813826Y-113719328D01*
X146813822Y-113719328D01*
X146765389Y-113728173D01*
X146761488Y-113728822D01*
X146712755Y-113736149D01*
X146712747Y-113736151D01*
X146703438Y-113737551D01*
X146696928Y-113740677D01*
X146689827Y-113741974D01*
X146681472Y-113746314D01*
X146637763Y-113769018D01*
X146634225Y-113770786D01*
X146589811Y-113792114D01*
X146581321Y-113796191D01*
X146576040Y-113801074D01*
X146575988Y-113801109D01*
X146569612Y-113804420D01*
X146564572Y-113808724D01*
X146527333Y-113845963D01*
X146523768Y-113849392D01*
X146481844Y-113888146D01*
X146478151Y-113894503D01*
X146472644Y-113900652D01*
X145882644Y-114490652D01*
X145871555Y-114500507D01*
X145844890Y-114521528D01*
X145839535Y-114529275D01*
X145839534Y-114529277D01*
X145811545Y-114569775D01*
X145809250Y-114572987D01*
X145774366Y-114620216D01*
X145771973Y-114627032D01*
X145767869Y-114632969D01*
X145765029Y-114641949D01*
X145765028Y-114641951D01*
X145750182Y-114688895D01*
X145748929Y-114692650D01*
X145743738Y-114707434D01*
X145729481Y-114748031D01*
X145729199Y-114755219D01*
X145729188Y-114755278D01*
X145727020Y-114762130D01*
X145726500Y-114768737D01*
X145726500Y-114821416D01*
X145726403Y-114826362D01*
X145724162Y-114883394D01*
X145726046Y-114890500D01*
X145726500Y-114898747D01*
X145726500Y-121579605D01*
X145706498Y-121647726D01*
X145689596Y-121668700D01*
X145392302Y-121965995D01*
X145329989Y-122000020D01*
X145303206Y-122002900D01*
X103083394Y-122002900D01*
X103015273Y-121982898D01*
X102994299Y-121965995D01*
X101757205Y-120728902D01*
X101723180Y-120666590D01*
X101720300Y-120639807D01*
X101720300Y-112928400D01*
X104663941Y-112928400D01*
X104684537Y-113163808D01*
X104745697Y-113392063D01*
X104748019Y-113397043D01*
X104748020Y-113397045D01*
X104838518Y-113591116D01*
X104845565Y-113606229D01*
X104981105Y-113799801D01*
X105148199Y-113966895D01*
X105341771Y-114102435D01*
X105346749Y-114104756D01*
X105346752Y-114104758D01*
X105528642Y-114189575D01*
X105555937Y-114202303D01*
X105561245Y-114203725D01*
X105561247Y-114203726D01*
X105778877Y-114262039D01*
X105784192Y-114263463D01*
X105887282Y-114272482D01*
X105957910Y-114278662D01*
X105957917Y-114278662D01*
X105960634Y-114278900D01*
X106078566Y-114278900D01*
X106081283Y-114278662D01*
X106081290Y-114278662D01*
X106151918Y-114272482D01*
X106255008Y-114263463D01*
X106260323Y-114262039D01*
X106477953Y-114203726D01*
X106477955Y-114203725D01*
X106483263Y-114202303D01*
X106510558Y-114189575D01*
X106692448Y-114104758D01*
X106692451Y-114104756D01*
X106697429Y-114102435D01*
X106891001Y-113966895D01*
X107058095Y-113799801D01*
X107061255Y-113795289D01*
X107190478Y-113610739D01*
X107190481Y-113610734D01*
X107193635Y-113606230D01*
X107195958Y-113601248D01*
X107195961Y-113601243D01*
X107291180Y-113397045D01*
X107291181Y-113397044D01*
X107293503Y-113392063D01*
X107354663Y-113163808D01*
X107375259Y-112928400D01*
X107354663Y-112692992D01*
X107293503Y-112464737D01*
X107193635Y-112250571D01*
X107058095Y-112056999D01*
X106891001Y-111889905D01*
X106697429Y-111754365D01*
X106692451Y-111752044D01*
X106692448Y-111752042D01*
X106488245Y-111656820D01*
X106488243Y-111656819D01*
X106483263Y-111654497D01*
X106477955Y-111653075D01*
X106477953Y-111653074D01*
X106260323Y-111594761D01*
X106260322Y-111594761D01*
X106255008Y-111593337D01*
X106151918Y-111584318D01*
X106081290Y-111578138D01*
X106081283Y-111578138D01*
X106078566Y-111577900D01*
X105960634Y-111577900D01*
X105957917Y-111578138D01*
X105957910Y-111578138D01*
X105887282Y-111584318D01*
X105784192Y-111593337D01*
X105778878Y-111594761D01*
X105778877Y-111594761D01*
X105561247Y-111653074D01*
X105561245Y-111653075D01*
X105555937Y-111654497D01*
X105550957Y-111656819D01*
X105550955Y-111656820D01*
X105346752Y-111752042D01*
X105346749Y-111752044D01*
X105341771Y-111754365D01*
X105148199Y-111889905D01*
X104981105Y-112056999D01*
X104977948Y-112061507D01*
X104977946Y-112061510D01*
X104848722Y-112246061D01*
X104845565Y-112250570D01*
X104843242Y-112255552D01*
X104843239Y-112255557D01*
X104748020Y-112459755D01*
X104745697Y-112464737D01*
X104684537Y-112692992D01*
X104663941Y-112928400D01*
X101720300Y-112928400D01*
X101720300Y-96154440D01*
X154424570Y-96154440D01*
X154439000Y-96374604D01*
X154440421Y-96380200D01*
X154440422Y-96380205D01*
X154491890Y-96582857D01*
X154493311Y-96588452D01*
X154495728Y-96593694D01*
X154495728Y-96593695D01*
X154533846Y-96676379D01*
X154585683Y-96788821D01*
X154713022Y-96969002D01*
X154871064Y-97122961D01*
X154875860Y-97126166D01*
X154875863Y-97126168D01*
X154960061Y-97182427D01*
X155054517Y-97245540D01*
X155059820Y-97247818D01*
X155059823Y-97247820D01*
X155251929Y-97330355D01*
X155257236Y-97332635D01*
X155336888Y-97350658D01*
X155466795Y-97380054D01*
X155466801Y-97380055D01*
X155472432Y-97381329D01*
X155478203Y-97381556D01*
X155478205Y-97381556D01*
X155546011Y-97384220D01*
X155692898Y-97389991D01*
X155802075Y-97374161D01*
X155905538Y-97359160D01*
X155905543Y-97359159D01*
X155911252Y-97358331D01*
X155916716Y-97356476D01*
X155916721Y-97356475D01*
X156114707Y-97289268D01*
X156114712Y-97289266D01*
X156120179Y-97287410D01*
X156312684Y-97179602D01*
X156482318Y-97038518D01*
X156623402Y-96868884D01*
X156731210Y-96676379D01*
X156733066Y-96670912D01*
X156733068Y-96670907D01*
X156800275Y-96472921D01*
X156800276Y-96472916D01*
X156802131Y-96467452D01*
X156802959Y-96461743D01*
X156802960Y-96461738D01*
X156833258Y-96252772D01*
X156833791Y-96249098D01*
X156835443Y-96186000D01*
X156815254Y-95966289D01*
X156755365Y-95753936D01*
X156657780Y-95556053D01*
X156525767Y-95379267D01*
X156363749Y-95229499D01*
X156177150Y-95111764D01*
X155972221Y-95030006D01*
X155966561Y-95028880D01*
X155966557Y-95028879D01*
X155761491Y-94988089D01*
X155761488Y-94988089D01*
X155755824Y-94986962D01*
X155750049Y-94986886D01*
X155750045Y-94986886D01*
X155639304Y-94985437D01*
X155535206Y-94984074D01*
X155529509Y-94985053D01*
X155529508Y-94985053D01*
X155323454Y-95020459D01*
X155323453Y-95020459D01*
X155317757Y-95021438D01*
X155110757Y-95097804D01*
X154921141Y-95210614D01*
X154755257Y-95356090D01*
X154618663Y-95529360D01*
X154515931Y-95724620D01*
X154450503Y-95935333D01*
X154424570Y-96154440D01*
X101720300Y-96154440D01*
X101720300Y-94437200D01*
X108788200Y-94437200D01*
X116281200Y-94437200D01*
X116281117Y-94419085D01*
X116266002Y-91154440D01*
X154424570Y-91154440D01*
X154439000Y-91374604D01*
X154440421Y-91380200D01*
X154440422Y-91380205D01*
X154491890Y-91582857D01*
X154493311Y-91588452D01*
X154495728Y-91593694D01*
X154495728Y-91593695D01*
X154533846Y-91676379D01*
X154585683Y-91788821D01*
X154713022Y-91969002D01*
X154871064Y-92122961D01*
X154875860Y-92126166D01*
X154875863Y-92126168D01*
X154960061Y-92182427D01*
X155054517Y-92245540D01*
X155059820Y-92247818D01*
X155059823Y-92247820D01*
X155251929Y-92330355D01*
X155257236Y-92332635D01*
X155336888Y-92350658D01*
X155466795Y-92380054D01*
X155466801Y-92380055D01*
X155472432Y-92381329D01*
X155478203Y-92381556D01*
X155478205Y-92381556D01*
X155546011Y-92384220D01*
X155692898Y-92389991D01*
X155802075Y-92374161D01*
X155905538Y-92359160D01*
X155905543Y-92359159D01*
X155911252Y-92358331D01*
X155916716Y-92356476D01*
X155916721Y-92356475D01*
X156114707Y-92289268D01*
X156114712Y-92289266D01*
X156120179Y-92287410D01*
X156312684Y-92179602D01*
X156482318Y-92038518D01*
X156623402Y-91868884D01*
X156731210Y-91676379D01*
X156733066Y-91670912D01*
X156733068Y-91670907D01*
X156800275Y-91472921D01*
X156800276Y-91472916D01*
X156802131Y-91467452D01*
X156802959Y-91461743D01*
X156802960Y-91461738D01*
X156833258Y-91252772D01*
X156833791Y-91249098D01*
X156835443Y-91186000D01*
X156815254Y-90966289D01*
X156755365Y-90753936D01*
X156657780Y-90556053D01*
X156525767Y-90379267D01*
X156363749Y-90229499D01*
X156177150Y-90111764D01*
X155972221Y-90030006D01*
X155966561Y-90028880D01*
X155966557Y-90028879D01*
X155761491Y-89988089D01*
X155761488Y-89988089D01*
X155755824Y-89986962D01*
X155750049Y-89986886D01*
X155750045Y-89986886D01*
X155639304Y-89985437D01*
X155535206Y-89984074D01*
X155529509Y-89985053D01*
X155529508Y-89985053D01*
X155323454Y-90020459D01*
X155323453Y-90020459D01*
X155317757Y-90021438D01*
X155110757Y-90097804D01*
X154921141Y-90210614D01*
X154755257Y-90356090D01*
X154618663Y-90529360D01*
X154515931Y-90724620D01*
X154450503Y-90935333D01*
X154424570Y-91154440D01*
X116266002Y-91154440D01*
X116255884Y-88968915D01*
X116255800Y-88950800D01*
X116242290Y-88950846D01*
X116242289Y-88950846D01*
X109900674Y-88972564D01*
X108839000Y-88976200D01*
X108788200Y-94437200D01*
X101720300Y-94437200D01*
X101720300Y-86154440D01*
X154424570Y-86154440D01*
X154439000Y-86374604D01*
X154440421Y-86380200D01*
X154440422Y-86380205D01*
X154491890Y-86582857D01*
X154493311Y-86588452D01*
X154495728Y-86593694D01*
X154495728Y-86593695D01*
X154533846Y-86676379D01*
X154585683Y-86788821D01*
X154713022Y-86969002D01*
X154871064Y-87122961D01*
X154875860Y-87126166D01*
X154875863Y-87126168D01*
X154960061Y-87182427D01*
X155054517Y-87245540D01*
X155059820Y-87247818D01*
X155059823Y-87247820D01*
X155251929Y-87330355D01*
X155257236Y-87332635D01*
X155336888Y-87350658D01*
X155466795Y-87380054D01*
X155466801Y-87380055D01*
X155472432Y-87381329D01*
X155478203Y-87381556D01*
X155478205Y-87381556D01*
X155546011Y-87384220D01*
X155692898Y-87389991D01*
X155802075Y-87374161D01*
X155905538Y-87359160D01*
X155905543Y-87359159D01*
X155911252Y-87358331D01*
X155916716Y-87356476D01*
X155916721Y-87356475D01*
X156114707Y-87289268D01*
X156114712Y-87289266D01*
X156120179Y-87287410D01*
X156312684Y-87179602D01*
X156482318Y-87038518D01*
X156623402Y-86868884D01*
X156731210Y-86676379D01*
X156733066Y-86670912D01*
X156733068Y-86670907D01*
X156800275Y-86472921D01*
X156800276Y-86472916D01*
X156802131Y-86467452D01*
X156802959Y-86461743D01*
X156802960Y-86461738D01*
X156833258Y-86252772D01*
X156833791Y-86249098D01*
X156835443Y-86186000D01*
X156815254Y-85966289D01*
X156755365Y-85753936D01*
X156657780Y-85556053D01*
X156525767Y-85379267D01*
X156363749Y-85229499D01*
X156177150Y-85111764D01*
X155972221Y-85030006D01*
X155966561Y-85028880D01*
X155966557Y-85028879D01*
X155761491Y-84988089D01*
X155761488Y-84988089D01*
X155755824Y-84986962D01*
X155750049Y-84986886D01*
X155750045Y-84986886D01*
X155639304Y-84985437D01*
X155535206Y-84984074D01*
X155529509Y-84985053D01*
X155529508Y-84985053D01*
X155323454Y-85020459D01*
X155323453Y-85020459D01*
X155317757Y-85021438D01*
X155110757Y-85097804D01*
X154921141Y-85210614D01*
X154755257Y-85356090D01*
X154618663Y-85529360D01*
X154515931Y-85724620D01*
X154450503Y-85935333D01*
X154424570Y-86154440D01*
X101720300Y-86154440D01*
X101720300Y-84592299D01*
X101740302Y-84524178D01*
X101746337Y-84515595D01*
X101789309Y-84459592D01*
X101794336Y-84453041D01*
X101854844Y-84306962D01*
X101875482Y-84150200D01*
X101854844Y-83993438D01*
X101794336Y-83847359D01*
X101698082Y-83721918D01*
X101572641Y-83625664D01*
X101426562Y-83565156D01*
X101269800Y-83544518D01*
X101113038Y-83565156D01*
X100966959Y-83625664D01*
X100841518Y-83721918D01*
X100745264Y-83847359D01*
X100684756Y-83993438D01*
X100664118Y-84150200D01*
X94804880Y-84150200D01*
X94808625Y-81745748D01*
X126432500Y-81745748D01*
X126444133Y-81804231D01*
X126488448Y-81870552D01*
X126554769Y-81914867D01*
X126566938Y-81917288D01*
X126566939Y-81917288D01*
X126607184Y-81925293D01*
X126613252Y-81926500D01*
X128852748Y-81926500D01*
X128858816Y-81925293D01*
X128899061Y-81917288D01*
X128899062Y-81917288D01*
X128911231Y-81914867D01*
X128977552Y-81870552D01*
X129021867Y-81804231D01*
X129033500Y-81745748D01*
X129033500Y-80626000D01*
X136587532Y-80626000D01*
X136607365Y-80852692D01*
X136608789Y-80858005D01*
X136608789Y-80858007D01*
X136639346Y-80972046D01*
X136666261Y-81072496D01*
X136668583Y-81077476D01*
X136668584Y-81077478D01*
X136750326Y-81252772D01*
X136762432Y-81278734D01*
X136892953Y-81465139D01*
X137053861Y-81626047D01*
X137240266Y-81756568D01*
X137245244Y-81758889D01*
X137245247Y-81758891D01*
X137441522Y-81850416D01*
X137446504Y-81852739D01*
X137451812Y-81854161D01*
X137451814Y-81854162D01*
X137660993Y-81910211D01*
X137660995Y-81910211D01*
X137666308Y-81911635D01*
X137893000Y-81931468D01*
X138119692Y-81911635D01*
X138125005Y-81910211D01*
X138125007Y-81910211D01*
X138334186Y-81854162D01*
X138334188Y-81854161D01*
X138339496Y-81852739D01*
X138344478Y-81850416D01*
X138540753Y-81758891D01*
X138540756Y-81758889D01*
X138545734Y-81756568D01*
X138732139Y-81626047D01*
X138893047Y-81465139D01*
X139023568Y-81278734D01*
X139035675Y-81252772D01*
X139081528Y-81154440D01*
X154424570Y-81154440D01*
X154439000Y-81374604D01*
X154440421Y-81380200D01*
X154440422Y-81380205D01*
X154491890Y-81582857D01*
X154493311Y-81588452D01*
X154495728Y-81593694D01*
X154495728Y-81593695D01*
X154533846Y-81676379D01*
X154585683Y-81788821D01*
X154713022Y-81969002D01*
X154871064Y-82122961D01*
X154875860Y-82126166D01*
X154875863Y-82126168D01*
X154960061Y-82182427D01*
X155054517Y-82245540D01*
X155059820Y-82247818D01*
X155059823Y-82247820D01*
X155251929Y-82330355D01*
X155257236Y-82332635D01*
X155336888Y-82350658D01*
X155466795Y-82380054D01*
X155466801Y-82380055D01*
X155472432Y-82381329D01*
X155478203Y-82381556D01*
X155478205Y-82381556D01*
X155546011Y-82384220D01*
X155692898Y-82389991D01*
X155802075Y-82374161D01*
X155905538Y-82359160D01*
X155905543Y-82359159D01*
X155911252Y-82358331D01*
X155916716Y-82356476D01*
X155916721Y-82356475D01*
X156114707Y-82289268D01*
X156114712Y-82289266D01*
X156120179Y-82287410D01*
X156312684Y-82179602D01*
X156482318Y-82038518D01*
X156571351Y-81931468D01*
X156619708Y-81873326D01*
X156619710Y-81873323D01*
X156623402Y-81868884D01*
X156688963Y-81751816D01*
X156728386Y-81681422D01*
X156728387Y-81681420D01*
X156731210Y-81676379D01*
X156733066Y-81670912D01*
X156733068Y-81670907D01*
X156800275Y-81472921D01*
X156800276Y-81472916D01*
X156802131Y-81467452D01*
X156802959Y-81461743D01*
X156802960Y-81461738D01*
X156833258Y-81252772D01*
X156833791Y-81249098D01*
X156835443Y-81186000D01*
X156815254Y-80966289D01*
X156755365Y-80753936D01*
X156657780Y-80556053D01*
X156536764Y-80393993D01*
X156529220Y-80383891D01*
X156529220Y-80383890D01*
X156525767Y-80379267D01*
X156363749Y-80229499D01*
X156177150Y-80111764D01*
X155972221Y-80030006D01*
X155966561Y-80028880D01*
X155966557Y-80028879D01*
X155761491Y-79988089D01*
X155761488Y-79988089D01*
X155755824Y-79986962D01*
X155750049Y-79986886D01*
X155750045Y-79986886D01*
X155639304Y-79985437D01*
X155535206Y-79984074D01*
X155529509Y-79985053D01*
X155529508Y-79985053D01*
X155323454Y-80020459D01*
X155323453Y-80020459D01*
X155317757Y-80021438D01*
X155110757Y-80097804D01*
X154921141Y-80210614D01*
X154755257Y-80356090D01*
X154618663Y-80529360D01*
X154515931Y-80724620D01*
X154450503Y-80935333D01*
X154424570Y-81154440D01*
X139081528Y-81154440D01*
X139117416Y-81077478D01*
X139117417Y-81077476D01*
X139119739Y-81072496D01*
X139146655Y-80972046D01*
X139177211Y-80858007D01*
X139177211Y-80858005D01*
X139178635Y-80852692D01*
X139198468Y-80626000D01*
X139178635Y-80399308D01*
X139167055Y-80356090D01*
X139121162Y-80184814D01*
X139121161Y-80184812D01*
X139119739Y-80179504D01*
X139083018Y-80100756D01*
X139025891Y-79978247D01*
X139025889Y-79978244D01*
X139023568Y-79973266D01*
X138893047Y-79786861D01*
X138732139Y-79625953D01*
X138545734Y-79495432D01*
X138540756Y-79493111D01*
X138540753Y-79493109D01*
X138344478Y-79401584D01*
X138344476Y-79401583D01*
X138339496Y-79399261D01*
X138334188Y-79397839D01*
X138334186Y-79397838D01*
X138125007Y-79341789D01*
X138125005Y-79341789D01*
X138119692Y-79340365D01*
X137893000Y-79320532D01*
X137666308Y-79340365D01*
X137660995Y-79341789D01*
X137660993Y-79341789D01*
X137451814Y-79397838D01*
X137451812Y-79397839D01*
X137446504Y-79399261D01*
X137441524Y-79401583D01*
X137441522Y-79401584D01*
X137245247Y-79493109D01*
X137245244Y-79493111D01*
X137240266Y-79495432D01*
X137053861Y-79625953D01*
X136892953Y-79786861D01*
X136762432Y-79973266D01*
X136760111Y-79978244D01*
X136760109Y-79978247D01*
X136702982Y-80100756D01*
X136666261Y-80179504D01*
X136664839Y-80184812D01*
X136664838Y-80184814D01*
X136618945Y-80356090D01*
X136607365Y-80399308D01*
X136587532Y-80626000D01*
X129033500Y-80626000D01*
X129033500Y-79506252D01*
X129021867Y-79447769D01*
X128977552Y-79381448D01*
X128911231Y-79337133D01*
X128899062Y-79334712D01*
X128899061Y-79334712D01*
X128858816Y-79326707D01*
X128852748Y-79325500D01*
X126613252Y-79325500D01*
X126607184Y-79326707D01*
X126566939Y-79334712D01*
X126566938Y-79334712D01*
X126554769Y-79337133D01*
X126488448Y-79381448D01*
X126444133Y-79447769D01*
X126432500Y-79506252D01*
X126432500Y-81745748D01*
X94808625Y-81745748D01*
X94818490Y-75412600D01*
X104079741Y-75412600D01*
X104100337Y-75648008D01*
X104161497Y-75876263D01*
X104163819Y-75881243D01*
X104163820Y-75881245D01*
X104206162Y-75972046D01*
X104261365Y-76090429D01*
X104396905Y-76284001D01*
X104563999Y-76451095D01*
X104757571Y-76586635D01*
X104762549Y-76588956D01*
X104762552Y-76588958D01*
X104966755Y-76684180D01*
X104971737Y-76686503D01*
X104977045Y-76687925D01*
X104977047Y-76687926D01*
X105194677Y-76746239D01*
X105199992Y-76747663D01*
X105303082Y-76756682D01*
X105373710Y-76762862D01*
X105373717Y-76762862D01*
X105376434Y-76763100D01*
X105494366Y-76763100D01*
X105497083Y-76762862D01*
X105497090Y-76762862D01*
X105567718Y-76756682D01*
X105670808Y-76747663D01*
X105676123Y-76746239D01*
X105893753Y-76687926D01*
X105893755Y-76687925D01*
X105899063Y-76686503D01*
X105904045Y-76684180D01*
X106108248Y-76588958D01*
X106108251Y-76588956D01*
X106113229Y-76586635D01*
X106306801Y-76451095D01*
X106473895Y-76284001D01*
X106477055Y-76279489D01*
X106564615Y-76154440D01*
X154424570Y-76154440D01*
X154439000Y-76374604D01*
X154440421Y-76380200D01*
X154440422Y-76380205D01*
X154491890Y-76582857D01*
X154493311Y-76588452D01*
X154495728Y-76593694D01*
X154495728Y-76593695D01*
X154538513Y-76686503D01*
X154585683Y-76788821D01*
X154713022Y-76969002D01*
X154871064Y-77122961D01*
X154875860Y-77126166D01*
X154875863Y-77126168D01*
X154960061Y-77182427D01*
X155054517Y-77245540D01*
X155059820Y-77247818D01*
X155059823Y-77247820D01*
X155251929Y-77330355D01*
X155257236Y-77332635D01*
X155336888Y-77350658D01*
X155466795Y-77380054D01*
X155466801Y-77380055D01*
X155472432Y-77381329D01*
X155478203Y-77381556D01*
X155478205Y-77381556D01*
X155546011Y-77384220D01*
X155692898Y-77389991D01*
X155802075Y-77374161D01*
X155905538Y-77359160D01*
X155905543Y-77359159D01*
X155911252Y-77358331D01*
X155916716Y-77356476D01*
X155916721Y-77356475D01*
X156114707Y-77289268D01*
X156114712Y-77289266D01*
X156120179Y-77287410D01*
X156312684Y-77179602D01*
X156482318Y-77038518D01*
X156623402Y-76868884D01*
X156692087Y-76746239D01*
X156728386Y-76681422D01*
X156728387Y-76681420D01*
X156731210Y-76676379D01*
X156733066Y-76670912D01*
X156733068Y-76670907D01*
X156800275Y-76472921D01*
X156800276Y-76472916D01*
X156802131Y-76467452D01*
X156802959Y-76461743D01*
X156802960Y-76461738D01*
X156828165Y-76287898D01*
X156833791Y-76249098D01*
X156835443Y-76186000D01*
X156815254Y-75966289D01*
X156755365Y-75753936D01*
X156657780Y-75556053D01*
X156554747Y-75418075D01*
X156529220Y-75383891D01*
X156529220Y-75383890D01*
X156525767Y-75379267D01*
X156363749Y-75229499D01*
X156177150Y-75111764D01*
X155972221Y-75030006D01*
X155966561Y-75028880D01*
X155966557Y-75028879D01*
X155761491Y-74988089D01*
X155761488Y-74988089D01*
X155755824Y-74986962D01*
X155750049Y-74986886D01*
X155750045Y-74986886D01*
X155639304Y-74985437D01*
X155535206Y-74984074D01*
X155529509Y-74985053D01*
X155529508Y-74985053D01*
X155323454Y-75020459D01*
X155323453Y-75020459D01*
X155317757Y-75021438D01*
X155110757Y-75097804D01*
X154921141Y-75210614D01*
X154755257Y-75356090D01*
X154618663Y-75529360D01*
X154515931Y-75724620D01*
X154450503Y-75935333D01*
X154424570Y-76154440D01*
X106564615Y-76154440D01*
X106606278Y-76094939D01*
X106606281Y-76094934D01*
X106609435Y-76090430D01*
X106611758Y-76085448D01*
X106611761Y-76085443D01*
X106706980Y-75881245D01*
X106706981Y-75881244D01*
X106709303Y-75876263D01*
X106770463Y-75648008D01*
X106791059Y-75412600D01*
X106770463Y-75177192D01*
X106769039Y-75171877D01*
X106710726Y-74954247D01*
X106710725Y-74954245D01*
X106709303Y-74948937D01*
X106609435Y-74734771D01*
X106473895Y-74541199D01*
X106306801Y-74374105D01*
X106113229Y-74238565D01*
X106108251Y-74236244D01*
X106108248Y-74236242D01*
X105904045Y-74141020D01*
X105904043Y-74141019D01*
X105899063Y-74138697D01*
X105893755Y-74137275D01*
X105893753Y-74137274D01*
X105676123Y-74078961D01*
X105676122Y-74078961D01*
X105670808Y-74077537D01*
X105567718Y-74068518D01*
X105497090Y-74062338D01*
X105497083Y-74062338D01*
X105494366Y-74062100D01*
X105376434Y-74062100D01*
X105373717Y-74062338D01*
X105373710Y-74062338D01*
X105303082Y-74068518D01*
X105199992Y-74077537D01*
X105194678Y-74078961D01*
X105194677Y-74078961D01*
X104977047Y-74137274D01*
X104977045Y-74137275D01*
X104971737Y-74138697D01*
X104966757Y-74141019D01*
X104966755Y-74141020D01*
X104762552Y-74236242D01*
X104762549Y-74236244D01*
X104757571Y-74238565D01*
X104563999Y-74374105D01*
X104396905Y-74541199D01*
X104393748Y-74545707D01*
X104393746Y-74545710D01*
X104264522Y-74730261D01*
X104261365Y-74734770D01*
X104259042Y-74739752D01*
X104259039Y-74739757D01*
X104163820Y-74943955D01*
X104161497Y-74948937D01*
X104160075Y-74954245D01*
X104160074Y-74954247D01*
X104101761Y-75171877D01*
X104100337Y-75177192D01*
X104079741Y-75412600D01*
X94818490Y-75412600D01*
X94825123Y-71154440D01*
X154424570Y-71154440D01*
X154439000Y-71374604D01*
X154440421Y-71380200D01*
X154440422Y-71380205D01*
X154491890Y-71582857D01*
X154493311Y-71588452D01*
X154495728Y-71593694D01*
X154495728Y-71593695D01*
X154533846Y-71676379D01*
X154585683Y-71788821D01*
X154713022Y-71969002D01*
X154871064Y-72122961D01*
X154875860Y-72126166D01*
X154875863Y-72126168D01*
X154960061Y-72182427D01*
X155054517Y-72245540D01*
X155059820Y-72247818D01*
X155059823Y-72247820D01*
X155251929Y-72330355D01*
X155257236Y-72332635D01*
X155336888Y-72350658D01*
X155466795Y-72380054D01*
X155466801Y-72380055D01*
X155472432Y-72381329D01*
X155478203Y-72381556D01*
X155478205Y-72381556D01*
X155546011Y-72384220D01*
X155692898Y-72389991D01*
X155802075Y-72374161D01*
X155905538Y-72359160D01*
X155905543Y-72359159D01*
X155911252Y-72358331D01*
X155916716Y-72356476D01*
X155916721Y-72356475D01*
X156114707Y-72289268D01*
X156114712Y-72289266D01*
X156120179Y-72287410D01*
X156312684Y-72179602D01*
X156482318Y-72038518D01*
X156623402Y-71868884D01*
X156731210Y-71676379D01*
X156733066Y-71670912D01*
X156733068Y-71670907D01*
X156800275Y-71472921D01*
X156800276Y-71472916D01*
X156802131Y-71467452D01*
X156802959Y-71461743D01*
X156802960Y-71461738D01*
X156833258Y-71252772D01*
X156833791Y-71249098D01*
X156835443Y-71186000D01*
X156815254Y-70966289D01*
X156755365Y-70753936D01*
X156657780Y-70556053D01*
X156525767Y-70379267D01*
X156363749Y-70229499D01*
X156177150Y-70111764D01*
X155972221Y-70030006D01*
X155966561Y-70028880D01*
X155966557Y-70028879D01*
X155761491Y-69988089D01*
X155761488Y-69988089D01*
X155755824Y-69986962D01*
X155750049Y-69986886D01*
X155750045Y-69986886D01*
X155639304Y-69985437D01*
X155535206Y-69984074D01*
X155529509Y-69985053D01*
X155529508Y-69985053D01*
X155323454Y-70020459D01*
X155323453Y-70020459D01*
X155317757Y-70021438D01*
X155110757Y-70097804D01*
X154921141Y-70210614D01*
X154755257Y-70356090D01*
X154618663Y-70529360D01*
X154515931Y-70724620D01*
X154450503Y-70935333D01*
X154424570Y-71154440D01*
X94825123Y-71154440D01*
X94842029Y-60300542D01*
X94862137Y-60232452D01*
X94886183Y-60204940D01*
X100091402Y-55757843D01*
X100156188Y-55728801D01*
X100173358Y-55727641D01*
X124011053Y-55748478D01*
G37*
%TD.AperFunction*%
%TD*%
M02*
