%TF.GenerationSoftware,KiCad,Pcbnew,(6.0.10)*%
%TF.CreationDate,2023-05-29T22:30:10+03:00*%
%TF.ProjectId,flyback,666c7962-6163-46b2-9e6b-696361645f70,rev?*%
%TF.SameCoordinates,Original*%
%TF.FileFunction,Copper,L1,Top*%
%TF.FilePolarity,Positive*%
%FSLAX46Y46*%
G04 Gerber Fmt 4.6, Leading zero omitted, Abs format (unit mm)*
G04 Created by KiCad (PCBNEW (6.0.10)) date 2023-05-29 22:30:10*
%MOMM*%
%LPD*%
G01*
G04 APERTURE LIST*
G04 Aperture macros list*
%AMRoundRect*
0 Rectangle with rounded corners*
0 $1 Rounding radius*
0 $2 $3 $4 $5 $6 $7 $8 $9 X,Y pos of 4 corners*
0 Add a 4 corners polygon primitive as box body*
4,1,4,$2,$3,$4,$5,$6,$7,$8,$9,$2,$3,0*
0 Add four circle primitives for the rounded corners*
1,1,$1+$1,$2,$3*
1,1,$1+$1,$4,$5*
1,1,$1+$1,$6,$7*
1,1,$1+$1,$8,$9*
0 Add four rect primitives between the rounded corners*
20,1,$1+$1,$2,$3,$4,$5,0*
20,1,$1+$1,$4,$5,$6,$7,0*
20,1,$1+$1,$6,$7,$8,$9,0*
20,1,$1+$1,$8,$9,$2,$3,0*%
G04 Aperture macros list end*
%TA.AperFunction,ComponentPad*%
%ADD10C,2.000000*%
%TD*%
%TA.AperFunction,SMDPad,CuDef*%
%ADD11RoundRect,0.250000X-2.450000X0.650000X-2.450000X-0.650000X2.450000X-0.650000X2.450000X0.650000X0*%
%TD*%
%TA.AperFunction,SMDPad,CuDef*%
%ADD12RoundRect,0.250000X-0.325000X-0.650000X0.325000X-0.650000X0.325000X0.650000X-0.325000X0.650000X0*%
%TD*%
%TA.AperFunction,SMDPad,CuDef*%
%ADD13RoundRect,0.250000X-0.250000X-0.475000X0.250000X-0.475000X0.250000X0.475000X-0.250000X0.475000X0*%
%TD*%
%TA.AperFunction,SMDPad,CuDef*%
%ADD14RoundRect,0.250000X-0.650000X0.325000X-0.650000X-0.325000X0.650000X-0.325000X0.650000X0.325000X0*%
%TD*%
%TA.AperFunction,SMDPad,CuDef*%
%ADD15RoundRect,0.250000X-0.450000X0.262500X-0.450000X-0.262500X0.450000X-0.262500X0.450000X0.262500X0*%
%TD*%
%TA.AperFunction,SMDPad,CuDef*%
%ADD16RoundRect,0.250000X0.475000X-0.250000X0.475000X0.250000X-0.475000X0.250000X-0.475000X-0.250000X0*%
%TD*%
%TA.AperFunction,SMDPad,CuDef*%
%ADD17RoundRect,0.250000X0.250000X0.475000X-0.250000X0.475000X-0.250000X-0.475000X0.250000X-0.475000X0*%
%TD*%
%TA.AperFunction,SMDPad,CuDef*%
%ADD18RoundRect,0.250000X-0.475000X0.250000X-0.475000X-0.250000X0.475000X-0.250000X0.475000X0.250000X0*%
%TD*%
%TA.AperFunction,SMDPad,CuDef*%
%ADD19RoundRect,0.250000X0.325000X0.650000X-0.325000X0.650000X-0.325000X-0.650000X0.325000X-0.650000X0*%
%TD*%
%TA.AperFunction,SMDPad,CuDef*%
%ADD20RoundRect,0.250000X0.262500X0.450000X-0.262500X0.450000X-0.262500X-0.450000X0.262500X-0.450000X0*%
%TD*%
%TA.AperFunction,SMDPad,CuDef*%
%ADD21RoundRect,0.150000X-0.825000X-0.150000X0.825000X-0.150000X0.825000X0.150000X-0.825000X0.150000X0*%
%TD*%
%TA.AperFunction,SMDPad,CuDef*%
%ADD22RoundRect,0.250000X2.450000X-0.650000X2.450000X0.650000X-2.450000X0.650000X-2.450000X-0.650000X0*%
%TD*%
%TA.AperFunction,SMDPad,CuDef*%
%ADD23RoundRect,0.250000X-1.425000X0.362500X-1.425000X-0.362500X1.425000X-0.362500X1.425000X0.362500X0*%
%TD*%
%TA.AperFunction,SMDPad,CuDef*%
%ADD24R,0.900000X1.200000*%
%TD*%
%TA.AperFunction,SMDPad,CuDef*%
%ADD25RoundRect,0.250000X0.450000X-0.262500X0.450000X0.262500X-0.450000X0.262500X-0.450000X-0.262500X0*%
%TD*%
%TA.AperFunction,ComponentPad*%
%ADD26R,1.600000X1.600000*%
%TD*%
%TA.AperFunction,ComponentPad*%
%ADD27O,1.600000X1.600000*%
%TD*%
%TA.AperFunction,SMDPad,CuDef*%
%ADD28RoundRect,0.250000X-0.262500X-0.450000X0.262500X-0.450000X0.262500X0.450000X-0.262500X0.450000X0*%
%TD*%
%TA.AperFunction,ComponentPad*%
%ADD29R,2.200000X2.200000*%
%TD*%
%TA.AperFunction,ComponentPad*%
%ADD30O,2.200000X2.200000*%
%TD*%
%TA.AperFunction,SMDPad,CuDef*%
%ADD31RoundRect,0.150000X-0.587500X-0.150000X0.587500X-0.150000X0.587500X0.150000X-0.587500X0.150000X0*%
%TD*%
%TA.AperFunction,SMDPad,CuDef*%
%ADD32R,2.200000X1.200000*%
%TD*%
%TA.AperFunction,SMDPad,CuDef*%
%ADD33R,6.400000X5.800000*%
%TD*%
%TA.AperFunction,ComponentPad*%
%ADD34R,2.000000X2.000000*%
%TD*%
%TA.AperFunction,ComponentPad*%
%ADD35O,2.000000X2.000000*%
%TD*%
%TA.AperFunction,ViaPad*%
%ADD36C,0.800000*%
%TD*%
%TA.AperFunction,Conductor*%
%ADD37C,0.500000*%
%TD*%
%TA.AperFunction,Conductor*%
%ADD38C,0.250000*%
%TD*%
%TA.AperFunction,Conductor*%
%ADD39C,1.000000*%
%TD*%
G04 APERTURE END LIST*
D10*
%TO.P,T1,12,SA*%
%TO.N,GND2*%
X188229800Y-96186000D03*
%TO.P,T1,10*%
%TO.N,N/C*%
X188229800Y-86186000D03*
%TO.P,T1,6,AA*%
%TO.N,/Vin*%
X155629800Y-71186000D03*
%TO.P,T1,2*%
%TO.N,N/C*%
X155629800Y-91186000D03*
%TO.P,T1,1,AB*%
%TO.N,Net-(D1-Pad2)*%
X155629800Y-96186000D03*
%TO.P,T1,8*%
%TO.N,N/C*%
X188229800Y-76186000D03*
%TO.P,T1,5*%
X155629800Y-76186000D03*
%TO.P,T1,9*%
X188229800Y-81186000D03*
%TO.P,T1,7,SB*%
%TO.N,Net-(D2-Pad2)*%
X188229800Y-71186000D03*
%TO.P,T1,11*%
%TO.N,N/C*%
X188229800Y-91186000D03*
%TO.P,T1,3*%
X155629800Y-86186000D03*
%TO.P,T1,4*%
X155629800Y-81186000D03*
%TD*%
D11*
%TO.P,C13,1*%
%TO.N,GND2*%
X220853000Y-65395000D03*
%TO.P,C13,2*%
%TO.N,/Vout*%
X220853000Y-70495000D03*
%TD*%
D12*
%TO.P,C12,1*%
%TO.N,Net-(C12-Pad1)*%
X198042000Y-71120000D03*
%TO.P,C12,2*%
%TO.N,/Vout*%
X200992000Y-71120000D03*
%TD*%
D13*
%TO.P,C3,1*%
%TO.N,Net-(C3-Pad1)*%
X110097250Y-95993000D03*
%TO.P,C3,2*%
%TO.N,GND1*%
X111997250Y-95993000D03*
%TD*%
D14*
%TO.P,C8,1*%
%TO.N,GND1*%
X118795800Y-70584800D03*
%TO.P,C8,2*%
%TO.N,/Vin*%
X118795800Y-73534800D03*
%TD*%
D15*
%TO.P,R6,1*%
%TO.N,Net-(R6-Pad1)*%
X131699000Y-89891500D03*
%TO.P,R6,2*%
%TO.N,Net-(Q1-Pad1)*%
X131699000Y-91716500D03*
%TD*%
%TO.P,R4,1*%
%TO.N,/Vin*%
X121691400Y-77421100D03*
%TO.P,R4,2*%
%TO.N,Net-(C10-Pad2)*%
X121691400Y-79246100D03*
%TD*%
D16*
%TO.P,C2,1*%
%TO.N,Net-(C2-Pad1)*%
X106459000Y-90339000D03*
%TO.P,C2,2*%
%TO.N,Net-(C2-Pad2)*%
X106459000Y-88439000D03*
%TD*%
D15*
%TO.P,R5,1*%
%TO.N,/Vin*%
X124129800Y-77421100D03*
%TO.P,R5,2*%
%TO.N,Net-(C10-Pad2)*%
X124129800Y-79246100D03*
%TD*%
D17*
%TO.P,C5,1*%
%TO.N,GND1*%
X119898200Y-90703400D03*
%TO.P,C5,2*%
%TO.N,/Vin*%
X117998200Y-90703400D03*
%TD*%
D18*
%TO.P,C4,1*%
%TO.N,GND1*%
X115773200Y-71643200D03*
%TO.P,C4,2*%
%TO.N,/Vin*%
X115773200Y-73543200D03*
%TD*%
D19*
%TO.P,C7,1*%
%TO.N,GND1*%
X120956600Y-88341200D03*
%TO.P,C7,2*%
%TO.N,/Vin*%
X118006600Y-88341200D03*
%TD*%
D18*
%TO.P,C19,1*%
%TO.N,GND2*%
X212852000Y-68646000D03*
%TO.P,C19,2*%
%TO.N,/Vout*%
X212852000Y-70546000D03*
%TD*%
%TO.P,C10,1*%
%TO.N,/Vin*%
X119608600Y-77358200D03*
%TO.P,C10,2*%
%TO.N,Net-(C10-Pad2)*%
X119608600Y-79258200D03*
%TD*%
D20*
%TO.P,R16,1*%
%TO.N,Net-(D3-Pad1)*%
X195120900Y-111912400D03*
%TO.P,R16,2*%
%TO.N,Net-(R14-Pad1)*%
X193295900Y-111912400D03*
%TD*%
D21*
%TO.P,U1,1,COMP*%
%TO.N,Net-(C2-Pad2)*%
X110072400Y-89789000D03*
%TO.P,U1,2,FB*%
%TO.N,Net-(C2-Pad1)*%
X110072400Y-91059000D03*
%TO.P,U1,3,CS*%
%TO.N,Net-(C9-Pad2)*%
X110072400Y-92329000D03*
%TO.P,U1,4,RC*%
%TO.N,Net-(C3-Pad1)*%
X110072400Y-93599000D03*
%TO.P,U1,5,GND*%
%TO.N,GND1*%
X115022400Y-93599000D03*
%TO.P,U1,6,OUT*%
%TO.N,Net-(R6-Pad1)*%
X115022400Y-92329000D03*
%TO.P,U1,7,VCC*%
%TO.N,/Vin*%
X115022400Y-91059000D03*
%TO.P,U1,8,VREF*%
%TO.N,/Vref*%
X115022400Y-89789000D03*
%TD*%
D20*
%TO.P,R10,1*%
%TO.N,Net-(D1-Pad2)*%
X137859100Y-103124000D03*
%TO.P,R10,2*%
%TO.N,Net-(C11-Pad2)*%
X136034100Y-103124000D03*
%TD*%
D15*
%TO.P,R1,1*%
%TO.N,/Vfb*%
X101252000Y-88476500D03*
%TO.P,R1,2*%
%TO.N,Net-(C2-Pad1)*%
X101252000Y-90301500D03*
%TD*%
%TO.P,R19,1*%
%TO.N,Net-(R17-Pad2)*%
X205867000Y-116435500D03*
%TO.P,R19,2*%
%TO.N,GND2*%
X205867000Y-118260500D03*
%TD*%
D22*
%TO.P,C15,1*%
%TO.N,GND2*%
X211963000Y-80782000D03*
%TO.P,C15,2*%
%TO.N,/Vout*%
X211963000Y-75682000D03*
%TD*%
D20*
%TO.P,R13,1*%
%TO.N,/Vout*%
X184603400Y-119253000D03*
%TO.P,R13,2*%
%TO.N,Net-(R13-Pad2)*%
X182778400Y-119253000D03*
%TD*%
D23*
%TO.P,R9,1*%
%TO.N,Net-(C11-Pad1)*%
X138049000Y-112480500D03*
%TO.P,R9,2*%
%TO.N,GND1*%
X138049000Y-118405500D03*
%TD*%
D24*
%TO.P,D3,1,K*%
%TO.N,Net-(D3-Pad1)*%
X197587600Y-108991400D03*
%TO.P,D3,2,A*%
%TO.N,GND2*%
X200887600Y-108991400D03*
%TD*%
D25*
%TO.P,R11,1*%
%TO.N,/Vfb*%
X160578800Y-114171100D03*
%TO.P,R11,2*%
%TO.N,GNDA*%
X160578800Y-112346100D03*
%TD*%
D26*
%TO.P,U2,1*%
%TO.N,Net-(R13-Pad2)*%
X171313000Y-119238000D03*
D27*
%TO.P,U2,2*%
%TO.N,Net-(R14-Pad1)*%
X171313000Y-116698000D03*
%TO.P,U2,3,NC*%
%TO.N,unconnected-(U2-Pad3)*%
X171313000Y-114158000D03*
%TO.P,U2,4*%
%TO.N,/Vfb*%
X163693000Y-114158000D03*
%TO.P,U2,5*%
%TO.N,/Vref*%
X163693000Y-116698000D03*
%TO.P,U2,6*%
%TO.N,unconnected-(U2-Pad6)*%
X163693000Y-119238000D03*
%TD*%
D28*
%TO.P,R20,1*%
%TO.N,GND1*%
X127576500Y-93979000D03*
%TO.P,R20,2*%
%TO.N,Net-(Q1-Pad1)*%
X129401500Y-93979000D03*
%TD*%
D29*
%TO.P,D1,1,K*%
%TO.N,Net-(C10-Pad2)*%
X127733000Y-80626000D03*
D30*
%TO.P,D1,2,A*%
%TO.N,Net-(D1-Pad2)*%
X137893000Y-80626000D03*
%TD*%
D14*
%TO.P,C20,1*%
%TO.N,GND2*%
X207645000Y-67486000D03*
%TO.P,C20,2*%
%TO.N,/Vout*%
X207645000Y-70436000D03*
%TD*%
D28*
%TO.P,R15,1*%
%TO.N,/Vout*%
X193295900Y-108991400D03*
%TO.P,R15,2*%
%TO.N,Net-(D3-Pad1)*%
X195120900Y-108991400D03*
%TD*%
D31*
%TO.P,U3,1,K*%
%TO.N,Net-(R14-Pad1)*%
X193269000Y-116702800D03*
%TO.P,U3,2,REF*%
%TO.N,Net-(C14-Pad2)*%
X193269000Y-118602800D03*
%TO.P,U3,3,A*%
%TO.N,GND2*%
X195144000Y-117652800D03*
%TD*%
D13*
%TO.P,C14,1*%
%TO.N,Net-(C14-Pad1)*%
X197805000Y-114477800D03*
%TO.P,C14,2*%
%TO.N,Net-(C14-Pad2)*%
X199705000Y-114477800D03*
%TD*%
D28*
%TO.P,R12,1*%
%TO.N,Net-(D2-Pad2)*%
X193651500Y-71120000D03*
%TO.P,R12,2*%
%TO.N,Net-(C12-Pad1)*%
X195476500Y-71120000D03*
%TD*%
D23*
%TO.P,R8,1*%
%TO.N,Net-(C11-Pad1)*%
X124587000Y-112480500D03*
%TO.P,R8,2*%
%TO.N,GND1*%
X124587000Y-118405500D03*
%TD*%
D32*
%TO.P,Q1,1,G*%
%TO.N,Net-(Q1-Pad1)*%
X131690000Y-93986000D03*
D33*
%TO.P,Q1,2,D*%
%TO.N,Net-(D1-Pad2)*%
X137990000Y-96266000D03*
D32*
%TO.P,Q1,3,S*%
%TO.N,Net-(C11-Pad1)*%
X131690000Y-98546000D03*
%TD*%
D18*
%TO.P,C6,1*%
%TO.N,GND1*%
X122326400Y-71643200D03*
%TO.P,C6,2*%
%TO.N,/Vin*%
X122326400Y-73543200D03*
%TD*%
D28*
%TO.P,R17,1*%
%TO.N,Net-(C14-Pad2)*%
X201906500Y-114477800D03*
%TO.P,R17,2*%
%TO.N,Net-(R17-Pad2)*%
X203731500Y-114477800D03*
%TD*%
D15*
%TO.P,R18,1*%
%TO.N,/Vout*%
X205841600Y-112650900D03*
%TO.P,R18,2*%
%TO.N,Net-(R17-Pad2)*%
X205841600Y-114475900D03*
%TD*%
D22*
%TO.P,C17,1*%
%TO.N,GND2*%
X229870000Y-80782000D03*
%TO.P,C17,2*%
%TO.N,/Vout*%
X229870000Y-75682000D03*
%TD*%
D13*
%TO.P,C11,1*%
%TO.N,Net-(C11-Pad1)*%
X132146000Y-103174800D03*
%TO.P,C11,2*%
%TO.N,Net-(C11-Pad2)*%
X134046000Y-103174800D03*
%TD*%
D28*
%TO.P,R3,1*%
%TO.N,/Vref*%
X106451750Y-95993000D03*
%TO.P,R3,2*%
%TO.N,Net-(C3-Pad1)*%
X108276750Y-95993000D03*
%TD*%
D13*
%TO.P,C9,1*%
%TO.N,GND1*%
X104620000Y-92310000D03*
%TO.P,C9,2*%
%TO.N,Net-(C9-Pad2)*%
X106520000Y-92310000D03*
%TD*%
D11*
%TO.P,C16,1*%
%TO.N,GND2*%
X229870000Y-65268000D03*
%TO.P,C16,2*%
%TO.N,/Vout*%
X229870000Y-70368000D03*
%TD*%
D25*
%TO.P,R2,1*%
%TO.N,Net-(C2-Pad1)*%
X103792000Y-90301500D03*
%TO.P,R2,2*%
%TO.N,Net-(C2-Pad2)*%
X103792000Y-88476500D03*
%TD*%
D23*
%TO.P,R7,1*%
%TO.N,Net-(C11-Pad1)*%
X131876800Y-112480500D03*
%TO.P,R7,2*%
%TO.N,GND1*%
X131876800Y-118405500D03*
%TD*%
D28*
%TO.P,R14,1*%
%TO.N,Net-(R14-Pad1)*%
X193270500Y-114477800D03*
%TO.P,R14,2*%
%TO.N,Net-(C14-Pad1)*%
X195095500Y-114477800D03*
%TD*%
D22*
%TO.P,C18,1*%
%TO.N,GND2*%
X220853000Y-80782000D03*
%TO.P,C18,2*%
%TO.N,/Vout*%
X220853000Y-75682000D03*
%TD*%
D13*
%TO.P,C1,1*%
%TO.N,/Vref*%
X106459000Y-99041000D03*
%TO.P,C1,2*%
%TO.N,GND1*%
X108359000Y-99041000D03*
%TD*%
D34*
%TO.P,D2,1,K*%
%TO.N,/Vout*%
X201041000Y-76510000D03*
D35*
%TO.P,D2,2,A*%
%TO.N,Net-(D2-Pad2)*%
X195961000Y-76510000D03*
%TD*%
D36*
%TO.N,/Vfb*%
X101269800Y-84150200D03*
X152781000Y-114173000D03*
%TO.N,GND1*%
X118795800Y-67995800D03*
X103555800Y-94335600D03*
%TD*%
D37*
%TO.N,/Vref*%
X109728000Y-110185200D02*
X109728000Y-119049800D01*
X100102000Y-83032000D02*
X100102000Y-94209200D01*
X109728000Y-119049800D02*
X111379000Y-120700800D01*
X106451750Y-95993000D02*
X106451750Y-99033750D01*
D38*
X106451750Y-99033750D02*
X106459000Y-99041000D01*
D37*
X106451400Y-99048600D02*
X106459000Y-99041000D01*
X115022400Y-87819000D02*
X109956600Y-82753200D01*
X101885800Y-95993000D02*
X106451750Y-95993000D01*
X100102000Y-94209200D02*
X101885800Y-95993000D01*
X107859600Y-102195400D02*
X106451400Y-100787200D01*
X107859600Y-108316800D02*
X109728000Y-110185200D01*
X115022400Y-89789000D02*
X115022400Y-87819000D01*
X156072600Y-116698000D02*
X163693000Y-116698000D01*
X109956600Y-82753200D02*
X100380800Y-82753200D01*
X100380800Y-82753200D02*
X100102000Y-83032000D01*
X111379000Y-120700800D02*
X152069800Y-120700800D01*
X107859600Y-102195400D02*
X107859600Y-108316800D01*
X152069800Y-120700800D02*
X156072600Y-116698000D01*
X106451400Y-100787200D02*
X106451400Y-99048600D01*
%TO.N,Net-(C2-Pad2)*%
X107424900Y-88476500D02*
X103792000Y-88476500D01*
X108737400Y-89789000D02*
X107424900Y-88476500D01*
X110072400Y-89789000D02*
X108737400Y-89789000D01*
%TO.N,Net-(C3-Pad1)*%
X110072400Y-95968150D02*
X110097250Y-95993000D01*
X110072400Y-93599000D02*
X110072400Y-95968150D01*
X108276750Y-95993000D02*
X110097250Y-95993000D01*
%TO.N,Net-(C9-Pad2)*%
X110072400Y-92329000D02*
X106539000Y-92329000D01*
X106539000Y-92329000D02*
X106520000Y-92310000D01*
%TO.N,Net-(C11-Pad1)*%
X131690000Y-102718800D02*
X132146000Y-103174800D01*
X131690000Y-98546000D02*
X131690000Y-102718800D01*
%TO.N,Net-(C11-Pad2)*%
X134046000Y-103174800D02*
X135983300Y-103174800D01*
X135983300Y-103174800D02*
X136034100Y-103124000D01*
D39*
%TO.N,Net-(C12-Pad1)*%
X198042000Y-71120000D02*
X195476500Y-71120000D01*
D37*
%TO.N,/Vout*%
X193295900Y-108991400D02*
X193295900Y-106576500D01*
X193295900Y-106576500D02*
X193295900Y-84732500D01*
X193295900Y-84732500D02*
X196392800Y-81635600D01*
X193295900Y-106576500D02*
X193295900Y-106170100D01*
X205841600Y-108458000D02*
X205841600Y-112650900D01*
X210464400Y-120345200D02*
X210464400Y-113131600D01*
X193295900Y-106170100D02*
X203553700Y-106170100D01*
X203553700Y-106170100D02*
X205841600Y-108458000D01*
X189738000Y-121462800D02*
X209346800Y-121462800D01*
X209346800Y-121462800D02*
X210464400Y-120345200D01*
X196392800Y-81635600D02*
X200609200Y-81635600D01*
X209983700Y-112650900D02*
X205841600Y-112650900D01*
X210464400Y-113131600D02*
X209983700Y-112650900D01*
X201041000Y-81203800D02*
X201041000Y-76510000D01*
X200609200Y-81635600D02*
X201041000Y-81203800D01*
X184603400Y-119253000D02*
X187528200Y-119253000D01*
X187528200Y-119253000D02*
X189738000Y-121462800D01*
%TO.N,Net-(C14-Pad1)*%
X195095500Y-114477800D02*
X197805000Y-114477800D01*
%TO.N,Net-(C14-Pad2)*%
X199705000Y-118988800D02*
X198780400Y-119913400D01*
X193929000Y-119913400D02*
X193269000Y-119253400D01*
X193269000Y-119253400D02*
X193269000Y-118602800D01*
X199705000Y-114477800D02*
X199705000Y-118988800D01*
X199705000Y-114477800D02*
X201906500Y-114477800D01*
X198780400Y-119913400D02*
X193929000Y-119913400D01*
%TO.N,Net-(D1-Pad2)*%
X137859100Y-103124000D02*
X137990000Y-102993100D01*
X137990000Y-102993100D02*
X137990000Y-96266000D01*
%TO.N,Net-(D3-Pad1)*%
X195120900Y-108991400D02*
X197587600Y-108991400D01*
X195120900Y-108991400D02*
X195120900Y-111912400D01*
%TO.N,Net-(Q1-Pad1)*%
X131699000Y-91716500D02*
X131699000Y-93977000D01*
X131690000Y-93986000D02*
X129408500Y-93986000D01*
X131699000Y-93977000D02*
X131690000Y-93986000D01*
X129408500Y-93986000D02*
X129401500Y-93979000D01*
%TO.N,/Vfb*%
X160578800Y-114171100D02*
X152732100Y-114171100D01*
X152779100Y-114171100D02*
X152781000Y-114173000D01*
X160591900Y-114158000D02*
X160578800Y-114171100D01*
X101252000Y-84168000D02*
X101269800Y-84150200D01*
X163693000Y-114158000D02*
X160591900Y-114158000D01*
X101252000Y-88476500D02*
X101252000Y-84168000D01*
X101243700Y-88468200D02*
X101252000Y-88476500D01*
X152732100Y-114171100D02*
X152779100Y-114171100D01*
%TO.N,Net-(R6-Pad1)*%
X124993400Y-92354400D02*
X127456300Y-89891500D01*
X115022400Y-92329000D02*
X115047800Y-92354400D01*
X127456300Y-89891500D02*
X131699000Y-89891500D01*
X115047800Y-92354400D02*
X124993400Y-92354400D01*
%TO.N,Net-(R13-Pad2)*%
X171313000Y-119238000D02*
X182763400Y-119238000D01*
X182763400Y-119238000D02*
X182778400Y-119253000D01*
%TO.N,Net-(R14-Pad1)*%
X191810600Y-116702800D02*
X193269000Y-116702800D01*
X171313000Y-116698000D02*
X191856600Y-116698000D01*
X193269000Y-114479300D02*
X193270500Y-114477800D01*
X193269000Y-116702800D02*
X193269000Y-114479300D01*
X193270500Y-111937800D02*
X193295900Y-111912400D01*
X193270500Y-114477800D02*
X193270500Y-111937800D01*
%TO.N,Net-(R17-Pad2)*%
X205867000Y-116435500D02*
X205867000Y-114501300D01*
X203731500Y-114477800D02*
X205839700Y-114477800D01*
X205839700Y-114477800D02*
X205841600Y-114475900D01*
X205867000Y-114501300D02*
X205841600Y-114475900D01*
%TO.N,Net-(C2-Pad1)*%
X107585600Y-90339000D02*
X108305600Y-91059000D01*
X106421500Y-90301500D02*
X106459000Y-90339000D01*
X106459000Y-90339000D02*
X107585600Y-90339000D01*
X101252000Y-90301500D02*
X106421500Y-90301500D01*
X108305600Y-91059000D02*
X110072400Y-91059000D01*
%TO.N,GND1*%
X104620000Y-92310000D02*
X104620000Y-93271400D01*
X114674600Y-95993000D02*
X115022400Y-95645200D01*
X104620000Y-93271400D02*
X103555800Y-94335600D01*
X115022400Y-95645200D02*
X115022400Y-93599000D01*
X111997250Y-95993000D02*
X114674600Y-95993000D01*
D38*
X118795800Y-70584800D02*
X118795800Y-67995800D01*
D37*
%TO.N,/Vin*%
X115022400Y-91059000D02*
X117642600Y-91059000D01*
X118006600Y-90695000D02*
X117998200Y-90703400D01*
X115022400Y-91059000D02*
X115047800Y-91033600D01*
X117642600Y-91059000D02*
X117998200Y-90703400D01*
%TD*%
%TA.AperFunction,Conductor*%
%TO.N,GND1*%
G36*
X157847166Y-55823802D02*
G01*
X157873188Y-55846056D01*
X161690073Y-60136933D01*
X161720404Y-60201125D01*
X161721930Y-60220334D01*
X161747200Y-69494400D01*
X161747200Y-108178600D01*
X161754837Y-108186494D01*
X164735239Y-111267078D01*
X164768229Y-111329944D01*
X164770664Y-111352498D01*
X164810103Y-113620242D01*
X164791288Y-113688700D01*
X164738449Y-113736119D01*
X164668362Y-113747443D01*
X164603278Y-113719078D01*
X164572871Y-113681586D01*
X164555260Y-113648464D01*
X164530370Y-113601653D01*
X164406361Y-113449602D01*
X164255180Y-113324535D01*
X164082585Y-113231213D01*
X163988868Y-113202203D01*
X163901039Y-113175015D01*
X163901036Y-113175014D01*
X163895152Y-113173193D01*
X163889027Y-113172549D01*
X163889026Y-113172549D01*
X163706147Y-113153327D01*
X163706146Y-113153327D01*
X163700019Y-113152683D01*
X163577777Y-113163808D01*
X163510759Y-113169907D01*
X163510758Y-113169907D01*
X163504618Y-113170466D01*
X163498704Y-113172207D01*
X163498702Y-113172207D01*
X163488890Y-113175095D01*
X163316393Y-113225864D01*
X163310928Y-113228721D01*
X163147972Y-113313912D01*
X163147968Y-113313915D01*
X163142512Y-113316767D01*
X163137712Y-113320627D01*
X163137711Y-113320627D01*
X163107392Y-113345004D01*
X162989600Y-113439711D01*
X162863480Y-113590016D01*
X162834789Y-113642204D01*
X162784446Y-113692260D01*
X162724377Y-113707500D01*
X161503938Y-113707500D01*
X161435817Y-113687498D01*
X161402587Y-113656360D01*
X161356542Y-113594021D01*
X161350950Y-113586450D01*
X161326507Y-113568396D01*
X161249557Y-113511559D01*
X161249554Y-113511558D01*
X161241984Y-113505966D01*
X161114169Y-113461081D01*
X161106523Y-113460358D01*
X161106522Y-113460358D01*
X161100552Y-113459794D01*
X161082634Y-113458100D01*
X160074966Y-113458100D01*
X160057048Y-113459794D01*
X160051078Y-113460358D01*
X160051077Y-113460358D01*
X160043431Y-113461081D01*
X159915616Y-113505966D01*
X159908046Y-113511558D01*
X159908043Y-113511559D01*
X159831093Y-113568396D01*
X159806650Y-113586450D01*
X159801058Y-113594021D01*
X159801055Y-113594024D01*
X159745338Y-113669459D01*
X159688777Y-113712370D01*
X159643987Y-113720600D01*
X153220623Y-113720600D01*
X153152502Y-113700598D01*
X153143920Y-113694563D01*
X153090396Y-113653493D01*
X153090392Y-113653491D01*
X153083841Y-113648464D01*
X152937762Y-113587956D01*
X152781000Y-113567318D01*
X152624238Y-113587956D01*
X152478159Y-113648464D01*
X152352718Y-113744718D01*
X152256464Y-113870159D01*
X152195956Y-114016238D01*
X152175318Y-114173000D01*
X152195956Y-114329762D01*
X152256464Y-114475841D01*
X152352718Y-114601282D01*
X152359264Y-114606305D01*
X152388192Y-114628502D01*
X152478159Y-114697536D01*
X152624238Y-114758044D01*
X152781000Y-114778682D01*
X152789188Y-114777604D01*
X152929574Y-114759122D01*
X152937762Y-114758044D01*
X153083841Y-114697536D01*
X153148871Y-114647637D01*
X153215092Y-114622037D01*
X153225575Y-114621600D01*
X159643987Y-114621600D01*
X159712108Y-114641602D01*
X159745338Y-114672741D01*
X159801055Y-114748176D01*
X159801058Y-114748179D01*
X159806650Y-114755750D01*
X159814221Y-114761342D01*
X159908043Y-114830641D01*
X159908046Y-114830642D01*
X159915616Y-114836234D01*
X160043431Y-114881119D01*
X160051077Y-114881842D01*
X160051078Y-114881842D01*
X160057048Y-114882406D01*
X160074966Y-114884100D01*
X161082634Y-114884100D01*
X161100552Y-114882406D01*
X161106522Y-114881842D01*
X161106523Y-114881842D01*
X161114169Y-114881119D01*
X161241984Y-114836234D01*
X161249554Y-114830642D01*
X161249557Y-114830641D01*
X161343379Y-114761342D01*
X161350950Y-114755750D01*
X161356542Y-114748179D01*
X161356545Y-114748176D01*
X161421938Y-114659641D01*
X161478499Y-114616730D01*
X161523289Y-114608500D01*
X162722672Y-114608500D01*
X162790793Y-114628502D01*
X162834739Y-114676907D01*
X162847944Y-114702601D01*
X162851769Y-114707427D01*
X162851771Y-114707430D01*
X162929835Y-114805922D01*
X162969818Y-114856369D01*
X163119238Y-114983535D01*
X163124616Y-114986541D01*
X163124618Y-114986542D01*
X163160932Y-115006837D01*
X163290513Y-115079257D01*
X163477118Y-115139889D01*
X163671946Y-115163121D01*
X163678081Y-115162649D01*
X163678083Y-115162649D01*
X163861434Y-115148541D01*
X163861438Y-115148540D01*
X163867576Y-115148068D01*
X164056556Y-115095303D01*
X164231689Y-115006837D01*
X164261515Y-114983535D01*
X164381453Y-114889829D01*
X164386303Y-114886040D01*
X164392748Y-114878574D01*
X164510485Y-114742173D01*
X164510485Y-114742172D01*
X164514509Y-114737511D01*
X164531598Y-114707430D01*
X164581176Y-114620156D01*
X164592650Y-114599959D01*
X164643688Y-114550609D01*
X164713306Y-114536687D01*
X164779400Y-114562613D01*
X164820985Y-114620156D01*
X164828186Y-114660006D01*
X164855771Y-116246130D01*
X164836956Y-116314588D01*
X164784117Y-116362007D01*
X164714030Y-116373331D01*
X164648946Y-116344966D01*
X164618539Y-116307475D01*
X164611864Y-116294920D01*
X164530370Y-116141653D01*
X164406361Y-115989602D01*
X164255180Y-115864535D01*
X164082585Y-115771213D01*
X163988868Y-115742203D01*
X163901039Y-115715015D01*
X163901036Y-115715014D01*
X163895152Y-115713193D01*
X163889027Y-115712549D01*
X163889026Y-115712549D01*
X163706147Y-115693327D01*
X163706146Y-115693327D01*
X163700019Y-115692683D01*
X163577383Y-115703844D01*
X163510759Y-115709907D01*
X163510758Y-115709907D01*
X163504618Y-115710466D01*
X163498704Y-115712207D01*
X163498702Y-115712207D01*
X163369734Y-115750165D01*
X163316393Y-115765864D01*
X163310928Y-115768721D01*
X163147972Y-115853912D01*
X163147968Y-115853915D01*
X163142512Y-115856767D01*
X163137712Y-115860627D01*
X163137711Y-115860627D01*
X163103326Y-115888273D01*
X162989600Y-115979711D01*
X162863480Y-116130016D01*
X162834789Y-116182204D01*
X162784446Y-116232260D01*
X162724377Y-116247500D01*
X156106820Y-116247500D01*
X156092011Y-116246627D01*
X156067643Y-116243743D01*
X156058290Y-116242636D01*
X156049026Y-116244328D01*
X156049025Y-116244328D01*
X156000599Y-116253172D01*
X155996696Y-116253822D01*
X155947955Y-116261150D01*
X155947954Y-116261150D01*
X155938638Y-116262551D01*
X155932125Y-116265679D01*
X155925027Y-116266975D01*
X155872953Y-116294025D01*
X155869463Y-116295768D01*
X155816521Y-116321191D01*
X155811235Y-116326077D01*
X155811187Y-116326110D01*
X155804812Y-116329421D01*
X155799772Y-116333725D01*
X155762545Y-116370952D01*
X155758980Y-116374381D01*
X155717044Y-116413146D01*
X155713351Y-116419505D01*
X155707834Y-116425663D01*
X151920102Y-120213395D01*
X151857790Y-120247421D01*
X151831007Y-120250300D01*
X111617794Y-120250300D01*
X111549673Y-120230298D01*
X111528699Y-120213395D01*
X110215405Y-118900102D01*
X110181380Y-118837790D01*
X110178500Y-118811007D01*
X110178500Y-110219420D01*
X110179373Y-110204611D01*
X110182257Y-110180243D01*
X110183364Y-110170890D01*
X110181672Y-110161626D01*
X110181672Y-110161622D01*
X110172827Y-110113189D01*
X110172178Y-110109288D01*
X110164851Y-110060555D01*
X110164849Y-110060547D01*
X110163449Y-110051238D01*
X110160323Y-110044728D01*
X110159026Y-110037627D01*
X110131982Y-109985563D01*
X110130214Y-109982025D01*
X110108886Y-109937611D01*
X110104809Y-109929121D01*
X110099926Y-109923840D01*
X110099891Y-109923788D01*
X110096580Y-109917412D01*
X110092276Y-109912372D01*
X110055036Y-109875132D01*
X110051606Y-109871566D01*
X110019247Y-109836560D01*
X110012854Y-109829644D01*
X110006497Y-109825952D01*
X110000343Y-109820439D01*
X108347005Y-108167102D01*
X108312980Y-108104790D01*
X108310100Y-108078007D01*
X108310100Y-102229620D01*
X108310973Y-102214811D01*
X108313857Y-102190443D01*
X108314964Y-102181090D01*
X108313272Y-102171826D01*
X108313272Y-102171822D01*
X108304427Y-102123389D01*
X108303778Y-102119488D01*
X108296451Y-102070755D01*
X108296449Y-102070747D01*
X108295049Y-102061438D01*
X108291923Y-102054928D01*
X108290626Y-102047827D01*
X108263582Y-101995763D01*
X108261814Y-101992225D01*
X108240486Y-101947811D01*
X108236409Y-101939321D01*
X108231526Y-101934040D01*
X108231491Y-101933988D01*
X108228180Y-101927612D01*
X108223876Y-101922572D01*
X108186637Y-101885333D01*
X108183207Y-101881767D01*
X108150847Y-101846760D01*
X108144454Y-101839844D01*
X108138097Y-101836152D01*
X108131943Y-101830639D01*
X107547120Y-101245816D01*
X106938805Y-100637502D01*
X106904780Y-100575190D01*
X106901900Y-100548407D01*
X106901900Y-99997194D01*
X106921902Y-99929073D01*
X106953041Y-99895843D01*
X107023571Y-99843748D01*
X107031150Y-99838150D01*
X107037505Y-99829546D01*
X107038615Y-99828704D01*
X107043404Y-99823915D01*
X107044061Y-99824572D01*
X107094066Y-99786637D01*
X107137242Y-99778418D01*
X107360670Y-99775563D01*
X107677474Y-99771514D01*
X107677476Y-99771514D01*
X107695589Y-99771282D01*
X107694508Y-97758555D01*
X107694350Y-97464546D01*
X107714315Y-97396414D01*
X107767946Y-97349892D01*
X107820138Y-97338478D01*
X110895785Y-97333328D01*
X110917438Y-94786500D01*
X110919346Y-94562129D01*
X110939926Y-94494181D01*
X110953248Y-94482834D01*
X128688500Y-94482834D01*
X128691481Y-94514369D01*
X128736366Y-94642184D01*
X128741958Y-94649754D01*
X128741959Y-94649757D01*
X128794019Y-94720239D01*
X128816850Y-94751150D01*
X128824421Y-94756742D01*
X128918243Y-94826041D01*
X128918246Y-94826042D01*
X128925816Y-94831634D01*
X129053631Y-94876519D01*
X129061277Y-94877242D01*
X129061278Y-94877242D01*
X129067248Y-94877806D01*
X129085166Y-94879500D01*
X129717834Y-94879500D01*
X129735752Y-94877806D01*
X129741722Y-94877242D01*
X129741723Y-94877242D01*
X129749369Y-94876519D01*
X129877184Y-94831634D01*
X129884754Y-94826042D01*
X129884757Y-94826041D01*
X129978579Y-94756742D01*
X129986150Y-94751150D01*
X130008981Y-94720239D01*
X130061041Y-94649757D01*
X130061042Y-94649754D01*
X130066634Y-94642184D01*
X130109278Y-94520751D01*
X130150720Y-94463107D01*
X130216749Y-94437018D01*
X130228160Y-94436500D01*
X130263500Y-94436500D01*
X130331621Y-94456502D01*
X130378114Y-94510158D01*
X130389500Y-94562500D01*
X130389500Y-94605748D01*
X130390707Y-94611816D01*
X130396748Y-94642184D01*
X130401133Y-94664231D01*
X130445448Y-94730552D01*
X130511769Y-94774867D01*
X130523938Y-94777288D01*
X130523939Y-94777288D01*
X130564184Y-94785293D01*
X130570252Y-94786500D01*
X132809748Y-94786500D01*
X132815816Y-94785293D01*
X132856061Y-94777288D01*
X132856062Y-94777288D01*
X132868231Y-94774867D01*
X132934552Y-94730552D01*
X132978867Y-94664231D01*
X132983253Y-94642184D01*
X132989293Y-94611816D01*
X132990500Y-94605748D01*
X132990500Y-93366252D01*
X132986371Y-93345492D01*
X132981288Y-93319939D01*
X132981288Y-93319938D01*
X132978867Y-93307769D01*
X132934552Y-93241448D01*
X132868231Y-93197133D01*
X132856062Y-93194712D01*
X132856061Y-93194712D01*
X132815816Y-93186707D01*
X132809748Y-93185500D01*
X132275500Y-93185500D01*
X132207379Y-93165498D01*
X132160886Y-93111842D01*
X132149500Y-93059500D01*
X132149500Y-92545537D01*
X132169502Y-92477416D01*
X132223158Y-92430923D01*
X132234578Y-92427114D01*
X132234369Y-92426519D01*
X132362184Y-92381634D01*
X132369754Y-92376042D01*
X132369757Y-92376041D01*
X132463579Y-92306742D01*
X132471150Y-92301150D01*
X132483665Y-92284206D01*
X132546041Y-92199757D01*
X132546042Y-92199754D01*
X132551634Y-92192184D01*
X132596519Y-92064369D01*
X132599500Y-92032834D01*
X132599500Y-91400166D01*
X132596519Y-91368631D01*
X132551634Y-91240816D01*
X132546042Y-91233246D01*
X132546041Y-91233243D01*
X132476742Y-91139421D01*
X132471150Y-91131850D01*
X132378037Y-91063075D01*
X132369757Y-91056959D01*
X132369754Y-91056958D01*
X132362184Y-91051366D01*
X132234369Y-91006481D01*
X132226723Y-91005758D01*
X132226722Y-91005758D01*
X132220752Y-91005194D01*
X132202834Y-91003500D01*
X131195166Y-91003500D01*
X131177248Y-91005194D01*
X131171278Y-91005758D01*
X131171277Y-91005758D01*
X131163631Y-91006481D01*
X131035816Y-91051366D01*
X131028246Y-91056958D01*
X131028243Y-91056959D01*
X131019963Y-91063075D01*
X130926850Y-91131850D01*
X130921258Y-91139421D01*
X130851959Y-91233243D01*
X130851958Y-91233246D01*
X130846366Y-91240816D01*
X130801481Y-91368631D01*
X130798500Y-91400166D01*
X130798500Y-92032834D01*
X130801481Y-92064369D01*
X130846366Y-92192184D01*
X130851958Y-92199754D01*
X130851959Y-92199757D01*
X130914335Y-92284206D01*
X130926850Y-92301150D01*
X130934421Y-92306742D01*
X131028243Y-92376041D01*
X131028246Y-92376042D01*
X131035816Y-92381634D01*
X131163631Y-92426519D01*
X131162540Y-92429627D01*
X131211703Y-92456549D01*
X131245653Y-92518902D01*
X131248500Y-92545537D01*
X131248500Y-93059500D01*
X131228498Y-93127621D01*
X131174842Y-93174114D01*
X131122500Y-93185500D01*
X130570252Y-93185500D01*
X130564184Y-93186707D01*
X130523939Y-93194712D01*
X130523938Y-93194712D01*
X130511769Y-93197133D01*
X130445448Y-93241448D01*
X130401133Y-93307769D01*
X130398712Y-93319938D01*
X130398712Y-93319939D01*
X130393629Y-93345492D01*
X130389500Y-93366252D01*
X130389500Y-93409500D01*
X130369498Y-93477621D01*
X130315842Y-93524114D01*
X130263500Y-93535500D01*
X130232073Y-93535500D01*
X130163952Y-93515498D01*
X130117459Y-93461842D01*
X130111574Y-93444211D01*
X130111519Y-93443631D01*
X130066634Y-93315816D01*
X130061042Y-93308246D01*
X130061041Y-93308243D01*
X129991742Y-93214421D01*
X129986150Y-93206850D01*
X129941829Y-93174114D01*
X129884757Y-93131959D01*
X129884754Y-93131958D01*
X129877184Y-93126366D01*
X129749369Y-93081481D01*
X129741723Y-93080758D01*
X129741722Y-93080758D01*
X129735752Y-93080194D01*
X129717834Y-93078500D01*
X129085166Y-93078500D01*
X129067248Y-93080194D01*
X129061278Y-93080758D01*
X129061277Y-93080758D01*
X129053631Y-93081481D01*
X128925816Y-93126366D01*
X128918246Y-93131958D01*
X128918243Y-93131959D01*
X128861171Y-93174114D01*
X128816850Y-93206850D01*
X128811258Y-93214421D01*
X128741959Y-93308243D01*
X128741958Y-93308246D01*
X128736366Y-93315816D01*
X128691481Y-93443631D01*
X128688500Y-93475166D01*
X128688500Y-94482834D01*
X110953248Y-94482834D01*
X110993975Y-94448146D01*
X111045341Y-94437200D01*
X116281200Y-94437200D01*
X116281065Y-94408112D01*
X116300751Y-94339900D01*
X116354190Y-94293159D01*
X116407603Y-94281529D01*
X117170200Y-94284800D01*
X117170200Y-92930900D01*
X117190202Y-92862779D01*
X117243858Y-92816286D01*
X117296200Y-92804900D01*
X124959180Y-92804900D01*
X124973989Y-92805773D01*
X125007710Y-92809764D01*
X125016974Y-92808072D01*
X125016975Y-92808072D01*
X125065401Y-92799228D01*
X125069304Y-92798578D01*
X125118045Y-92791250D01*
X125118046Y-92791250D01*
X125127362Y-92789849D01*
X125133875Y-92786721D01*
X125140973Y-92785425D01*
X125193047Y-92758375D01*
X125196537Y-92756632D01*
X125249479Y-92731209D01*
X125254765Y-92726323D01*
X125254813Y-92726290D01*
X125261188Y-92722979D01*
X125266228Y-92718675D01*
X125303455Y-92681448D01*
X125307021Y-92678018D01*
X125342041Y-92645646D01*
X125348956Y-92639254D01*
X125352649Y-92632895D01*
X125358166Y-92626737D01*
X127605998Y-90378905D01*
X127668310Y-90344879D01*
X127695093Y-90342000D01*
X130764187Y-90342000D01*
X130832308Y-90362002D01*
X130865538Y-90393141D01*
X130921255Y-90468576D01*
X130921258Y-90468579D01*
X130926850Y-90476150D01*
X130934421Y-90481742D01*
X131028243Y-90551041D01*
X131028246Y-90551042D01*
X131035816Y-90556634D01*
X131163631Y-90601519D01*
X131171277Y-90602242D01*
X131171278Y-90602242D01*
X131177248Y-90602806D01*
X131195166Y-90604500D01*
X132202834Y-90604500D01*
X132220752Y-90602806D01*
X132226722Y-90602242D01*
X132226723Y-90602242D01*
X132234369Y-90601519D01*
X132362184Y-90556634D01*
X132369754Y-90551042D01*
X132369757Y-90551041D01*
X132463579Y-90481742D01*
X132471150Y-90476150D01*
X132539294Y-90383891D01*
X132546041Y-90374757D01*
X132546042Y-90374754D01*
X132551634Y-90367184D01*
X132596519Y-90239369D01*
X132599500Y-90207834D01*
X132599500Y-89575166D01*
X132596519Y-89543631D01*
X132551634Y-89415816D01*
X132546042Y-89408246D01*
X132546041Y-89408243D01*
X132476742Y-89314421D01*
X132471150Y-89306850D01*
X132454206Y-89294335D01*
X132369757Y-89231959D01*
X132369754Y-89231958D01*
X132362184Y-89226366D01*
X132234369Y-89181481D01*
X132226723Y-89180758D01*
X132226722Y-89180758D01*
X132220752Y-89180194D01*
X132202834Y-89178500D01*
X131195166Y-89178500D01*
X131177248Y-89180194D01*
X131171278Y-89180758D01*
X131171277Y-89180758D01*
X131163631Y-89181481D01*
X131035816Y-89226366D01*
X131028246Y-89231958D01*
X131028243Y-89231959D01*
X130943794Y-89294335D01*
X130926850Y-89306850D01*
X130921258Y-89314421D01*
X130921255Y-89314424D01*
X130865538Y-89389859D01*
X130808977Y-89432770D01*
X130764187Y-89441000D01*
X127490520Y-89441000D01*
X127475711Y-89440127D01*
X127451343Y-89437243D01*
X127441990Y-89436136D01*
X127432726Y-89437828D01*
X127432722Y-89437828D01*
X127384289Y-89446673D01*
X127380388Y-89447322D01*
X127331655Y-89454649D01*
X127331647Y-89454651D01*
X127322338Y-89456051D01*
X127315828Y-89459177D01*
X127308727Y-89460474D01*
X127300372Y-89464814D01*
X127256663Y-89487518D01*
X127253125Y-89489286D01*
X127208711Y-89510614D01*
X127200221Y-89514691D01*
X127194940Y-89519574D01*
X127194888Y-89519609D01*
X127188512Y-89522920D01*
X127183472Y-89527224D01*
X127146232Y-89564464D01*
X127142667Y-89567893D01*
X127100744Y-89606646D01*
X127097052Y-89613003D01*
X127091539Y-89619157D01*
X125956761Y-90753936D01*
X124843702Y-91866995D01*
X124781390Y-91901020D01*
X124754607Y-91903900D01*
X119363535Y-91903900D01*
X119295414Y-91883898D01*
X119248921Y-91830242D01*
X119238817Y-91759968D01*
X119248921Y-91725558D01*
X119266629Y-91686782D01*
X119268498Y-91682690D01*
X119288500Y-91614569D01*
X119291502Y-91593695D01*
X119308661Y-91474347D01*
X119308661Y-91474342D01*
X119309300Y-91469900D01*
X119309300Y-86995641D01*
X119309294Y-86993170D01*
X119309288Y-86991923D01*
X119309269Y-86989310D01*
X119301352Y-86189704D01*
X119285003Y-84538411D01*
X119304330Y-84470096D01*
X119357523Y-84423074D01*
X119411418Y-84411165D01*
X128440849Y-84441322D01*
X128496589Y-84438475D01*
X128523792Y-84435597D01*
X128525467Y-84435327D01*
X128525482Y-84435325D01*
X128551127Y-84431191D01*
X128578926Y-84426710D01*
X128671605Y-84392142D01*
X128711653Y-84377204D01*
X128711655Y-84377203D01*
X128715867Y-84375632D01*
X128778179Y-84341606D01*
X128835395Y-84298774D01*
X128891576Y-84256717D01*
X128891580Y-84256713D01*
X128895178Y-84254020D01*
X129456194Y-83693004D01*
X129492917Y-83652123D01*
X129509820Y-83631149D01*
X129516054Y-83622504D01*
X129538362Y-83591570D01*
X129538365Y-83591565D01*
X129541982Y-83586549D01*
X129602698Y-83453600D01*
X129622700Y-83385479D01*
X129640886Y-83258996D01*
X129642861Y-83245257D01*
X129642861Y-83245252D01*
X129643500Y-83240810D01*
X129643500Y-79162559D01*
X129636742Y-79079522D01*
X129630152Y-79039306D01*
X129610052Y-78958446D01*
X129606869Y-78952143D01*
X129546193Y-78831999D01*
X129546191Y-78831996D01*
X129544164Y-78827982D01*
X129541581Y-78824291D01*
X129539577Y-78820940D01*
X129521771Y-78752212D01*
X129543948Y-78684768D01*
X129599068Y-78640021D01*
X129647641Y-78630255D01*
X133674071Y-78628198D01*
X135890614Y-78627065D01*
X135958745Y-78647032D01*
X136005265Y-78700664D01*
X136015405Y-78770933D01*
X135993245Y-78823732D01*
X135993941Y-78824149D01*
X135991043Y-78828979D01*
X135990798Y-78829563D01*
X135990308Y-78830204D01*
X135990305Y-78830208D01*
X135986018Y-78835820D01*
X135925302Y-78968769D01*
X135924034Y-78973088D01*
X135916716Y-78998012D01*
X135905300Y-79036890D01*
X135904660Y-79041339D01*
X135904659Y-79041345D01*
X135885160Y-79176966D01*
X135884500Y-79181559D01*
X135884500Y-90812637D01*
X135864498Y-90880758D01*
X135851934Y-90897172D01*
X133636787Y-93345492D01*
X133635947Y-93346500D01*
X133624553Y-93360184D01*
X133609809Y-93377890D01*
X133609034Y-93378902D01*
X133609016Y-93378925D01*
X133598044Y-93393260D01*
X133597245Y-93394304D01*
X133573018Y-93428802D01*
X133512302Y-93561751D01*
X133492300Y-93629872D01*
X133471500Y-93774541D01*
X133471500Y-97643941D01*
X133451498Y-97712062D01*
X133397842Y-97758555D01*
X133327568Y-97768659D01*
X133262988Y-97739165D01*
X133222854Y-97672819D01*
X133213141Y-97631568D01*
X133213141Y-97631567D01*
X133212914Y-97630604D01*
X133212658Y-97629652D01*
X133211608Y-97625754D01*
X133211606Y-97625750D01*
X133209506Y-97617953D01*
X133188927Y-97581961D01*
X133167621Y-97544700D01*
X133164110Y-97538559D01*
X133116038Y-97486313D01*
X133112550Y-97483468D01*
X133074190Y-97452182D01*
X133074186Y-97452179D01*
X133070711Y-97449345D01*
X132698465Y-97225507D01*
X132647518Y-97203602D01*
X132618618Y-97195582D01*
X132586686Y-97186720D01*
X132586679Y-97186719D01*
X132582587Y-97185583D01*
X132527635Y-97178100D01*
X130539509Y-97178100D01*
X130537045Y-97178294D01*
X130537039Y-97178294D01*
X130509866Y-97180431D01*
X130509861Y-97180432D01*
X130507389Y-97180626D01*
X130468488Y-97186782D01*
X130462015Y-97189354D01*
X130462011Y-97189355D01*
X130429027Y-97202461D01*
X130384666Y-97220087D01*
X130378904Y-97224025D01*
X130378903Y-97224025D01*
X130329763Y-97257604D01*
X130329759Y-97257607D01*
X130326048Y-97260143D01*
X130322737Y-97263180D01*
X130322732Y-97263184D01*
X130301594Y-97282574D01*
X130282942Y-97299682D01*
X130280094Y-97303163D01*
X130280093Y-97303164D01*
X130127534Y-97489626D01*
X130120633Y-97498060D01*
X130120088Y-97498766D01*
X130120066Y-97498794D01*
X130114012Y-97506640D01*
X130113990Y-97506669D01*
X130113444Y-97507377D01*
X130104965Y-97519044D01*
X130074026Y-97581961D01*
X130054024Y-97650082D01*
X130053384Y-97654530D01*
X130053383Y-97654537D01*
X130046339Y-97703530D01*
X130046338Y-97703537D01*
X130045700Y-97707978D01*
X130045700Y-109495220D01*
X130022413Y-109568200D01*
X129496993Y-110307680D01*
X129441231Y-110351625D01*
X129394280Y-110360700D01*
X122715372Y-110360700D01*
X122684490Y-110363034D01*
X122682143Y-110363391D01*
X122682132Y-110363392D01*
X122653852Y-110367691D01*
X122647050Y-110368725D01*
X122640636Y-110371206D01*
X122640632Y-110371207D01*
X122570482Y-110398341D01*
X122570479Y-110398342D01*
X122564061Y-110400825D01*
X122504961Y-110440165D01*
X122461380Y-110479174D01*
X121868208Y-111186418D01*
X121860166Y-111196647D01*
X121850708Y-111209495D01*
X121848269Y-111214417D01*
X121848267Y-111214420D01*
X121822172Y-111267078D01*
X121819026Y-111273427D01*
X121799024Y-111341548D01*
X121798384Y-111345996D01*
X121798383Y-111346003D01*
X121791339Y-111394996D01*
X121791338Y-111395003D01*
X121790700Y-111399444D01*
X121790700Y-113097135D01*
X121793258Y-113129456D01*
X121799492Y-113168599D01*
X121833001Y-113252565D01*
X121873176Y-113311101D01*
X121912800Y-113354125D01*
X122208453Y-113595028D01*
X122248627Y-113653563D01*
X122250777Y-113724527D01*
X122228623Y-113766600D01*
X122224800Y-113766600D01*
X122224800Y-117424200D01*
X140335000Y-117424200D01*
X140335000Y-114038792D01*
X140355002Y-113970671D01*
X140408658Y-113924178D01*
X140441664Y-113914285D01*
X140442917Y-113914090D01*
X140458823Y-113911620D01*
X140488027Y-113902325D01*
X140527020Y-113889914D01*
X140527024Y-113889912D01*
X140531653Y-113888439D01*
X140568344Y-113870159D01*
X140583758Y-113862480D01*
X140583761Y-113862478D01*
X140588109Y-113860312D01*
X140592069Y-113857507D01*
X140592074Y-113857504D01*
X141111321Y-113489704D01*
X141111330Y-113489697D01*
X141113610Y-113488082D01*
X141115745Y-113486265D01*
X141139255Y-113466254D01*
X141139262Y-113466247D01*
X141141389Y-113464437D01*
X141143350Y-113462442D01*
X141167507Y-113437864D01*
X141167510Y-113437861D01*
X141172625Y-113432656D01*
X141221556Y-113351955D01*
X141243441Y-113284416D01*
X141247934Y-113258334D01*
X141252607Y-113231200D01*
X141252607Y-113231198D01*
X141253369Y-113226775D01*
X141254807Y-113175015D01*
X141269045Y-112662434D01*
X159678300Y-112662434D01*
X159681281Y-112693969D01*
X159726166Y-112821784D01*
X159731758Y-112829354D01*
X159731759Y-112829357D01*
X159794135Y-112913806D01*
X159806650Y-112930750D01*
X159814221Y-112936342D01*
X159908043Y-113005641D01*
X159908046Y-113005642D01*
X159915616Y-113011234D01*
X160043431Y-113056119D01*
X160051077Y-113056842D01*
X160051078Y-113056842D01*
X160057048Y-113057406D01*
X160074966Y-113059100D01*
X161082634Y-113059100D01*
X161100552Y-113057406D01*
X161106522Y-113056842D01*
X161106523Y-113056842D01*
X161114169Y-113056119D01*
X161241984Y-113011234D01*
X161249554Y-113005642D01*
X161249557Y-113005641D01*
X161343379Y-112936342D01*
X161350950Y-112930750D01*
X161363465Y-112913806D01*
X161425841Y-112829357D01*
X161425842Y-112829354D01*
X161431434Y-112821784D01*
X161476319Y-112693969D01*
X161479300Y-112662434D01*
X161479300Y-112029766D01*
X161476319Y-111998231D01*
X161431434Y-111870416D01*
X161425842Y-111862846D01*
X161425841Y-111862843D01*
X161356542Y-111769021D01*
X161350950Y-111761450D01*
X161334006Y-111748935D01*
X161249557Y-111686559D01*
X161249554Y-111686558D01*
X161241984Y-111680966D01*
X161114169Y-111636081D01*
X161106523Y-111635358D01*
X161106522Y-111635358D01*
X161100552Y-111634794D01*
X161082634Y-111633100D01*
X160074966Y-111633100D01*
X160057048Y-111634794D01*
X160051078Y-111635358D01*
X160051077Y-111635358D01*
X160043431Y-111636081D01*
X159915616Y-111680966D01*
X159908046Y-111686558D01*
X159908043Y-111686559D01*
X159823594Y-111748935D01*
X159806650Y-111761450D01*
X159801058Y-111769021D01*
X159731759Y-111862843D01*
X159731758Y-111862846D01*
X159726166Y-111870416D01*
X159681281Y-111998231D01*
X159678300Y-112029766D01*
X159678300Y-112662434D01*
X141269045Y-112662434D01*
X141300755Y-111520896D01*
X141300755Y-111520887D01*
X141300818Y-111518616D01*
X141299510Y-111489073D01*
X141295314Y-111453143D01*
X141266831Y-111370283D01*
X141256027Y-111352498D01*
X141246748Y-111337225D01*
X141229969Y-111309606D01*
X141204531Y-111278704D01*
X141195655Y-111267922D01*
X141195653Y-111267920D01*
X141192795Y-111264448D01*
X140408136Y-110549024D01*
X140407123Y-110548177D01*
X140407108Y-110548164D01*
X140395610Y-110538551D01*
X140395589Y-110538534D01*
X140394590Y-110537699D01*
X140377411Y-110524549D01*
X140309641Y-110490333D01*
X140260724Y-110476173D01*
X140245777Y-110471846D01*
X140245773Y-110471845D01*
X140241444Y-110470592D01*
X140236977Y-110469967D01*
X140236976Y-110469967D01*
X140187973Y-110463113D01*
X140187970Y-110463113D01*
X140183517Y-110462490D01*
X140179023Y-110462507D01*
X140179020Y-110462507D01*
X133820111Y-110486871D01*
X133751914Y-110467130D01*
X133704366Y-110411771D01*
X133701218Y-110404641D01*
X133292314Y-109478678D01*
X133281577Y-109428320D01*
X133278352Y-108676939D01*
X133258534Y-104059384D01*
X133278244Y-103991179D01*
X133331699Y-103944456D01*
X133401929Y-103934051D01*
X133466636Y-103963266D01*
X133469174Y-103965619D01*
X133473850Y-103971950D01*
X133481421Y-103977542D01*
X133575243Y-104046841D01*
X133575246Y-104046842D01*
X133582816Y-104052434D01*
X133710631Y-104097319D01*
X133718277Y-104098042D01*
X133718278Y-104098042D01*
X133724248Y-104098606D01*
X133742166Y-104100300D01*
X134349834Y-104100300D01*
X134367752Y-104098606D01*
X134373722Y-104098042D01*
X134373723Y-104098042D01*
X134381369Y-104097319D01*
X134509184Y-104052434D01*
X134516754Y-104046842D01*
X134516757Y-104046841D01*
X134610579Y-103977542D01*
X134618150Y-103971950D01*
X134674137Y-103896150D01*
X134693041Y-103870557D01*
X134693042Y-103870554D01*
X134698634Y-103862984D01*
X134728372Y-103778301D01*
X134740976Y-103742412D01*
X134740977Y-103742408D01*
X134743519Y-103735169D01*
X134744242Y-103727525D01*
X134744949Y-103724300D01*
X134779084Y-103662047D01*
X134841456Y-103628132D01*
X134868022Y-103625300D01*
X135222821Y-103625300D01*
X135290942Y-103645302D01*
X135337435Y-103698958D01*
X135341703Y-103709549D01*
X135368966Y-103787184D01*
X135374558Y-103794754D01*
X135374559Y-103794757D01*
X135418392Y-103854101D01*
X135449450Y-103896150D01*
X135457021Y-103901742D01*
X135550843Y-103971041D01*
X135550846Y-103971042D01*
X135558416Y-103976634D01*
X135686231Y-104021519D01*
X135693877Y-104022242D01*
X135693878Y-104022242D01*
X135699848Y-104022806D01*
X135717766Y-104024500D01*
X136350434Y-104024500D01*
X136368352Y-104022806D01*
X136374322Y-104022242D01*
X136374323Y-104022242D01*
X136381969Y-104021519D01*
X136509784Y-103976634D01*
X136517354Y-103971042D01*
X136517357Y-103971041D01*
X136611179Y-103901742D01*
X136618750Y-103896150D01*
X136649808Y-103854101D01*
X136693641Y-103794757D01*
X136693642Y-103794754D01*
X136699234Y-103787184D01*
X136744119Y-103659369D01*
X136747100Y-103627834D01*
X136747100Y-102620166D01*
X136744119Y-102588631D01*
X136699234Y-102460816D01*
X136693642Y-102453246D01*
X136693641Y-102453243D01*
X136624342Y-102359421D01*
X136618750Y-102351850D01*
X136556623Y-102305962D01*
X136517357Y-102276959D01*
X136517354Y-102276958D01*
X136509784Y-102271366D01*
X136381969Y-102226481D01*
X136374323Y-102225758D01*
X136374322Y-102225758D01*
X136368352Y-102225194D01*
X136350434Y-102223500D01*
X135717766Y-102223500D01*
X135699848Y-102225194D01*
X135693878Y-102225758D01*
X135693877Y-102225758D01*
X135686231Y-102226481D01*
X135558416Y-102271366D01*
X135550846Y-102276958D01*
X135550843Y-102276959D01*
X135511577Y-102305962D01*
X135449450Y-102351850D01*
X135443858Y-102359421D01*
X135374559Y-102453243D01*
X135374558Y-102453246D01*
X135368966Y-102460816D01*
X135324081Y-102588631D01*
X135323358Y-102596277D01*
X135323358Y-102596278D01*
X135322046Y-102610158D01*
X135295721Y-102676094D01*
X135237928Y-102717331D01*
X135196605Y-102724300D01*
X134868022Y-102724300D01*
X134799901Y-102704298D01*
X134753408Y-102650642D01*
X134744949Y-102625300D01*
X134744242Y-102622075D01*
X134743519Y-102614431D01*
X134740977Y-102607192D01*
X134740976Y-102607188D01*
X134701753Y-102495499D01*
X134698634Y-102486616D01*
X134693042Y-102479046D01*
X134693041Y-102479043D01*
X134623742Y-102385221D01*
X134618150Y-102377650D01*
X134575649Y-102346258D01*
X134516757Y-102302759D01*
X134516754Y-102302758D01*
X134509184Y-102297166D01*
X134381369Y-102252281D01*
X134373723Y-102251558D01*
X134373722Y-102251558D01*
X134367752Y-102250994D01*
X134349834Y-102249300D01*
X133742166Y-102249300D01*
X133724248Y-102250994D01*
X133718278Y-102251558D01*
X133718277Y-102251558D01*
X133710631Y-102252281D01*
X133582816Y-102297166D01*
X133575246Y-102302758D01*
X133575243Y-102302759D01*
X133516351Y-102346258D01*
X133473850Y-102377650D01*
X133468258Y-102385221D01*
X133466072Y-102387407D01*
X133403760Y-102421433D01*
X133332945Y-102416368D01*
X133276109Y-102373821D01*
X133251298Y-102307301D01*
X133250978Y-102298853D01*
X133250971Y-102297166D01*
X133241931Y-100190954D01*
X133261641Y-100122750D01*
X133315096Y-100076027D01*
X133385326Y-100065622D01*
X133450033Y-100094837D01*
X133489487Y-100157251D01*
X133514843Y-100250189D01*
X133543087Y-100315326D01*
X133619722Y-100439780D01*
X134187737Y-101121398D01*
X134189401Y-101123111D01*
X134189412Y-101123123D01*
X134240548Y-101175757D01*
X134242223Y-101177481D01*
X134244014Y-101179063D01*
X134244023Y-101179072D01*
X134262359Y-101195272D01*
X134270898Y-101202816D01*
X134333276Y-101249982D01*
X134466225Y-101310698D01*
X134476013Y-101313572D01*
X134530023Y-101329431D01*
X134530027Y-101329432D01*
X134534346Y-101330700D01*
X134538795Y-101331340D01*
X134538801Y-101331341D01*
X134674568Y-101350861D01*
X134674573Y-101350861D01*
X134679015Y-101351500D01*
X137413500Y-101351500D01*
X137481621Y-101371502D01*
X137528114Y-101425158D01*
X137539500Y-101477500D01*
X137539500Y-102127258D01*
X137519498Y-102195379D01*
X137465842Y-102241872D01*
X137455255Y-102246138D01*
X137383416Y-102271366D01*
X137375846Y-102276958D01*
X137375843Y-102276959D01*
X137336577Y-102305962D01*
X137274450Y-102351850D01*
X137268858Y-102359421D01*
X137199559Y-102453243D01*
X137199558Y-102453246D01*
X137193966Y-102460816D01*
X137149081Y-102588631D01*
X137146100Y-102620166D01*
X137146100Y-103627834D01*
X137149081Y-103659369D01*
X137193966Y-103787184D01*
X137199558Y-103794754D01*
X137199559Y-103794757D01*
X137243392Y-103854101D01*
X137274450Y-103896150D01*
X137282021Y-103901742D01*
X137375843Y-103971041D01*
X137375846Y-103971042D01*
X137383416Y-103976634D01*
X137511231Y-104021519D01*
X137518877Y-104022242D01*
X137518878Y-104022242D01*
X137524848Y-104022806D01*
X137542766Y-104024500D01*
X138175434Y-104024500D01*
X138193352Y-104022806D01*
X138199322Y-104022242D01*
X138199323Y-104022242D01*
X138206969Y-104021519D01*
X138334784Y-103976634D01*
X138342354Y-103971042D01*
X138342357Y-103971041D01*
X138436179Y-103901742D01*
X138443750Y-103896150D01*
X138474808Y-103854101D01*
X138518641Y-103794757D01*
X138518642Y-103794754D01*
X138524234Y-103787184D01*
X138569119Y-103659369D01*
X138572100Y-103627834D01*
X138572100Y-102620166D01*
X138569119Y-102588631D01*
X138524234Y-102460816D01*
X138518642Y-102453246D01*
X138518641Y-102453243D01*
X138465149Y-102380822D01*
X138440766Y-102314143D01*
X138440500Y-102305962D01*
X138440500Y-101477500D01*
X138460502Y-101409379D01*
X138514158Y-101362886D01*
X138566500Y-101351500D01*
X157944768Y-101351500D01*
X157945467Y-101351484D01*
X157945493Y-101351484D01*
X157967083Y-101350999D01*
X157967122Y-101350998D01*
X157967819Y-101350982D01*
X157979124Y-101350474D01*
X157979828Y-101350427D01*
X157979873Y-101350424D01*
X157996946Y-101349272D01*
X157996947Y-101349272D01*
X158002148Y-101348921D01*
X158007219Y-101347719D01*
X158007222Y-101347719D01*
X158084404Y-101329431D01*
X158144368Y-101315223D01*
X158169590Y-101305282D01*
X158206225Y-101290843D01*
X158206232Y-101290840D01*
X158210420Y-101289189D01*
X158337384Y-101216790D01*
X158340933Y-101214030D01*
X158340937Y-101214027D01*
X159395514Y-100393800D01*
X159395516Y-100393799D01*
X159397616Y-100392165D01*
X159461395Y-100333261D01*
X159477787Y-100315326D01*
X159488236Y-100303894D01*
X159488242Y-100303887D01*
X159490036Y-100301924D01*
X159533187Y-100245844D01*
X159538609Y-100238798D01*
X159538611Y-100238795D01*
X159542982Y-100233114D01*
X159603698Y-100100165D01*
X159623700Y-100032044D01*
X159644500Y-99887375D01*
X159644500Y-94153610D01*
X159643288Y-94118351D01*
X159642100Y-94101090D01*
X159638471Y-94066002D01*
X159598047Y-93925546D01*
X159596203Y-93921450D01*
X159596200Y-93921442D01*
X159570750Y-93864914D01*
X159568901Y-93860807D01*
X159490544Y-93737428D01*
X158796592Y-92927818D01*
X158744028Y-92874829D01*
X158742302Y-92873325D01*
X158742290Y-92873314D01*
X158718222Y-92852346D01*
X158718221Y-92852345D01*
X158716483Y-92850831D01*
X158662219Y-92810095D01*
X158662214Y-92810092D01*
X158656787Y-92806018D01*
X158523838Y-92745302D01*
X158489723Y-92735285D01*
X158460040Y-92726569D01*
X158460036Y-92726568D01*
X158455717Y-92725300D01*
X158451268Y-92724660D01*
X158451262Y-92724659D01*
X158315495Y-92705139D01*
X158315490Y-92705139D01*
X158311048Y-92704500D01*
X143281993Y-92704500D01*
X143213872Y-92684498D01*
X143189408Y-92663963D01*
X142923634Y-92376041D01*
X142024915Y-91402428D01*
X141993407Y-91338807D01*
X141991500Y-91316966D01*
X141991500Y-91154440D01*
X154424570Y-91154440D01*
X154431015Y-91252772D01*
X154438609Y-91368631D01*
X154439000Y-91374604D01*
X154440421Y-91380200D01*
X154440422Y-91380205D01*
X154491890Y-91582857D01*
X154493311Y-91588452D01*
X154495728Y-91593694D01*
X154495728Y-91593695D01*
X154536171Y-91681422D01*
X154585683Y-91788821D01*
X154713022Y-91969002D01*
X154871064Y-92122961D01*
X154875860Y-92126166D01*
X154875863Y-92126168D01*
X154960061Y-92182427D01*
X155054517Y-92245540D01*
X155059820Y-92247818D01*
X155059823Y-92247820D01*
X155196968Y-92306742D01*
X155257236Y-92332635D01*
X155336888Y-92350658D01*
X155466795Y-92380054D01*
X155466801Y-92380055D01*
X155472432Y-92381329D01*
X155478203Y-92381556D01*
X155478205Y-92381556D01*
X155546011Y-92384220D01*
X155692898Y-92389991D01*
X155802075Y-92374161D01*
X155905538Y-92359160D01*
X155905543Y-92359159D01*
X155911252Y-92358331D01*
X155916716Y-92356476D01*
X155916721Y-92356475D01*
X156114707Y-92289268D01*
X156114712Y-92289266D01*
X156120179Y-92287410D01*
X156312684Y-92179602D01*
X156482318Y-92038518D01*
X156544056Y-91964287D01*
X156619708Y-91873326D01*
X156619710Y-91873323D01*
X156623402Y-91868884D01*
X156688406Y-91752812D01*
X156728386Y-91681422D01*
X156728387Y-91681420D01*
X156731210Y-91676379D01*
X156733066Y-91670912D01*
X156733068Y-91670907D01*
X156800275Y-91472921D01*
X156800276Y-91472916D01*
X156802131Y-91467452D01*
X156802959Y-91461743D01*
X156802960Y-91461738D01*
X156833258Y-91252772D01*
X156833791Y-91249098D01*
X156835443Y-91186000D01*
X156815254Y-90966289D01*
X156810734Y-90950260D01*
X156756934Y-90759500D01*
X156755365Y-90753936D01*
X156657780Y-90556053D01*
X156654038Y-90551041D01*
X156529220Y-90383891D01*
X156529220Y-90383890D01*
X156525767Y-90379267D01*
X156382266Y-90246616D01*
X156367989Y-90233418D01*
X156367986Y-90233416D01*
X156363749Y-90229499D01*
X156177150Y-90111764D01*
X155972221Y-90030006D01*
X155966561Y-90028880D01*
X155966557Y-90028879D01*
X155761491Y-89988089D01*
X155761488Y-89988089D01*
X155755824Y-89986962D01*
X155750049Y-89986886D01*
X155750045Y-89986886D01*
X155639304Y-89985437D01*
X155535206Y-89984074D01*
X155529509Y-89985053D01*
X155529508Y-89985053D01*
X155323454Y-90020459D01*
X155323453Y-90020459D01*
X155317757Y-90021438D01*
X155110757Y-90097804D01*
X154921141Y-90210614D01*
X154755257Y-90356090D01*
X154618663Y-90529360D01*
X154515931Y-90724620D01*
X154450503Y-90935333D01*
X154424570Y-91154440D01*
X141991500Y-91154440D01*
X141991500Y-86154440D01*
X154424570Y-86154440D01*
X154439000Y-86374604D01*
X154440421Y-86380200D01*
X154440422Y-86380205D01*
X154491890Y-86582857D01*
X154493311Y-86588452D01*
X154495728Y-86593694D01*
X154495728Y-86593695D01*
X154533846Y-86676379D01*
X154585683Y-86788821D01*
X154713022Y-86969002D01*
X154871064Y-87122961D01*
X154875860Y-87126166D01*
X154875863Y-87126168D01*
X154960061Y-87182427D01*
X155054517Y-87245540D01*
X155059820Y-87247818D01*
X155059823Y-87247820D01*
X155163854Y-87292515D01*
X155257236Y-87332635D01*
X155336888Y-87350658D01*
X155466795Y-87380054D01*
X155466801Y-87380055D01*
X155472432Y-87381329D01*
X155478203Y-87381556D01*
X155478205Y-87381556D01*
X155546011Y-87384220D01*
X155692898Y-87389991D01*
X155802075Y-87374161D01*
X155905538Y-87359160D01*
X155905543Y-87359159D01*
X155911252Y-87358331D01*
X155916716Y-87356476D01*
X155916721Y-87356475D01*
X156114707Y-87289268D01*
X156114712Y-87289266D01*
X156120179Y-87287410D01*
X156140427Y-87276071D01*
X156200675Y-87242330D01*
X156312684Y-87179602D01*
X156482318Y-87038518D01*
X156623402Y-86868884D01*
X156731210Y-86676379D01*
X156733066Y-86670912D01*
X156733068Y-86670907D01*
X156800275Y-86472921D01*
X156800276Y-86472916D01*
X156802131Y-86467452D01*
X156802959Y-86461743D01*
X156802960Y-86461738D01*
X156833258Y-86252772D01*
X156833791Y-86249098D01*
X156835443Y-86186000D01*
X156815254Y-85966289D01*
X156755365Y-85753936D01*
X156657780Y-85556053D01*
X156525767Y-85379267D01*
X156363749Y-85229499D01*
X156177150Y-85111764D01*
X155972221Y-85030006D01*
X155966561Y-85028880D01*
X155966557Y-85028879D01*
X155761491Y-84988089D01*
X155761488Y-84988089D01*
X155755824Y-84986962D01*
X155750049Y-84986886D01*
X155750045Y-84986886D01*
X155639304Y-84985437D01*
X155535206Y-84984074D01*
X155529509Y-84985053D01*
X155529508Y-84985053D01*
X155323454Y-85020459D01*
X155323453Y-85020459D01*
X155317757Y-85021438D01*
X155110757Y-85097804D01*
X154921141Y-85210614D01*
X154755257Y-85356090D01*
X154618663Y-85529360D01*
X154515931Y-85724620D01*
X154450503Y-85935333D01*
X154424570Y-86154440D01*
X141991500Y-86154440D01*
X141991500Y-81154440D01*
X154424570Y-81154440D01*
X154439000Y-81374604D01*
X154440421Y-81380200D01*
X154440422Y-81380205D01*
X154491890Y-81582857D01*
X154493311Y-81588452D01*
X154495728Y-81593694D01*
X154495728Y-81593695D01*
X154533846Y-81676379D01*
X154585683Y-81788821D01*
X154713022Y-81969002D01*
X154871064Y-82122961D01*
X154875860Y-82126166D01*
X154875863Y-82126168D01*
X154960061Y-82182427D01*
X155054517Y-82245540D01*
X155059820Y-82247818D01*
X155059823Y-82247820D01*
X155231919Y-82321758D01*
X155257236Y-82332635D01*
X155307767Y-82344069D01*
X155466795Y-82380054D01*
X155466801Y-82380055D01*
X155472432Y-82381329D01*
X155478203Y-82381556D01*
X155478205Y-82381556D01*
X155546011Y-82384220D01*
X155692898Y-82389991D01*
X155802075Y-82374161D01*
X155905538Y-82359160D01*
X155905543Y-82359159D01*
X155911252Y-82358331D01*
X155916716Y-82356476D01*
X155916721Y-82356475D01*
X156114707Y-82289268D01*
X156114712Y-82289266D01*
X156120179Y-82287410D01*
X156312684Y-82179602D01*
X156482318Y-82038518D01*
X156623402Y-81868884D01*
X156731210Y-81676379D01*
X156733066Y-81670912D01*
X156733068Y-81670907D01*
X156800275Y-81472921D01*
X156800276Y-81472916D01*
X156802131Y-81467452D01*
X156802959Y-81461743D01*
X156802960Y-81461738D01*
X156833258Y-81252772D01*
X156833791Y-81249098D01*
X156835443Y-81186000D01*
X156815254Y-80966289D01*
X156755365Y-80753936D01*
X156657780Y-80556053D01*
X156525767Y-80379267D01*
X156363749Y-80229499D01*
X156177150Y-80111764D01*
X155972221Y-80030006D01*
X155966561Y-80028880D01*
X155966557Y-80028879D01*
X155761491Y-79988089D01*
X155761488Y-79988089D01*
X155755824Y-79986962D01*
X155750049Y-79986886D01*
X155750045Y-79986886D01*
X155639304Y-79985437D01*
X155535206Y-79984074D01*
X155529509Y-79985053D01*
X155529508Y-79985053D01*
X155323454Y-80020459D01*
X155323453Y-80020459D01*
X155317757Y-80021438D01*
X155110757Y-80097804D01*
X154921141Y-80210614D01*
X154755257Y-80356090D01*
X154618663Y-80529360D01*
X154515931Y-80724620D01*
X154450503Y-80935333D01*
X154424570Y-81154440D01*
X141991500Y-81154440D01*
X141991500Y-79198873D01*
X141989773Y-79186055D01*
X141973736Y-79067088D01*
X141973173Y-79062911D01*
X141955506Y-78998568D01*
X141901832Y-78872307D01*
X141896351Y-78865511D01*
X141896348Y-78865507D01*
X141866955Y-78829066D01*
X141839756Y-78763486D01*
X141852330Y-78693612D01*
X141900685Y-78641628D01*
X141964964Y-78623961D01*
X143675014Y-78623087D01*
X152488004Y-78618584D01*
X152548692Y-78634127D01*
X153391148Y-79096511D01*
X153394612Y-79098412D01*
X153398290Y-79099866D01*
X153465016Y-79126244D01*
X153514153Y-79145669D01*
X153517991Y-79146653D01*
X153517994Y-79146654D01*
X153570942Y-79160229D01*
X153570946Y-79160230D01*
X153574777Y-79161212D01*
X153619065Y-79166799D01*
X153698379Y-79176805D01*
X153698383Y-79176805D01*
X153702305Y-79177300D01*
X158479367Y-79177300D01*
X158525549Y-79172531D01*
X158581058Y-79166799D01*
X158581064Y-79166798D01*
X158584299Y-79166464D01*
X158587480Y-79165800D01*
X158587486Y-79165799D01*
X158631533Y-79156604D01*
X158631537Y-79156603D01*
X158634708Y-79155941D01*
X158735215Y-79123890D01*
X158741803Y-79119811D01*
X158741805Y-79119810D01*
X158855647Y-79049322D01*
X158855648Y-79049321D01*
X158859481Y-79046948D01*
X158913910Y-79001363D01*
X159011463Y-78892531D01*
X159918096Y-77532582D01*
X159976496Y-77408856D01*
X159980325Y-77400743D01*
X159980326Y-77400742D01*
X159982304Y-77396550D01*
X160003466Y-77326658D01*
X160025500Y-77177851D01*
X160025500Y-73162655D01*
X160025570Y-73158457D01*
X160150329Y-69415701D01*
X160150329Y-69415691D01*
X160150394Y-69413742D01*
X160148581Y-69350264D01*
X160145772Y-69319285D01*
X160136133Y-69256497D01*
X160100287Y-69160393D01*
X160086627Y-69123770D01*
X160086626Y-69123768D01*
X160085055Y-69119556D01*
X160051029Y-69057244D01*
X160044873Y-69049020D01*
X159966140Y-68943847D01*
X159966136Y-68943843D01*
X159963443Y-68940245D01*
X159023004Y-67999806D01*
X158982123Y-67963083D01*
X158961149Y-67946180D01*
X158955306Y-67941966D01*
X158921570Y-67917638D01*
X158921565Y-67917635D01*
X158916549Y-67914018D01*
X158783600Y-67853302D01*
X158759846Y-67846327D01*
X158719802Y-67834569D01*
X158719798Y-67834568D01*
X158715479Y-67833300D01*
X158711030Y-67832660D01*
X158711024Y-67832659D01*
X158575257Y-67813139D01*
X158575252Y-67813139D01*
X158570810Y-67812500D01*
X153590343Y-67812500D01*
X153589212Y-67812542D01*
X153589199Y-67812542D01*
X153553650Y-67813855D01*
X153553643Y-67813855D01*
X153552462Y-67813899D01*
X153544265Y-67814505D01*
X153535073Y-67815185D01*
X153535057Y-67815186D01*
X153533928Y-67815270D01*
X153496279Y-67819456D01*
X153356242Y-67861310D01*
X153291805Y-67891114D01*
X153288034Y-67893563D01*
X153288029Y-67893566D01*
X153179279Y-67964200D01*
X153169230Y-67970727D01*
X152231886Y-68790903D01*
X152230349Y-68792451D01*
X152230346Y-68792454D01*
X152182695Y-68840451D01*
X152182686Y-68840461D01*
X152181136Y-68842022D01*
X152158110Y-68868726D01*
X152156799Y-68870482D01*
X152156790Y-68870493D01*
X152119034Y-68921058D01*
X152115018Y-68926437D01*
X152054302Y-69059386D01*
X152053034Y-69063705D01*
X152036635Y-69119556D01*
X152034300Y-69127507D01*
X152033660Y-69131956D01*
X152033659Y-69131962D01*
X152015754Y-69256497D01*
X152013500Y-69272176D01*
X152013500Y-71757352D01*
X151993498Y-71825473D01*
X151935178Y-71873983D01*
X151428865Y-72080959D01*
X151381449Y-72090328D01*
X102645402Y-72191545D01*
X102645391Y-72191545D01*
X102643186Y-72191550D01*
X102571365Y-72196748D01*
X102536475Y-72201751D01*
X102534316Y-72202217D01*
X102534305Y-72202219D01*
X102500610Y-72209493D01*
X102466092Y-72216944D01*
X102332971Y-72277282D01*
X102329185Y-72279700D01*
X102329183Y-72279701D01*
X102276926Y-72313075D01*
X102276921Y-72313078D01*
X102273136Y-72315496D01*
X102162408Y-72410892D01*
X101245749Y-73462712D01*
X101244850Y-73463846D01*
X101244846Y-73463850D01*
X101217186Y-73498714D01*
X101217173Y-73498732D01*
X101216287Y-73499848D01*
X101202700Y-73518700D01*
X101176791Y-73558390D01*
X101121310Y-73693608D01*
X101103982Y-73762457D01*
X101088844Y-73907830D01*
X101147623Y-75412600D01*
X101148406Y-75432643D01*
X101211739Y-77053958D01*
X101218396Y-77118702D01*
X101223659Y-77150139D01*
X101238450Y-77213512D01*
X101300107Y-77346028D01*
X101338913Y-77405480D01*
X101341877Y-77408852D01*
X101341880Y-77408856D01*
X101432439Y-77511881D01*
X101435406Y-77515256D01*
X102577313Y-78490635D01*
X102604644Y-78512416D01*
X102618412Y-78522642D01*
X102647195Y-78542535D01*
X102738038Y-78583966D01*
X102776073Y-78601312D01*
X102776076Y-78601313D01*
X102780176Y-78603183D01*
X102784496Y-78604449D01*
X102784504Y-78604452D01*
X102827031Y-78616915D01*
X102848307Y-78623150D01*
X102948349Y-78637482D01*
X102988530Y-78643238D01*
X102988533Y-78643238D01*
X102992985Y-78643876D01*
X102997483Y-78643874D01*
X102997487Y-78643874D01*
X106686656Y-78641989D01*
X111831637Y-78639359D01*
X111899767Y-78659326D01*
X111946287Y-78712958D01*
X111957700Y-78765359D01*
X111957700Y-82831967D01*
X111957751Y-82833234D01*
X111957751Y-82833249D01*
X111959292Y-82871749D01*
X111959342Y-82872996D01*
X111959442Y-82874238D01*
X111960851Y-82891828D01*
X111960854Y-82891854D01*
X111960951Y-82893069D01*
X111965867Y-82933847D01*
X112009450Y-83073355D01*
X112011387Y-83077410D01*
X112011388Y-83077413D01*
X112017788Y-83090812D01*
X112040049Y-83137419D01*
X112042545Y-83141159D01*
X112042545Y-83141160D01*
X112118670Y-83255253D01*
X112118674Y-83255258D01*
X112121168Y-83258996D01*
X112124172Y-83262345D01*
X112124173Y-83262346D01*
X112398646Y-83568316D01*
X116444291Y-88078214D01*
X116474889Y-88142277D01*
X116465994Y-88212715D01*
X116420431Y-88267161D01*
X116350125Y-88288349D01*
X116001856Y-88287319D01*
X115598526Y-88286126D01*
X115530466Y-88265923D01*
X115484132Y-88212130D01*
X115472900Y-88160127D01*
X115472900Y-87853220D01*
X115473773Y-87838411D01*
X115476657Y-87814043D01*
X115477764Y-87804690D01*
X115467228Y-87746999D01*
X115466578Y-87743096D01*
X115459250Y-87694355D01*
X115459250Y-87694354D01*
X115457849Y-87685038D01*
X115454721Y-87678525D01*
X115453425Y-87671427D01*
X115426375Y-87619353D01*
X115424625Y-87615850D01*
X115403285Y-87571410D01*
X115399209Y-87562921D01*
X115394323Y-87557635D01*
X115394290Y-87557587D01*
X115390979Y-87551212D01*
X115386675Y-87546172D01*
X115349448Y-87508945D01*
X115346018Y-87505379D01*
X115313646Y-87470359D01*
X115307254Y-87463444D01*
X115300895Y-87459751D01*
X115294737Y-87454234D01*
X110299353Y-82458850D01*
X110289499Y-82447761D01*
X110274307Y-82428491D01*
X110274305Y-82428489D01*
X110268472Y-82421090D01*
X110260725Y-82415735D01*
X110260723Y-82415734D01*
X110223475Y-82389991D01*
X110220215Y-82387738D01*
X110217003Y-82385443D01*
X110177358Y-82356160D01*
X110177357Y-82356159D01*
X110169784Y-82350566D01*
X110162968Y-82348173D01*
X110157031Y-82344069D01*
X110148051Y-82341229D01*
X110148049Y-82341228D01*
X110124909Y-82333910D01*
X110101081Y-82326374D01*
X110097350Y-82325129D01*
X110050863Y-82308804D01*
X110050861Y-82308804D01*
X110041969Y-82305681D01*
X110034781Y-82305399D01*
X110034722Y-82305388D01*
X110027870Y-82303220D01*
X110021263Y-82302700D01*
X109968584Y-82302700D01*
X109963637Y-82302603D01*
X109906606Y-82300362D01*
X109899500Y-82302246D01*
X109891253Y-82302700D01*
X100415020Y-82302700D01*
X100400211Y-82301827D01*
X100375843Y-82298943D01*
X100366490Y-82297836D01*
X100357226Y-82299528D01*
X100357222Y-82299528D01*
X100308789Y-82308373D01*
X100304888Y-82309022D01*
X100256155Y-82316349D01*
X100256147Y-82316351D01*
X100246838Y-82317751D01*
X100240328Y-82320877D01*
X100233227Y-82322174D01*
X100224872Y-82326514D01*
X100181163Y-82349218D01*
X100177625Y-82350986D01*
X100133211Y-82372314D01*
X100124721Y-82376391D01*
X100119435Y-82381278D01*
X100119395Y-82381305D01*
X100113012Y-82384620D01*
X100107972Y-82388925D01*
X100070745Y-82426152D01*
X100067180Y-82429581D01*
X100025244Y-82468346D01*
X100021551Y-82474705D01*
X100016034Y-82480863D01*
X99807650Y-82689247D01*
X99796561Y-82699101D01*
X99777291Y-82714293D01*
X99777289Y-82714295D01*
X99769890Y-82720128D01*
X99764535Y-82727875D01*
X99764534Y-82727877D01*
X99736545Y-82768375D01*
X99734250Y-82771587D01*
X99699366Y-82818816D01*
X99696973Y-82825632D01*
X99692869Y-82831569D01*
X99679375Y-82874238D01*
X99675182Y-82887495D01*
X99673929Y-82891250D01*
X99654481Y-82946631D01*
X99654199Y-82953819D01*
X99654188Y-82953878D01*
X99652020Y-82960730D01*
X99651500Y-82967337D01*
X99651500Y-83020016D01*
X99651403Y-83024962D01*
X99649162Y-83081994D01*
X99651046Y-83089100D01*
X99651500Y-83097347D01*
X99651500Y-94174980D01*
X99650627Y-94189789D01*
X99646636Y-94223510D01*
X99648328Y-94232774D01*
X99648328Y-94232775D01*
X99657172Y-94281201D01*
X99657822Y-94285104D01*
X99666551Y-94343162D01*
X99669679Y-94349675D01*
X99670975Y-94356773D01*
X99698025Y-94408847D01*
X99699768Y-94412337D01*
X99725191Y-94465279D01*
X99730077Y-94470565D01*
X99730110Y-94470613D01*
X99733421Y-94476988D01*
X99737725Y-94482028D01*
X99774952Y-94519255D01*
X99778381Y-94522820D01*
X99817146Y-94564756D01*
X99823505Y-94568449D01*
X99829663Y-94573966D01*
X101543047Y-96287350D01*
X101552901Y-96298439D01*
X101568093Y-96317709D01*
X101573928Y-96325110D01*
X101581675Y-96330465D01*
X101581677Y-96330466D01*
X101622175Y-96358455D01*
X101625387Y-96360750D01*
X101672616Y-96395634D01*
X101679432Y-96398027D01*
X101685369Y-96402131D01*
X101694349Y-96404971D01*
X101694351Y-96404972D01*
X101714517Y-96411350D01*
X101741319Y-96419826D01*
X101745050Y-96421071D01*
X101791537Y-96437396D01*
X101791539Y-96437396D01*
X101800431Y-96440519D01*
X101807619Y-96440801D01*
X101807678Y-96440812D01*
X101814530Y-96442980D01*
X101821137Y-96443500D01*
X101873816Y-96443500D01*
X101878762Y-96443597D01*
X101935794Y-96445838D01*
X101942900Y-96443954D01*
X101951144Y-96443500D01*
X105588800Y-96443500D01*
X105656921Y-96463502D01*
X105703414Y-96517158D01*
X105714800Y-96569500D01*
X105714800Y-99796600D01*
X105728749Y-99796422D01*
X105728750Y-99796422D01*
X105772835Y-99795858D01*
X105792475Y-99795607D01*
X105860846Y-99814737D01*
X105881962Y-99831533D01*
X105886850Y-99838150D01*
X105894421Y-99843742D01*
X105894424Y-99843745D01*
X105949759Y-99884616D01*
X105992670Y-99941177D01*
X106000900Y-99985967D01*
X106000900Y-100752980D01*
X106000027Y-100767789D01*
X105996036Y-100801510D01*
X105997728Y-100810774D01*
X105997728Y-100810775D01*
X106006572Y-100859201D01*
X106007222Y-100863104D01*
X106015951Y-100921162D01*
X106019079Y-100927675D01*
X106020375Y-100934773D01*
X106047425Y-100986847D01*
X106049168Y-100990337D01*
X106074591Y-101043279D01*
X106079477Y-101048565D01*
X106079510Y-101048613D01*
X106082821Y-101054988D01*
X106087125Y-101060028D01*
X106124352Y-101097255D01*
X106127781Y-101100820D01*
X106166546Y-101142756D01*
X106172905Y-101146449D01*
X106179063Y-101151966D01*
X107372195Y-102345098D01*
X107406221Y-102407410D01*
X107409100Y-102434193D01*
X107409100Y-108282580D01*
X107408227Y-108297389D01*
X107404236Y-108331110D01*
X107405928Y-108340374D01*
X107405928Y-108340375D01*
X107414772Y-108388801D01*
X107415422Y-108392704D01*
X107424151Y-108450762D01*
X107427279Y-108457275D01*
X107428575Y-108464373D01*
X107455625Y-108516447D01*
X107457368Y-108519937D01*
X107482791Y-108572879D01*
X107487677Y-108578165D01*
X107487710Y-108578213D01*
X107491021Y-108584588D01*
X107495325Y-108589628D01*
X107532552Y-108626855D01*
X107535981Y-108630420D01*
X107574746Y-108672356D01*
X107581105Y-108676049D01*
X107587263Y-108681566D01*
X109240595Y-110334898D01*
X109274621Y-110397210D01*
X109277500Y-110423993D01*
X109277500Y-119015580D01*
X109276627Y-119030389D01*
X109272636Y-119064110D01*
X109274328Y-119073374D01*
X109274328Y-119073375D01*
X109283172Y-119121801D01*
X109283822Y-119125704D01*
X109292551Y-119183762D01*
X109295679Y-119190275D01*
X109296975Y-119197373D01*
X109324025Y-119249447D01*
X109325768Y-119252937D01*
X109351191Y-119305879D01*
X109356077Y-119311165D01*
X109356110Y-119311213D01*
X109359421Y-119317588D01*
X109363725Y-119322628D01*
X109400952Y-119359855D01*
X109404381Y-119363420D01*
X109443146Y-119405356D01*
X109449505Y-119409049D01*
X109455663Y-119414566D01*
X111036247Y-120995150D01*
X111046101Y-121006239D01*
X111061294Y-121025511D01*
X111061298Y-121025515D01*
X111067128Y-121032910D01*
X111074875Y-121038264D01*
X111074879Y-121038268D01*
X111115404Y-121066277D01*
X111118598Y-121068558D01*
X111165817Y-121103435D01*
X111172634Y-121105829D01*
X111178569Y-121109931D01*
X111187544Y-121112769D01*
X111187545Y-121112770D01*
X111209507Y-121119715D01*
X111234475Y-121127612D01*
X111238215Y-121128860D01*
X111284745Y-121145200D01*
X111284748Y-121145201D01*
X111293631Y-121148320D01*
X111300816Y-121148603D01*
X111300889Y-121148617D01*
X111307730Y-121150780D01*
X111314337Y-121151300D01*
X111366991Y-121151300D01*
X111371937Y-121151397D01*
X111428994Y-121153639D01*
X111436103Y-121151754D01*
X111444352Y-121151300D01*
X152035580Y-121151300D01*
X152050389Y-121152173D01*
X152084110Y-121156164D01*
X152093374Y-121154472D01*
X152093375Y-121154472D01*
X152141801Y-121145628D01*
X152145704Y-121144978D01*
X152194445Y-121137650D01*
X152194446Y-121137650D01*
X152203762Y-121136249D01*
X152210275Y-121133121D01*
X152217373Y-121131825D01*
X152269447Y-121104775D01*
X152272937Y-121103032D01*
X152325879Y-121077609D01*
X152331165Y-121072723D01*
X152331213Y-121072690D01*
X152337588Y-121069379D01*
X152342628Y-121065075D01*
X152379855Y-121027848D01*
X152383421Y-121024418D01*
X152418441Y-120992046D01*
X152425356Y-120985654D01*
X152429049Y-120979295D01*
X152434566Y-120973137D01*
X156222298Y-117185405D01*
X156284610Y-117151379D01*
X156311393Y-117148500D01*
X162722672Y-117148500D01*
X162790793Y-117168502D01*
X162834739Y-117216907D01*
X162847944Y-117242601D01*
X162969818Y-117396369D01*
X162974511Y-117400363D01*
X162974512Y-117400364D01*
X162986601Y-117410652D01*
X163119238Y-117523535D01*
X163124616Y-117526541D01*
X163124618Y-117526542D01*
X163160932Y-117546837D01*
X163290513Y-117619257D01*
X163477118Y-117679889D01*
X163671946Y-117703121D01*
X163678081Y-117702649D01*
X163678083Y-117702649D01*
X163861434Y-117688541D01*
X163861438Y-117688540D01*
X163867576Y-117688068D01*
X164056556Y-117635303D01*
X164231689Y-117546837D01*
X164261515Y-117523535D01*
X164381453Y-117429829D01*
X164386303Y-117426040D01*
X164399586Y-117410652D01*
X164510485Y-117282173D01*
X164510485Y-117282172D01*
X164514509Y-117277511D01*
X164531598Y-117247430D01*
X164608378Y-117112272D01*
X164611425Y-117106909D01*
X164625139Y-117065684D01*
X164665621Y-117007359D01*
X164731209Y-116980180D01*
X164801080Y-116992775D01*
X164853049Y-117041145D01*
X164870678Y-117103264D01*
X164901244Y-118860794D01*
X164902388Y-118926582D01*
X164883573Y-118995040D01*
X164830734Y-119042459D01*
X164760647Y-119053783D01*
X164695563Y-119025418D01*
X164655785Y-118965191D01*
X164624265Y-118860794D01*
X164622484Y-118854894D01*
X164530370Y-118681653D01*
X164406361Y-118529602D01*
X164255180Y-118404535D01*
X164082585Y-118311213D01*
X163988868Y-118282203D01*
X163901039Y-118255015D01*
X163901036Y-118255014D01*
X163895152Y-118253193D01*
X163889027Y-118252549D01*
X163889026Y-118252549D01*
X163706147Y-118233327D01*
X163706146Y-118233327D01*
X163700019Y-118232683D01*
X163577383Y-118243844D01*
X163510759Y-118249907D01*
X163510758Y-118249907D01*
X163504618Y-118250466D01*
X163498704Y-118252207D01*
X163498702Y-118252207D01*
X163369734Y-118290165D01*
X163316393Y-118305864D01*
X163310928Y-118308721D01*
X163147972Y-118393912D01*
X163147968Y-118393915D01*
X163142512Y-118396767D01*
X163137712Y-118400627D01*
X163137711Y-118400627D01*
X163103326Y-118428273D01*
X162989600Y-118519711D01*
X162863480Y-118670016D01*
X162860516Y-118675408D01*
X162860513Y-118675412D01*
X162785969Y-118811007D01*
X162768956Y-118841954D01*
X162767095Y-118847821D01*
X162767094Y-118847823D01*
X162762217Y-118863197D01*
X162709628Y-119028978D01*
X162687757Y-119223963D01*
X162704175Y-119419483D01*
X162758258Y-119608091D01*
X162761076Y-119613574D01*
X162845123Y-119777113D01*
X162845126Y-119777117D01*
X162847944Y-119782601D01*
X162969818Y-119936369D01*
X163119238Y-120063535D01*
X163124616Y-120066541D01*
X163124618Y-120066542D01*
X163160932Y-120086837D01*
X163290513Y-120159257D01*
X163477118Y-120219889D01*
X163671946Y-120243121D01*
X163678081Y-120242649D01*
X163678083Y-120242649D01*
X163861434Y-120228541D01*
X163861438Y-120228540D01*
X163867576Y-120228068D01*
X164056556Y-120175303D01*
X164231689Y-120086837D01*
X164261515Y-120063535D01*
X164381453Y-119969829D01*
X164386303Y-119966040D01*
X164416084Y-119931539D01*
X164510485Y-119822173D01*
X164510485Y-119822172D01*
X164514509Y-119817511D01*
X164611425Y-119646909D01*
X164667118Y-119479490D01*
X164707599Y-119421166D01*
X164773187Y-119393986D01*
X164843058Y-119406581D01*
X164895028Y-119454951D01*
X164912657Y-119517071D01*
X164941093Y-121152173D01*
X165022586Y-125838007D01*
X165003771Y-125906465D01*
X164965274Y-125945842D01*
X163022852Y-127208416D01*
X162954766Y-127228771D01*
X127066662Y-127394281D01*
X96953654Y-127533157D01*
X96885442Y-127513469D01*
X96863829Y-127496104D01*
X94860369Y-125485936D01*
X94826448Y-125423567D01*
X94823613Y-125396941D01*
X94828476Y-112928400D01*
X104663941Y-112928400D01*
X104684537Y-113163808D01*
X104685961Y-113169122D01*
X104685961Y-113169123D01*
X104735532Y-113354125D01*
X104745697Y-113392063D01*
X104748019Y-113397043D01*
X104748020Y-113397045D01*
X104839874Y-113594024D01*
X104845565Y-113606229D01*
X104981105Y-113799801D01*
X105148199Y-113966895D01*
X105341771Y-114102435D01*
X105346749Y-114104756D01*
X105346752Y-114104758D01*
X105550955Y-114199980D01*
X105555937Y-114202303D01*
X105561245Y-114203725D01*
X105561247Y-114203726D01*
X105778877Y-114262039D01*
X105784192Y-114263463D01*
X105887282Y-114272482D01*
X105957910Y-114278662D01*
X105957917Y-114278662D01*
X105960634Y-114278900D01*
X106078566Y-114278900D01*
X106081283Y-114278662D01*
X106081290Y-114278662D01*
X106151918Y-114272482D01*
X106255008Y-114263463D01*
X106260323Y-114262039D01*
X106477953Y-114203726D01*
X106477955Y-114203725D01*
X106483263Y-114202303D01*
X106488245Y-114199980D01*
X106692448Y-114104758D01*
X106692451Y-114104756D01*
X106697429Y-114102435D01*
X106891001Y-113966895D01*
X107058095Y-113799801D01*
X107061255Y-113795289D01*
X107190478Y-113610739D01*
X107190481Y-113610734D01*
X107193635Y-113606230D01*
X107195958Y-113601248D01*
X107195961Y-113601243D01*
X107291180Y-113397045D01*
X107291181Y-113397044D01*
X107293503Y-113392063D01*
X107303669Y-113354125D01*
X107353239Y-113169123D01*
X107353239Y-113169122D01*
X107354663Y-113163808D01*
X107375259Y-112928400D01*
X107354663Y-112692992D01*
X107293503Y-112464737D01*
X107193635Y-112250571D01*
X107058095Y-112056999D01*
X106891001Y-111889905D01*
X106697429Y-111754365D01*
X106692451Y-111752044D01*
X106692448Y-111752042D01*
X106488245Y-111656820D01*
X106488243Y-111656819D01*
X106483263Y-111654497D01*
X106477955Y-111653075D01*
X106477953Y-111653074D01*
X106260323Y-111594761D01*
X106260322Y-111594761D01*
X106255008Y-111593337D01*
X106151918Y-111584318D01*
X106081290Y-111578138D01*
X106081283Y-111578138D01*
X106078566Y-111577900D01*
X105960634Y-111577900D01*
X105957917Y-111578138D01*
X105957910Y-111578138D01*
X105887282Y-111584318D01*
X105784192Y-111593337D01*
X105778878Y-111594761D01*
X105778877Y-111594761D01*
X105561247Y-111653074D01*
X105561245Y-111653075D01*
X105555937Y-111654497D01*
X105550957Y-111656819D01*
X105550955Y-111656820D01*
X105346752Y-111752042D01*
X105346749Y-111752044D01*
X105341771Y-111754365D01*
X105148199Y-111889905D01*
X104981105Y-112056999D01*
X104977948Y-112061507D01*
X104977946Y-112061510D01*
X104848722Y-112246061D01*
X104845565Y-112250570D01*
X104843242Y-112255552D01*
X104843239Y-112255557D01*
X104748020Y-112459755D01*
X104745697Y-112464737D01*
X104684537Y-112692992D01*
X104663941Y-112928400D01*
X94828476Y-112928400D01*
X94848970Y-60381575D01*
X94868999Y-60313463D01*
X94893241Y-60285727D01*
X100116879Y-55833902D01*
X100181700Y-55804940D01*
X100198608Y-55803800D01*
X157779045Y-55803800D01*
X157847166Y-55823802D01*
G37*
%TD.AperFunction*%
%TA.AperFunction,Conductor*%
G36*
X102312023Y-90914185D02*
G01*
X103022008Y-90917902D01*
X103090023Y-90938260D01*
X103096206Y-90942548D01*
X103128816Y-90966634D01*
X103137703Y-90969755D01*
X103137705Y-90969756D01*
X103233796Y-91003500D01*
X103256631Y-91011519D01*
X103264277Y-91012242D01*
X103264278Y-91012242D01*
X103270248Y-91012806D01*
X103288166Y-91014500D01*
X104295834Y-91014500D01*
X104313752Y-91012806D01*
X104319722Y-91012242D01*
X104319723Y-91012242D01*
X104327369Y-91011519D01*
X104455184Y-90966634D01*
X104462754Y-90961043D01*
X104462761Y-90961039D01*
X104476946Y-90950561D01*
X104543624Y-90926178D01*
X104552460Y-90925914D01*
X105589460Y-90931344D01*
X105657475Y-90951702D01*
X105703686Y-91005601D01*
X105714800Y-91057342D01*
X105714800Y-95416500D01*
X105694798Y-95484621D01*
X105641142Y-95531114D01*
X105588800Y-95542500D01*
X102124593Y-95542500D01*
X102056472Y-95522498D01*
X102035498Y-95505595D01*
X100589405Y-94059502D01*
X100555379Y-93997190D01*
X100552500Y-93970407D01*
X100552500Y-91131196D01*
X100572502Y-91063075D01*
X100626158Y-91016582D01*
X100696432Y-91006478D01*
X100705501Y-91008123D01*
X100709390Y-91008976D01*
X100716631Y-91011519D01*
X100748166Y-91014500D01*
X101755834Y-91014500D01*
X101773752Y-91012806D01*
X101779722Y-91012242D01*
X101779723Y-91012242D01*
X101787369Y-91011519D01*
X101810204Y-91003500D01*
X101906295Y-90969756D01*
X101906297Y-90969755D01*
X101915184Y-90966634D01*
X101954822Y-90937357D01*
X102021500Y-90912974D01*
X102030338Y-90912710D01*
X102312023Y-90914185D01*
G37*
%TD.AperFunction*%
%TD*%
%TA.AperFunction,Conductor*%
%TO.N,GND2*%
G36*
X238474915Y-55569802D02*
G01*
X238491156Y-55582211D01*
X240238946Y-57157684D01*
X240269467Y-57199525D01*
X241413983Y-59740380D01*
X241425100Y-59791995D01*
X241475849Y-107901635D01*
X241468593Y-107943908D01*
X241282874Y-108467242D01*
X240348207Y-111101016D01*
X240336769Y-121891506D01*
X240334849Y-123702636D01*
X240314775Y-123770735D01*
X240304938Y-123784006D01*
X237959388Y-126549286D01*
X237900070Y-126588297D01*
X237863692Y-126593781D01*
X217526239Y-126657053D01*
X180818603Y-126771254D01*
X180750420Y-126751464D01*
X180736251Y-126740955D01*
X178980496Y-125237286D01*
X178941767Y-125177783D01*
X178936456Y-125141537D01*
X178937733Y-121866649D01*
X178938533Y-119814450D01*
X178958562Y-119746338D01*
X179012235Y-119699866D01*
X179064533Y-119688500D01*
X181946072Y-119688500D01*
X182014193Y-119708502D01*
X182060686Y-119762158D01*
X182067965Y-119783965D01*
X182068381Y-119788369D01*
X182113266Y-119916184D01*
X182118858Y-119923754D01*
X182118859Y-119923757D01*
X182181235Y-120008206D01*
X182193750Y-120025150D01*
X182201321Y-120030742D01*
X182295143Y-120100041D01*
X182295146Y-120100042D01*
X182302716Y-120105634D01*
X182430531Y-120150519D01*
X182438177Y-120151242D01*
X182438178Y-120151242D01*
X182444148Y-120151806D01*
X182462066Y-120153500D01*
X183094734Y-120153500D01*
X183112652Y-120151806D01*
X183118622Y-120151242D01*
X183118623Y-120151242D01*
X183126269Y-120150519D01*
X183254084Y-120105634D01*
X183261654Y-120100042D01*
X183261657Y-120100041D01*
X183355479Y-120030742D01*
X183363050Y-120025150D01*
X183375565Y-120008206D01*
X183437941Y-119923757D01*
X183437942Y-119923754D01*
X183443534Y-119916184D01*
X183488419Y-119788369D01*
X183491400Y-119756834D01*
X183890400Y-119756834D01*
X183893381Y-119788369D01*
X183938266Y-119916184D01*
X183943858Y-119923754D01*
X183943859Y-119923757D01*
X184006235Y-120008206D01*
X184018750Y-120025150D01*
X184026321Y-120030742D01*
X184120143Y-120100041D01*
X184120146Y-120100042D01*
X184127716Y-120105634D01*
X184255531Y-120150519D01*
X184263177Y-120151242D01*
X184263178Y-120151242D01*
X184269148Y-120151806D01*
X184287066Y-120153500D01*
X184919734Y-120153500D01*
X184937652Y-120151806D01*
X184943622Y-120151242D01*
X184943623Y-120151242D01*
X184951269Y-120150519D01*
X185079084Y-120105634D01*
X185086654Y-120100042D01*
X185086657Y-120100041D01*
X185180479Y-120030742D01*
X185188050Y-120025150D01*
X185200565Y-120008206D01*
X185262941Y-119923757D01*
X185262942Y-119923754D01*
X185268534Y-119916184D01*
X185313419Y-119788369D01*
X185316527Y-119789460D01*
X185343449Y-119740297D01*
X185405802Y-119706347D01*
X185432437Y-119703500D01*
X187289407Y-119703500D01*
X187357528Y-119723502D01*
X187378502Y-119740405D01*
X189395247Y-121757150D01*
X189405101Y-121768239D01*
X189419433Y-121786418D01*
X189426128Y-121794910D01*
X189433875Y-121800265D01*
X189433877Y-121800266D01*
X189459386Y-121817896D01*
X189472668Y-121827075D01*
X189474375Y-121828255D01*
X189477587Y-121830550D01*
X189524816Y-121865434D01*
X189531632Y-121867827D01*
X189537569Y-121871931D01*
X189546549Y-121874771D01*
X189546551Y-121874772D01*
X189566717Y-121881150D01*
X189593519Y-121889626D01*
X189597250Y-121890871D01*
X189643737Y-121907196D01*
X189643739Y-121907196D01*
X189652631Y-121910319D01*
X189659819Y-121910601D01*
X189659878Y-121910612D01*
X189666730Y-121912780D01*
X189673337Y-121913300D01*
X189726016Y-121913300D01*
X189730962Y-121913397D01*
X189787994Y-121915638D01*
X189795100Y-121913754D01*
X189803347Y-121913300D01*
X209312580Y-121913300D01*
X209327389Y-121914173D01*
X209361110Y-121918164D01*
X209370374Y-121916472D01*
X209370375Y-121916472D01*
X209418801Y-121907628D01*
X209422704Y-121906978D01*
X209471445Y-121899650D01*
X209471446Y-121899650D01*
X209480762Y-121898249D01*
X209487275Y-121895121D01*
X209494373Y-121893825D01*
X209546447Y-121866775D01*
X209549937Y-121865032D01*
X209602879Y-121839609D01*
X209608165Y-121834723D01*
X209608213Y-121834690D01*
X209614588Y-121831379D01*
X209619628Y-121827075D01*
X209656855Y-121789848D01*
X209660421Y-121786418D01*
X209695441Y-121754046D01*
X209702356Y-121747654D01*
X209706049Y-121741295D01*
X209711566Y-121735137D01*
X210758750Y-120687953D01*
X210769839Y-120678099D01*
X210789109Y-120662907D01*
X210789111Y-120662905D01*
X210796510Y-120657072D01*
X210829862Y-120608815D01*
X210832157Y-120605603D01*
X210861440Y-120565958D01*
X210861441Y-120565957D01*
X210867034Y-120558384D01*
X210869427Y-120551568D01*
X210873531Y-120545631D01*
X210891226Y-120489681D01*
X210892471Y-120485950D01*
X210908796Y-120439463D01*
X210908796Y-120439461D01*
X210911919Y-120430569D01*
X210912201Y-120423381D01*
X210912212Y-120423322D01*
X210914380Y-120416470D01*
X210914900Y-120409863D01*
X210914900Y-120357184D01*
X210914997Y-120352237D01*
X210915148Y-120348406D01*
X210917238Y-120295206D01*
X210915354Y-120288100D01*
X210914900Y-120279853D01*
X210914900Y-116052600D01*
X234661141Y-116052600D01*
X234681737Y-116288008D01*
X234742897Y-116516263D01*
X234745219Y-116521243D01*
X234745220Y-116521245D01*
X234810975Y-116662255D01*
X234842765Y-116730429D01*
X234978305Y-116924001D01*
X235145399Y-117091095D01*
X235338971Y-117226635D01*
X235343949Y-117228956D01*
X235343952Y-117228958D01*
X235548155Y-117324180D01*
X235553137Y-117326503D01*
X235558445Y-117327925D01*
X235558447Y-117327926D01*
X235776077Y-117386239D01*
X235781392Y-117387663D01*
X235884482Y-117396682D01*
X235955110Y-117402862D01*
X235955117Y-117402862D01*
X235957834Y-117403100D01*
X236075766Y-117403100D01*
X236078483Y-117402862D01*
X236078490Y-117402862D01*
X236149118Y-117396682D01*
X236252208Y-117387663D01*
X236257523Y-117386239D01*
X236475153Y-117327926D01*
X236475155Y-117327925D01*
X236480463Y-117326503D01*
X236485445Y-117324180D01*
X236689648Y-117228958D01*
X236689651Y-117228956D01*
X236694629Y-117226635D01*
X236888201Y-117091095D01*
X237055295Y-116924001D01*
X237058455Y-116919489D01*
X237187678Y-116734939D01*
X237187681Y-116734934D01*
X237190835Y-116730430D01*
X237193158Y-116725448D01*
X237193161Y-116725443D01*
X237288380Y-116521245D01*
X237288381Y-116521244D01*
X237290703Y-116516263D01*
X237351863Y-116288008D01*
X237372459Y-116052600D01*
X237351863Y-115817192D01*
X237339316Y-115770366D01*
X237292126Y-115594247D01*
X237292125Y-115594245D01*
X237290703Y-115588937D01*
X237207965Y-115411506D01*
X237193158Y-115379752D01*
X237193156Y-115379749D01*
X237190835Y-115374771D01*
X237055295Y-115181199D01*
X236888201Y-115014105D01*
X236694629Y-114878565D01*
X236689651Y-114876244D01*
X236689648Y-114876242D01*
X236485445Y-114781020D01*
X236485443Y-114781019D01*
X236480463Y-114778697D01*
X236475155Y-114777275D01*
X236475153Y-114777274D01*
X236257523Y-114718961D01*
X236257522Y-114718961D01*
X236252208Y-114717537D01*
X236149118Y-114708518D01*
X236078490Y-114702338D01*
X236078483Y-114702338D01*
X236075766Y-114702100D01*
X235957834Y-114702100D01*
X235955117Y-114702338D01*
X235955110Y-114702338D01*
X235884482Y-114708518D01*
X235781392Y-114717537D01*
X235776078Y-114718961D01*
X235776077Y-114718961D01*
X235558447Y-114777274D01*
X235558445Y-114777275D01*
X235553137Y-114778697D01*
X235548157Y-114781019D01*
X235548155Y-114781020D01*
X235343952Y-114876242D01*
X235343949Y-114876244D01*
X235338971Y-114878565D01*
X235145399Y-115014105D01*
X234978305Y-115181199D01*
X234975148Y-115185707D01*
X234975146Y-115185710D01*
X234876193Y-115327030D01*
X234842765Y-115374770D01*
X234840442Y-115379752D01*
X234840439Y-115379757D01*
X234745220Y-115583955D01*
X234742897Y-115588937D01*
X234741475Y-115594245D01*
X234741474Y-115594247D01*
X234694284Y-115770366D01*
X234681737Y-115817192D01*
X234661141Y-116052600D01*
X210914900Y-116052600D01*
X210914900Y-113165819D01*
X210915773Y-113151010D01*
X210918657Y-113126642D01*
X210919764Y-113117289D01*
X210909226Y-113059588D01*
X210908576Y-113055684D01*
X210901249Y-113006948D01*
X210901248Y-113006946D01*
X210899849Y-112997638D01*
X210896722Y-112991125D01*
X210895425Y-112984026D01*
X210888234Y-112970182D01*
X210868382Y-112931963D01*
X210866614Y-112928425D01*
X210845287Y-112884013D01*
X210845287Y-112884012D01*
X210841209Y-112875521D01*
X210836324Y-112870236D01*
X210836292Y-112870189D01*
X210832979Y-112863811D01*
X210828675Y-112858772D01*
X210791448Y-112821545D01*
X210788018Y-112817979D01*
X210781236Y-112810642D01*
X210749254Y-112776044D01*
X210742895Y-112772351D01*
X210736737Y-112766834D01*
X210326453Y-112356550D01*
X210316599Y-112345461D01*
X210301407Y-112326191D01*
X210301405Y-112326189D01*
X210295572Y-112318790D01*
X210287825Y-112313435D01*
X210287823Y-112313434D01*
X210247325Y-112285445D01*
X210244103Y-112283143D01*
X210204458Y-112253860D01*
X210204457Y-112253859D01*
X210196884Y-112248266D01*
X210190068Y-112245873D01*
X210184131Y-112241769D01*
X210175151Y-112238929D01*
X210175149Y-112238928D01*
X210154983Y-112232550D01*
X210128181Y-112224074D01*
X210124450Y-112222829D01*
X210077963Y-112206504D01*
X210077961Y-112206504D01*
X210069069Y-112203381D01*
X210061881Y-112203099D01*
X210061822Y-112203088D01*
X210054970Y-112200920D01*
X210048363Y-112200400D01*
X209995684Y-112200400D01*
X209990737Y-112200303D01*
X209933706Y-112198062D01*
X209926600Y-112199946D01*
X209918353Y-112200400D01*
X206776413Y-112200400D01*
X206708292Y-112180398D01*
X206675062Y-112149259D01*
X206619345Y-112073824D01*
X206619342Y-112073821D01*
X206613750Y-112066250D01*
X206596806Y-112053735D01*
X206512357Y-111991359D01*
X206512354Y-111991358D01*
X206504784Y-111985766D01*
X206376969Y-111940881D01*
X206378060Y-111937773D01*
X206328897Y-111910851D01*
X206294947Y-111848498D01*
X206292100Y-111821863D01*
X206292100Y-108492219D01*
X206292973Y-108477410D01*
X206295857Y-108453041D01*
X206296964Y-108443689D01*
X206295272Y-108434426D01*
X206295272Y-108434419D01*
X206286425Y-108385982D01*
X206285774Y-108382075D01*
X206278450Y-108333356D01*
X206278450Y-108333355D01*
X206277049Y-108324038D01*
X206273921Y-108317525D01*
X206272625Y-108310427D01*
X206245572Y-108258347D01*
X206243823Y-108254845D01*
X206222487Y-108210413D01*
X206222486Y-108210412D01*
X206218409Y-108201921D01*
X206213523Y-108196636D01*
X206213492Y-108196589D01*
X206210179Y-108190211D01*
X206205875Y-108185172D01*
X206168648Y-108147945D01*
X206165218Y-108144379D01*
X206132846Y-108109359D01*
X206126454Y-108102444D01*
X206120095Y-108098751D01*
X206113937Y-108093234D01*
X203896453Y-105875750D01*
X203886599Y-105864661D01*
X203871407Y-105845391D01*
X203871405Y-105845389D01*
X203865572Y-105837990D01*
X203857825Y-105832635D01*
X203857823Y-105832634D01*
X203817325Y-105804645D01*
X203814103Y-105802343D01*
X203774458Y-105773060D01*
X203774457Y-105773059D01*
X203766884Y-105767466D01*
X203760068Y-105765073D01*
X203754131Y-105760969D01*
X203745151Y-105758129D01*
X203745149Y-105758128D01*
X203724983Y-105751750D01*
X203698181Y-105743274D01*
X203694450Y-105742029D01*
X203647963Y-105725704D01*
X203647961Y-105725704D01*
X203639069Y-105722581D01*
X203631881Y-105722299D01*
X203631822Y-105722288D01*
X203624970Y-105720120D01*
X203618363Y-105719600D01*
X203565684Y-105719600D01*
X203560737Y-105719503D01*
X203503706Y-105717262D01*
X203496600Y-105719146D01*
X203488353Y-105719600D01*
X193872400Y-105719600D01*
X193804279Y-105699598D01*
X193757786Y-105645942D01*
X193746400Y-105593600D01*
X193746400Y-84971293D01*
X193766402Y-84903172D01*
X193783305Y-84882198D01*
X196542498Y-82123005D01*
X196604810Y-82088979D01*
X196631593Y-82086100D01*
X200574980Y-82086100D01*
X200589789Y-82086973D01*
X200623510Y-82090964D01*
X200632774Y-82089272D01*
X200632775Y-82089272D01*
X200681201Y-82080428D01*
X200685104Y-82079778D01*
X200733845Y-82072450D01*
X200733846Y-82072450D01*
X200743162Y-82071049D01*
X200749675Y-82067921D01*
X200756773Y-82066625D01*
X200808847Y-82039575D01*
X200812337Y-82037832D01*
X200865279Y-82012409D01*
X200870565Y-82007523D01*
X200870613Y-82007490D01*
X200876988Y-82004179D01*
X200882028Y-81999875D01*
X200919255Y-81962648D01*
X200922821Y-81959218D01*
X200957841Y-81926846D01*
X200964756Y-81920454D01*
X200968449Y-81914095D01*
X200973966Y-81907937D01*
X201335350Y-81546553D01*
X201346439Y-81536699D01*
X201365709Y-81521507D01*
X201365711Y-81521505D01*
X201373110Y-81515672D01*
X201406462Y-81467415D01*
X201408757Y-81464203D01*
X201438040Y-81424558D01*
X201438041Y-81424557D01*
X201443634Y-81416984D01*
X201446027Y-81410168D01*
X201450131Y-81404231D01*
X201467826Y-81348281D01*
X201469071Y-81344550D01*
X201485396Y-81298063D01*
X201485396Y-81298061D01*
X201488519Y-81289169D01*
X201488801Y-81281981D01*
X201488812Y-81281922D01*
X201490980Y-81275070D01*
X201491500Y-81268463D01*
X201491500Y-81215784D01*
X201491597Y-81210837D01*
X201491908Y-81202934D01*
X201493838Y-81153806D01*
X201491954Y-81146700D01*
X201491500Y-81138456D01*
X201491500Y-78743604D01*
X201511502Y-78675483D01*
X201565158Y-78628990D01*
X201617416Y-78617604D01*
X221546832Y-78604255D01*
X238161087Y-78593127D01*
X238218817Y-78584047D01*
X238313212Y-78569200D01*
X238313216Y-78569199D01*
X238318048Y-78568439D01*
X238391383Y-78544839D01*
X238533288Y-78473346D01*
X239793801Y-77569582D01*
X239867432Y-77505352D01*
X239900251Y-77470697D01*
X239960380Y-77393686D01*
X240003903Y-77297479D01*
X240018768Y-77264620D01*
X240018769Y-77264616D01*
X240020622Y-77260521D01*
X240040381Y-77192330D01*
X240060666Y-77047590D01*
X240051645Y-74512818D01*
X240035741Y-70043777D01*
X240035741Y-70043774D01*
X240035730Y-70040725D01*
X240033815Y-70021758D01*
X240026041Y-69944750D01*
X240026040Y-69944740D01*
X240025733Y-69941704D01*
X240016186Y-69894039D01*
X240003477Y-69852175D01*
X239989474Y-69806047D01*
X239989473Y-69806044D01*
X239987276Y-69798808D01*
X239912810Y-69673043D01*
X239868312Y-69617722D01*
X239761430Y-69518031D01*
X238769558Y-68828033D01*
X238683304Y-68768030D01*
X238679358Y-68765285D01*
X238582753Y-68717961D01*
X238543751Y-68698855D01*
X238543747Y-68698853D01*
X238539445Y-68696746D01*
X238467319Y-68674180D01*
X238462580Y-68673459D01*
X238462579Y-68673459D01*
X238318029Y-68651475D01*
X238318028Y-68651475D01*
X238313288Y-68650754D01*
X221540341Y-68673668D01*
X214105299Y-68683825D01*
X214105295Y-68683825D01*
X214101784Y-68683830D01*
X214059323Y-68688641D01*
X213991766Y-68696296D01*
X213991757Y-68696298D01*
X213988276Y-68696692D01*
X213971430Y-68700535D01*
X213937390Y-68708300D01*
X213937381Y-68708303D01*
X213933960Y-68709083D01*
X213826112Y-68746717D01*
X213819450Y-68751177D01*
X213819447Y-68751179D01*
X213742320Y-68802820D01*
X213704664Y-68828033D01*
X213651892Y-68875526D01*
X213649011Y-68878980D01*
X213649009Y-68878982D01*
X213561155Y-68984307D01*
X213561152Y-68984312D01*
X213558272Y-68987764D01*
X213555915Y-68991588D01*
X213555912Y-68991592D01*
X213528303Y-69036383D01*
X213510216Y-69059285D01*
X213490605Y-69078930D01*
X213467738Y-69097055D01*
X213444134Y-69111662D01*
X213417710Y-69124040D01*
X213387228Y-69134209D01*
X213360369Y-69140010D01*
X213357326Y-69140326D01*
X213344312Y-69141000D01*
X212359280Y-69141000D01*
X212346421Y-69140342D01*
X212345256Y-69140223D01*
X212344127Y-69140107D01*
X212317325Y-69134359D01*
X212302211Y-69129346D01*
X212286689Y-69124198D01*
X212260240Y-69111864D01*
X212236615Y-69097301D01*
X212213714Y-69079215D01*
X212194070Y-69059605D01*
X212175944Y-69036736D01*
X212149013Y-68993217D01*
X212147164Y-68990229D01*
X212142512Y-68984307D01*
X212078625Y-68902975D01*
X212078622Y-68902971D01*
X212076448Y-68900204D01*
X212073981Y-68897698D01*
X212073974Y-68897690D01*
X212039753Y-68862928D01*
X212039752Y-68862927D01*
X212037281Y-68860417D01*
X211948371Y-68788292D01*
X211815339Y-68727757D01*
X211747191Y-68707848D01*
X211602493Y-68687245D01*
X211597999Y-68687251D01*
X211597997Y-68687251D01*
X209073361Y-68690700D01*
X201199857Y-68701456D01*
X201195905Y-68701964D01*
X201195902Y-68701964D01*
X201075371Y-68717452D01*
X201075367Y-68717453D01*
X201071412Y-68717961D01*
X201067553Y-68718964D01*
X201067552Y-68718964D01*
X201014256Y-68732813D01*
X201014253Y-68732814D01*
X201010393Y-68733817D01*
X200890161Y-68781932D01*
X200886685Y-68783863D01*
X200886679Y-68783866D01*
X199843818Y-69363233D01*
X199843814Y-69363236D01*
X199840431Y-69365115D01*
X199738532Y-69439446D01*
X199735714Y-69442088D01*
X199735709Y-69442093D01*
X199696555Y-69478814D01*
X199696548Y-69478821D01*
X199693725Y-69481469D01*
X199691243Y-69484450D01*
X199691242Y-69484451D01*
X199618386Y-69571952D01*
X199618384Y-69571956D01*
X199613018Y-69578400D01*
X199552302Y-69711349D01*
X199532300Y-69779470D01*
X199531660Y-69783919D01*
X199531659Y-69783925D01*
X199515396Y-69897038D01*
X199511500Y-69924139D01*
X199511500Y-77685851D01*
X199512179Y-77690436D01*
X199512179Y-77690437D01*
X199520857Y-77749041D01*
X199533534Y-77834658D01*
X199554696Y-77904550D01*
X199618904Y-78040582D01*
X199814307Y-78333686D01*
X199881645Y-78415098D01*
X199918433Y-78451250D01*
X199920969Y-78453274D01*
X199920970Y-78453275D01*
X199994963Y-78512332D01*
X199994966Y-78512334D01*
X200001024Y-78517169D01*
X200056883Y-78542634D01*
X200129929Y-78575934D01*
X200129932Y-78575935D01*
X200134014Y-78577796D01*
X200138326Y-78579059D01*
X200197827Y-78596487D01*
X200197831Y-78596488D01*
X200202147Y-78597752D01*
X200256026Y-78605462D01*
X200342383Y-78617819D01*
X200342388Y-78617819D01*
X200346830Y-78618455D01*
X200351325Y-78618452D01*
X200353547Y-78618451D01*
X200464416Y-78618376D01*
X200532550Y-78638332D01*
X200579078Y-78691957D01*
X200590500Y-78744376D01*
X200590500Y-80965007D01*
X200570498Y-81033128D01*
X200553595Y-81054102D01*
X200459502Y-81148195D01*
X200397190Y-81182221D01*
X200370407Y-81185100D01*
X196427020Y-81185100D01*
X196412211Y-81184227D01*
X196387843Y-81181343D01*
X196378490Y-81180236D01*
X196369226Y-81181928D01*
X196369225Y-81181928D01*
X196320799Y-81190772D01*
X196316896Y-81191422D01*
X196268155Y-81198750D01*
X196268154Y-81198750D01*
X196258838Y-81200151D01*
X196252325Y-81203279D01*
X196245227Y-81204575D01*
X196193153Y-81231625D01*
X196189663Y-81233368D01*
X196136721Y-81258791D01*
X196131435Y-81263677D01*
X196131387Y-81263710D01*
X196125012Y-81267021D01*
X196119972Y-81271325D01*
X196082745Y-81308552D01*
X196079180Y-81311981D01*
X196037244Y-81350746D01*
X196033551Y-81357105D01*
X196028034Y-81363263D01*
X193001550Y-84389747D01*
X192990461Y-84399601D01*
X192971191Y-84414793D01*
X192971189Y-84414795D01*
X192963790Y-84420628D01*
X192958435Y-84428375D01*
X192958434Y-84428377D01*
X192930445Y-84468875D01*
X192928150Y-84472087D01*
X192893266Y-84519316D01*
X192890873Y-84526132D01*
X192886769Y-84532069D01*
X192883929Y-84541049D01*
X192883928Y-84541051D01*
X192869082Y-84587995D01*
X192867829Y-84591750D01*
X192848381Y-84647131D01*
X192848099Y-84654319D01*
X192848088Y-84654378D01*
X192845920Y-84661230D01*
X192845400Y-84667837D01*
X192845400Y-84720516D01*
X192845303Y-84725462D01*
X192843062Y-84782494D01*
X192844946Y-84789600D01*
X192845400Y-84797847D01*
X192845400Y-106104045D01*
X192844061Y-106115747D01*
X192844581Y-106115788D01*
X192843842Y-106125179D01*
X192841715Y-106134355D01*
X192842380Y-106143750D01*
X192842380Y-106143753D01*
X192845085Y-106181949D01*
X192845400Y-106190848D01*
X192845400Y-108056587D01*
X192825398Y-108124708D01*
X192794259Y-108157938D01*
X192718824Y-108213655D01*
X192718821Y-108213658D01*
X192711250Y-108219250D01*
X192705658Y-108226821D01*
X192636359Y-108320643D01*
X192636358Y-108320646D01*
X192630766Y-108328216D01*
X192585881Y-108456031D01*
X192582900Y-108487566D01*
X192582900Y-109495234D01*
X192585881Y-109526769D01*
X192630766Y-109654584D01*
X192636358Y-109662154D01*
X192636359Y-109662157D01*
X192683248Y-109725639D01*
X192711250Y-109763550D01*
X192718821Y-109769142D01*
X192812643Y-109838441D01*
X192812646Y-109838442D01*
X192820216Y-109844034D01*
X192948031Y-109888919D01*
X192955677Y-109889642D01*
X192955678Y-109889642D01*
X192961648Y-109890206D01*
X192979566Y-109891900D01*
X193612234Y-109891900D01*
X193630152Y-109890206D01*
X193636122Y-109889642D01*
X193636123Y-109889642D01*
X193643769Y-109888919D01*
X193771584Y-109844034D01*
X193779154Y-109838442D01*
X193779157Y-109838441D01*
X193872979Y-109769142D01*
X193880550Y-109763550D01*
X193908552Y-109725639D01*
X193955441Y-109662157D01*
X193955442Y-109662154D01*
X193961034Y-109654584D01*
X194005919Y-109526769D01*
X194008900Y-109495234D01*
X194008900Y-108487566D01*
X194005919Y-108456031D01*
X193961034Y-108328216D01*
X193955442Y-108320646D01*
X193955441Y-108320643D01*
X193886142Y-108226821D01*
X193880550Y-108219250D01*
X193872979Y-108213658D01*
X193872976Y-108213655D01*
X193797541Y-108157938D01*
X193754630Y-108101377D01*
X193746400Y-108056587D01*
X193746400Y-106746600D01*
X193766402Y-106678479D01*
X193820058Y-106631986D01*
X193872400Y-106620600D01*
X203314907Y-106620600D01*
X203383028Y-106640602D01*
X203404002Y-106657505D01*
X205354195Y-108607698D01*
X205388221Y-108670010D01*
X205391100Y-108696793D01*
X205391100Y-111821863D01*
X205371098Y-111889984D01*
X205317442Y-111936477D01*
X205306022Y-111940286D01*
X205306231Y-111940881D01*
X205178416Y-111985766D01*
X205170846Y-111991358D01*
X205170843Y-111991359D01*
X205086394Y-112053735D01*
X205069450Y-112066250D01*
X205063858Y-112073821D01*
X204994559Y-112167643D01*
X204994558Y-112167646D01*
X204988966Y-112175216D01*
X204944081Y-112303031D01*
X204941100Y-112334566D01*
X204941100Y-112967234D01*
X204944081Y-112998769D01*
X204988966Y-113126584D01*
X204994558Y-113134154D01*
X204994559Y-113134157D01*
X205056935Y-113218606D01*
X205069450Y-113235550D01*
X205077021Y-113241142D01*
X205170843Y-113310441D01*
X205170846Y-113310442D01*
X205178416Y-113316034D01*
X205306231Y-113360919D01*
X205313877Y-113361642D01*
X205313878Y-113361642D01*
X205319848Y-113362206D01*
X205337766Y-113363900D01*
X206345434Y-113363900D01*
X206363352Y-113362206D01*
X206369322Y-113361642D01*
X206369323Y-113361642D01*
X206376969Y-113360919D01*
X206504784Y-113316034D01*
X206512354Y-113310442D01*
X206512357Y-113310441D01*
X206606179Y-113241142D01*
X206613750Y-113235550D01*
X206619342Y-113227979D01*
X206619345Y-113227976D01*
X206675062Y-113152541D01*
X206731623Y-113109630D01*
X206776413Y-113101400D01*
X209744907Y-113101400D01*
X209813028Y-113121402D01*
X209834002Y-113138305D01*
X209976995Y-113281298D01*
X210011021Y-113343610D01*
X210013900Y-113370393D01*
X210013900Y-120106407D01*
X209993898Y-120174528D01*
X209976995Y-120195502D01*
X209197102Y-120975395D01*
X209134790Y-121009421D01*
X209108007Y-121012300D01*
X189976793Y-121012300D01*
X189908672Y-120992298D01*
X189887698Y-120975395D01*
X187870953Y-118958650D01*
X187861099Y-118947561D01*
X187845907Y-118928291D01*
X187845905Y-118928289D01*
X187840072Y-118920890D01*
X187832325Y-118915535D01*
X187832323Y-118915534D01*
X187791825Y-118887545D01*
X187788603Y-118885243D01*
X187748958Y-118855960D01*
X187748957Y-118855959D01*
X187741384Y-118850366D01*
X187734568Y-118847973D01*
X187728631Y-118843869D01*
X187719651Y-118841029D01*
X187719649Y-118841028D01*
X187699483Y-118834650D01*
X187672681Y-118826174D01*
X187668950Y-118824929D01*
X187622463Y-118808604D01*
X187622461Y-118808604D01*
X187613569Y-118805481D01*
X187606381Y-118805199D01*
X187606322Y-118805188D01*
X187599470Y-118803020D01*
X187592863Y-118802500D01*
X187540184Y-118802500D01*
X187535237Y-118802403D01*
X187478206Y-118800162D01*
X187471100Y-118802046D01*
X187462853Y-118802500D01*
X185432437Y-118802500D01*
X185376304Y-118786018D01*
X192331000Y-118786018D01*
X192331670Y-118790568D01*
X192331670Y-118790571D01*
X192339705Y-118845149D01*
X192341142Y-118854912D01*
X192345458Y-118863702D01*
X192382332Y-118938806D01*
X192392568Y-118959655D01*
X192475150Y-119042093D01*
X192484506Y-119046666D01*
X192484507Y-119046667D01*
X192498838Y-119053672D01*
X192579982Y-119093336D01*
X192610473Y-119097784D01*
X192643756Y-119102640D01*
X192643760Y-119102640D01*
X192648282Y-119103300D01*
X192691302Y-119103300D01*
X192759423Y-119123302D01*
X192805916Y-119176958D01*
X192816429Y-119244108D01*
X192815448Y-119252400D01*
X192813636Y-119267710D01*
X192815328Y-119276974D01*
X192815328Y-119276975D01*
X192824172Y-119325401D01*
X192824822Y-119329304D01*
X192833551Y-119387362D01*
X192836679Y-119393875D01*
X192837975Y-119400973D01*
X192865025Y-119453047D01*
X192866768Y-119456537D01*
X192892191Y-119509479D01*
X192897077Y-119514765D01*
X192897110Y-119514813D01*
X192900421Y-119521188D01*
X192904725Y-119526228D01*
X192941952Y-119563455D01*
X192945381Y-119567020D01*
X192984146Y-119608956D01*
X192990505Y-119612649D01*
X192996663Y-119618166D01*
X193586247Y-120207750D01*
X193596101Y-120218839D01*
X193610433Y-120237018D01*
X193617128Y-120245510D01*
X193624876Y-120250865D01*
X193624878Y-120250867D01*
X193665400Y-120278874D01*
X193668619Y-120281174D01*
X193681605Y-120290765D01*
X193715817Y-120316034D01*
X193722631Y-120318427D01*
X193728569Y-120322531D01*
X193737546Y-120325370D01*
X193737548Y-120325371D01*
X193784517Y-120340225D01*
X193788266Y-120341476D01*
X193843631Y-120360919D01*
X193850818Y-120361201D01*
X193850880Y-120361213D01*
X193857730Y-120363380D01*
X193864337Y-120363900D01*
X193917016Y-120363900D01*
X193921962Y-120363997D01*
X193978994Y-120366238D01*
X193986100Y-120364354D01*
X193994347Y-120363900D01*
X198746180Y-120363900D01*
X198760989Y-120364773D01*
X198794710Y-120368764D01*
X198803974Y-120367072D01*
X198803975Y-120367072D01*
X198852401Y-120358228D01*
X198856304Y-120357578D01*
X198905045Y-120350250D01*
X198905046Y-120350250D01*
X198914362Y-120348849D01*
X198920875Y-120345721D01*
X198927973Y-120344425D01*
X198980047Y-120317375D01*
X198983537Y-120315632D01*
X199036479Y-120290209D01*
X199041765Y-120285323D01*
X199041813Y-120285290D01*
X199048188Y-120281979D01*
X199053228Y-120277675D01*
X199090455Y-120240448D01*
X199094021Y-120237018D01*
X199129041Y-120204646D01*
X199135956Y-120198254D01*
X199139649Y-120191895D01*
X199145166Y-120185737D01*
X199999350Y-119331553D01*
X200010439Y-119321699D01*
X200029710Y-119306506D01*
X200029711Y-119306505D01*
X200037110Y-119300672D01*
X200042465Y-119292924D01*
X200042467Y-119292922D01*
X200070474Y-119252400D01*
X200072774Y-119249181D01*
X200102038Y-119209560D01*
X200102039Y-119209559D01*
X200107634Y-119201983D01*
X200110027Y-119195169D01*
X200114131Y-119189231D01*
X200118013Y-119176958D01*
X200131825Y-119133283D01*
X200133078Y-119129528D01*
X200135265Y-119123302D01*
X200152519Y-119074169D01*
X200152801Y-119066982D01*
X200152813Y-119066920D01*
X200154980Y-119060070D01*
X200155500Y-119053463D01*
X200155500Y-119000784D01*
X200155597Y-118995837D01*
X200157838Y-118938806D01*
X200155954Y-118931700D01*
X200155500Y-118923453D01*
X200155500Y-115428381D01*
X200175502Y-115360260D01*
X200206640Y-115327030D01*
X200269579Y-115280542D01*
X200277150Y-115274950D01*
X200295615Y-115249950D01*
X200352041Y-115173557D01*
X200352042Y-115173554D01*
X200357634Y-115165984D01*
X200392696Y-115066142D01*
X200399976Y-115045412D01*
X200399977Y-115045408D01*
X200402519Y-115038169D01*
X200403242Y-115030522D01*
X200403949Y-115027300D01*
X200438084Y-114965047D01*
X200500456Y-114931132D01*
X200527022Y-114928300D01*
X201077463Y-114928300D01*
X201145584Y-114948302D01*
X201192077Y-115001958D01*
X201195886Y-115013378D01*
X201196481Y-115013169D01*
X201241366Y-115140984D01*
X201246958Y-115148554D01*
X201246959Y-115148557D01*
X201300890Y-115221573D01*
X201321850Y-115249950D01*
X201329421Y-115255542D01*
X201423243Y-115324841D01*
X201423246Y-115324842D01*
X201430816Y-115330434D01*
X201558631Y-115375319D01*
X201566277Y-115376042D01*
X201566278Y-115376042D01*
X201572248Y-115376606D01*
X201590166Y-115378300D01*
X202222834Y-115378300D01*
X202240752Y-115376606D01*
X202246722Y-115376042D01*
X202246723Y-115376042D01*
X202254369Y-115375319D01*
X202382184Y-115330434D01*
X202389754Y-115324842D01*
X202389757Y-115324841D01*
X202483579Y-115255542D01*
X202491150Y-115249950D01*
X202512110Y-115221573D01*
X202566041Y-115148557D01*
X202566042Y-115148554D01*
X202571634Y-115140984D01*
X202616519Y-115013169D01*
X202619500Y-114981634D01*
X203018500Y-114981634D01*
X203021481Y-115013169D01*
X203066366Y-115140984D01*
X203071958Y-115148554D01*
X203071959Y-115148557D01*
X203125890Y-115221573D01*
X203146850Y-115249950D01*
X203154421Y-115255542D01*
X203248243Y-115324841D01*
X203248246Y-115324842D01*
X203255816Y-115330434D01*
X203383631Y-115375319D01*
X203391277Y-115376042D01*
X203391278Y-115376042D01*
X203397248Y-115376606D01*
X203415166Y-115378300D01*
X204047834Y-115378300D01*
X204065752Y-115376606D01*
X204071722Y-115376042D01*
X204071723Y-115376042D01*
X204079369Y-115375319D01*
X204207184Y-115330434D01*
X204214754Y-115324842D01*
X204214757Y-115324841D01*
X204308579Y-115255542D01*
X204316150Y-115249950D01*
X204337110Y-115221573D01*
X204391041Y-115148557D01*
X204391042Y-115148554D01*
X204396634Y-115140984D01*
X204441519Y-115013169D01*
X204444627Y-115014260D01*
X204471549Y-114965097D01*
X204533902Y-114931147D01*
X204560537Y-114928300D01*
X204908190Y-114928300D01*
X204976311Y-114948302D01*
X205009541Y-114979441D01*
X205063855Y-115052976D01*
X205063858Y-115052979D01*
X205069450Y-115060550D01*
X205077021Y-115066142D01*
X205170843Y-115135441D01*
X205170846Y-115135442D01*
X205178416Y-115141034D01*
X205224169Y-115157101D01*
X205298985Y-115183375D01*
X205298989Y-115183376D01*
X205306231Y-115185919D01*
X205313877Y-115186642D01*
X205317502Y-115187437D01*
X205379753Y-115221573D01*
X205413668Y-115283945D01*
X205416500Y-115310510D01*
X205416500Y-115606463D01*
X205396498Y-115674584D01*
X205342842Y-115721077D01*
X205331422Y-115724886D01*
X205331631Y-115725481D01*
X205203816Y-115770366D01*
X205196246Y-115775958D01*
X205196243Y-115775959D01*
X205147615Y-115811877D01*
X205094850Y-115850850D01*
X205089258Y-115858421D01*
X205019959Y-115952243D01*
X205019958Y-115952246D01*
X205014366Y-115959816D01*
X204969481Y-116087631D01*
X204966500Y-116119166D01*
X204966500Y-116751834D01*
X204969481Y-116783369D01*
X205014366Y-116911184D01*
X205019958Y-116918754D01*
X205019959Y-116918757D01*
X205046225Y-116954318D01*
X205094850Y-117020150D01*
X205102421Y-117025742D01*
X205196243Y-117095041D01*
X205196246Y-117095042D01*
X205203816Y-117100634D01*
X205331631Y-117145519D01*
X205339277Y-117146242D01*
X205339278Y-117146242D01*
X205345248Y-117146806D01*
X205363166Y-117148500D01*
X206370834Y-117148500D01*
X206388752Y-117146806D01*
X206394722Y-117146242D01*
X206394723Y-117146242D01*
X206402369Y-117145519D01*
X206530184Y-117100634D01*
X206537754Y-117095042D01*
X206537757Y-117095041D01*
X206631579Y-117025742D01*
X206639150Y-117020150D01*
X206687775Y-116954318D01*
X206714041Y-116918757D01*
X206714042Y-116918754D01*
X206719634Y-116911184D01*
X206764519Y-116783369D01*
X206767500Y-116751834D01*
X206767500Y-116119166D01*
X206764519Y-116087631D01*
X206719634Y-115959816D01*
X206714042Y-115952246D01*
X206714041Y-115952243D01*
X206644742Y-115858421D01*
X206639150Y-115850850D01*
X206586385Y-115811877D01*
X206537757Y-115775959D01*
X206537754Y-115775958D01*
X206530184Y-115770366D01*
X206402369Y-115725481D01*
X206403460Y-115722373D01*
X206354297Y-115695451D01*
X206320347Y-115633098D01*
X206317500Y-115606463D01*
X206317500Y-115296099D01*
X206337502Y-115227978D01*
X206391158Y-115181485D01*
X206401752Y-115177216D01*
X206459031Y-115157101D01*
X206504784Y-115141034D01*
X206512354Y-115135442D01*
X206512357Y-115135441D01*
X206606179Y-115066142D01*
X206613750Y-115060550D01*
X206648592Y-115013378D01*
X206688641Y-114959157D01*
X206688642Y-114959154D01*
X206694234Y-114951584D01*
X206739119Y-114823769D01*
X206742100Y-114792234D01*
X206742100Y-114159566D01*
X206739119Y-114128031D01*
X206694234Y-114000216D01*
X206688642Y-113992646D01*
X206688641Y-113992643D01*
X206619342Y-113898821D01*
X206613750Y-113891250D01*
X206596806Y-113878735D01*
X206512357Y-113816359D01*
X206512354Y-113816358D01*
X206504784Y-113810766D01*
X206376969Y-113765881D01*
X206369323Y-113765158D01*
X206369322Y-113765158D01*
X206363352Y-113764594D01*
X206345434Y-113762900D01*
X205337766Y-113762900D01*
X205319848Y-113764594D01*
X205313878Y-113765158D01*
X205313877Y-113765158D01*
X205306231Y-113765881D01*
X205178416Y-113810766D01*
X205170846Y-113816358D01*
X205170843Y-113816359D01*
X205086394Y-113878735D01*
X205069450Y-113891250D01*
X205063858Y-113898821D01*
X205006734Y-113976160D01*
X204950173Y-114019070D01*
X204905383Y-114027300D01*
X204560537Y-114027300D01*
X204492416Y-114007298D01*
X204445923Y-113953642D01*
X204442114Y-113942222D01*
X204441519Y-113942431D01*
X204426204Y-113898821D01*
X204396634Y-113814616D01*
X204391042Y-113807046D01*
X204391041Y-113807043D01*
X204321742Y-113713221D01*
X204316150Y-113705650D01*
X204233141Y-113644338D01*
X204214757Y-113630759D01*
X204214754Y-113630758D01*
X204207184Y-113625166D01*
X204079369Y-113580281D01*
X204071723Y-113579558D01*
X204071722Y-113579558D01*
X204065752Y-113578994D01*
X204047834Y-113577300D01*
X203415166Y-113577300D01*
X203397248Y-113578994D01*
X203391278Y-113579558D01*
X203391277Y-113579558D01*
X203383631Y-113580281D01*
X203255816Y-113625166D01*
X203248246Y-113630758D01*
X203248243Y-113630759D01*
X203229859Y-113644338D01*
X203146850Y-113705650D01*
X203141258Y-113713221D01*
X203071959Y-113807043D01*
X203071958Y-113807046D01*
X203066366Y-113814616D01*
X203021481Y-113942431D01*
X203018500Y-113973966D01*
X203018500Y-114981634D01*
X202619500Y-114981634D01*
X202619500Y-113973966D01*
X202616519Y-113942431D01*
X202571634Y-113814616D01*
X202566042Y-113807046D01*
X202566041Y-113807043D01*
X202496742Y-113713221D01*
X202491150Y-113705650D01*
X202408141Y-113644338D01*
X202389757Y-113630759D01*
X202389754Y-113630758D01*
X202382184Y-113625166D01*
X202254369Y-113580281D01*
X202246723Y-113579558D01*
X202246722Y-113579558D01*
X202240752Y-113578994D01*
X202222834Y-113577300D01*
X201590166Y-113577300D01*
X201572248Y-113578994D01*
X201566278Y-113579558D01*
X201566277Y-113579558D01*
X201558631Y-113580281D01*
X201430816Y-113625166D01*
X201423246Y-113630758D01*
X201423243Y-113630759D01*
X201404859Y-113644338D01*
X201321850Y-113705650D01*
X201316258Y-113713221D01*
X201246959Y-113807043D01*
X201246958Y-113807046D01*
X201241366Y-113814616D01*
X201196481Y-113942431D01*
X201193373Y-113941340D01*
X201166451Y-113990503D01*
X201104098Y-114024453D01*
X201077463Y-114027300D01*
X200527022Y-114027300D01*
X200458901Y-114007298D01*
X200412408Y-113953642D01*
X200403949Y-113928300D01*
X200403242Y-113925075D01*
X200402519Y-113917431D01*
X200399977Y-113910192D01*
X200399976Y-113910188D01*
X200363966Y-113807647D01*
X200357634Y-113789616D01*
X200352042Y-113782046D01*
X200352041Y-113782043D01*
X200282742Y-113688221D01*
X200277150Y-113680650D01*
X200227988Y-113644338D01*
X200175757Y-113605759D01*
X200175754Y-113605758D01*
X200168184Y-113600166D01*
X200040369Y-113555281D01*
X200032723Y-113554558D01*
X200032722Y-113554558D01*
X200026752Y-113553994D01*
X200008834Y-113552300D01*
X199401166Y-113552300D01*
X199383248Y-113553994D01*
X199377278Y-113554558D01*
X199377277Y-113554558D01*
X199369631Y-113555281D01*
X199241816Y-113600166D01*
X199234246Y-113605758D01*
X199234243Y-113605759D01*
X199182012Y-113644338D01*
X199132850Y-113680650D01*
X199127258Y-113688221D01*
X199057959Y-113782043D01*
X199057958Y-113782046D01*
X199052366Y-113789616D01*
X199007481Y-113917431D01*
X199006758Y-113925077D01*
X199006758Y-113925078D01*
X199006194Y-113931048D01*
X199004500Y-113948966D01*
X199004500Y-115006634D01*
X199005803Y-115020416D01*
X199006454Y-115027300D01*
X199007481Y-115038169D01*
X199052366Y-115165984D01*
X199057958Y-115173554D01*
X199057959Y-115173557D01*
X199114385Y-115249950D01*
X199132850Y-115274950D01*
X199140421Y-115280542D01*
X199203360Y-115327030D01*
X199246270Y-115383591D01*
X199254500Y-115428381D01*
X199254500Y-118750007D01*
X199234498Y-118818128D01*
X199217595Y-118839102D01*
X198630702Y-119425995D01*
X198568390Y-119460021D01*
X198541607Y-119462900D01*
X194167793Y-119462900D01*
X194099672Y-119442898D01*
X194078698Y-119425995D01*
X193940482Y-119287779D01*
X193906456Y-119225467D01*
X193911521Y-119154652D01*
X193954068Y-119097816D01*
X193974046Y-119085581D01*
X194054007Y-119046322D01*
X194054009Y-119046321D01*
X194063355Y-119041732D01*
X194145793Y-118959150D01*
X194197036Y-118854318D01*
X194207000Y-118786018D01*
X194207000Y-118419582D01*
X194198371Y-118360962D01*
X194198284Y-118360374D01*
X194198284Y-118360373D01*
X194196858Y-118350688D01*
X194145432Y-118245945D01*
X194062850Y-118163507D01*
X193958018Y-118112264D01*
X193927527Y-118107816D01*
X193894244Y-118102960D01*
X193894240Y-118102960D01*
X193889718Y-118102300D01*
X192648282Y-118102300D01*
X192643732Y-118102970D01*
X192643729Y-118102970D01*
X192589074Y-118111016D01*
X192589073Y-118111016D01*
X192579388Y-118112442D01*
X192529492Y-118136940D01*
X192483993Y-118159278D01*
X192483991Y-118159279D01*
X192474645Y-118163868D01*
X192392207Y-118246450D01*
X192340964Y-118351282D01*
X192331000Y-118419582D01*
X192331000Y-118786018D01*
X185376304Y-118786018D01*
X185364316Y-118782498D01*
X185317823Y-118728842D01*
X185314014Y-118717422D01*
X185313419Y-118717631D01*
X185271653Y-118598699D01*
X185268534Y-118589816D01*
X185262942Y-118582246D01*
X185262941Y-118582243D01*
X185193642Y-118488421D01*
X185188050Y-118480850D01*
X185171106Y-118468335D01*
X185086657Y-118405959D01*
X185086654Y-118405958D01*
X185079084Y-118400366D01*
X184951269Y-118355481D01*
X184943623Y-118354758D01*
X184943622Y-118354758D01*
X184937652Y-118354194D01*
X184919734Y-118352500D01*
X184287066Y-118352500D01*
X184269148Y-118354194D01*
X184263178Y-118354758D01*
X184263177Y-118354758D01*
X184255531Y-118355481D01*
X184127716Y-118400366D01*
X184120146Y-118405958D01*
X184120143Y-118405959D01*
X184035694Y-118468335D01*
X184018750Y-118480850D01*
X184013158Y-118488421D01*
X183943859Y-118582243D01*
X183943858Y-118582246D01*
X183938266Y-118589816D01*
X183893381Y-118717631D01*
X183890400Y-118749166D01*
X183890400Y-119756834D01*
X183491400Y-119756834D01*
X183491400Y-118749166D01*
X183488419Y-118717631D01*
X183443534Y-118589816D01*
X183437942Y-118582246D01*
X183437941Y-118582243D01*
X183368642Y-118488421D01*
X183363050Y-118480850D01*
X183346106Y-118468335D01*
X183261657Y-118405959D01*
X183261654Y-118405958D01*
X183254084Y-118400366D01*
X183126269Y-118355481D01*
X183118623Y-118354758D01*
X183118622Y-118354758D01*
X183112652Y-118354194D01*
X183094734Y-118352500D01*
X182462066Y-118352500D01*
X182444148Y-118354194D01*
X182438178Y-118354758D01*
X182438177Y-118354758D01*
X182430531Y-118355481D01*
X182302716Y-118400366D01*
X182295146Y-118405958D01*
X182295143Y-118405959D01*
X182210694Y-118468335D01*
X182193750Y-118480850D01*
X182188158Y-118488421D01*
X182118859Y-118582243D01*
X182118858Y-118582246D01*
X182113266Y-118589816D01*
X182110147Y-118598699D01*
X182073432Y-118703248D01*
X182031989Y-118760894D01*
X181965959Y-118786982D01*
X181954549Y-118787500D01*
X179064983Y-118787500D01*
X178996862Y-118767498D01*
X178950369Y-118713842D01*
X178938983Y-118661451D01*
X178939524Y-117274451D01*
X178959553Y-117206338D01*
X179013226Y-117159866D01*
X179065524Y-117148500D01*
X191709470Y-117148500D01*
X191732969Y-117150768D01*
X191739330Y-117152780D01*
X191745937Y-117153300D01*
X192468930Y-117153300D01*
X192524263Y-117166100D01*
X192579982Y-117193336D01*
X192610473Y-117197784D01*
X192643756Y-117202640D01*
X192643760Y-117202640D01*
X192648282Y-117203300D01*
X193889718Y-117203300D01*
X193894268Y-117202630D01*
X193894271Y-117202630D01*
X193948926Y-117194584D01*
X193948927Y-117194584D01*
X193958612Y-117193158D01*
X194039794Y-117153300D01*
X194054007Y-117146322D01*
X194054009Y-117146321D01*
X194063355Y-117141732D01*
X194145793Y-117059150D01*
X194197036Y-116954318D01*
X194207000Y-116886018D01*
X194207000Y-116519582D01*
X194196858Y-116450688D01*
X194145432Y-116345945D01*
X194062850Y-116263507D01*
X194035165Y-116249974D01*
X193989183Y-116227498D01*
X193958018Y-116212264D01*
X193927527Y-116207816D01*
X193894244Y-116202960D01*
X193894240Y-116202960D01*
X193889718Y-116202300D01*
X193845500Y-116202300D01*
X193777379Y-116182298D01*
X193730886Y-116128642D01*
X193719500Y-116076300D01*
X193719500Y-115413721D01*
X193739502Y-115345600D01*
X193770641Y-115312370D01*
X193847576Y-115255545D01*
X193847579Y-115255542D01*
X193855150Y-115249950D01*
X193876110Y-115221573D01*
X193930041Y-115148557D01*
X193930042Y-115148554D01*
X193935634Y-115140984D01*
X193980519Y-115013169D01*
X193983500Y-114981634D01*
X194382500Y-114981634D01*
X194385481Y-115013169D01*
X194430366Y-115140984D01*
X194435958Y-115148554D01*
X194435959Y-115148557D01*
X194489890Y-115221573D01*
X194510850Y-115249950D01*
X194518421Y-115255542D01*
X194612243Y-115324841D01*
X194612246Y-115324842D01*
X194619816Y-115330434D01*
X194747631Y-115375319D01*
X194755277Y-115376042D01*
X194755278Y-115376042D01*
X194761248Y-115376606D01*
X194779166Y-115378300D01*
X195411834Y-115378300D01*
X195429752Y-115376606D01*
X195435722Y-115376042D01*
X195435723Y-115376042D01*
X195443369Y-115375319D01*
X195571184Y-115330434D01*
X195578754Y-115324842D01*
X195578757Y-115324841D01*
X195672579Y-115255542D01*
X195680150Y-115249950D01*
X195701110Y-115221573D01*
X195755041Y-115148557D01*
X195755042Y-115148554D01*
X195760634Y-115140984D01*
X195805519Y-115013169D01*
X195808627Y-115014260D01*
X195835549Y-114965097D01*
X195897902Y-114931147D01*
X195924537Y-114928300D01*
X196982978Y-114928300D01*
X197051099Y-114948302D01*
X197097592Y-115001958D01*
X197106051Y-115027300D01*
X197106758Y-115030522D01*
X197107481Y-115038169D01*
X197110023Y-115045408D01*
X197110024Y-115045412D01*
X197117304Y-115066142D01*
X197152366Y-115165984D01*
X197157958Y-115173554D01*
X197157959Y-115173557D01*
X197214385Y-115249950D01*
X197232850Y-115274950D01*
X197240421Y-115280542D01*
X197334243Y-115349841D01*
X197334246Y-115349842D01*
X197341816Y-115355434D01*
X197469631Y-115400319D01*
X197477277Y-115401042D01*
X197477278Y-115401042D01*
X197483248Y-115401606D01*
X197501166Y-115403300D01*
X198108834Y-115403300D01*
X198126752Y-115401606D01*
X198132722Y-115401042D01*
X198132723Y-115401042D01*
X198140369Y-115400319D01*
X198268184Y-115355434D01*
X198275754Y-115349842D01*
X198275757Y-115349841D01*
X198369579Y-115280542D01*
X198377150Y-115274950D01*
X198395615Y-115249950D01*
X198452041Y-115173557D01*
X198452042Y-115173554D01*
X198457634Y-115165984D01*
X198502519Y-115038169D01*
X198503547Y-115027300D01*
X198504197Y-115020416D01*
X198505500Y-115006634D01*
X198505500Y-113948966D01*
X198503806Y-113931048D01*
X198503242Y-113925078D01*
X198503242Y-113925077D01*
X198502519Y-113917431D01*
X198457634Y-113789616D01*
X198452042Y-113782046D01*
X198452041Y-113782043D01*
X198382742Y-113688221D01*
X198377150Y-113680650D01*
X198327988Y-113644338D01*
X198275757Y-113605759D01*
X198275754Y-113605758D01*
X198268184Y-113600166D01*
X198140369Y-113555281D01*
X198132723Y-113554558D01*
X198132722Y-113554558D01*
X198126752Y-113553994D01*
X198108834Y-113552300D01*
X197501166Y-113552300D01*
X197483248Y-113553994D01*
X197477278Y-113554558D01*
X197477277Y-113554558D01*
X197469631Y-113555281D01*
X197341816Y-113600166D01*
X197334246Y-113605758D01*
X197334243Y-113605759D01*
X197282012Y-113644338D01*
X197232850Y-113680650D01*
X197227258Y-113688221D01*
X197157959Y-113782043D01*
X197157958Y-113782046D01*
X197152366Y-113789616D01*
X197146034Y-113807647D01*
X197110024Y-113910188D01*
X197110023Y-113910192D01*
X197107481Y-113917431D01*
X197106758Y-113925075D01*
X197106051Y-113928300D01*
X197071916Y-113990553D01*
X197009544Y-114024468D01*
X196982978Y-114027300D01*
X195924537Y-114027300D01*
X195856416Y-114007298D01*
X195809923Y-113953642D01*
X195806114Y-113942222D01*
X195805519Y-113942431D01*
X195790204Y-113898821D01*
X195760634Y-113814616D01*
X195755042Y-113807046D01*
X195755041Y-113807043D01*
X195685742Y-113713221D01*
X195680150Y-113705650D01*
X195597141Y-113644338D01*
X195578757Y-113630759D01*
X195578754Y-113630758D01*
X195571184Y-113625166D01*
X195443369Y-113580281D01*
X195435723Y-113579558D01*
X195435722Y-113579558D01*
X195429752Y-113578994D01*
X195411834Y-113577300D01*
X194779166Y-113577300D01*
X194761248Y-113578994D01*
X194755278Y-113579558D01*
X194755277Y-113579558D01*
X194747631Y-113580281D01*
X194619816Y-113625166D01*
X194612246Y-113630758D01*
X194612243Y-113630759D01*
X194593859Y-113644338D01*
X194510850Y-113705650D01*
X194505258Y-113713221D01*
X194435959Y-113807043D01*
X194435958Y-113807046D01*
X194430366Y-113814616D01*
X194385481Y-113942431D01*
X194382500Y-113973966D01*
X194382500Y-114981634D01*
X193983500Y-114981634D01*
X193983500Y-113973966D01*
X193980519Y-113942431D01*
X193935634Y-113814616D01*
X193930042Y-113807046D01*
X193930041Y-113807043D01*
X193860742Y-113713221D01*
X193855150Y-113705650D01*
X193847579Y-113700058D01*
X193847576Y-113700055D01*
X193772141Y-113644338D01*
X193729230Y-113587777D01*
X193721000Y-113542987D01*
X193721000Y-112865974D01*
X193741002Y-112797853D01*
X193772141Y-112764623D01*
X193872976Y-112690145D01*
X193872979Y-112690142D01*
X193880550Y-112684550D01*
X193893065Y-112667606D01*
X193955441Y-112583157D01*
X193955442Y-112583154D01*
X193961034Y-112575584D01*
X194005919Y-112447769D01*
X194008900Y-112416234D01*
X194407900Y-112416234D01*
X194410881Y-112447769D01*
X194455766Y-112575584D01*
X194461358Y-112583154D01*
X194461359Y-112583157D01*
X194523735Y-112667606D01*
X194536250Y-112684550D01*
X194543821Y-112690142D01*
X194637643Y-112759441D01*
X194637646Y-112759442D01*
X194645216Y-112765034D01*
X194773031Y-112809919D01*
X194780677Y-112810642D01*
X194780678Y-112810642D01*
X194786648Y-112811206D01*
X194804566Y-112812900D01*
X195437234Y-112812900D01*
X195455152Y-112811206D01*
X195461122Y-112810642D01*
X195461123Y-112810642D01*
X195468769Y-112809919D01*
X195596584Y-112765034D01*
X195604154Y-112759442D01*
X195604157Y-112759441D01*
X195697979Y-112690142D01*
X195705550Y-112684550D01*
X195718065Y-112667606D01*
X195780441Y-112583157D01*
X195780442Y-112583154D01*
X195786034Y-112575584D01*
X195830919Y-112447769D01*
X195833900Y-112416234D01*
X195833900Y-111408566D01*
X195830919Y-111377031D01*
X195786034Y-111249216D01*
X195780442Y-111241646D01*
X195780441Y-111241643D01*
X195711142Y-111147821D01*
X195705550Y-111140250D01*
X195697979Y-111134658D01*
X195697976Y-111134655D01*
X195622541Y-111078938D01*
X195579630Y-111022377D01*
X195571400Y-110977587D01*
X195571400Y-109926213D01*
X195591402Y-109858092D01*
X195622541Y-109824862D01*
X195697976Y-109769145D01*
X195697979Y-109769142D01*
X195705550Y-109763550D01*
X195733552Y-109725639D01*
X195780441Y-109662157D01*
X195780442Y-109662154D01*
X195786034Y-109654584D01*
X195830919Y-109526769D01*
X195834027Y-109527860D01*
X195860949Y-109478697D01*
X195923302Y-109444747D01*
X195949937Y-109441900D01*
X196811100Y-109441900D01*
X196879221Y-109461902D01*
X196925714Y-109515558D01*
X196937100Y-109567900D01*
X196937100Y-109611148D01*
X196948733Y-109669631D01*
X196993048Y-109735952D01*
X197003361Y-109742843D01*
X197042720Y-109769142D01*
X197059369Y-109780267D01*
X197071538Y-109782688D01*
X197071539Y-109782688D01*
X197111784Y-109790693D01*
X197117852Y-109791900D01*
X198057348Y-109791900D01*
X198063416Y-109790693D01*
X198103661Y-109782688D01*
X198103662Y-109782688D01*
X198115831Y-109780267D01*
X198132481Y-109769142D01*
X198171839Y-109742843D01*
X198182152Y-109735952D01*
X198226467Y-109669631D01*
X198238100Y-109611148D01*
X198238100Y-108371652D01*
X198231227Y-108337099D01*
X198228888Y-108325339D01*
X198228888Y-108325338D01*
X198226467Y-108313169D01*
X198182152Y-108246848D01*
X198140849Y-108219250D01*
X198126147Y-108209426D01*
X198115831Y-108202533D01*
X198103662Y-108200112D01*
X198103661Y-108200112D01*
X198063416Y-108192107D01*
X198057348Y-108190900D01*
X197117852Y-108190900D01*
X197111784Y-108192107D01*
X197071539Y-108200112D01*
X197071538Y-108200112D01*
X197059369Y-108202533D01*
X197049053Y-108209426D01*
X197034351Y-108219250D01*
X196993048Y-108246848D01*
X196948733Y-108313169D01*
X196946312Y-108325338D01*
X196946312Y-108325339D01*
X196943973Y-108337099D01*
X196937100Y-108371652D01*
X196937100Y-108414900D01*
X196917098Y-108483021D01*
X196863442Y-108529514D01*
X196811100Y-108540900D01*
X195949937Y-108540900D01*
X195881816Y-108520898D01*
X195835323Y-108467242D01*
X195831514Y-108455822D01*
X195830919Y-108456031D01*
X195805639Y-108384043D01*
X195786034Y-108328216D01*
X195780442Y-108320646D01*
X195780441Y-108320643D01*
X195711142Y-108226821D01*
X195705550Y-108219250D01*
X195668802Y-108192107D01*
X195604157Y-108144359D01*
X195604154Y-108144358D01*
X195596584Y-108138766D01*
X195468769Y-108093881D01*
X195461123Y-108093158D01*
X195461122Y-108093158D01*
X195455152Y-108092594D01*
X195437234Y-108090900D01*
X194804566Y-108090900D01*
X194786648Y-108092594D01*
X194780678Y-108093158D01*
X194780677Y-108093158D01*
X194773031Y-108093881D01*
X194645216Y-108138766D01*
X194637646Y-108144358D01*
X194637643Y-108144359D01*
X194572998Y-108192107D01*
X194536250Y-108219250D01*
X194530658Y-108226821D01*
X194461359Y-108320643D01*
X194461358Y-108320646D01*
X194455766Y-108328216D01*
X194410881Y-108456031D01*
X194407900Y-108487566D01*
X194407900Y-109495234D01*
X194410881Y-109526769D01*
X194455766Y-109654584D01*
X194461358Y-109662154D01*
X194461359Y-109662157D01*
X194508248Y-109725639D01*
X194536250Y-109763550D01*
X194543821Y-109769142D01*
X194543824Y-109769145D01*
X194619259Y-109824862D01*
X194662170Y-109881423D01*
X194670400Y-109926213D01*
X194670400Y-110977587D01*
X194650398Y-111045708D01*
X194619259Y-111078938D01*
X194543824Y-111134655D01*
X194543821Y-111134658D01*
X194536250Y-111140250D01*
X194530658Y-111147821D01*
X194461359Y-111241643D01*
X194461358Y-111241646D01*
X194455766Y-111249216D01*
X194410881Y-111377031D01*
X194407900Y-111408566D01*
X194407900Y-112416234D01*
X194008900Y-112416234D01*
X194008900Y-111408566D01*
X194005919Y-111377031D01*
X193961034Y-111249216D01*
X193955442Y-111241646D01*
X193955441Y-111241643D01*
X193886142Y-111147821D01*
X193880550Y-111140250D01*
X193797541Y-111078938D01*
X193779157Y-111065359D01*
X193779154Y-111065358D01*
X193771584Y-111059766D01*
X193643769Y-111014881D01*
X193636123Y-111014158D01*
X193636122Y-111014158D01*
X193630152Y-111013594D01*
X193612234Y-111011900D01*
X192979566Y-111011900D01*
X192961648Y-111013594D01*
X192955678Y-111014158D01*
X192955677Y-111014158D01*
X192948031Y-111014881D01*
X192820216Y-111059766D01*
X192812646Y-111065358D01*
X192812643Y-111065359D01*
X192794259Y-111078938D01*
X192711250Y-111140250D01*
X192705658Y-111147821D01*
X192636359Y-111241643D01*
X192636358Y-111241646D01*
X192630766Y-111249216D01*
X192585881Y-111377031D01*
X192582900Y-111408566D01*
X192582900Y-112416234D01*
X192585881Y-112447769D01*
X192630766Y-112575584D01*
X192636358Y-112583154D01*
X192636359Y-112583157D01*
X192705654Y-112676974D01*
X192711250Y-112684550D01*
X192768861Y-112727102D01*
X192811770Y-112783662D01*
X192820000Y-112828452D01*
X192820000Y-113542987D01*
X192799998Y-113611108D01*
X192768859Y-113644338D01*
X192693424Y-113700055D01*
X192693421Y-113700058D01*
X192685850Y-113705650D01*
X192680258Y-113713221D01*
X192610959Y-113807043D01*
X192610958Y-113807046D01*
X192605366Y-113814616D01*
X192560481Y-113942431D01*
X192557500Y-113973966D01*
X192557500Y-114981634D01*
X192560481Y-115013169D01*
X192605366Y-115140984D01*
X192610958Y-115148554D01*
X192610959Y-115148557D01*
X192664890Y-115221573D01*
X192685850Y-115249950D01*
X192693421Y-115255542D01*
X192767360Y-115310155D01*
X192810271Y-115366717D01*
X192818500Y-115411506D01*
X192818500Y-116076300D01*
X192798498Y-116144421D01*
X192744842Y-116190914D01*
X192692500Y-116202300D01*
X192648282Y-116202300D01*
X192643732Y-116202970D01*
X192643729Y-116202970D01*
X192620075Y-116206452D01*
X192579388Y-116212442D01*
X192570597Y-116216758D01*
X192570594Y-116216759D01*
X192524474Y-116239403D01*
X192468944Y-116252300D01*
X191957730Y-116252300D01*
X191934231Y-116250032D01*
X191927870Y-116248020D01*
X191921263Y-116247500D01*
X179065973Y-116247500D01*
X178997852Y-116227498D01*
X178951359Y-116173842D01*
X178939974Y-116121454D01*
X178949711Y-91154440D01*
X187024570Y-91154440D01*
X187039000Y-91374604D01*
X187040421Y-91380200D01*
X187040422Y-91380205D01*
X187091890Y-91582857D01*
X187093311Y-91588452D01*
X187095728Y-91593694D01*
X187095728Y-91593695D01*
X187133846Y-91676379D01*
X187185683Y-91788821D01*
X187313022Y-91969002D01*
X187471064Y-92122961D01*
X187475860Y-92126166D01*
X187475863Y-92126168D01*
X187560061Y-92182427D01*
X187654517Y-92245540D01*
X187659820Y-92247818D01*
X187659823Y-92247820D01*
X187851929Y-92330355D01*
X187857236Y-92332635D01*
X187936888Y-92350658D01*
X188066795Y-92380054D01*
X188066801Y-92380055D01*
X188072432Y-92381329D01*
X188078203Y-92381556D01*
X188078205Y-92381556D01*
X188146011Y-92384220D01*
X188292898Y-92389991D01*
X188402075Y-92374161D01*
X188505538Y-92359160D01*
X188505543Y-92359159D01*
X188511252Y-92358331D01*
X188516716Y-92356476D01*
X188516721Y-92356475D01*
X188714707Y-92289268D01*
X188714712Y-92289266D01*
X188720179Y-92287410D01*
X188912684Y-92179602D01*
X189082318Y-92038518D01*
X189223402Y-91868884D01*
X189331210Y-91676379D01*
X189333066Y-91670912D01*
X189333068Y-91670907D01*
X189400275Y-91472921D01*
X189400276Y-91472916D01*
X189402131Y-91467452D01*
X189402959Y-91461743D01*
X189402960Y-91461738D01*
X189433258Y-91252772D01*
X189433791Y-91249098D01*
X189435443Y-91186000D01*
X189415254Y-90966289D01*
X189355365Y-90753936D01*
X189257780Y-90556053D01*
X189125767Y-90379267D01*
X188963749Y-90229499D01*
X188777150Y-90111764D01*
X188572221Y-90030006D01*
X188566561Y-90028880D01*
X188566557Y-90028879D01*
X188361491Y-89988089D01*
X188361488Y-89988089D01*
X188355824Y-89986962D01*
X188350049Y-89986886D01*
X188350045Y-89986886D01*
X188239304Y-89985437D01*
X188135206Y-89984074D01*
X188129509Y-89985053D01*
X188129508Y-89985053D01*
X187923454Y-90020459D01*
X187923453Y-90020459D01*
X187917757Y-90021438D01*
X187710757Y-90097804D01*
X187521141Y-90210614D01*
X187355257Y-90356090D01*
X187218663Y-90529360D01*
X187115931Y-90724620D01*
X187050503Y-90935333D01*
X187024570Y-91154440D01*
X178949711Y-91154440D01*
X178951661Y-86154440D01*
X187024570Y-86154440D01*
X187039000Y-86374604D01*
X187040421Y-86380200D01*
X187040422Y-86380205D01*
X187091890Y-86582857D01*
X187093311Y-86588452D01*
X187095728Y-86593694D01*
X187095728Y-86593695D01*
X187133846Y-86676379D01*
X187185683Y-86788821D01*
X187313022Y-86969002D01*
X187471064Y-87122961D01*
X187475860Y-87126166D01*
X187475863Y-87126168D01*
X187560061Y-87182427D01*
X187654517Y-87245540D01*
X187659820Y-87247818D01*
X187659823Y-87247820D01*
X187851929Y-87330355D01*
X187857236Y-87332635D01*
X187936888Y-87350658D01*
X188066795Y-87380054D01*
X188066801Y-87380055D01*
X188072432Y-87381329D01*
X188078203Y-87381556D01*
X188078205Y-87381556D01*
X188146011Y-87384220D01*
X188292898Y-87389991D01*
X188402075Y-87374161D01*
X188505538Y-87359160D01*
X188505543Y-87359159D01*
X188511252Y-87358331D01*
X188516716Y-87356476D01*
X188516721Y-87356475D01*
X188714707Y-87289268D01*
X188714712Y-87289266D01*
X188720179Y-87287410D01*
X188912684Y-87179602D01*
X189082318Y-87038518D01*
X189223402Y-86868884D01*
X189331210Y-86676379D01*
X189333066Y-86670912D01*
X189333068Y-86670907D01*
X189400275Y-86472921D01*
X189400276Y-86472916D01*
X189402131Y-86467452D01*
X189402959Y-86461743D01*
X189402960Y-86461738D01*
X189433258Y-86252772D01*
X189433791Y-86249098D01*
X189435443Y-86186000D01*
X189415254Y-85966289D01*
X189355365Y-85753936D01*
X189257780Y-85556053D01*
X189125767Y-85379267D01*
X188963749Y-85229499D01*
X188777150Y-85111764D01*
X188572221Y-85030006D01*
X188566561Y-85028880D01*
X188566557Y-85028879D01*
X188361491Y-84988089D01*
X188361488Y-84988089D01*
X188355824Y-84986962D01*
X188350049Y-84986886D01*
X188350045Y-84986886D01*
X188239304Y-84985437D01*
X188135206Y-84984074D01*
X188129509Y-84985053D01*
X188129508Y-84985053D01*
X187923454Y-85020459D01*
X187923453Y-85020459D01*
X187917757Y-85021438D01*
X187710757Y-85097804D01*
X187521141Y-85210614D01*
X187355257Y-85356090D01*
X187218663Y-85529360D01*
X187115931Y-85724620D01*
X187050503Y-85935333D01*
X187024570Y-86154440D01*
X178951661Y-86154440D01*
X178953611Y-81154440D01*
X187024570Y-81154440D01*
X187039000Y-81374604D01*
X187040421Y-81380200D01*
X187040422Y-81380205D01*
X187072859Y-81507923D01*
X187093311Y-81588452D01*
X187095728Y-81593694D01*
X187095728Y-81593695D01*
X187133846Y-81676379D01*
X187185683Y-81788821D01*
X187313022Y-81969002D01*
X187471064Y-82122961D01*
X187475860Y-82126166D01*
X187475863Y-82126168D01*
X187560061Y-82182427D01*
X187654517Y-82245540D01*
X187659820Y-82247818D01*
X187659823Y-82247820D01*
X187851929Y-82330355D01*
X187857236Y-82332635D01*
X187936888Y-82350658D01*
X188066795Y-82380054D01*
X188066801Y-82380055D01*
X188072432Y-82381329D01*
X188078203Y-82381556D01*
X188078205Y-82381556D01*
X188146011Y-82384220D01*
X188292898Y-82389991D01*
X188402075Y-82374161D01*
X188505538Y-82359160D01*
X188505543Y-82359159D01*
X188511252Y-82358331D01*
X188516716Y-82356476D01*
X188516721Y-82356475D01*
X188714707Y-82289268D01*
X188714712Y-82289266D01*
X188720179Y-82287410D01*
X188912684Y-82179602D01*
X189082318Y-82038518D01*
X189145419Y-81962648D01*
X189219708Y-81873326D01*
X189219710Y-81873323D01*
X189223402Y-81868884D01*
X189331210Y-81676379D01*
X189333066Y-81670912D01*
X189333068Y-81670907D01*
X189400275Y-81472921D01*
X189400276Y-81472916D01*
X189402131Y-81467452D01*
X189402959Y-81461743D01*
X189402960Y-81461738D01*
X189424914Y-81310319D01*
X189433791Y-81249098D01*
X189435443Y-81186000D01*
X189415254Y-80966289D01*
X189355365Y-80753936D01*
X189257780Y-80556053D01*
X189125767Y-80379267D01*
X188963749Y-80229499D01*
X188777150Y-80111764D01*
X188572221Y-80030006D01*
X188566561Y-80028880D01*
X188566557Y-80028879D01*
X188361491Y-79988089D01*
X188361488Y-79988089D01*
X188355824Y-79986962D01*
X188350049Y-79986886D01*
X188350045Y-79986886D01*
X188239304Y-79985437D01*
X188135206Y-79984074D01*
X188129509Y-79985053D01*
X188129508Y-79985053D01*
X187923454Y-80020459D01*
X187923453Y-80020459D01*
X187917757Y-80021438D01*
X187710757Y-80097804D01*
X187521141Y-80210614D01*
X187355257Y-80356090D01*
X187218663Y-80529360D01*
X187115931Y-80724620D01*
X187050503Y-80935333D01*
X187024570Y-81154440D01*
X178953611Y-81154440D01*
X178956554Y-73608318D01*
X178976583Y-73540206D01*
X179030256Y-73493734D01*
X179100534Y-73483658D01*
X179165104Y-73513176D01*
X179205248Y-73579694D01*
X179218024Y-73634361D01*
X179257742Y-73745096D01*
X179340507Y-73865561D01*
X179388629Y-73917760D01*
X179501979Y-74010026D01*
X180045880Y-74336367D01*
X180049800Y-74338049D01*
X180049802Y-74338050D01*
X180169091Y-74389234D01*
X180169094Y-74389235D01*
X180173007Y-74390914D01*
X180205420Y-74399892D01*
X180233725Y-74407732D01*
X180233733Y-74407734D01*
X180237832Y-74408869D01*
X180242043Y-74409441D01*
X180242051Y-74409443D01*
X180346915Y-74423696D01*
X180374899Y-74427500D01*
X185663112Y-74427500D01*
X185731233Y-74447502D01*
X185752207Y-74464405D01*
X185885595Y-74597793D01*
X185919621Y-74660105D01*
X185922500Y-74686888D01*
X185922500Y-77296390D01*
X185923712Y-77331649D01*
X185924900Y-77348910D01*
X185928529Y-77383998D01*
X185968953Y-77524454D01*
X185970797Y-77528550D01*
X185970800Y-77528558D01*
X185989270Y-77569582D01*
X185998099Y-77589193D01*
X186076456Y-77712572D01*
X186770408Y-78522182D01*
X186822972Y-78575171D01*
X186824698Y-78576675D01*
X186824710Y-78576686D01*
X186848778Y-78597654D01*
X186850517Y-78599169D01*
X186852358Y-78600551D01*
X186904781Y-78639905D01*
X186904786Y-78639908D01*
X186910213Y-78643982D01*
X187043162Y-78704698D01*
X187066916Y-78711673D01*
X187106960Y-78723431D01*
X187106964Y-78723432D01*
X187111283Y-78724700D01*
X187115732Y-78725340D01*
X187115738Y-78725341D01*
X187251505Y-78744861D01*
X187251510Y-78744861D01*
X187255952Y-78745500D01*
X196682622Y-78745500D01*
X196687443Y-78744746D01*
X196687448Y-78744746D01*
X196834504Y-78721758D01*
X196834506Y-78721758D01*
X196839333Y-78721003D01*
X196886255Y-78705966D01*
X196907917Y-78699024D01*
X196907919Y-78699023D01*
X196912569Y-78697533D01*
X196916929Y-78695345D01*
X196916933Y-78695343D01*
X197019259Y-78643982D01*
X197054324Y-78626382D01*
X197857703Y-78052540D01*
X197859964Y-78050576D01*
X197859971Y-78050571D01*
X197892763Y-78022094D01*
X197931128Y-77988778D01*
X197963889Y-77954370D01*
X197992266Y-77918259D01*
X198019350Y-77883793D01*
X198019351Y-77883791D01*
X198023982Y-77877898D01*
X198084698Y-77744949D01*
X198104700Y-77676828D01*
X198117891Y-77585086D01*
X198124861Y-77536606D01*
X198124861Y-77536601D01*
X198125500Y-77532159D01*
X198125500Y-75738610D01*
X198124288Y-75703351D01*
X198123100Y-75686090D01*
X198119471Y-75651002D01*
X198079047Y-75510546D01*
X198077203Y-75506450D01*
X198077200Y-75506442D01*
X198051750Y-75449914D01*
X198049901Y-75445807D01*
X197971544Y-75322428D01*
X197277592Y-74512818D01*
X197225028Y-74459829D01*
X197223302Y-74458325D01*
X197223290Y-74458314D01*
X197199222Y-74437346D01*
X197199221Y-74437345D01*
X197197483Y-74435831D01*
X197185621Y-74426926D01*
X197143219Y-74395095D01*
X197143214Y-74395092D01*
X197137787Y-74391018D01*
X197004838Y-74330302D01*
X196981084Y-74323327D01*
X196941040Y-74311569D01*
X196941036Y-74311568D01*
X196936717Y-74310300D01*
X196932268Y-74309660D01*
X196932262Y-74309659D01*
X196796495Y-74290139D01*
X196796490Y-74290139D01*
X196792048Y-74289500D01*
X195082888Y-74289500D01*
X195014767Y-74269498D01*
X194993793Y-74252595D01*
X194987405Y-74246207D01*
X194953379Y-74183895D01*
X194950500Y-74157112D01*
X194950500Y-72132756D01*
X194970502Y-72064635D01*
X195024158Y-72018142D01*
X195094432Y-72008038D01*
X195118246Y-72013873D01*
X195121378Y-72014973D01*
X195121386Y-72014975D01*
X195128631Y-72017519D01*
X195136277Y-72018242D01*
X195136278Y-72018242D01*
X195142248Y-72018806D01*
X195160166Y-72020500D01*
X195792834Y-72020500D01*
X195810752Y-72018806D01*
X195816722Y-72018242D01*
X195816723Y-72018242D01*
X195824369Y-72017519D01*
X195952184Y-71972634D01*
X195959754Y-71967042D01*
X195959757Y-71967041D01*
X196053579Y-71897742D01*
X196061150Y-71892150D01*
X196076299Y-71871640D01*
X196132860Y-71828730D01*
X196177650Y-71820500D01*
X197167940Y-71820500D01*
X197236061Y-71840502D01*
X197282554Y-71894158D01*
X197286822Y-71904750D01*
X197314366Y-71983184D01*
X197319958Y-71990754D01*
X197319959Y-71990757D01*
X197340260Y-72018242D01*
X197394850Y-72092150D01*
X197402421Y-72097742D01*
X197496243Y-72167041D01*
X197496246Y-72167042D01*
X197503816Y-72172634D01*
X197631631Y-72217519D01*
X197639277Y-72218242D01*
X197639278Y-72218242D01*
X197645248Y-72218806D01*
X197663166Y-72220500D01*
X198420834Y-72220500D01*
X198438752Y-72218806D01*
X198444722Y-72218242D01*
X198444723Y-72218242D01*
X198452369Y-72217519D01*
X198580184Y-72172634D01*
X198587754Y-72167042D01*
X198587757Y-72167041D01*
X198681579Y-72097742D01*
X198689150Y-72092150D01*
X198743740Y-72018242D01*
X198764041Y-71990757D01*
X198764042Y-71990754D01*
X198769634Y-71983184D01*
X198814519Y-71855369D01*
X198817500Y-71823834D01*
X198817500Y-70416166D01*
X198814519Y-70384631D01*
X198769634Y-70256816D01*
X198764042Y-70249246D01*
X198764041Y-70249243D01*
X198694742Y-70155421D01*
X198689150Y-70147850D01*
X198668628Y-70132692D01*
X198587757Y-70072959D01*
X198587754Y-70072958D01*
X198580184Y-70067366D01*
X198452369Y-70022481D01*
X198444723Y-70021758D01*
X198444722Y-70021758D01*
X198438752Y-70021194D01*
X198420834Y-70019500D01*
X197663166Y-70019500D01*
X197645248Y-70021194D01*
X197639278Y-70021758D01*
X197639277Y-70021758D01*
X197631631Y-70022481D01*
X197503816Y-70067366D01*
X197496246Y-70072958D01*
X197496243Y-70072959D01*
X197415372Y-70132692D01*
X197394850Y-70147850D01*
X197389258Y-70155421D01*
X197319959Y-70249243D01*
X197319958Y-70249246D01*
X197314366Y-70256816D01*
X197308697Y-70272959D01*
X197286823Y-70335248D01*
X197245380Y-70392894D01*
X197179350Y-70418982D01*
X197167940Y-70419500D01*
X196177650Y-70419500D01*
X196109529Y-70399498D01*
X196076299Y-70368360D01*
X196066742Y-70355421D01*
X196061150Y-70347850D01*
X196002500Y-70304530D01*
X195959757Y-70272959D01*
X195959754Y-70272958D01*
X195952184Y-70267366D01*
X195824369Y-70222481D01*
X195816723Y-70221758D01*
X195816722Y-70221758D01*
X195810752Y-70221194D01*
X195792834Y-70219500D01*
X195160166Y-70219500D01*
X195142248Y-70221194D01*
X195136278Y-70221758D01*
X195136277Y-70221758D01*
X195128631Y-70222481D01*
X195121387Y-70225025D01*
X195121382Y-70225026D01*
X195115263Y-70227175D01*
X195044363Y-70230871D01*
X194982719Y-70195650D01*
X194949903Y-70132692D01*
X194947772Y-70116293D01*
X194946486Y-70096084D01*
X194946359Y-70094087D01*
X194942311Y-70062404D01*
X194929952Y-69998358D01*
X194873441Y-69863567D01*
X194836952Y-69802665D01*
X194833817Y-69798808D01*
X194747598Y-69692750D01*
X194744760Y-69689259D01*
X193170494Y-68236091D01*
X193169451Y-68235209D01*
X193169435Y-68235195D01*
X193137404Y-68208114D01*
X193136361Y-68207232D01*
X193130457Y-68202665D01*
X193120092Y-68194648D01*
X193120075Y-68194635D01*
X193119022Y-68193821D01*
X193100673Y-68180866D01*
X193087278Y-68171408D01*
X193087275Y-68171406D01*
X193082476Y-68168018D01*
X192949527Y-68107302D01*
X192925773Y-68100327D01*
X192885729Y-68088569D01*
X192885725Y-68088568D01*
X192881406Y-68087300D01*
X192876957Y-68086660D01*
X192876951Y-68086659D01*
X192741184Y-68067139D01*
X192741179Y-68067139D01*
X192736737Y-68066500D01*
X180384198Y-68066500D01*
X180371950Y-68066817D01*
X180358455Y-68067166D01*
X180358430Y-68067167D01*
X180357618Y-68067188D01*
X180344595Y-68067863D01*
X180343812Y-68067924D01*
X180343780Y-68067926D01*
X180323401Y-68069512D01*
X180323396Y-68069513D01*
X180318100Y-68069925D01*
X180249001Y-68087300D01*
X180180717Y-68104470D01*
X180180715Y-68104471D01*
X180176355Y-68105567D01*
X180143511Y-68119035D01*
X180114823Y-68130798D01*
X180114818Y-68130800D01*
X180110666Y-68132503D01*
X180106797Y-68134780D01*
X180106791Y-68134783D01*
X179988580Y-68204354D01*
X179988576Y-68204357D01*
X179984705Y-68206635D01*
X179431507Y-68649194D01*
X179429644Y-68650950D01*
X179429641Y-68650953D01*
X179372749Y-68704589D01*
X179372742Y-68704596D01*
X179370887Y-68706345D01*
X179369170Y-68708250D01*
X179345314Y-68734712D01*
X179345306Y-68734722D01*
X179343601Y-68736613D01*
X179342058Y-68738632D01*
X179342051Y-68738641D01*
X179300252Y-68793351D01*
X179293018Y-68802820D01*
X179290084Y-68809244D01*
X179290083Y-68809246D01*
X179280131Y-68831038D01*
X179232302Y-68935769D01*
X179212300Y-69003890D01*
X179211660Y-69008344D01*
X179211657Y-69008356D01*
X179209065Y-69026383D01*
X179179571Y-69090964D01*
X179119845Y-69129347D01*
X179048848Y-69129346D01*
X178989123Y-69090961D01*
X178959630Y-69026380D01*
X178958348Y-69008401D01*
X178958352Y-68999567D01*
X178961815Y-60119499D01*
X178981844Y-60051387D01*
X178990973Y-60038941D01*
X179196524Y-59791995D01*
X182689817Y-55595192D01*
X182748771Y-55555631D01*
X182786659Y-55549800D01*
X238406794Y-55549800D01*
X238474915Y-55569802D01*
G37*
%TD.AperFunction*%
%TD*%
%TA.AperFunction,Conductor*%
%TO.N,Net-(C11-Pad1)*%
G36*
X132592566Y-97401619D02*
G01*
X132964812Y-97625457D01*
X133012884Y-97677703D01*
X133025880Y-97732897D01*
X133076376Y-109498395D01*
X133128747Y-109616989D01*
X133567803Y-110611231D01*
X133604000Y-110693200D01*
X133622643Y-110693129D01*
X133622644Y-110693129D01*
X138881279Y-110672981D01*
X140184304Y-110667988D01*
X140252501Y-110687729D01*
X140269680Y-110700879D01*
X141054339Y-111416303D01*
X141091201Y-111476980D01*
X141095397Y-111512910D01*
X141047948Y-113221069D01*
X141026063Y-113288608D01*
X140994827Y-113320389D01*
X140469326Y-113692619D01*
X140396496Y-113715800D01*
X122726835Y-113715800D01*
X122658714Y-113695798D01*
X122647244Y-113687480D01*
X122157719Y-113288608D01*
X122042609Y-113194814D01*
X122002434Y-113136278D01*
X121996200Y-113097135D01*
X121996200Y-111399444D01*
X122016202Y-111331323D01*
X122025660Y-111318475D01*
X122618832Y-110611231D01*
X122677932Y-110571891D01*
X122715372Y-110566200D01*
X129565400Y-110566200D01*
X130251200Y-109601000D01*
X130251200Y-97707978D01*
X130271202Y-97639857D01*
X130279681Y-97628190D01*
X130441990Y-97429812D01*
X130500608Y-97389756D01*
X130539509Y-97383600D01*
X132527635Y-97383600D01*
X132592566Y-97401619D01*
G37*
%TD.AperFunction*%
%TD*%
%TA.AperFunction,Conductor*%
%TO.N,/Vin*%
G36*
X158638931Y-68346002D02*
G01*
X158659905Y-68362905D01*
X159600344Y-69303344D01*
X159634370Y-69365656D01*
X159637179Y-69396635D01*
X159512000Y-73152000D01*
X159512000Y-77177851D01*
X159490838Y-77247743D01*
X158584205Y-78607692D01*
X158529776Y-78653277D01*
X158479367Y-78663800D01*
X153702305Y-78663800D01*
X153641681Y-78648257D01*
X152698154Y-78130400D01*
X152651876Y-78105000D01*
X152635968Y-78105008D01*
X152635967Y-78105008D01*
X102992723Y-78130376D01*
X102924592Y-78110409D01*
X102910824Y-78100183D01*
X101768917Y-77124804D01*
X101730111Y-77065352D01*
X101724848Y-77033915D01*
X101724348Y-77021100D01*
X101661515Y-75412600D01*
X103821926Y-75412600D01*
X103841791Y-75665003D01*
X103842945Y-75669810D01*
X103842946Y-75669816D01*
X103855767Y-75723218D01*
X103900895Y-75911191D01*
X103902788Y-75915762D01*
X103902789Y-75915764D01*
X103916676Y-75949289D01*
X103997784Y-76145102D01*
X104130072Y-76360976D01*
X104294502Y-76553498D01*
X104487024Y-76717928D01*
X104702898Y-76850216D01*
X104707468Y-76852109D01*
X104707472Y-76852111D01*
X104932236Y-76945211D01*
X104936809Y-76947105D01*
X105021432Y-76967421D01*
X105178184Y-77005054D01*
X105178190Y-77005055D01*
X105182997Y-77006209D01*
X105282816Y-77014065D01*
X105369745Y-77020907D01*
X105369752Y-77020907D01*
X105372201Y-77021100D01*
X105498599Y-77021100D01*
X105501048Y-77020907D01*
X105501055Y-77020907D01*
X105587984Y-77014065D01*
X105687803Y-77006209D01*
X105692610Y-77005055D01*
X105692616Y-77005054D01*
X105849368Y-76967421D01*
X105933991Y-76947105D01*
X105938564Y-76945211D01*
X106163328Y-76852111D01*
X106163332Y-76852109D01*
X106167902Y-76850216D01*
X106383776Y-76717928D01*
X106576298Y-76553498D01*
X106740728Y-76360976D01*
X106847954Y-76186000D01*
X154116635Y-76186000D01*
X154135265Y-76422711D01*
X154190695Y-76653594D01*
X154192588Y-76658165D01*
X154192589Y-76658167D01*
X154272923Y-76852111D01*
X154281560Y-76872963D01*
X154284146Y-76877183D01*
X154403041Y-77071202D01*
X154403045Y-77071208D01*
X154405624Y-77075416D01*
X154559831Y-77255969D01*
X154740384Y-77410176D01*
X154744592Y-77412755D01*
X154744598Y-77412759D01*
X154938617Y-77531654D01*
X154942837Y-77534240D01*
X154947407Y-77536133D01*
X154947411Y-77536135D01*
X155157633Y-77623211D01*
X155162206Y-77625105D01*
X155242409Y-77644360D01*
X155388276Y-77679380D01*
X155388282Y-77679381D01*
X155393089Y-77680535D01*
X155629800Y-77699165D01*
X155866511Y-77680535D01*
X155871318Y-77679381D01*
X155871324Y-77679380D01*
X156017191Y-77644360D01*
X156097394Y-77625105D01*
X156101967Y-77623211D01*
X156312189Y-77536135D01*
X156312193Y-77536133D01*
X156316763Y-77534240D01*
X156320983Y-77531654D01*
X156515002Y-77412759D01*
X156515008Y-77412755D01*
X156519216Y-77410176D01*
X156699769Y-77255969D01*
X156853976Y-77075416D01*
X156856555Y-77071208D01*
X156856559Y-77071202D01*
X156975454Y-76877183D01*
X156978040Y-76872963D01*
X156986678Y-76852111D01*
X157067011Y-76658167D01*
X157067012Y-76658165D01*
X157068905Y-76653594D01*
X157124335Y-76422711D01*
X157142965Y-76186000D01*
X157124335Y-75949289D01*
X157116287Y-75915764D01*
X157070060Y-75723218D01*
X157068905Y-75718406D01*
X157067011Y-75713833D01*
X156979935Y-75503611D01*
X156979933Y-75503607D01*
X156978040Y-75499037D01*
X156922050Y-75407670D01*
X156856559Y-75300798D01*
X156856555Y-75300792D01*
X156853976Y-75296584D01*
X156699769Y-75116031D01*
X156519216Y-74961824D01*
X156515008Y-74959245D01*
X156515002Y-74959241D01*
X156320983Y-74840346D01*
X156316763Y-74837760D01*
X156312193Y-74835867D01*
X156312189Y-74835865D01*
X156101967Y-74748789D01*
X156101965Y-74748788D01*
X156097394Y-74746895D01*
X156017191Y-74727640D01*
X155871324Y-74692620D01*
X155871318Y-74692619D01*
X155866511Y-74691465D01*
X155629800Y-74672835D01*
X155393089Y-74691465D01*
X155388282Y-74692619D01*
X155388276Y-74692620D01*
X155242409Y-74727640D01*
X155162206Y-74746895D01*
X155157635Y-74748788D01*
X155157633Y-74748789D01*
X154947411Y-74835865D01*
X154947407Y-74835867D01*
X154942837Y-74837760D01*
X154938617Y-74840346D01*
X154744598Y-74959241D01*
X154744592Y-74959245D01*
X154740384Y-74961824D01*
X154559831Y-75116031D01*
X154405624Y-75296584D01*
X154403045Y-75300792D01*
X154403041Y-75300798D01*
X154337550Y-75407670D01*
X154281560Y-75499037D01*
X154279667Y-75503607D01*
X154279665Y-75503611D01*
X154192589Y-75713833D01*
X154190695Y-75718406D01*
X154189540Y-75723218D01*
X154143314Y-75915764D01*
X154135265Y-75949289D01*
X154116635Y-76186000D01*
X106847954Y-76186000D01*
X106873016Y-76145102D01*
X106954125Y-75949289D01*
X106968011Y-75915764D01*
X106968012Y-75915762D01*
X106969905Y-75911191D01*
X107015033Y-75723218D01*
X107027854Y-75669816D01*
X107027855Y-75669810D01*
X107029009Y-75665003D01*
X107048874Y-75412600D01*
X107029009Y-75160197D01*
X106969905Y-74914009D01*
X106901469Y-74748789D01*
X106874911Y-74684672D01*
X106874909Y-74684668D01*
X106873016Y-74680098D01*
X106740728Y-74464224D01*
X106576298Y-74271702D01*
X106383776Y-74107272D01*
X106167902Y-73974984D01*
X106163332Y-73973091D01*
X106163328Y-73973089D01*
X105938564Y-73879989D01*
X105938562Y-73879988D01*
X105933991Y-73878095D01*
X105849368Y-73857779D01*
X105692616Y-73820146D01*
X105692610Y-73820145D01*
X105687803Y-73818991D01*
X105587984Y-73811135D01*
X105501055Y-73804293D01*
X105501048Y-73804293D01*
X105498599Y-73804100D01*
X105372201Y-73804100D01*
X105369752Y-73804293D01*
X105369745Y-73804293D01*
X105282816Y-73811135D01*
X105182997Y-73818991D01*
X105178190Y-73820145D01*
X105178184Y-73820146D01*
X105021432Y-73857779D01*
X104936809Y-73878095D01*
X104932238Y-73879988D01*
X104932236Y-73879989D01*
X104707472Y-73973089D01*
X104707468Y-73973091D01*
X104702898Y-73974984D01*
X104487024Y-74107272D01*
X104294502Y-74271702D01*
X104130072Y-74464224D01*
X103997784Y-74680098D01*
X103995891Y-74684668D01*
X103995889Y-74684672D01*
X103969331Y-74748789D01*
X103900895Y-74914009D01*
X103841791Y-75160197D01*
X103821926Y-75412600D01*
X101661515Y-75412600D01*
X101643806Y-74959241D01*
X101601953Y-73887787D01*
X101619281Y-73818938D01*
X101632868Y-73800086D01*
X102549527Y-72748266D01*
X102609362Y-72710052D01*
X102644252Y-72705049D01*
X151507487Y-72603568D01*
X152527000Y-72186800D01*
X152527000Y-69272176D01*
X152547002Y-69204055D01*
X152570028Y-69177351D01*
X153105653Y-68708679D01*
X153507372Y-68357175D01*
X153571809Y-68327371D01*
X153590343Y-68326000D01*
X158570810Y-68326000D01*
X158638931Y-68346002D01*
G37*
%TD.AperFunction*%
%TD*%
%TA.AperFunction,Conductor*%
%TO.N,Net-(D2-Pad2)*%
G36*
X192804858Y-68600002D02*
G01*
X192822197Y-68613413D01*
X193401939Y-69148559D01*
X194396463Y-70066581D01*
X194432952Y-70127483D01*
X194437000Y-70159166D01*
X194437000Y-74422000D01*
X194818000Y-74803000D01*
X196792048Y-74803000D01*
X196860169Y-74823002D01*
X196887714Y-74847000D01*
X197581666Y-75656610D01*
X197610812Y-75721349D01*
X197612000Y-75738610D01*
X197612000Y-77532159D01*
X197591998Y-77600280D01*
X197559237Y-77634688D01*
X196784600Y-78188000D01*
X196755858Y-78208530D01*
X196682622Y-78232000D01*
X187255952Y-78232000D01*
X187187831Y-78211998D01*
X187160286Y-78188000D01*
X186466334Y-77378390D01*
X186437188Y-77313651D01*
X186436000Y-77296390D01*
X186436000Y-76186000D01*
X186716635Y-76186000D01*
X186735265Y-76422711D01*
X186790695Y-76653594D01*
X186881560Y-76872963D01*
X186884146Y-76877183D01*
X187003041Y-77071202D01*
X187003045Y-77071208D01*
X187005624Y-77075416D01*
X187159831Y-77255969D01*
X187340384Y-77410176D01*
X187344592Y-77412755D01*
X187344598Y-77412759D01*
X187538617Y-77531654D01*
X187542837Y-77534240D01*
X187547407Y-77536133D01*
X187547411Y-77536135D01*
X187757633Y-77623211D01*
X187762206Y-77625105D01*
X187842409Y-77644360D01*
X187988276Y-77679380D01*
X187988282Y-77679381D01*
X187993089Y-77680535D01*
X188229800Y-77699165D01*
X188466511Y-77680535D01*
X188471318Y-77679381D01*
X188471324Y-77679380D01*
X188617191Y-77644360D01*
X188697394Y-77625105D01*
X188701967Y-77623211D01*
X188912189Y-77536135D01*
X188912193Y-77536133D01*
X188916763Y-77534240D01*
X188920983Y-77531654D01*
X189115002Y-77412759D01*
X189115008Y-77412755D01*
X189119216Y-77410176D01*
X189299769Y-77255969D01*
X189453976Y-77075416D01*
X189456555Y-77071208D01*
X189456559Y-77071202D01*
X189575454Y-76877183D01*
X189578040Y-76872963D01*
X189668905Y-76653594D01*
X189724335Y-76422711D01*
X189742965Y-76186000D01*
X189724335Y-75949289D01*
X189668905Y-75718406D01*
X189667011Y-75713833D01*
X189579935Y-75503611D01*
X189579933Y-75503607D01*
X189578040Y-75499037D01*
X189575454Y-75494817D01*
X189456559Y-75300798D01*
X189456555Y-75300792D01*
X189453976Y-75296584D01*
X189299769Y-75116031D01*
X189119216Y-74961824D01*
X189115008Y-74959245D01*
X189115002Y-74959241D01*
X188920983Y-74840346D01*
X188916763Y-74837760D01*
X188912193Y-74835867D01*
X188912189Y-74835865D01*
X188701967Y-74748789D01*
X188701965Y-74748788D01*
X188697394Y-74746895D01*
X188617191Y-74727640D01*
X188471324Y-74692620D01*
X188471318Y-74692619D01*
X188466511Y-74691465D01*
X188229800Y-74672835D01*
X187993089Y-74691465D01*
X187988282Y-74692619D01*
X187988276Y-74692620D01*
X187842409Y-74727640D01*
X187762206Y-74746895D01*
X187757635Y-74748788D01*
X187757633Y-74748789D01*
X187547411Y-74835865D01*
X187547407Y-74835867D01*
X187542837Y-74837760D01*
X187538617Y-74840346D01*
X187344598Y-74959241D01*
X187344592Y-74959245D01*
X187340384Y-74961824D01*
X187159831Y-75116031D01*
X187005624Y-75296584D01*
X187003045Y-75300792D01*
X187003041Y-75300798D01*
X186884146Y-75494817D01*
X186881560Y-75499037D01*
X186879667Y-75503607D01*
X186879665Y-75503611D01*
X186792589Y-75713833D01*
X186790695Y-75718406D01*
X186735265Y-75949289D01*
X186716635Y-76186000D01*
X186436000Y-76186000D01*
X186436000Y-74422000D01*
X185928000Y-73914000D01*
X180374899Y-73914000D01*
X180310074Y-73896045D01*
X179766173Y-73569704D01*
X179718051Y-73517505D01*
X179705000Y-73461660D01*
X179705000Y-69148559D01*
X179725002Y-69080438D01*
X179752288Y-69050170D01*
X180305486Y-68607611D01*
X180371175Y-68580675D01*
X180384198Y-68580000D01*
X192736737Y-68580000D01*
X192804858Y-68600002D01*
G37*
%TD.AperFunction*%
%TD*%
%TA.AperFunction,Conductor*%
%TO.N,Net-(C10-Pad2)*%
G36*
X128518827Y-78613958D02*
G01*
X128529618Y-78621695D01*
X129082712Y-79064170D01*
X129123410Y-79122343D01*
X129130000Y-79162559D01*
X129130000Y-83240810D01*
X129109998Y-83308931D01*
X129093095Y-83329905D01*
X128532079Y-83890921D01*
X128469767Y-83924947D01*
X128442564Y-83927825D01*
X119023797Y-83896368D01*
X118955745Y-83876139D01*
X118937270Y-83861560D01*
X118379681Y-83329905D01*
X117920451Y-82892034D01*
X117884952Y-82830550D01*
X117881400Y-82800844D01*
X117881400Y-79128152D01*
X117901402Y-79060031D01*
X117925400Y-79032486D01*
X118379513Y-78643246D01*
X118444252Y-78614100D01*
X118461270Y-78612912D01*
X123199668Y-78603981D01*
X128450669Y-78594084D01*
X128518827Y-78613958D01*
G37*
%TD.AperFunction*%
%TD*%
%TA.AperFunction,Conductor*%
%TO.N,Net-(D1-Pad2)*%
G36*
X140488604Y-78626302D02*
G01*
X141408349Y-79086175D01*
X141460333Y-79134530D01*
X141478000Y-79198873D01*
X141478000Y-91567000D01*
X143002000Y-93218000D01*
X158311048Y-93218000D01*
X158379169Y-93238002D01*
X158406714Y-93262000D01*
X159100666Y-94071610D01*
X159129812Y-94136349D01*
X159131000Y-94153610D01*
X159131000Y-99887375D01*
X159110998Y-99955496D01*
X159082357Y-99986833D01*
X158022125Y-100811458D01*
X157956073Y-100837492D01*
X157944768Y-100838000D01*
X134679015Y-100838000D01*
X134610894Y-100817998D01*
X134582219Y-100792663D01*
X134014204Y-100111045D01*
X133985960Y-100045908D01*
X133985000Y-100030382D01*
X133985000Y-93774541D01*
X134005002Y-93706420D01*
X134017566Y-93690006D01*
X136385846Y-91072434D01*
X136385847Y-91072433D01*
X136398000Y-91059000D01*
X136398000Y-79181559D01*
X136418002Y-79113438D01*
X136445288Y-79083170D01*
X136998486Y-78640611D01*
X137064175Y-78613675D01*
X137077198Y-78613000D01*
X140432255Y-78613000D01*
X140488604Y-78626302D01*
G37*
%TD.AperFunction*%
%TD*%
%TA.AperFunction,Conductor*%
%TO.N,/Vin*%
G36*
X117232762Y-78136545D02*
G01*
X117232761Y-78136547D01*
X117221045Y-82811286D01*
X117221000Y-82829400D01*
X117304952Y-82916104D01*
X118735425Y-84393478D01*
X118768440Y-84456331D01*
X118770898Y-84479878D01*
X118795794Y-86994394D01*
X118795800Y-86995641D01*
X118795800Y-91469900D01*
X118775798Y-91538021D01*
X118722142Y-91584514D01*
X118669800Y-91595900D01*
X117245400Y-91595900D01*
X117177279Y-91575898D01*
X117130786Y-91522242D01*
X117119400Y-91469900D01*
X117119400Y-88061800D01*
X117111493Y-88052986D01*
X117111493Y-88052985D01*
X112503408Y-82916104D01*
X112472809Y-82852040D01*
X112471200Y-82831967D01*
X112471200Y-72694800D01*
X117246400Y-72694800D01*
X117232762Y-78136545D01*
G37*
%TD.AperFunction*%
%TD*%
%TA.AperFunction,Conductor*%
%TO.N,/Vout*%
G36*
X238386116Y-69186820D02*
G01*
X239468188Y-69939566D01*
X239512686Y-69994887D01*
X239522233Y-70042552D01*
X239534728Y-73553470D01*
X239540470Y-75166900D01*
X239547169Y-77049417D01*
X239527410Y-77117608D01*
X239494591Y-77152263D01*
X238652895Y-77755743D01*
X238234078Y-78056027D01*
X238160743Y-78079627D01*
X225837346Y-78087881D01*
X200346486Y-78104955D01*
X200278353Y-78084999D01*
X200241565Y-78048847D01*
X200046162Y-77755743D01*
X200025000Y-77685851D01*
X200025000Y-73558400D01*
X234250926Y-73558400D01*
X234270791Y-73810803D01*
X234329895Y-74056991D01*
X234426784Y-74290902D01*
X234559072Y-74506776D01*
X234723502Y-74699298D01*
X234916024Y-74863728D01*
X235131898Y-74996016D01*
X235136468Y-74997909D01*
X235136472Y-74997911D01*
X235361236Y-75091011D01*
X235365809Y-75092905D01*
X235450432Y-75113221D01*
X235607184Y-75150854D01*
X235607190Y-75150855D01*
X235611997Y-75152009D01*
X235711816Y-75159865D01*
X235798745Y-75166707D01*
X235798752Y-75166707D01*
X235801201Y-75166900D01*
X235927599Y-75166900D01*
X235930048Y-75166707D01*
X235930055Y-75166707D01*
X236016984Y-75159865D01*
X236116803Y-75152009D01*
X236121610Y-75150855D01*
X236121616Y-75150854D01*
X236278368Y-75113221D01*
X236362991Y-75092905D01*
X236367564Y-75091011D01*
X236592328Y-74997911D01*
X236592332Y-74997909D01*
X236596902Y-74996016D01*
X236812776Y-74863728D01*
X237005298Y-74699298D01*
X237169728Y-74506776D01*
X237302016Y-74290902D01*
X237398905Y-74056991D01*
X237458009Y-73810803D01*
X237477874Y-73558400D01*
X237458009Y-73305997D01*
X237398905Y-73059809D01*
X237302016Y-72825898D01*
X237169728Y-72610024D01*
X237005298Y-72417502D01*
X236812776Y-72253072D01*
X236596902Y-72120784D01*
X236592332Y-72118891D01*
X236592328Y-72118889D01*
X236367564Y-72025789D01*
X236367562Y-72025788D01*
X236362991Y-72023895D01*
X236278368Y-72003579D01*
X236121616Y-71965946D01*
X236121610Y-71965945D01*
X236116803Y-71964791D01*
X236016984Y-71956935D01*
X235930055Y-71950093D01*
X235930048Y-71950093D01*
X235927599Y-71949900D01*
X235801201Y-71949900D01*
X235798752Y-71950093D01*
X235798745Y-71950093D01*
X235711816Y-71956935D01*
X235611997Y-71964791D01*
X235607190Y-71965945D01*
X235607184Y-71965946D01*
X235450432Y-72003579D01*
X235365809Y-72023895D01*
X235361238Y-72025788D01*
X235361236Y-72025789D01*
X235136472Y-72118889D01*
X235136468Y-72118891D01*
X235131898Y-72120784D01*
X234916024Y-72253072D01*
X234723502Y-72417502D01*
X234559072Y-72610024D01*
X234426784Y-72825898D01*
X234329895Y-73059809D01*
X234270791Y-73305997D01*
X234250926Y-73558400D01*
X200025000Y-73558400D01*
X200025000Y-69924139D01*
X200045002Y-69856018D01*
X200089809Y-69813995D01*
X201139539Y-69230812D01*
X201200558Y-69214956D01*
X211603194Y-69200745D01*
X211671342Y-69220654D01*
X211710509Y-69260441D01*
X211778522Y-69370348D01*
X211903697Y-69495305D01*
X211909927Y-69499145D01*
X211909928Y-69499146D01*
X212047090Y-69583694D01*
X212054262Y-69588115D01*
X212134005Y-69614564D01*
X212215611Y-69641632D01*
X212215613Y-69641632D01*
X212222139Y-69643797D01*
X212228975Y-69644497D01*
X212228978Y-69644498D01*
X212272031Y-69648909D01*
X212326600Y-69654500D01*
X213377400Y-69654500D01*
X213380646Y-69654163D01*
X213380650Y-69654163D01*
X213476308Y-69644238D01*
X213476312Y-69644237D01*
X213483166Y-69643526D01*
X213489702Y-69641345D01*
X213489704Y-69641345D01*
X213621806Y-69597272D01*
X213650946Y-69587550D01*
X213801348Y-69494478D01*
X213926305Y-69369303D01*
X213995398Y-69257214D01*
X214048170Y-69209721D01*
X214102486Y-69197330D01*
X222803495Y-69185443D01*
X238313990Y-69164254D01*
X238386116Y-69186820D01*
G37*
%TD.AperFunction*%
%TD*%
M02*
