%TF.GenerationSoftware,KiCad,Pcbnew,(6.0.10)*%
%TF.CreationDate,2023-05-29T22:30:11+03:00*%
%TF.ProjectId,flyback,666c7962-6163-46b2-9e6b-696361645f70,rev?*%
%TF.SameCoordinates,Original*%
%TF.FileFunction,Paste,Top*%
%TF.FilePolarity,Positive*%
%FSLAX46Y46*%
G04 Gerber Fmt 4.6, Leading zero omitted, Abs format (unit mm)*
G04 Created by KiCad (PCBNEW (6.0.10)) date 2023-05-29 22:30:11*
%MOMM*%
%LPD*%
G01*
G04 APERTURE LIST*
G04 Aperture macros list*
%AMRoundRect*
0 Rectangle with rounded corners*
0 $1 Rounding radius*
0 $2 $3 $4 $5 $6 $7 $8 $9 X,Y pos of 4 corners*
0 Add a 4 corners polygon primitive as box body*
4,1,4,$2,$3,$4,$5,$6,$7,$8,$9,$2,$3,0*
0 Add four circle primitives for the rounded corners*
1,1,$1+$1,$2,$3*
1,1,$1+$1,$4,$5*
1,1,$1+$1,$6,$7*
1,1,$1+$1,$8,$9*
0 Add four rect primitives between the rounded corners*
20,1,$1+$1,$2,$3,$4,$5,0*
20,1,$1+$1,$4,$5,$6,$7,0*
20,1,$1+$1,$6,$7,$8,$9,0*
20,1,$1+$1,$8,$9,$2,$3,0*%
G04 Aperture macros list end*
%ADD10RoundRect,0.250000X-2.450000X0.650000X-2.450000X-0.650000X2.450000X-0.650000X2.450000X0.650000X0*%
%ADD11RoundRect,0.250000X-0.325000X-0.650000X0.325000X-0.650000X0.325000X0.650000X-0.325000X0.650000X0*%
%ADD12RoundRect,0.250000X-0.250000X-0.475000X0.250000X-0.475000X0.250000X0.475000X-0.250000X0.475000X0*%
%ADD13RoundRect,0.250000X-0.650000X0.325000X-0.650000X-0.325000X0.650000X-0.325000X0.650000X0.325000X0*%
%ADD14RoundRect,0.250000X-0.450000X0.262500X-0.450000X-0.262500X0.450000X-0.262500X0.450000X0.262500X0*%
%ADD15RoundRect,0.250000X0.475000X-0.250000X0.475000X0.250000X-0.475000X0.250000X-0.475000X-0.250000X0*%
%ADD16RoundRect,0.250000X0.250000X0.475000X-0.250000X0.475000X-0.250000X-0.475000X0.250000X-0.475000X0*%
%ADD17RoundRect,0.250000X-0.475000X0.250000X-0.475000X-0.250000X0.475000X-0.250000X0.475000X0.250000X0*%
%ADD18RoundRect,0.250000X0.325000X0.650000X-0.325000X0.650000X-0.325000X-0.650000X0.325000X-0.650000X0*%
%ADD19RoundRect,0.250000X0.262500X0.450000X-0.262500X0.450000X-0.262500X-0.450000X0.262500X-0.450000X0*%
%ADD20RoundRect,0.150000X-0.825000X-0.150000X0.825000X-0.150000X0.825000X0.150000X-0.825000X0.150000X0*%
%ADD21RoundRect,0.250000X2.450000X-0.650000X2.450000X0.650000X-2.450000X0.650000X-2.450000X-0.650000X0*%
%ADD22RoundRect,0.250000X-1.425000X0.362500X-1.425000X-0.362500X1.425000X-0.362500X1.425000X0.362500X0*%
%ADD23R,0.900000X1.200000*%
%ADD24RoundRect,0.250000X0.450000X-0.262500X0.450000X0.262500X-0.450000X0.262500X-0.450000X-0.262500X0*%
%ADD25RoundRect,0.250000X-0.262500X-0.450000X0.262500X-0.450000X0.262500X0.450000X-0.262500X0.450000X0*%
%ADD26RoundRect,0.150000X-0.587500X-0.150000X0.587500X-0.150000X0.587500X0.150000X-0.587500X0.150000X0*%
%ADD27R,3.050000X2.750000*%
%ADD28R,2.200000X1.200000*%
G04 APERTURE END LIST*
D10*
%TO.C,C13*%
X220853000Y-65395000D03*
X220853000Y-70495000D03*
%TD*%
D11*
%TO.C,C12*%
X198042000Y-71120000D03*
X200992000Y-71120000D03*
%TD*%
D12*
%TO.C,C3*%
X110097250Y-95993000D03*
X111997250Y-95993000D03*
%TD*%
D13*
%TO.C,C8*%
X118795800Y-70584800D03*
X118795800Y-73534800D03*
%TD*%
D14*
%TO.C,R6*%
X131699000Y-89891500D03*
X131699000Y-91716500D03*
%TD*%
%TO.C,R4*%
X121691400Y-77421100D03*
X121691400Y-79246100D03*
%TD*%
D15*
%TO.C,C2*%
X106459000Y-90339000D03*
X106459000Y-88439000D03*
%TD*%
D14*
%TO.C,R5*%
X124129800Y-77421100D03*
X124129800Y-79246100D03*
%TD*%
D16*
%TO.C,C5*%
X119898200Y-90703400D03*
X117998200Y-90703400D03*
%TD*%
D17*
%TO.C,C4*%
X115773200Y-71643200D03*
X115773200Y-73543200D03*
%TD*%
D18*
%TO.C,C7*%
X120956600Y-88341200D03*
X118006600Y-88341200D03*
%TD*%
D17*
%TO.C,C19*%
X212852000Y-68646000D03*
X212852000Y-70546000D03*
%TD*%
%TO.C,C10*%
X119608600Y-77358200D03*
X119608600Y-79258200D03*
%TD*%
D19*
%TO.C,R16*%
X195120900Y-111912400D03*
X193295900Y-111912400D03*
%TD*%
D20*
%TO.C,U1*%
X110072400Y-89789000D03*
X110072400Y-91059000D03*
X110072400Y-92329000D03*
X110072400Y-93599000D03*
X115022400Y-93599000D03*
X115022400Y-92329000D03*
X115022400Y-91059000D03*
X115022400Y-89789000D03*
%TD*%
D19*
%TO.C,R10*%
X137859100Y-103124000D03*
X136034100Y-103124000D03*
%TD*%
D14*
%TO.C,R1*%
X101252000Y-88476500D03*
X101252000Y-90301500D03*
%TD*%
%TO.C,R19*%
X205867000Y-116435500D03*
X205867000Y-118260500D03*
%TD*%
D21*
%TO.C,C15*%
X211963000Y-80782000D03*
X211963000Y-75682000D03*
%TD*%
D19*
%TO.C,R13*%
X184603400Y-119253000D03*
X182778400Y-119253000D03*
%TD*%
D22*
%TO.C,R9*%
X138049000Y-112480500D03*
X138049000Y-118405500D03*
%TD*%
D23*
%TO.C,D3*%
X197587600Y-108991400D03*
X200887600Y-108991400D03*
%TD*%
D24*
%TO.C,R11*%
X160578800Y-114171100D03*
X160578800Y-112346100D03*
%TD*%
D25*
%TO.C,R20*%
X127576500Y-93979000D03*
X129401500Y-93979000D03*
%TD*%
D13*
%TO.C,C20*%
X207645000Y-67486000D03*
X207645000Y-70436000D03*
%TD*%
D25*
%TO.C,R15*%
X193295900Y-108991400D03*
X195120900Y-108991400D03*
%TD*%
D26*
%TO.C,U3*%
X193269000Y-116702800D03*
X193269000Y-118602800D03*
X195144000Y-117652800D03*
%TD*%
D12*
%TO.C,C14*%
X197805000Y-114477800D03*
X199705000Y-114477800D03*
%TD*%
D25*
%TO.C,R12*%
X193651500Y-71120000D03*
X195476500Y-71120000D03*
%TD*%
D22*
%TO.C,R8*%
X124587000Y-112480500D03*
X124587000Y-118405500D03*
%TD*%
D27*
%TO.C,Q1*%
X139665000Y-94741000D03*
X136315000Y-94741000D03*
X139665000Y-97791000D03*
X136315000Y-97791000D03*
D28*
X131690000Y-93986000D03*
X131690000Y-98546000D03*
%TD*%
D17*
%TO.C,C6*%
X122326400Y-71643200D03*
X122326400Y-73543200D03*
%TD*%
D25*
%TO.C,R17*%
X201906500Y-114477800D03*
X203731500Y-114477800D03*
%TD*%
D14*
%TO.C,R18*%
X205841600Y-112650900D03*
X205841600Y-114475900D03*
%TD*%
D21*
%TO.C,C17*%
X229870000Y-80782000D03*
X229870000Y-75682000D03*
%TD*%
D12*
%TO.C,C11*%
X132146000Y-103174800D03*
X134046000Y-103174800D03*
%TD*%
D25*
%TO.C,R3*%
X106451750Y-95993000D03*
X108276750Y-95993000D03*
%TD*%
D12*
%TO.C,C9*%
X104620000Y-92310000D03*
X106520000Y-92310000D03*
%TD*%
D10*
%TO.C,C16*%
X229870000Y-65268000D03*
X229870000Y-70368000D03*
%TD*%
D24*
%TO.C,R2*%
X103792000Y-90301500D03*
X103792000Y-88476500D03*
%TD*%
D22*
%TO.C,R7*%
X131876800Y-112480500D03*
X131876800Y-118405500D03*
%TD*%
D25*
%TO.C,R14*%
X193270500Y-114477800D03*
X195095500Y-114477800D03*
%TD*%
D21*
%TO.C,C18*%
X220853000Y-80782000D03*
X220853000Y-75682000D03*
%TD*%
D12*
%TO.C,C1*%
X106459000Y-99041000D03*
X108359000Y-99041000D03*
%TD*%
M02*
